G04 #@! TF.FileFunction,Copper,L2,Bot,Signal*
%FSLAX46Y46*%
G04 Gerber Fmt 4.6, Leading zero omitted, Abs format (unit mm)*
G04 Created by KiCad (PCBNEW (2015-08-08 BZR 6073)-product) date Wed 12 Aug 2015 11:12:04 CEST*
%MOMM*%
G01*
G04 APERTURE LIST*
%ADD10C,0.100000*%
%ADD11O,1.981200X3.962400*%
%ADD12R,2.032000X1.727200*%
%ADD13O,2.032000X1.727200*%
%ADD14O,1.501140X0.899160*%
%ADD15C,1.397000*%
%ADD16O,1.600000X1.600000*%
%ADD17R,2.500000X1.100000*%
%ADD18O,2.500000X1.100000*%
%ADD19R,1.727200X1.727200*%
%ADD20C,1.727200*%
%ADD21R,1.300000X1.300000*%
%ADD22C,1.300000*%
%ADD23C,2.500000*%
%ADD24C,3.000000*%
%ADD25C,0.600000*%
%ADD26C,0.250000*%
%ADD27C,2.000000*%
G04 APERTURE END LIST*
D10*
D11*
X36250000Y-122500000D03*
X31250000Y-122500000D03*
X47750000Y-122500000D03*
X42750000Y-122500000D03*
X59250000Y-122500000D03*
X54250000Y-122500000D03*
D12*
X66500000Y-40250000D03*
D13*
X66500000Y-42790000D03*
X66500000Y-45330000D03*
X66500000Y-47870000D03*
X66500000Y-50410000D03*
X66500000Y-52950000D03*
X66500000Y-55490000D03*
X66500000Y-58030000D03*
D12*
X66500000Y-62500000D03*
D13*
X66500000Y-65040000D03*
X66500000Y-67580000D03*
X66500000Y-70120000D03*
X66500000Y-72660000D03*
X66500000Y-75200000D03*
X66500000Y-77740000D03*
D12*
X66500000Y-106750000D03*
D13*
X66500000Y-104210000D03*
X66500000Y-101670000D03*
D12*
X66500000Y-111000000D03*
D13*
X66500000Y-113540000D03*
X66500000Y-116080000D03*
D12*
X66500000Y-97500000D03*
D13*
X66500000Y-94960000D03*
X66500000Y-92420000D03*
X66500000Y-89880000D03*
X66500000Y-87340000D03*
X66500000Y-84800000D03*
D14*
X33000000Y-89020000D03*
X33000000Y-90290000D03*
X33000000Y-87750000D03*
D15*
X23190000Y-58540000D03*
X23190000Y-53460000D03*
X30810000Y-58540000D03*
X30810000Y-53460000D03*
X30810000Y-43460000D03*
X30810000Y-48540000D03*
X23190000Y-43460000D03*
X23190000Y-48540000D03*
D16*
X49500000Y-89250000D03*
X49500000Y-86710000D03*
X41880000Y-86710000D03*
X41880000Y-89250000D03*
D17*
X38800000Y-40250000D03*
D18*
X38800000Y-42250000D03*
X38800000Y-44250000D03*
X38800000Y-46250000D03*
X38800000Y-48250000D03*
X38800000Y-50250000D03*
X38800000Y-52250000D03*
X38800000Y-54250000D03*
X54200000Y-54250000D03*
X54100000Y-52250000D03*
X54200000Y-50250000D03*
X54200000Y-48250000D03*
X54200000Y-46250000D03*
X54200000Y-44250000D03*
X54200000Y-42250000D03*
X54200000Y-40250000D03*
D19*
X58000000Y-58000000D03*
D20*
X58000000Y-55460000D03*
X58000000Y-52920000D03*
X58000000Y-50380000D03*
X58000000Y-47840000D03*
X58000000Y-45300000D03*
X58000000Y-42760000D03*
X58000000Y-40220000D03*
X58000000Y-37680000D03*
X58000000Y-35140000D03*
X58000000Y-32600000D03*
X35140000Y-32600000D03*
X35140000Y-35140000D03*
X35140000Y-37680000D03*
X35140000Y-40220000D03*
X35140000Y-42760000D03*
X35140000Y-45300000D03*
X35140000Y-47840000D03*
X35140000Y-50380000D03*
X35140000Y-52920000D03*
X35140000Y-55460000D03*
X35140000Y-58000000D03*
X43268000Y-60540000D03*
X45808000Y-60540000D03*
X48348000Y-60540000D03*
X50888000Y-60540000D03*
D15*
X30770000Y-40250000D03*
X28230000Y-40250000D03*
X25020000Y-40000000D03*
X22480000Y-40000000D03*
D21*
X51500000Y-73500000D03*
D22*
X53500000Y-73500000D03*
D21*
X54250000Y-89750000D03*
D22*
X56250000Y-89750000D03*
D23*
X57050000Y-110800000D03*
D24*
X57050000Y-98600000D03*
X45000000Y-98550000D03*
D23*
X45050000Y-110800000D03*
D24*
X51000000Y-112750000D03*
D23*
X39300000Y-110800000D03*
D24*
X39300000Y-98600000D03*
X27250000Y-98550000D03*
D23*
X27300000Y-110800000D03*
D24*
X33250000Y-112750000D03*
D25*
X31269200Y-66927800D03*
X23173600Y-75051100D03*
X68307500Y-82150900D03*
X53019200Y-69146800D03*
X31340400Y-68979800D03*
X22344900Y-80994800D03*
X36030900Y-66347000D03*
X24881400Y-78760100D03*
X37218900Y-67675000D03*
X36442700Y-69781700D03*
X42003300Y-51826600D03*
X62712200Y-66850100D03*
X62633000Y-60843100D03*
X59685900Y-64824700D03*
D26*
X22106800Y-47456800D02*
X23190000Y-48540000D01*
X22106800Y-40373200D02*
X22106800Y-47456800D01*
X22480000Y-40000000D02*
X22106800Y-40373200D01*
X66500000Y-114891000D02*
X66500000Y-116080000D01*
X65979900Y-114891000D02*
X66500000Y-114891000D01*
X64697600Y-113609000D02*
X65979900Y-114891000D01*
X64697600Y-106161000D02*
X64697600Y-113609000D01*
X65459700Y-105399000D02*
X64697600Y-106161000D01*
X66500000Y-105399000D02*
X65459700Y-105399000D01*
X66500000Y-104210000D02*
X66500000Y-105399000D01*
X53500000Y-86420000D02*
X53210000Y-86710000D01*
X53500000Y-73500000D02*
X53500000Y-86420000D01*
X53672600Y-73327400D02*
X53500000Y-73500000D01*
X23190000Y-53460000D02*
X23190000Y-48540000D01*
X56250000Y-89750000D02*
X53210000Y-86710000D01*
X53210000Y-86710000D02*
X49500000Y-86710000D01*
X66500000Y-88528900D02*
X66500000Y-87852300D01*
X67020100Y-88528900D02*
X66500000Y-88528900D01*
X68320700Y-89829500D02*
X67020100Y-88528900D01*
X68320700Y-101720000D02*
X68320700Y-89829500D01*
X67020100Y-103021000D02*
X68320700Y-101720000D01*
X66500000Y-103021000D02*
X67020100Y-103021000D01*
X66500000Y-104210000D02*
X66500000Y-103021000D01*
X66500000Y-87852300D02*
X66500000Y-87340000D01*
X66500000Y-77740000D02*
X65609200Y-77740000D01*
X65158600Y-78190600D02*
X65609200Y-77740000D01*
X65158600Y-86510900D02*
X65158600Y-78190600D01*
X66500000Y-87852300D02*
X65158600Y-86510900D01*
X53500000Y-62514500D02*
X53500000Y-54250000D01*
X59460800Y-68475300D02*
X53500000Y-62514500D01*
X59460800Y-71591600D02*
X59460800Y-68475300D01*
X65609200Y-77740000D02*
X59460800Y-71591600D01*
X67845200Y-91225200D02*
X66500000Y-89880000D01*
X67845200Y-99135900D02*
X67845200Y-91225200D01*
X66500000Y-100481000D02*
X67845200Y-99135900D01*
X66500000Y-101670000D02*
X66500000Y-100481000D01*
X66500000Y-107939000D02*
X66500000Y-106750000D01*
X65158600Y-109280000D02*
X66500000Y-107939000D01*
X65158600Y-112050000D02*
X65158600Y-109280000D01*
X65459700Y-112351000D02*
X65158600Y-112050000D01*
X66500000Y-112351000D02*
X65459700Y-112351000D01*
X66500000Y-113540000D02*
X66500000Y-112351000D01*
X39500000Y-44250000D02*
X40375300Y-44250000D01*
X56649000Y-33951000D02*
X58000000Y-32600000D01*
X56649000Y-39069400D02*
X56649000Y-33951000D01*
X56392900Y-39325500D02*
X56649000Y-39069400D01*
X45299800Y-39325500D02*
X56392900Y-39325500D01*
X40375300Y-44250000D02*
X45299800Y-39325500D01*
X40375300Y-54250000D02*
X40375300Y-44250000D01*
X39500000Y-54250000D02*
X40375300Y-54250000D01*
X31269200Y-60120800D02*
X31269200Y-66927800D01*
X34660000Y-56730000D02*
X31269200Y-60120800D01*
X37020000Y-56730000D02*
X34660000Y-56730000D01*
X39500000Y-54250000D02*
X37020000Y-56730000D01*
X23173600Y-75023400D02*
X23173600Y-75051100D01*
X31269200Y-66927800D02*
X23173600Y-75023400D01*
X68363700Y-59447400D02*
X66500000Y-61311100D01*
X68363700Y-42782500D02*
X68363700Y-59447400D01*
X67020100Y-41438900D02*
X68363700Y-42782500D01*
X66500000Y-41438900D02*
X67020100Y-41438900D01*
X66500000Y-40250000D02*
X66500000Y-41438900D01*
X66500000Y-62500000D02*
X66500000Y-61311100D01*
X66500000Y-62500000D02*
X66500000Y-63688900D01*
X68307500Y-64976300D02*
X68307500Y-82150900D01*
X67020100Y-63688900D02*
X68307500Y-64976300D01*
X66500000Y-63688900D02*
X67020100Y-63688900D01*
X48332500Y-73833500D02*
X53019200Y-69146800D01*
X48332500Y-87238500D02*
X48332500Y-73833500D01*
X49218700Y-88124700D02*
X48332500Y-87238500D01*
X49500000Y-88124700D02*
X49218700Y-88124700D01*
X49500000Y-89250000D02*
X49500000Y-88124700D01*
X25007000Y-108507000D02*
X27300000Y-110800000D01*
X25007000Y-95937100D02*
X25007000Y-108507000D01*
X31924100Y-89020000D02*
X25007000Y-95937100D01*
X33000000Y-89020000D02*
X31924100Y-89020000D01*
X35140000Y-65180200D02*
X31340400Y-68979800D01*
X35140000Y-58000000D02*
X35140000Y-65180200D01*
X22344900Y-80033000D02*
X22344900Y-80994800D01*
X36030900Y-66347000D02*
X22344900Y-80033000D01*
X37218900Y-69941600D02*
X37218900Y-67675000D01*
X28400400Y-78760100D02*
X37218900Y-69941600D01*
X24881400Y-78760100D02*
X28400400Y-78760100D01*
D27*
X59902700Y-101453000D02*
X57050000Y-98600000D01*
X59902700Y-118266000D02*
X59902700Y-101453000D01*
X59250000Y-118918000D02*
X59902700Y-118266000D01*
X59250000Y-122500000D02*
X59250000Y-118918000D01*
X42175000Y-101475000D02*
X39300000Y-98600000D01*
X42175000Y-112023000D02*
X42175000Y-101475000D01*
X51659100Y-121507000D02*
X42175000Y-112023000D01*
X51659100Y-122500000D02*
X51659100Y-121507000D01*
X54250000Y-122500000D02*
X51659100Y-122500000D01*
X36250000Y-115750000D02*
X36250000Y-122500000D01*
X33250000Y-112750000D02*
X36250000Y-115750000D01*
X36350400Y-107650000D02*
X27250000Y-98550000D01*
X36350400Y-111917000D02*
X36350400Y-107650000D01*
X42750000Y-118317000D02*
X36350400Y-111917000D01*
X42750000Y-122500000D02*
X42750000Y-118317000D01*
D26*
X66500000Y-67580000D02*
X66500000Y-66391100D01*
X58561800Y-43948900D02*
X59108000Y-43402700D01*
X56076400Y-43948900D02*
X58561800Y-43948900D01*
X55775300Y-44250000D02*
X56076400Y-43948900D01*
X53500000Y-44250000D02*
X55775300Y-44250000D01*
X59252300Y-38932300D02*
X58000000Y-37680000D01*
X59252300Y-43258400D02*
X59252300Y-38932300D01*
X59108000Y-43402700D02*
X59252300Y-43258400D01*
X65158700Y-49453400D02*
X59108000Y-43402700D01*
X65158700Y-50410000D02*
X65158700Y-49453400D01*
X65979900Y-66391100D02*
X66500000Y-66391100D01*
X65149000Y-65560200D02*
X65979900Y-66391100D01*
X65149000Y-61446500D02*
X65149000Y-65560200D01*
X67870100Y-58725400D02*
X65149000Y-61446500D01*
X67870100Y-52448900D02*
X67870100Y-58725400D01*
X67020100Y-51598900D02*
X67870100Y-52448900D01*
X66500000Y-51598900D02*
X67020100Y-51598900D01*
X66500000Y-50410000D02*
X65158700Y-50410000D01*
X66500000Y-50410000D02*
X66500000Y-51598900D01*
X65979900Y-68931100D02*
X66500000Y-68931100D01*
X64685600Y-67636800D02*
X65979900Y-68931100D01*
X64685600Y-55433200D02*
X64685600Y-67636800D01*
X65979900Y-54138900D02*
X64685600Y-55433200D01*
X66500000Y-54138900D02*
X65979900Y-54138900D01*
X66500000Y-52950000D02*
X66500000Y-54138900D01*
X66500000Y-70120000D02*
X66500000Y-68931100D01*
X36442700Y-67324500D02*
X36442700Y-69781700D01*
X42003300Y-61763900D02*
X36442700Y-67324500D01*
X42003300Y-51826600D02*
X42003300Y-61763900D01*
X37224700Y-53375300D02*
X35140000Y-55460000D01*
X37224700Y-52250000D02*
X37224700Y-53375300D01*
X39500000Y-52250000D02*
X37224700Y-52250000D01*
X66500000Y-75200000D02*
X66500000Y-74011100D01*
X62712300Y-66850100D02*
X62712200Y-66850100D01*
X62712300Y-70743500D02*
X62712300Y-66850100D01*
X65979900Y-74011100D02*
X62712300Y-70743500D01*
X66500000Y-74011100D02*
X65979900Y-74011100D01*
X62633000Y-66770900D02*
X62633000Y-60843100D01*
X62712200Y-66850100D02*
X62633000Y-66770900D01*
X59685900Y-50364500D02*
X59685900Y-64824700D01*
X58431400Y-49110000D02*
X59685900Y-50364500D01*
X57057800Y-49110000D02*
X58431400Y-49110000D01*
X54197800Y-46250000D02*
X57057800Y-49110000D01*
X53500000Y-46250000D02*
X54197800Y-46250000D01*
X66500000Y-111000000D02*
X66500000Y-109811100D01*
X59911100Y-65049900D02*
X59685900Y-64824700D01*
X59911100Y-70459900D02*
X59911100Y-65049900D01*
X65921200Y-76470000D02*
X59911100Y-70459900D01*
X67106900Y-76470000D02*
X65921200Y-76470000D01*
X67857200Y-77220300D02*
X67106900Y-76470000D01*
X67857200Y-80553100D02*
X67857200Y-77220300D01*
X67668600Y-80741700D02*
X67857200Y-80553100D01*
X67668600Y-83115100D02*
X67668600Y-80741700D01*
X68819000Y-84265500D02*
X67668600Y-83115100D01*
X68819000Y-107492100D02*
X68819000Y-84265500D01*
X66500000Y-109811100D02*
X68819000Y-107492100D01*
X45808700Y-60539300D02*
X45808000Y-60540000D01*
X46666100Y-60539300D02*
X45808700Y-60539300D01*
X46666100Y-60540800D02*
X46666100Y-60539300D01*
X50368200Y-64242900D02*
X46666100Y-60540800D01*
X50697000Y-64242900D02*
X50368200Y-64242900D01*
X57170900Y-70716800D02*
X50697000Y-64242900D01*
X57170900Y-84944800D02*
X57170900Y-70716800D01*
X65997200Y-93771100D02*
X57170900Y-84944800D01*
X66500000Y-93771100D02*
X65997200Y-93771100D01*
X66500000Y-94960000D02*
X66500000Y-93771100D01*
X52624700Y-40250000D02*
X53500000Y-40250000D01*
X46666100Y-46208600D02*
X52624700Y-40250000D01*
X46666100Y-60539300D02*
X46666100Y-46208600D01*
X66500000Y-91231100D02*
X66500000Y-92420000D01*
X65979900Y-91231100D02*
X66500000Y-91231100D01*
X58788800Y-84040000D02*
X65979900Y-91231100D01*
X58788800Y-70980800D02*
X58788800Y-84040000D01*
X48348000Y-60540000D02*
X58788800Y-70980800D01*
X52624700Y-42250000D02*
X53500000Y-42250000D01*
X48348000Y-46526700D02*
X52624700Y-42250000D01*
X48348000Y-60540000D02*
X48348000Y-46526700D01*
X37224700Y-40675300D02*
X35140000Y-42760000D01*
X37224700Y-40250000D02*
X37224700Y-40675300D01*
X39500000Y-40250000D02*
X37224700Y-40250000D01*
M02*
