M48
;DRILL file {KiCad (2015-08-08 BZR 6073)-product} date Wed 12 Aug 2015 16:27:38 CEST
;FORMAT={-:-/ absolute / metric / decimal}
FMAT,2
METRIC,TZ
T1C0.400
T2C0.600
T3C0.650
T4C0.800
T5C0.813
T6C1.000
T7C1.001
T8C1.016
T9C1.300
T10C1.321
T11C2.500
%
G90
G05
M71
T1
X23.493Y-80.551
X25.177Y-80.234
X29.441Y-56.085
X33.956Y-66.407
X34.84Y-70.5
X36.175Y-65.593
X36.234Y-64.741
X38.179Y-70.5
X39.403Y-67.498
X39.417Y-69.342
X44.603Y-59.183
X53.753Y-113.652
T2
X33.Y-84.25
X33.Y-85.52
X33.Y-86.79
T3
X39.5Y-40.25
X39.5Y-42.25
X39.5Y-44.25
X39.5Y-46.25
X39.5Y-48.25
X39.5Y-50.25
X39.5Y-52.25
X39.5Y-54.25
X53.5Y-40.25
X53.5Y-42.25
X53.5Y-44.25
X53.5Y-46.25
X53.5Y-48.25
X53.5Y-50.25
X53.5Y-52.25
X53.5Y-54.25
T4
X39.13Y-84.46
X39.13Y-87.
X46.75Y-84.46
X46.75Y-87.
X58.5Y-71.
X58.75Y-82.5
X60.5Y-71.
X60.75Y-82.5
T5
X22.48Y-40.
X23.19Y-43.46
X23.19Y-48.54
X23.19Y-53.46
X23.19Y-58.54
X25.02Y-40.
X28.23Y-40.25
X30.77Y-40.25
X30.81Y-43.46
X30.81Y-48.54
X30.81Y-53.46
X30.81Y-58.54
T6
X30.45Y-98.45
X42.45Y-98.45
X47.45Y-98.45
X59.45Y-98.45
T7
X27.75Y-63.999
X27.75Y-74.001
X31.Y-63.999
X31.Y-74.001
X36.249Y-74.5
X46.251Y-74.5
X51.Y-85.
X51.5Y-68.249
X51.5Y-78.251
X53.54Y-85.
X62.25Y-45.499
X62.25Y-55.501
T8
X35.14Y-32.6
X35.14Y-35.14
X35.14Y-37.68
X35.14Y-40.22
X35.14Y-42.76
X35.14Y-45.3
X35.14Y-47.84
X35.14Y-50.38
X35.14Y-52.92
X35.14Y-55.46
X35.14Y-58.
X43.268Y-60.54
X45.808Y-60.54
X48.348Y-60.54
X50.888Y-60.54
X58.Y-32.6
X58.Y-35.14
X58.Y-37.68
X58.Y-40.22
X58.Y-42.76
X58.Y-45.3
X58.Y-47.84
X58.Y-50.38
X58.Y-52.92
X58.Y-55.46
X58.Y-58.
X66.5Y-40.25
X66.5Y-42.79
X66.5Y-45.33
X66.5Y-47.87
X66.5Y-50.41
X66.5Y-52.95
X66.5Y-55.49
X66.5Y-58.03
X66.5Y-62.5
X66.5Y-65.04
X66.5Y-67.58
X66.5Y-70.12
X66.5Y-72.66
X66.5Y-75.2
X66.5Y-77.74
X66.5Y-84.8
X66.5Y-87.34
X66.5Y-89.88
X66.5Y-92.42
X66.5Y-94.96
X66.5Y-97.5
X66.5Y-101.67
X66.5Y-104.21
X66.5Y-106.75
X66.5Y-111.
X66.5Y-113.54
X66.5Y-116.08
T9
X30.45Y-110.65
X36.5Y-96.5
X42.5Y-110.7
X47.45Y-110.65
X53.5Y-96.5
X59.5Y-110.7
T10
X30.75Y-122.
X35.75Y-122.
X42.5Y-122.
X47.5Y-122.
X54.25Y-122.
X59.25Y-122.
T11
X23.5Y-126.5
X23.75Y-33.5
X66.25Y-126.25
X66.5Y-33.25
T0
M30
