G04 #@! TF.FileFunction,Soldermask,Bot*
%FSLAX46Y46*%
G04 Gerber Fmt 4.6, Leading zero omitted, Abs format (unit mm)*
G04 Created by KiCad (PCBNEW (2015-08-08 BZR 6073)-product) date Wed 12 Aug 2015 16:27:57 CEST*
%MOMM*%
G01*
G04 APERTURE LIST*
%ADD10C,0.100000*%
%ADD11R,2.432000X2.127200*%
%ADD12O,2.432000X2.127200*%
%ADD13O,1.901140X1.299160*%
%ADD14C,1.797000*%
%ADD15O,2.000000X2.000000*%
%ADD16R,2.900000X1.500000*%
%ADD17O,2.900000X1.500000*%
%ADD18R,2.127200X2.127200*%
%ADD19C,2.127200*%
%ADD20R,1.700000X1.700000*%
%ADD21C,1.700000*%
%ADD22C,2.900000*%
%ADD23C,3.400000*%
%ADD24R,2.398980X2.398980*%
%ADD25R,2.400000X2.400000*%
%ADD26C,2.400000*%
G04 APERTURE END LIST*
D10*
D11*
X66500000Y-40250000D03*
D12*
X66500000Y-42790000D03*
X66500000Y-45330000D03*
X66500000Y-47870000D03*
X66500000Y-50410000D03*
X66500000Y-52950000D03*
X66500000Y-55490000D03*
X66500000Y-58030000D03*
D11*
X66500000Y-62500000D03*
D12*
X66500000Y-65040000D03*
X66500000Y-67580000D03*
X66500000Y-70120000D03*
X66500000Y-72660000D03*
X66500000Y-75200000D03*
X66500000Y-77740000D03*
D11*
X66500000Y-106750000D03*
D12*
X66500000Y-104210000D03*
X66500000Y-101670000D03*
D11*
X66500000Y-111000000D03*
D12*
X66500000Y-113540000D03*
X66500000Y-116080000D03*
D11*
X66500000Y-97500000D03*
D12*
X66500000Y-94960000D03*
X66500000Y-92420000D03*
X66500000Y-89880000D03*
X66500000Y-87340000D03*
X66500000Y-84800000D03*
D13*
X33000000Y-85520000D03*
X33000000Y-86790000D03*
X33000000Y-84250000D03*
D14*
X23190000Y-58540000D03*
X23190000Y-53460000D03*
X30810000Y-58540000D03*
X30810000Y-53460000D03*
X30810000Y-43460000D03*
X30810000Y-48540000D03*
X23190000Y-43460000D03*
X23190000Y-48540000D03*
D15*
X46750000Y-87000000D03*
X46750000Y-84460000D03*
X39130000Y-84460000D03*
X39130000Y-87000000D03*
D16*
X38800000Y-40250000D03*
D17*
X38800000Y-42250000D03*
X38800000Y-44250000D03*
X38800000Y-46250000D03*
X38800000Y-48250000D03*
X38800000Y-50250000D03*
X38800000Y-52250000D03*
X38800000Y-54250000D03*
X54200000Y-54250000D03*
X54100000Y-52250000D03*
X54200000Y-50250000D03*
X54200000Y-48250000D03*
X54200000Y-46250000D03*
X54200000Y-44250000D03*
X54200000Y-42250000D03*
X54200000Y-40250000D03*
D18*
X58000000Y-58000000D03*
D19*
X58000000Y-55460000D03*
X58000000Y-52920000D03*
X58000000Y-50380000D03*
X58000000Y-47840000D03*
X58000000Y-45300000D03*
X58000000Y-42760000D03*
X58000000Y-40220000D03*
X58000000Y-37680000D03*
X58000000Y-35140000D03*
X58000000Y-32600000D03*
X35140000Y-32600000D03*
X35140000Y-35140000D03*
X35140000Y-37680000D03*
X35140000Y-40220000D03*
X35140000Y-42760000D03*
X35140000Y-45300000D03*
X35140000Y-47840000D03*
X35140000Y-50380000D03*
X35140000Y-52920000D03*
X35140000Y-55460000D03*
X35140000Y-58000000D03*
X43268000Y-60540000D03*
X45808000Y-60540000D03*
X48348000Y-60540000D03*
X50888000Y-60540000D03*
D14*
X30770000Y-40250000D03*
X28230000Y-40250000D03*
X25020000Y-40000000D03*
X22480000Y-40000000D03*
D20*
X58750000Y-82500000D03*
D21*
X60750000Y-82500000D03*
D20*
X60500000Y-71000000D03*
D21*
X58500000Y-71000000D03*
D22*
X30450000Y-98450000D03*
D23*
X30450000Y-110650000D03*
X42500000Y-110700000D03*
D22*
X42450000Y-98450000D03*
D23*
X36500000Y-96500000D03*
D22*
X47450000Y-98450000D03*
D23*
X47450000Y-110650000D03*
X59500000Y-110700000D03*
D22*
X59450000Y-98450000D03*
D23*
X53500000Y-96500000D03*
D24*
X31000000Y-63998740D03*
X31000000Y-74001260D03*
X36248740Y-74500000D03*
X46251260Y-74500000D03*
D25*
X51000000Y-85000000D03*
D26*
X53540000Y-85000000D03*
D24*
X51500000Y-68248740D03*
X51500000Y-78251260D03*
X27750000Y-63998740D03*
X27750000Y-74001260D03*
X62250000Y-45498740D03*
X62250000Y-55501260D03*
M02*
