G04 #@! TF.FileFunction,Legend,Top*
%FSLAX46Y46*%
G04 Gerber Fmt 4.6, Leading zero omitted, Abs format (unit mm)*
G04 Created by KiCad (PCBNEW (2015-08-08 BZR 6073)-product) date Wed 12 Aug 2015 11:12:04 CEST*
%MOMM*%
G01*
G04 APERTURE LIST*
%ADD10C,0.100000*%
%ADD11C,0.300000*%
%ADD12C,0.150000*%
%ADD13C,0.152400*%
%ADD14C,0.203200*%
G04 APERTURE END LIST*
D10*
D11*
X30357143Y-92678571D02*
X30357143Y-93892857D01*
X30285714Y-94035714D01*
X30214286Y-94107143D01*
X30071429Y-94178571D01*
X29857143Y-94178571D01*
X29714286Y-94107143D01*
X30357143Y-93607143D02*
X30214286Y-93678571D01*
X29928572Y-93678571D01*
X29785714Y-93607143D01*
X29714286Y-93535714D01*
X29642857Y-93392857D01*
X29642857Y-92964286D01*
X29714286Y-92821429D01*
X29785714Y-92750000D01*
X29928572Y-92678571D01*
X30214286Y-92678571D01*
X30357143Y-92750000D01*
X31285715Y-93678571D02*
X31142857Y-93607143D01*
X31071429Y-93535714D01*
X31000000Y-93392857D01*
X31000000Y-92964286D01*
X31071429Y-92821429D01*
X31142857Y-92750000D01*
X31285715Y-92678571D01*
X31500000Y-92678571D01*
X31642857Y-92750000D01*
X31714286Y-92821429D01*
X31785715Y-92964286D01*
X31785715Y-93392857D01*
X31714286Y-93535714D01*
X31642857Y-93607143D01*
X31500000Y-93678571D01*
X31285715Y-93678571D01*
X32642858Y-93678571D02*
X32500000Y-93607143D01*
X32428572Y-93464286D01*
X32428572Y-92178571D01*
X33428572Y-93678571D02*
X33285714Y-93607143D01*
X33214286Y-93535714D01*
X33142857Y-93392857D01*
X33142857Y-92964286D01*
X33214286Y-92821429D01*
X33285714Y-92750000D01*
X33428572Y-92678571D01*
X33642857Y-92678571D01*
X33785714Y-92750000D01*
X33857143Y-92821429D01*
X33928572Y-92964286D01*
X33928572Y-93392857D01*
X33857143Y-93535714D01*
X33785714Y-93607143D01*
X33642857Y-93678571D01*
X33428572Y-93678571D01*
X34571429Y-93678571D02*
X34571429Y-92178571D01*
X34571429Y-92750000D02*
X34714286Y-92678571D01*
X35000000Y-92678571D01*
X35142857Y-92750000D01*
X35214286Y-92821429D01*
X35285715Y-92964286D01*
X35285715Y-93392857D01*
X35214286Y-93535714D01*
X35142857Y-93607143D01*
X35000000Y-93678571D01*
X34714286Y-93678571D01*
X34571429Y-93607143D01*
X35928572Y-93535714D02*
X36000000Y-93607143D01*
X35928572Y-93678571D01*
X35857143Y-93607143D01*
X35928572Y-93535714D01*
X35928572Y-93678571D01*
X37285715Y-92678571D02*
X37285715Y-93678571D01*
X36642858Y-92678571D02*
X36642858Y-93464286D01*
X36714286Y-93607143D01*
X36857144Y-93678571D01*
X37071429Y-93678571D01*
X37214286Y-93607143D01*
X37285715Y-93535714D01*
X38000001Y-93678571D02*
X38000001Y-92678571D01*
X38000001Y-92964286D02*
X38071429Y-92821429D01*
X38142858Y-92750000D01*
X38285715Y-92678571D01*
X38428572Y-92678571D01*
X39142858Y-93678571D02*
X39000000Y-93607143D01*
X38928572Y-93535714D01*
X38857143Y-93392857D01*
X38857143Y-92964286D01*
X38928572Y-92821429D01*
X39000000Y-92750000D01*
X39142858Y-92678571D01*
X39357143Y-92678571D01*
X39500000Y-92750000D01*
X39571429Y-92821429D01*
X39642858Y-92964286D01*
X39642858Y-93392857D01*
X39571429Y-93535714D01*
X39500000Y-93607143D01*
X39357143Y-93678571D01*
X39142858Y-93678571D01*
X40214286Y-93607143D02*
X40357143Y-93678571D01*
X40642858Y-93678571D01*
X40785715Y-93607143D01*
X40857143Y-93464286D01*
X40857143Y-93392857D01*
X40785715Y-93250000D01*
X40642858Y-93178571D01*
X40428572Y-93178571D01*
X40285715Y-93107143D01*
X40214286Y-92964286D01*
X40214286Y-92892857D01*
X40285715Y-92750000D01*
X40428572Y-92678571D01*
X40642858Y-92678571D01*
X40785715Y-92750000D01*
X42428572Y-92964286D02*
X42357144Y-92892857D01*
X42214287Y-92821429D01*
X42071429Y-92821429D01*
X41928572Y-92892857D01*
X41857144Y-92964286D01*
X41785715Y-93107143D01*
X41785715Y-93250000D01*
X41857144Y-93392857D01*
X41928572Y-93464286D01*
X42071429Y-93535714D01*
X42214287Y-93535714D01*
X42357144Y-93464286D01*
X42428572Y-93392857D01*
X42428572Y-92821429D02*
X42428572Y-93392857D01*
X42500001Y-93464286D01*
X42571429Y-93464286D01*
X42714287Y-93392857D01*
X42785715Y-93250000D01*
X42785715Y-92892857D01*
X42642858Y-92678571D01*
X42428572Y-92535714D01*
X42142858Y-92464286D01*
X41857144Y-92535714D01*
X41642858Y-92678571D01*
X41500001Y-92892857D01*
X41428572Y-93178571D01*
X41500001Y-93464286D01*
X41642858Y-93678571D01*
X41857144Y-93821429D01*
X42142858Y-93892857D01*
X42428572Y-93821429D01*
X42642858Y-93678571D01*
X44071429Y-92678571D02*
X44071429Y-93892857D01*
X44000000Y-94035714D01*
X43928572Y-94107143D01*
X43785715Y-94178571D01*
X43571429Y-94178571D01*
X43428572Y-94107143D01*
X44071429Y-93607143D02*
X43928572Y-93678571D01*
X43642858Y-93678571D01*
X43500000Y-93607143D01*
X43428572Y-93535714D01*
X43357143Y-93392857D01*
X43357143Y-92964286D01*
X43428572Y-92821429D01*
X43500000Y-92750000D01*
X43642858Y-92678571D01*
X43928572Y-92678571D01*
X44071429Y-92750000D01*
X44785715Y-93678571D02*
X44785715Y-92678571D01*
X44785715Y-92821429D02*
X44857143Y-92750000D01*
X45000001Y-92678571D01*
X45214286Y-92678571D01*
X45357143Y-92750000D01*
X45428572Y-92892857D01*
X45428572Y-93678571D01*
X45428572Y-92892857D02*
X45500001Y-92750000D01*
X45642858Y-92678571D01*
X45857143Y-92678571D01*
X46000001Y-92750000D01*
X46071429Y-92892857D01*
X46071429Y-93678571D01*
X47428572Y-93678571D02*
X47428572Y-92892857D01*
X47357143Y-92750000D01*
X47214286Y-92678571D01*
X46928572Y-92678571D01*
X46785715Y-92750000D01*
X47428572Y-93607143D02*
X47285715Y-93678571D01*
X46928572Y-93678571D01*
X46785715Y-93607143D01*
X46714286Y-93464286D01*
X46714286Y-93321429D01*
X46785715Y-93178571D01*
X46928572Y-93107143D01*
X47285715Y-93107143D01*
X47428572Y-93035714D01*
X48142858Y-93678571D02*
X48142858Y-92678571D01*
X48142858Y-92178571D02*
X48071429Y-92250000D01*
X48142858Y-92321429D01*
X48214286Y-92250000D01*
X48142858Y-92178571D01*
X48142858Y-92321429D01*
X49071430Y-93678571D02*
X48928572Y-93607143D01*
X48857144Y-93464286D01*
X48857144Y-92178571D01*
X49642858Y-93535714D02*
X49714286Y-93607143D01*
X49642858Y-93678571D01*
X49571429Y-93607143D01*
X49642858Y-93535714D01*
X49642858Y-93678571D01*
X51000001Y-93607143D02*
X50857144Y-93678571D01*
X50571430Y-93678571D01*
X50428572Y-93607143D01*
X50357144Y-93535714D01*
X50285715Y-93392857D01*
X50285715Y-92964286D01*
X50357144Y-92821429D01*
X50428572Y-92750000D01*
X50571430Y-92678571D01*
X50857144Y-92678571D01*
X51000001Y-92750000D01*
X51857144Y-93678571D02*
X51714286Y-93607143D01*
X51642858Y-93535714D01*
X51571429Y-93392857D01*
X51571429Y-92964286D01*
X51642858Y-92821429D01*
X51714286Y-92750000D01*
X51857144Y-92678571D01*
X52071429Y-92678571D01*
X52214286Y-92750000D01*
X52285715Y-92821429D01*
X52357144Y-92964286D01*
X52357144Y-93392857D01*
X52285715Y-93535714D01*
X52214286Y-93607143D01*
X52071429Y-93678571D01*
X51857144Y-93678571D01*
X53000001Y-93678571D02*
X53000001Y-92678571D01*
X53000001Y-92821429D02*
X53071429Y-92750000D01*
X53214287Y-92678571D01*
X53428572Y-92678571D01*
X53571429Y-92750000D01*
X53642858Y-92892857D01*
X53642858Y-93678571D01*
X53642858Y-92892857D02*
X53714287Y-92750000D01*
X53857144Y-92678571D01*
X54071429Y-92678571D01*
X54214287Y-92750000D01*
X54285715Y-92892857D01*
X54285715Y-93678571D01*
D12*
X27350000Y-68500000D02*
X27350000Y-67500000D01*
X25650000Y-67500000D02*
X25650000Y-68500000D01*
X30250000Y-62150000D02*
X29250000Y-62150000D01*
X29250000Y-63850000D02*
X30250000Y-63850000D01*
X60550000Y-91100000D02*
X60550000Y-89200000D01*
X59450000Y-91100000D02*
X59450000Y-89200000D01*
X60000000Y-90200000D02*
X60000000Y-89750000D01*
X59750000Y-90250000D02*
X60250000Y-90250000D01*
X60000000Y-90250000D02*
X59750000Y-90000000D01*
X59750000Y-90000000D02*
X60250000Y-90000000D01*
X60250000Y-90000000D02*
X60000000Y-90250000D01*
X61000000Y-105182500D02*
X61000000Y-104801500D01*
X61000000Y-106198500D02*
X61000000Y-105817500D01*
X61000000Y-105817500D02*
X60619000Y-105182500D01*
X60619000Y-105182500D02*
X61381000Y-105182500D01*
X61381000Y-105182500D02*
X61000000Y-105817500D01*
X60492000Y-105817500D02*
X61508000Y-105817500D01*
X61900000Y-107500000D02*
X61900000Y-103960000D01*
X60100000Y-107500000D02*
X60100000Y-103960000D01*
X21350000Y-61250000D02*
X25150000Y-61250000D01*
X25150000Y-61250000D02*
X25150000Y-73250000D01*
X25150000Y-73250000D02*
X21250000Y-73250000D01*
X21250000Y-73250000D02*
X21250000Y-61150000D01*
X21250000Y-61150000D02*
X21150000Y-61350000D01*
X37509600Y-119960000D02*
X34969600Y-119960000D01*
X34969600Y-119960000D02*
X34969600Y-122754000D01*
X37509600Y-122754000D02*
X34969600Y-122754000D01*
X37509600Y-119960000D02*
X37509600Y-122754000D01*
X32505800Y-119960000D02*
X29965800Y-119960000D01*
X29965800Y-119960000D02*
X29965800Y-122754000D01*
X32505800Y-122754000D02*
X29965800Y-122754000D01*
X32505800Y-119960000D02*
X32505800Y-122754000D01*
X28645000Y-128723000D02*
X28645000Y-125675000D01*
X28645000Y-128723000D02*
X38830000Y-128723000D01*
X28645000Y-128723000D02*
X28137000Y-128723000D01*
X28137000Y-128723000D02*
X28137000Y-123897000D01*
X28137000Y-123897000D02*
X28645000Y-124151000D01*
X28137000Y-117039000D02*
X28645000Y-117293000D01*
X28645000Y-117293000D02*
X28645000Y-116277000D01*
X28137000Y-118690000D02*
X28645000Y-118436000D01*
X28645000Y-118436000D02*
X28645000Y-117293000D01*
X28137000Y-118690000D02*
X28137000Y-117039000D01*
X33267800Y-116277000D02*
X33267800Y-118182000D01*
X29203800Y-122754000D02*
X29203800Y-118182000D01*
X33267800Y-116277000D02*
X29203800Y-116277000D01*
X29203800Y-116277000D02*
X28645000Y-116277000D01*
X34207600Y-116277000D02*
X34207600Y-118182000D01*
X34207600Y-116277000D02*
X33267800Y-116277000D01*
X38271600Y-122754000D02*
X38271600Y-118182000D01*
X38830000Y-116277000D02*
X38271600Y-116277000D01*
X38271600Y-116277000D02*
X34207600Y-116277000D01*
X33267800Y-118182000D02*
X29203800Y-118182000D01*
X33267800Y-118182000D02*
X33267800Y-122754000D01*
X29203800Y-118182000D02*
X29203800Y-116277000D01*
X34207600Y-118182000D02*
X38271600Y-118182000D01*
X34207600Y-118182000D02*
X34207600Y-122754000D01*
X38271600Y-118182000D02*
X38271600Y-116277000D01*
X29584800Y-118817000D02*
X29584800Y-121992000D01*
X29584800Y-118817000D02*
X32886800Y-118817000D01*
X32886800Y-118817000D02*
X32886800Y-121992000D01*
X34588600Y-118817000D02*
X34588600Y-121992000D01*
X34588600Y-118817000D02*
X37890600Y-118817000D01*
X37890600Y-118817000D02*
X37890600Y-121992000D01*
X37890600Y-121992000D02*
X37509600Y-121992000D01*
X34588600Y-121992000D02*
X34969600Y-121992000D01*
X32886800Y-121992000D02*
X32505800Y-121992000D01*
X29584800Y-121992000D02*
X29965800Y-121992000D01*
X38830000Y-116277000D02*
X38830000Y-123135000D01*
X38830000Y-123135000D02*
X38830000Y-125675000D01*
X28645000Y-124151000D02*
X28645000Y-123135000D01*
X28645000Y-123135000D02*
X28645000Y-118436000D01*
X38830000Y-125675000D02*
X28645000Y-125675000D01*
X38830000Y-125675000D02*
X38830000Y-128723000D01*
X28645000Y-125675000D02*
X28645000Y-124151000D01*
X33267800Y-125929000D02*
X33267800Y-128469000D01*
X33267800Y-128469000D02*
X29203800Y-128469000D01*
X29203800Y-128469000D02*
X29203800Y-125929000D01*
X29203800Y-125929000D02*
X33267800Y-125929000D01*
X34207600Y-125929000D02*
X34207600Y-128469000D01*
X34207600Y-125929000D02*
X38271600Y-125929000D01*
X38271600Y-125929000D02*
X38271600Y-128469000D01*
X34207600Y-128469000D02*
X38271600Y-128469000D01*
X32861400Y-126945000D02*
X29813400Y-127580000D01*
X32734400Y-126818000D02*
X29686400Y-127453000D01*
X37865200Y-126945000D02*
X34814660Y-127580000D01*
X37738200Y-126818000D02*
X34690200Y-127453000D01*
X38271600Y-122754000D02*
X37890600Y-122754000D01*
X34207600Y-122754000D02*
X34588600Y-122754000D01*
X34588600Y-122754000D02*
X37890600Y-122754000D01*
X38830000Y-123135000D02*
X37890600Y-123135000D01*
X37890600Y-123135000D02*
X34588600Y-123135000D01*
X34588600Y-123135000D02*
X32886800Y-123135000D01*
X28645000Y-123135000D02*
X29584800Y-123135000D01*
X29584800Y-123135000D02*
X32886800Y-123135000D01*
X29203800Y-122754000D02*
X29584800Y-122754000D01*
X33267800Y-122754000D02*
X32886800Y-122754000D01*
X32886800Y-122754000D02*
X29584800Y-122754000D01*
X29767028Y-126585430D02*
G75*
G03X29714340Y-127552060I452772J-509430D01*
G01*
X32709728Y-126665104D02*
G75*
G03X29721960Y-126617340I-1524728J-1905496D01*
G01*
X29710589Y-127556844D02*
G75*
G03X32861400Y-127503800I1553151J1348444D01*
G01*
X32810097Y-127553481D02*
G75*
G03X32668360Y-126627500I-431297J407821D01*
G01*
X34770851Y-126582890D02*
G75*
G03X34715600Y-127552060I452749J-511970D01*
G01*
X37710988Y-126665104D02*
G75*
G03X34723220Y-126617340I-1524728J-1905496D01*
G01*
X34708427Y-127561847D02*
G75*
G03X37865200Y-127503800I1554033J1353447D01*
G01*
X37814520Y-127551019D02*
G75*
G03X37669620Y-126627500I-431920J405359D01*
G01*
X49009600Y-119960000D02*
X46469600Y-119960000D01*
X46469600Y-119960000D02*
X46469600Y-122754000D01*
X49009600Y-122754000D02*
X46469600Y-122754000D01*
X49009600Y-119960000D02*
X49009600Y-122754000D01*
X44005800Y-119960000D02*
X41465800Y-119960000D01*
X41465800Y-119960000D02*
X41465800Y-122754000D01*
X44005800Y-122754000D02*
X41465800Y-122754000D01*
X44005800Y-119960000D02*
X44005800Y-122754000D01*
X40145000Y-128723000D02*
X40145000Y-125675000D01*
X40145000Y-128723000D02*
X50330000Y-128723000D01*
X40145000Y-128723000D02*
X39637000Y-128723000D01*
X39637000Y-128723000D02*
X39637000Y-123897000D01*
X39637000Y-123897000D02*
X40145000Y-124151000D01*
X39637000Y-117039000D02*
X40145000Y-117293000D01*
X40145000Y-117293000D02*
X40145000Y-116277000D01*
X39637000Y-118690000D02*
X40145000Y-118436000D01*
X40145000Y-118436000D02*
X40145000Y-117293000D01*
X39637000Y-118690000D02*
X39637000Y-117039000D01*
X44767800Y-116277000D02*
X44767800Y-118182000D01*
X40703800Y-122754000D02*
X40703800Y-118182000D01*
X44767800Y-116277000D02*
X40703800Y-116277000D01*
X40703800Y-116277000D02*
X40145000Y-116277000D01*
X45707600Y-116277000D02*
X45707600Y-118182000D01*
X45707600Y-116277000D02*
X44767800Y-116277000D01*
X49771600Y-122754000D02*
X49771600Y-118182000D01*
X50330000Y-116277000D02*
X49771600Y-116277000D01*
X49771600Y-116277000D02*
X45707600Y-116277000D01*
X44767800Y-118182000D02*
X40703800Y-118182000D01*
X44767800Y-118182000D02*
X44767800Y-122754000D01*
X40703800Y-118182000D02*
X40703800Y-116277000D01*
X45707600Y-118182000D02*
X49771600Y-118182000D01*
X45707600Y-118182000D02*
X45707600Y-122754000D01*
X49771600Y-118182000D02*
X49771600Y-116277000D01*
X41084800Y-118817000D02*
X41084800Y-121992000D01*
X41084800Y-118817000D02*
X44386800Y-118817000D01*
X44386800Y-118817000D02*
X44386800Y-121992000D01*
X46088600Y-118817000D02*
X46088600Y-121992000D01*
X46088600Y-118817000D02*
X49390600Y-118817000D01*
X49390600Y-118817000D02*
X49390600Y-121992000D01*
X49390600Y-121992000D02*
X49009600Y-121992000D01*
X46088600Y-121992000D02*
X46469600Y-121992000D01*
X44386800Y-121992000D02*
X44005800Y-121992000D01*
X41084800Y-121992000D02*
X41465800Y-121992000D01*
X50330000Y-116277000D02*
X50330000Y-123135000D01*
X50330000Y-123135000D02*
X50330000Y-125675000D01*
X40145000Y-124151000D02*
X40145000Y-123135000D01*
X40145000Y-123135000D02*
X40145000Y-118436000D01*
X50330000Y-125675000D02*
X40145000Y-125675000D01*
X50330000Y-125675000D02*
X50330000Y-128723000D01*
X40145000Y-125675000D02*
X40145000Y-124151000D01*
X44767800Y-125929000D02*
X44767800Y-128469000D01*
X44767800Y-128469000D02*
X40703800Y-128469000D01*
X40703800Y-128469000D02*
X40703800Y-125929000D01*
X40703800Y-125929000D02*
X44767800Y-125929000D01*
X45707600Y-125929000D02*
X45707600Y-128469000D01*
X45707600Y-125929000D02*
X49771600Y-125929000D01*
X49771600Y-125929000D02*
X49771600Y-128469000D01*
X45707600Y-128469000D02*
X49771600Y-128469000D01*
X44361400Y-126945000D02*
X41313400Y-127580000D01*
X44234400Y-126818000D02*
X41186400Y-127453000D01*
X49365200Y-126945000D02*
X46314660Y-127580000D01*
X49238200Y-126818000D02*
X46190200Y-127453000D01*
X49771600Y-122754000D02*
X49390600Y-122754000D01*
X45707600Y-122754000D02*
X46088600Y-122754000D01*
X46088600Y-122754000D02*
X49390600Y-122754000D01*
X50330000Y-123135000D02*
X49390600Y-123135000D01*
X49390600Y-123135000D02*
X46088600Y-123135000D01*
X46088600Y-123135000D02*
X44386800Y-123135000D01*
X40145000Y-123135000D02*
X41084800Y-123135000D01*
X41084800Y-123135000D02*
X44386800Y-123135000D01*
X40703800Y-122754000D02*
X41084800Y-122754000D01*
X44767800Y-122754000D02*
X44386800Y-122754000D01*
X44386800Y-122754000D02*
X41084800Y-122754000D01*
X41267028Y-126585430D02*
G75*
G03X41214340Y-127552060I452772J-509430D01*
G01*
X44209728Y-126665104D02*
G75*
G03X41221960Y-126617340I-1524728J-1905496D01*
G01*
X41210589Y-127556844D02*
G75*
G03X44361400Y-127503800I1553151J1348444D01*
G01*
X44310097Y-127553481D02*
G75*
G03X44168360Y-126627500I-431297J407821D01*
G01*
X46270851Y-126582890D02*
G75*
G03X46215600Y-127552060I452749J-511970D01*
G01*
X49210988Y-126665104D02*
G75*
G03X46223220Y-126617340I-1524728J-1905496D01*
G01*
X46208427Y-127561847D02*
G75*
G03X49365200Y-127503800I1554033J1353447D01*
G01*
X49314520Y-127551019D02*
G75*
G03X49169620Y-126627500I-431920J405359D01*
G01*
X60509600Y-119960000D02*
X57969600Y-119960000D01*
X57969600Y-119960000D02*
X57969600Y-122754000D01*
X60509600Y-122754000D02*
X57969600Y-122754000D01*
X60509600Y-119960000D02*
X60509600Y-122754000D01*
X55505800Y-119960000D02*
X52965800Y-119960000D01*
X52965800Y-119960000D02*
X52965800Y-122754000D01*
X55505800Y-122754000D02*
X52965800Y-122754000D01*
X55505800Y-119960000D02*
X55505800Y-122754000D01*
X51645000Y-128723000D02*
X51645000Y-125675000D01*
X51645000Y-128723000D02*
X61830000Y-128723000D01*
X51645000Y-128723000D02*
X51137000Y-128723000D01*
X51137000Y-128723000D02*
X51137000Y-123897000D01*
X51137000Y-123897000D02*
X51645000Y-124151000D01*
X51137000Y-117039000D02*
X51645000Y-117293000D01*
X51645000Y-117293000D02*
X51645000Y-116277000D01*
X51137000Y-118690000D02*
X51645000Y-118436000D01*
X51645000Y-118436000D02*
X51645000Y-117293000D01*
X51137000Y-118690000D02*
X51137000Y-117039000D01*
X56267800Y-116277000D02*
X56267800Y-118182000D01*
X52203800Y-122754000D02*
X52203800Y-118182000D01*
X56267800Y-116277000D02*
X52203800Y-116277000D01*
X52203800Y-116277000D02*
X51645000Y-116277000D01*
X57207600Y-116277000D02*
X57207600Y-118182000D01*
X57207600Y-116277000D02*
X56267800Y-116277000D01*
X61271600Y-122754000D02*
X61271600Y-118182000D01*
X61830000Y-116277000D02*
X61271600Y-116277000D01*
X61271600Y-116277000D02*
X57207600Y-116277000D01*
X56267800Y-118182000D02*
X52203800Y-118182000D01*
X56267800Y-118182000D02*
X56267800Y-122754000D01*
X52203800Y-118182000D02*
X52203800Y-116277000D01*
X57207600Y-118182000D02*
X61271600Y-118182000D01*
X57207600Y-118182000D02*
X57207600Y-122754000D01*
X61271600Y-118182000D02*
X61271600Y-116277000D01*
X52584800Y-118817000D02*
X52584800Y-121992000D01*
X52584800Y-118817000D02*
X55886800Y-118817000D01*
X55886800Y-118817000D02*
X55886800Y-121992000D01*
X57588600Y-118817000D02*
X57588600Y-121992000D01*
X57588600Y-118817000D02*
X60890600Y-118817000D01*
X60890600Y-118817000D02*
X60890600Y-121992000D01*
X60890600Y-121992000D02*
X60509600Y-121992000D01*
X57588600Y-121992000D02*
X57969600Y-121992000D01*
X55886800Y-121992000D02*
X55505800Y-121992000D01*
X52584800Y-121992000D02*
X52965800Y-121992000D01*
X61830000Y-116277000D02*
X61830000Y-123135000D01*
X61830000Y-123135000D02*
X61830000Y-125675000D01*
X51645000Y-124151000D02*
X51645000Y-123135000D01*
X51645000Y-123135000D02*
X51645000Y-118436000D01*
X61830000Y-125675000D02*
X51645000Y-125675000D01*
X61830000Y-125675000D02*
X61830000Y-128723000D01*
X51645000Y-125675000D02*
X51645000Y-124151000D01*
X56267800Y-125929000D02*
X56267800Y-128469000D01*
X56267800Y-128469000D02*
X52203800Y-128469000D01*
X52203800Y-128469000D02*
X52203800Y-125929000D01*
X52203800Y-125929000D02*
X56267800Y-125929000D01*
X57207600Y-125929000D02*
X57207600Y-128469000D01*
X57207600Y-125929000D02*
X61271600Y-125929000D01*
X61271600Y-125929000D02*
X61271600Y-128469000D01*
X57207600Y-128469000D02*
X61271600Y-128469000D01*
X55861400Y-126945000D02*
X52813400Y-127580000D01*
X55734400Y-126818000D02*
X52686400Y-127453000D01*
X60865200Y-126945000D02*
X57814660Y-127580000D01*
X60738200Y-126818000D02*
X57690200Y-127453000D01*
X61271600Y-122754000D02*
X60890600Y-122754000D01*
X57207600Y-122754000D02*
X57588600Y-122754000D01*
X57588600Y-122754000D02*
X60890600Y-122754000D01*
X61830000Y-123135000D02*
X60890600Y-123135000D01*
X60890600Y-123135000D02*
X57588600Y-123135000D01*
X57588600Y-123135000D02*
X55886800Y-123135000D01*
X51645000Y-123135000D02*
X52584800Y-123135000D01*
X52584800Y-123135000D02*
X55886800Y-123135000D01*
X52203800Y-122754000D02*
X52584800Y-122754000D01*
X56267800Y-122754000D02*
X55886800Y-122754000D01*
X55886800Y-122754000D02*
X52584800Y-122754000D01*
X52767028Y-126585430D02*
G75*
G03X52714340Y-127552060I452772J-509430D01*
G01*
X55709728Y-126665104D02*
G75*
G03X52721960Y-126617340I-1524728J-1905496D01*
G01*
X52710589Y-127556844D02*
G75*
G03X55861400Y-127503800I1553151J1348444D01*
G01*
X55810097Y-127553481D02*
G75*
G03X55668360Y-126627500I-431297J407821D01*
G01*
X57770851Y-126582890D02*
G75*
G03X57715600Y-127552060I452749J-511970D01*
G01*
X60710988Y-126665104D02*
G75*
G03X57723220Y-126617340I-1524728J-1905496D01*
G01*
X57708427Y-127561847D02*
G75*
G03X60865200Y-127503800I1554033J1353447D01*
G01*
X60814520Y-127551019D02*
G75*
G03X60669620Y-126627500I-431920J405359D01*
G01*
X67770000Y-41520000D02*
X67770000Y-59300000D01*
X67770000Y-59300000D02*
X65230000Y-59300000D01*
X65230000Y-59300000D02*
X65230000Y-41520000D01*
X68050000Y-38700000D02*
X68050000Y-40250000D01*
X67770000Y-41520000D02*
X65230000Y-41520000D01*
X64950000Y-40250000D02*
X64950000Y-38700000D01*
X64950000Y-38700000D02*
X68050000Y-38700000D01*
X67770000Y-63770000D02*
X67770000Y-79010000D01*
X67770000Y-79010000D02*
X65230000Y-79010000D01*
X65230000Y-79010000D02*
X65230000Y-63770000D01*
X68050000Y-60950000D02*
X68050000Y-62500000D01*
X67770000Y-63770000D02*
X65230000Y-63770000D01*
X64950000Y-62500000D02*
X64950000Y-60950000D01*
X64950000Y-60950000D02*
X68050000Y-60950000D01*
X67770000Y-105480000D02*
X67770000Y-100400000D01*
X67770000Y-100400000D02*
X65230000Y-100400000D01*
X65230000Y-100400000D02*
X65230000Y-105480000D01*
X64950000Y-108300000D02*
X64950000Y-106750000D01*
X65230000Y-105480000D02*
X67770000Y-105480000D01*
X68050000Y-106750000D02*
X68050000Y-108300000D01*
X68050000Y-108300000D02*
X64950000Y-108300000D01*
X65230000Y-112270000D02*
X65230000Y-117350000D01*
X65230000Y-117350000D02*
X67770000Y-117350000D01*
X67770000Y-117350000D02*
X67770000Y-112270000D01*
X68050000Y-109450000D02*
X68050000Y-111000000D01*
X67770000Y-112270000D02*
X65230000Y-112270000D01*
X64950000Y-111000000D02*
X64950000Y-109450000D01*
X64950000Y-109450000D02*
X68050000Y-109450000D01*
X65230000Y-96230000D02*
X65230000Y-83530000D01*
X65230000Y-83530000D02*
X67770000Y-83530000D01*
X67770000Y-83530000D02*
X67770000Y-96230000D01*
X64950000Y-99050000D02*
X64950000Y-97500000D01*
X65230000Y-96230000D02*
X67770000Y-96230000D01*
X68050000Y-97500000D02*
X68050000Y-99050000D01*
X68050000Y-99050000D02*
X64950000Y-99050000D01*
X31300000Y-87320000D02*
X31300000Y-90720000D01*
X31302944Y-87322944D02*
G75*
G02X35400000Y-89020000I1697056J-1697056D01*
G01*
X31302944Y-90717056D02*
G75*
G03X35400000Y-89020000I1697056J1697056D01*
G01*
X60625000Y-67850000D02*
X60625000Y-66650000D01*
X62375000Y-66650000D02*
X62375000Y-67850000D01*
X28125000Y-68600000D02*
X28125000Y-67400000D01*
X29875000Y-67400000D02*
X29875000Y-68600000D01*
X35400000Y-61875000D02*
X36600000Y-61875000D01*
X36600000Y-63625000D02*
X35400000Y-63625000D01*
X29540000Y-56000000D02*
G75*
G03X29540000Y-56000000I-2540000J0D01*
G01*
X30810000Y-59810000D02*
X23190000Y-59810000D01*
X23190000Y-59810000D02*
X23190000Y-52190000D01*
X23190000Y-52190000D02*
X30810000Y-52190000D01*
X30810000Y-59810000D02*
X30810000Y-52190000D01*
X29540000Y-46000000D02*
G75*
G03X29540000Y-46000000I-2540000J0D01*
G01*
X23190000Y-42190000D02*
X30810000Y-42190000D01*
X30810000Y-42190000D02*
X30810000Y-49810000D01*
X30810000Y-49810000D02*
X23190000Y-49810000D01*
X23190000Y-42190000D02*
X23190000Y-49810000D01*
X49365000Y-91545000D02*
X49365000Y-90275000D01*
X42015000Y-91545000D02*
X42015000Y-90275000D01*
X42015000Y-84415000D02*
X42015000Y-85685000D01*
X49365000Y-84415000D02*
X49365000Y-85685000D01*
X49365000Y-91545000D02*
X42015000Y-91545000D01*
X49365000Y-84415000D02*
X42015000Y-84415000D01*
X49365000Y-90275000D02*
X50300000Y-90275000D01*
X36425000Y-70175000D02*
X35625000Y-70175000D01*
X32075000Y-65825000D02*
X32875000Y-65825000D01*
X32075000Y-70175000D02*
X32875000Y-70175000D01*
X36425000Y-65825000D02*
X36425000Y-66625000D01*
X32075000Y-65825000D02*
X32075000Y-66625000D01*
X32075000Y-70175000D02*
X32075000Y-69375000D01*
X36425000Y-70175000D02*
X36425000Y-69375000D01*
D13*
X38484000Y-55109000D02*
X38484000Y-55871000D01*
X38484000Y-55871000D02*
X54486000Y-55871000D01*
X54486000Y-55871000D02*
X54486000Y-55109000D01*
D12*
X58299340Y-79600080D02*
X58599060Y-79849000D01*
X58599060Y-79849000D02*
X58748920Y-79950600D01*
X58748920Y-79950600D02*
X57900560Y-79950600D01*
X59800480Y-79249560D02*
X57999620Y-79249560D01*
X59800480Y-79249560D02*
X59800480Y-79899800D01*
X59800480Y-83750440D02*
X57999620Y-83750440D01*
X59800480Y-83750440D02*
X59800480Y-83100200D01*
X31405000Y-41139000D02*
X27722000Y-41139000D01*
X27722000Y-41139000D02*
X27214000Y-40631000D01*
X27214000Y-40631000D02*
X27214000Y-39869000D01*
X27214000Y-39869000D02*
X27722000Y-39361000D01*
X27722000Y-39361000D02*
X31405000Y-39361000D01*
X31405000Y-39361000D02*
X31913000Y-39869000D01*
X31913000Y-39869000D02*
X31913000Y-40631000D01*
X31913000Y-40631000D02*
X31405000Y-41139000D01*
X25655000Y-40889000D02*
X21972000Y-40889000D01*
X21972000Y-40889000D02*
X21464000Y-40381000D01*
X21464000Y-40381000D02*
X21464000Y-39619000D01*
X21464000Y-39619000D02*
X21972000Y-39111000D01*
X21972000Y-39111000D02*
X25655000Y-39111000D01*
X25655000Y-39111000D02*
X26163000Y-39619000D01*
X26163000Y-39619000D02*
X26163000Y-40381000D01*
X26163000Y-40381000D02*
X25655000Y-40889000D01*
D14*
X24000000Y-89100000D02*
X22000000Y-89100000D01*
X22000000Y-89100000D02*
X22000000Y-89900000D01*
X22000000Y-89900000D02*
X24000000Y-89900000D01*
X24000000Y-89900000D02*
X24000000Y-89100000D01*
X21984000Y-90454000D02*
X24016000Y-90454000D01*
X24016000Y-88546000D02*
X21984000Y-88546000D01*
X21984000Y-90454000D02*
G75*
G03X23000000Y-91470000I1016000J0D01*
G01*
X23000000Y-91470000D02*
G75*
G03X24016000Y-90454000I0J1016000D01*
G01*
X24016000Y-88546000D02*
G75*
G03X23000000Y-87530000I-1016000J0D01*
G01*
X23000000Y-87530000D02*
G75*
G03X21984000Y-88546000I0J-1016000D01*
G01*
X24000000Y-83100000D02*
X22000000Y-83100000D01*
X22000000Y-83100000D02*
X22000000Y-83900000D01*
X22000000Y-83900000D02*
X24000000Y-83900000D01*
X24000000Y-83900000D02*
X24000000Y-83100000D01*
X21984000Y-84454000D02*
X24016000Y-84454000D01*
X24016000Y-82546000D02*
X21984000Y-82546000D01*
X21984000Y-84454000D02*
G75*
G03X23000000Y-85470000I1016000J0D01*
G01*
X23000000Y-85470000D02*
G75*
G03X24016000Y-84454000I0J1016000D01*
G01*
X24016000Y-82546000D02*
G75*
G03X23000000Y-81530000I-1016000J0D01*
G01*
X23000000Y-81530000D02*
G75*
G03X21984000Y-82546000I0J-1016000D01*
G01*
X24000000Y-77100000D02*
X22000000Y-77100000D01*
X22000000Y-77100000D02*
X22000000Y-77900000D01*
X22000000Y-77900000D02*
X24000000Y-77900000D01*
X24000000Y-77900000D02*
X24000000Y-77100000D01*
X21984000Y-78454000D02*
X24016000Y-78454000D01*
X24016000Y-76546000D02*
X21984000Y-76546000D01*
X21984000Y-78454000D02*
G75*
G03X23000000Y-79470000I1016000J0D01*
G01*
X23000000Y-79470000D02*
G75*
G03X24016000Y-78454000I0J1016000D01*
G01*
X24016000Y-76546000D02*
G75*
G03X23000000Y-75530000I-1016000J0D01*
G01*
X23000000Y-75530000D02*
G75*
G03X21984000Y-76546000I0J-1016000D01*
G01*
D12*
X52575000Y-71001000D02*
X52575000Y-75999000D01*
X52715000Y-71009000D02*
X52715000Y-73346000D01*
X52715000Y-73654000D02*
X52715000Y-75991000D01*
X52855000Y-71025000D02*
X52855000Y-73027000D01*
X52855000Y-73973000D02*
X52855000Y-75975000D01*
X52995000Y-71049000D02*
X52995000Y-72880000D01*
X52995000Y-74120000D02*
X52995000Y-75951000D01*
X53135000Y-71082000D02*
X53135000Y-72788000D01*
X53135000Y-74212000D02*
X53135000Y-75918000D01*
X53275000Y-71123000D02*
X53275000Y-72732000D01*
X53275000Y-74268000D02*
X53275000Y-75877000D01*
X53415000Y-71173000D02*
X53415000Y-72705000D01*
X53415000Y-74295000D02*
X53415000Y-75827000D01*
X53555000Y-71234000D02*
X53555000Y-72702000D01*
X53555000Y-74298000D02*
X53555000Y-75766000D01*
X53695000Y-71304000D02*
X53695000Y-72724000D01*
X53695000Y-74276000D02*
X53695000Y-75696000D01*
X53835000Y-71386000D02*
X53835000Y-72774000D01*
X53835000Y-74226000D02*
X53835000Y-75614000D01*
X53975000Y-71481000D02*
X53975000Y-72856000D01*
X53975000Y-74144000D02*
X53975000Y-75519000D01*
X54115000Y-71592000D02*
X54115000Y-72988000D01*
X54115000Y-74012000D02*
X54115000Y-75408000D01*
X54255000Y-71720000D02*
X54255000Y-73235000D01*
X54255000Y-73765000D02*
X54255000Y-75280000D01*
X54395000Y-71869000D02*
X54395000Y-75131000D01*
X54535000Y-72048000D02*
X54535000Y-74952000D01*
X54675000Y-72267000D02*
X54675000Y-74733000D01*
X54815000Y-72556000D02*
X54815000Y-74444000D01*
X54955000Y-73028000D02*
X54955000Y-73972000D01*
X54300000Y-73500000D02*
G75*
G03X54300000Y-73500000I-800000J0D01*
G01*
X55037500Y-73500000D02*
G75*
G03X55037500Y-73500000I-2537500J0D01*
G01*
X55325000Y-87251000D02*
X55325000Y-92249000D01*
X55465000Y-87259000D02*
X55465000Y-89596000D01*
X55465000Y-89904000D02*
X55465000Y-92241000D01*
X55605000Y-87275000D02*
X55605000Y-89277000D01*
X55605000Y-90223000D02*
X55605000Y-92225000D01*
X55745000Y-87299000D02*
X55745000Y-89130000D01*
X55745000Y-90370000D02*
X55745000Y-92201000D01*
X55885000Y-87332000D02*
X55885000Y-89038000D01*
X55885000Y-90462000D02*
X55885000Y-92168000D01*
X56025000Y-87373000D02*
X56025000Y-88982000D01*
X56025000Y-90518000D02*
X56025000Y-92127000D01*
X56165000Y-87423000D02*
X56165000Y-88955000D01*
X56165000Y-90545000D02*
X56165000Y-92077000D01*
X56305000Y-87484000D02*
X56305000Y-88952000D01*
X56305000Y-90548000D02*
X56305000Y-92016000D01*
X56445000Y-87554000D02*
X56445000Y-88974000D01*
X56445000Y-90526000D02*
X56445000Y-91946000D01*
X56585000Y-87636000D02*
X56585000Y-89024000D01*
X56585000Y-90476000D02*
X56585000Y-91864000D01*
X56725000Y-87731000D02*
X56725000Y-89106000D01*
X56725000Y-90394000D02*
X56725000Y-91769000D01*
X56865000Y-87842000D02*
X56865000Y-89238000D01*
X56865000Y-90262000D02*
X56865000Y-91658000D01*
X57005000Y-87970000D02*
X57005000Y-89485000D01*
X57005000Y-90015000D02*
X57005000Y-91530000D01*
X57145000Y-88119000D02*
X57145000Y-91381000D01*
X57285000Y-88298000D02*
X57285000Y-91202000D01*
X57425000Y-88517000D02*
X57425000Y-90983000D01*
X57565000Y-88806000D02*
X57565000Y-90694000D01*
X57705000Y-89278000D02*
X57705000Y-90222000D01*
X57050000Y-89750000D02*
G75*
G03X57050000Y-89750000I-800000J0D01*
G01*
X57787500Y-89750000D02*
G75*
G03X57787500Y-89750000I-2537500J0D01*
G01*
X58700000Y-97750000D02*
X58700000Y-94450000D01*
X58700000Y-94450000D02*
X43300000Y-94450000D01*
X43300000Y-94450000D02*
X43300000Y-97800000D01*
X52350000Y-114050000D02*
X58700000Y-114050000D01*
X58700000Y-114050000D02*
X58700000Y-99500000D01*
X49600000Y-114050000D02*
X43300000Y-114050000D01*
X43300000Y-114050000D02*
X43300000Y-99300000D01*
X43350000Y-114050000D02*
X49600000Y-114050000D01*
X55200000Y-98600000D02*
X52750000Y-98600000D01*
X46800000Y-98600000D02*
X49300000Y-98600000D01*
X57050000Y-109200000D02*
X57050000Y-106700000D01*
X51050000Y-110100000D02*
X51050000Y-110900000D01*
X45050000Y-106700000D02*
X45050000Y-109200000D01*
X51050000Y-103300000D02*
X51050000Y-101800000D01*
X51050000Y-101800000D02*
X48550000Y-97200000D01*
X54650000Y-103300000D02*
X54650000Y-110100000D01*
X51050000Y-103300000D02*
X54650000Y-103300000D01*
X51050000Y-110100000D02*
X54650000Y-110100000D01*
X45050000Y-106700000D02*
X49250000Y-106700000D01*
X52850000Y-106700000D02*
X57050000Y-106700000D01*
X52850000Y-104700000D02*
X49250000Y-108700000D01*
X52850000Y-108700000D02*
X49250000Y-108700000D01*
X49250000Y-108700000D02*
X49250000Y-104700000D01*
X49250000Y-104700000D02*
X52850000Y-104700000D01*
X52850000Y-104700000D02*
X52850000Y-108700000D01*
X40950000Y-97750000D02*
X40950000Y-94450000D01*
X40950000Y-94450000D02*
X25550000Y-94450000D01*
X25550000Y-94450000D02*
X25550000Y-97800000D01*
X34600000Y-114050000D02*
X40950000Y-114050000D01*
X40950000Y-114050000D02*
X40950000Y-99500000D01*
X31850000Y-114050000D02*
X25550000Y-114050000D01*
X25550000Y-114050000D02*
X25550000Y-99300000D01*
X25600000Y-114050000D02*
X31850000Y-114050000D01*
X37450000Y-98600000D02*
X35000000Y-98600000D01*
X29050000Y-98600000D02*
X31550000Y-98600000D01*
X39300000Y-109200000D02*
X39300000Y-106700000D01*
X33300000Y-110100000D02*
X33300000Y-110900000D01*
X27300000Y-106700000D02*
X27300000Y-109200000D01*
X33300000Y-103300000D02*
X33300000Y-101800000D01*
X33300000Y-101800000D02*
X30800000Y-97200000D01*
X36900000Y-103300000D02*
X36900000Y-110100000D01*
X33300000Y-103300000D02*
X36900000Y-103300000D01*
X33300000Y-110100000D02*
X36900000Y-110100000D01*
X27300000Y-106700000D02*
X31500000Y-106700000D01*
X35100000Y-106700000D02*
X39300000Y-106700000D01*
X35100000Y-104700000D02*
X31500000Y-108700000D01*
X35100000Y-108700000D02*
X31500000Y-108700000D01*
X31500000Y-108700000D02*
X31500000Y-104700000D01*
X31500000Y-104700000D02*
X35100000Y-104700000D01*
X35100000Y-104700000D02*
X35100000Y-108700000D01*
X22000000Y-105317500D02*
X22000000Y-105698500D01*
X22000000Y-104301500D02*
X22000000Y-104682500D01*
X22000000Y-104682500D02*
X22381000Y-105317500D01*
X22381000Y-105317500D02*
X21619000Y-105317500D01*
X21619000Y-105317500D02*
X22000000Y-104682500D01*
X22508000Y-104682500D02*
X21492000Y-104682500D01*
X21100000Y-103000000D02*
X21100000Y-106540000D01*
X22900000Y-103000000D02*
X22900000Y-106540000D01*
X28957143Y-68166666D02*
X29004762Y-68214285D01*
X29052381Y-68357142D01*
X29052381Y-68452380D01*
X29004762Y-68595238D01*
X28909524Y-68690476D01*
X28814286Y-68738095D01*
X28623810Y-68785714D01*
X28480952Y-68785714D01*
X28290476Y-68738095D01*
X28195238Y-68690476D01*
X28100000Y-68595238D01*
X28052381Y-68452380D01*
X28052381Y-68357142D01*
X28100000Y-68214285D01*
X28147619Y-68166666D01*
X29052381Y-67214285D02*
X29052381Y-67785714D01*
X29052381Y-67500000D02*
X28052381Y-67500000D01*
X28195238Y-67595238D01*
X28290476Y-67690476D01*
X28338095Y-67785714D01*
X29583334Y-61257143D02*
X29535715Y-61304762D01*
X29392858Y-61352381D01*
X29297620Y-61352381D01*
X29154762Y-61304762D01*
X29059524Y-61209524D01*
X29011905Y-61114286D01*
X28964286Y-60923810D01*
X28964286Y-60780952D01*
X29011905Y-60590476D01*
X29059524Y-60495238D01*
X29154762Y-60400000D01*
X29297620Y-60352381D01*
X29392858Y-60352381D01*
X29535715Y-60400000D01*
X29583334Y-60447619D01*
X29964286Y-60447619D02*
X30011905Y-60400000D01*
X30107143Y-60352381D01*
X30345239Y-60352381D01*
X30440477Y-60400000D01*
X30488096Y-60447619D01*
X30535715Y-60542857D01*
X30535715Y-60638095D01*
X30488096Y-60780952D01*
X29916667Y-61352381D01*
X30535715Y-61352381D01*
X58952381Y-90738095D02*
X57952381Y-90738095D01*
X57952381Y-90500000D01*
X58000000Y-90357142D01*
X58095238Y-90261904D01*
X58190476Y-90214285D01*
X58380952Y-90166666D01*
X58523810Y-90166666D01*
X58714286Y-90214285D01*
X58809524Y-90261904D01*
X58904762Y-90357142D01*
X58952381Y-90500000D01*
X58952381Y-90738095D01*
X58952381Y-89214285D02*
X58952381Y-89785714D01*
X58952381Y-89500000D02*
X57952381Y-89500000D01*
X58095238Y-89595238D01*
X58190476Y-89690476D01*
X58238095Y-89785714D01*
X59452381Y-106238095D02*
X58452381Y-106238095D01*
X58452381Y-106000000D01*
X58500000Y-105857142D01*
X58595238Y-105761904D01*
X58690476Y-105714285D01*
X58880952Y-105666666D01*
X59023810Y-105666666D01*
X59214286Y-105714285D01*
X59309524Y-105761904D01*
X59404762Y-105857142D01*
X59452381Y-106000000D01*
X59452381Y-106238095D01*
X58547619Y-105285714D02*
X58500000Y-105238095D01*
X58452381Y-105142857D01*
X58452381Y-104904761D01*
X58500000Y-104809523D01*
X58547619Y-104761904D01*
X58642857Y-104714285D01*
X58738095Y-104714285D01*
X58880952Y-104761904D01*
X59452381Y-105333333D01*
X59452381Y-104714285D01*
X19902381Y-72616666D02*
X19902381Y-73092857D01*
X18902381Y-73092857D01*
X19902381Y-71759523D02*
X19902381Y-72330952D01*
X19902381Y-72045238D02*
X18902381Y-72045238D01*
X19045238Y-72140476D01*
X19140476Y-72235714D01*
X19188095Y-72330952D01*
X26602381Y-70935714D02*
X25935714Y-70935714D01*
X26030952Y-70935714D02*
X25983333Y-70888095D01*
X25935714Y-70792857D01*
X25935714Y-70649999D01*
X25983333Y-70554761D01*
X26078571Y-70507142D01*
X26602381Y-70507142D01*
X26078571Y-70507142D02*
X25983333Y-70459523D01*
X25935714Y-70364285D01*
X25935714Y-70221428D01*
X25983333Y-70126190D01*
X26078571Y-70078571D01*
X26602381Y-70078571D01*
X26602381Y-69173809D02*
X26078571Y-69173809D01*
X25983333Y-69221428D01*
X25935714Y-69316666D01*
X25935714Y-69507143D01*
X25983333Y-69602381D01*
X26554762Y-69173809D02*
X26602381Y-69269047D01*
X26602381Y-69507143D01*
X26554762Y-69602381D01*
X26459524Y-69650000D01*
X26364286Y-69650000D01*
X26269048Y-69602381D01*
X26221429Y-69507143D01*
X26221429Y-69269047D01*
X26173810Y-69173809D01*
X25602381Y-68221428D02*
X25602381Y-68697619D01*
X26078571Y-68745238D01*
X26030952Y-68697619D01*
X25983333Y-68602381D01*
X25983333Y-68364285D01*
X26030952Y-68269047D01*
X26078571Y-68221428D01*
X26173810Y-68173809D01*
X26411905Y-68173809D01*
X26507143Y-68221428D01*
X26554762Y-68269047D01*
X26602381Y-68364285D01*
X26602381Y-68602381D01*
X26554762Y-68697619D01*
X26507143Y-68745238D01*
X25602381Y-67269047D02*
X25602381Y-67745238D01*
X26078571Y-67792857D01*
X26030952Y-67745238D01*
X25983333Y-67650000D01*
X25983333Y-67411904D01*
X26030952Y-67316666D01*
X26078571Y-67269047D01*
X26173810Y-67221428D01*
X26411905Y-67221428D01*
X26507143Y-67269047D01*
X26554762Y-67316666D01*
X26602381Y-67411904D01*
X26602381Y-67650000D01*
X26554762Y-67745238D01*
X26507143Y-67792857D01*
X25602381Y-66888095D02*
X25602381Y-66269047D01*
X25983333Y-66602381D01*
X25983333Y-66459523D01*
X26030952Y-66364285D01*
X26078571Y-66316666D01*
X26173810Y-66269047D01*
X26411905Y-66269047D01*
X26507143Y-66316666D01*
X26554762Y-66364285D01*
X26602381Y-66459523D01*
X26602381Y-66745238D01*
X26554762Y-66840476D01*
X26507143Y-66888095D01*
X25697619Y-65888095D02*
X25650000Y-65840476D01*
X25602381Y-65745238D01*
X25602381Y-65507142D01*
X25650000Y-65411904D01*
X25697619Y-65364285D01*
X25792857Y-65316666D01*
X25888095Y-65316666D01*
X26030952Y-65364285D01*
X26602381Y-65935714D01*
X26602381Y-65316666D01*
X26221429Y-64888095D02*
X26221429Y-64126190D01*
X26602381Y-63221428D02*
X26078571Y-63221428D01*
X25983333Y-63269047D01*
X25935714Y-63364285D01*
X25935714Y-63554762D01*
X25983333Y-63650000D01*
X26554762Y-63221428D02*
X26602381Y-63316666D01*
X26602381Y-63554762D01*
X26554762Y-63650000D01*
X26459524Y-63697619D01*
X26364286Y-63697619D01*
X26269048Y-63650000D01*
X26221429Y-63554762D01*
X26221429Y-63316666D01*
X26173810Y-63221428D01*
X26554762Y-62364285D02*
X26602381Y-62459523D01*
X26602381Y-62650000D01*
X26554762Y-62745238D01*
X26459524Y-62792857D01*
X26078571Y-62792857D01*
X25983333Y-62745238D01*
X25935714Y-62650000D01*
X25935714Y-62459523D01*
X25983333Y-62364285D01*
X26078571Y-62316666D01*
X26173810Y-62316666D01*
X26269048Y-62792857D01*
X37431905Y-129937381D02*
X37431905Y-128937381D01*
X37812858Y-128937381D01*
X37908096Y-128985000D01*
X37955715Y-129032619D01*
X38003334Y-129127857D01*
X38003334Y-129270714D01*
X37955715Y-129365952D01*
X37908096Y-129413571D01*
X37812858Y-129461190D01*
X37431905Y-129461190D01*
X38955715Y-129937381D02*
X38384286Y-129937381D01*
X38670000Y-129937381D02*
X38670000Y-128937381D01*
X38574762Y-129080238D01*
X38479524Y-129175476D01*
X38384286Y-129223095D01*
X48931905Y-129937381D02*
X48931905Y-128937381D01*
X49312858Y-128937381D01*
X49408096Y-128985000D01*
X49455715Y-129032619D01*
X49503334Y-129127857D01*
X49503334Y-129270714D01*
X49455715Y-129365952D01*
X49408096Y-129413571D01*
X49312858Y-129461190D01*
X48931905Y-129461190D01*
X49884286Y-129032619D02*
X49931905Y-128985000D01*
X50027143Y-128937381D01*
X50265239Y-128937381D01*
X50360477Y-128985000D01*
X50408096Y-129032619D01*
X50455715Y-129127857D01*
X50455715Y-129223095D01*
X50408096Y-129365952D01*
X49836667Y-129937381D01*
X50455715Y-129937381D01*
X60431905Y-129937381D02*
X60431905Y-128937381D01*
X60812858Y-128937381D01*
X60908096Y-128985000D01*
X60955715Y-129032619D01*
X61003334Y-129127857D01*
X61003334Y-129270714D01*
X60955715Y-129365952D01*
X60908096Y-129413571D01*
X60812858Y-129461190D01*
X60431905Y-129461190D01*
X61336667Y-128937381D02*
X61955715Y-128937381D01*
X61622381Y-129318333D01*
X61765239Y-129318333D01*
X61860477Y-129365952D01*
X61908096Y-129413571D01*
X61955715Y-129508810D01*
X61955715Y-129746905D01*
X61908096Y-129842143D01*
X61860477Y-129889762D01*
X61765239Y-129937381D01*
X61479524Y-129937381D01*
X61384286Y-129889762D01*
X61336667Y-129842143D01*
X65761905Y-35602381D02*
X65761905Y-34602381D01*
X66142858Y-34602381D01*
X66238096Y-34650000D01*
X66285715Y-34697619D01*
X66333334Y-34792857D01*
X66333334Y-34935714D01*
X66285715Y-35030952D01*
X66238096Y-35078571D01*
X66142858Y-35126190D01*
X65761905Y-35126190D01*
X67190477Y-34935714D02*
X67190477Y-35602381D01*
X66952381Y-34554762D02*
X66714286Y-35269048D01*
X67333334Y-35269048D01*
X65761905Y-57852381D02*
X65761905Y-56852381D01*
X66142858Y-56852381D01*
X66238096Y-56900000D01*
X66285715Y-56947619D01*
X66333334Y-57042857D01*
X66333334Y-57185714D01*
X66285715Y-57280952D01*
X66238096Y-57328571D01*
X66142858Y-57376190D01*
X65761905Y-57376190D01*
X67238096Y-56852381D02*
X66761905Y-56852381D01*
X66714286Y-57328571D01*
X66761905Y-57280952D01*
X66857143Y-57233333D01*
X67095239Y-57233333D01*
X67190477Y-57280952D01*
X67238096Y-57328571D01*
X67285715Y-57423810D01*
X67285715Y-57661905D01*
X67238096Y-57757143D01*
X67190477Y-57804762D01*
X67095239Y-57852381D01*
X66857143Y-57852381D01*
X66761905Y-57804762D01*
X66714286Y-57757143D01*
X65761905Y-112302381D02*
X65761905Y-111302381D01*
X66142858Y-111302381D01*
X66238096Y-111350000D01*
X66285715Y-111397619D01*
X66333334Y-111492857D01*
X66333334Y-111635714D01*
X66285715Y-111730952D01*
X66238096Y-111778571D01*
X66142858Y-111826190D01*
X65761905Y-111826190D01*
X67190477Y-111302381D02*
X67000000Y-111302381D01*
X66904762Y-111350000D01*
X66857143Y-111397619D01*
X66761905Y-111540476D01*
X66714286Y-111730952D01*
X66714286Y-112111905D01*
X66761905Y-112207143D01*
X66809524Y-112254762D01*
X66904762Y-112302381D01*
X67095239Y-112302381D01*
X67190477Y-112254762D01*
X67238096Y-112207143D01*
X67285715Y-112111905D01*
X67285715Y-111873810D01*
X67238096Y-111778571D01*
X67190477Y-111730952D01*
X67095239Y-111683333D01*
X66904762Y-111683333D01*
X66809524Y-111730952D01*
X66761905Y-111778571D01*
X66714286Y-111873810D01*
X65761905Y-106352381D02*
X65761905Y-105352381D01*
X66142858Y-105352381D01*
X66238096Y-105400000D01*
X66285715Y-105447619D01*
X66333334Y-105542857D01*
X66333334Y-105685714D01*
X66285715Y-105780952D01*
X66238096Y-105828571D01*
X66142858Y-105876190D01*
X65761905Y-105876190D01*
X66666667Y-105352381D02*
X67333334Y-105352381D01*
X66904762Y-106352381D01*
X65761905Y-103052381D02*
X65761905Y-102052381D01*
X66142858Y-102052381D01*
X66238096Y-102100000D01*
X66285715Y-102147619D01*
X66333334Y-102242857D01*
X66333334Y-102385714D01*
X66285715Y-102480952D01*
X66238096Y-102528571D01*
X66142858Y-102576190D01*
X65761905Y-102576190D01*
X66904762Y-102480952D02*
X66809524Y-102433333D01*
X66761905Y-102385714D01*
X66714286Y-102290476D01*
X66714286Y-102242857D01*
X66761905Y-102147619D01*
X66809524Y-102100000D01*
X66904762Y-102052381D01*
X67095239Y-102052381D01*
X67190477Y-102100000D01*
X67238096Y-102147619D01*
X67285715Y-102242857D01*
X67285715Y-102290476D01*
X67238096Y-102385714D01*
X67190477Y-102433333D01*
X67095239Y-102480952D01*
X66904762Y-102480952D01*
X66809524Y-102528571D01*
X66761905Y-102576190D01*
X66714286Y-102671429D01*
X66714286Y-102861905D01*
X66761905Y-102957143D01*
X66809524Y-103004762D01*
X66904762Y-103052381D01*
X67095239Y-103052381D01*
X67190477Y-103004762D01*
X67238096Y-102957143D01*
X67285715Y-102861905D01*
X67285715Y-102671429D01*
X67238096Y-102576190D01*
X67190477Y-102528571D01*
X67095239Y-102480952D01*
X37547619Y-87845238D02*
X37500000Y-87940476D01*
X37404762Y-88035714D01*
X37261905Y-88178571D01*
X37214286Y-88273810D01*
X37214286Y-88369048D01*
X37452381Y-88321429D02*
X37404762Y-88416667D01*
X37309524Y-88511905D01*
X37119048Y-88559524D01*
X36785714Y-88559524D01*
X36595238Y-88511905D01*
X36500000Y-88416667D01*
X36452381Y-88321429D01*
X36452381Y-88130952D01*
X36500000Y-88035714D01*
X36595238Y-87940476D01*
X36785714Y-87892857D01*
X37119048Y-87892857D01*
X37309524Y-87940476D01*
X37404762Y-88035714D01*
X37452381Y-88130952D01*
X37452381Y-88321429D01*
X37452381Y-86940476D02*
X37452381Y-87511905D01*
X37452381Y-87226191D02*
X36452381Y-87226191D01*
X36595238Y-87321429D01*
X36690476Y-87416667D01*
X36738095Y-87511905D01*
X64052381Y-67416666D02*
X63576190Y-67750000D01*
X64052381Y-67988095D02*
X63052381Y-67988095D01*
X63052381Y-67607142D01*
X63100000Y-67511904D01*
X63147619Y-67464285D01*
X63242857Y-67416666D01*
X63385714Y-67416666D01*
X63480952Y-67464285D01*
X63528571Y-67511904D01*
X63576190Y-67607142D01*
X63576190Y-67988095D01*
X64052381Y-66464285D02*
X64052381Y-67035714D01*
X64052381Y-66750000D02*
X63052381Y-66750000D01*
X63195238Y-66845238D01*
X63290476Y-66940476D01*
X63338095Y-67035714D01*
X31552381Y-68166666D02*
X31076190Y-68500000D01*
X31552381Y-68738095D02*
X30552381Y-68738095D01*
X30552381Y-68357142D01*
X30600000Y-68261904D01*
X30647619Y-68214285D01*
X30742857Y-68166666D01*
X30885714Y-68166666D01*
X30980952Y-68214285D01*
X31028571Y-68261904D01*
X31076190Y-68357142D01*
X31076190Y-68738095D01*
X30647619Y-67785714D02*
X30600000Y-67738095D01*
X30552381Y-67642857D01*
X30552381Y-67404761D01*
X30600000Y-67309523D01*
X30647619Y-67261904D01*
X30742857Y-67214285D01*
X30838095Y-67214285D01*
X30980952Y-67261904D01*
X31552381Y-67833333D01*
X31552381Y-67214285D01*
X35833334Y-65302381D02*
X35500000Y-64826190D01*
X35261905Y-65302381D02*
X35261905Y-64302381D01*
X35642858Y-64302381D01*
X35738096Y-64350000D01*
X35785715Y-64397619D01*
X35833334Y-64492857D01*
X35833334Y-64635714D01*
X35785715Y-64730952D01*
X35738096Y-64778571D01*
X35642858Y-64826190D01*
X35261905Y-64826190D01*
X36166667Y-64302381D02*
X36785715Y-64302381D01*
X36452381Y-64683333D01*
X36595239Y-64683333D01*
X36690477Y-64730952D01*
X36738096Y-64778571D01*
X36785715Y-64873810D01*
X36785715Y-65111905D01*
X36738096Y-65207143D01*
X36690477Y-65254762D01*
X36595239Y-65302381D01*
X36309524Y-65302381D01*
X36214286Y-65254762D01*
X36166667Y-65207143D01*
X25666667Y-57166762D02*
X25809524Y-57214381D01*
X26047620Y-57214381D01*
X26142858Y-57166762D01*
X26190477Y-57119143D01*
X26238096Y-57023905D01*
X26238096Y-56928667D01*
X26190477Y-56833429D01*
X26142858Y-56785810D01*
X26047620Y-56738190D01*
X25857143Y-56690571D01*
X25761905Y-56642952D01*
X25714286Y-56595333D01*
X25666667Y-56500095D01*
X25666667Y-56404857D01*
X25714286Y-56309619D01*
X25761905Y-56262000D01*
X25857143Y-56214381D01*
X26095239Y-56214381D01*
X26238096Y-56262000D01*
X26571429Y-56214381D02*
X26809524Y-57214381D01*
X27000001Y-56500095D01*
X27190477Y-57214381D01*
X27428572Y-56214381D01*
X28333334Y-57214381D02*
X27761905Y-57214381D01*
X28047619Y-57214381D02*
X28047619Y-56214381D01*
X27952381Y-56357238D01*
X27857143Y-56452476D01*
X27761905Y-56500095D01*
X25666667Y-45642762D02*
X25809524Y-45690381D01*
X26047620Y-45690381D01*
X26142858Y-45642762D01*
X26190477Y-45595143D01*
X26238096Y-45499905D01*
X26238096Y-45404667D01*
X26190477Y-45309429D01*
X26142858Y-45261810D01*
X26047620Y-45214190D01*
X25857143Y-45166571D01*
X25761905Y-45118952D01*
X25714286Y-45071333D01*
X25666667Y-44976095D01*
X25666667Y-44880857D01*
X25714286Y-44785619D01*
X25761905Y-44738000D01*
X25857143Y-44690381D01*
X26095239Y-44690381D01*
X26238096Y-44738000D01*
X26571429Y-44690381D02*
X26809524Y-45690381D01*
X27000001Y-44976095D01*
X27190477Y-45690381D01*
X27428572Y-44690381D01*
X27761905Y-44785619D02*
X27809524Y-44738000D01*
X27904762Y-44690381D01*
X28142858Y-44690381D01*
X28238096Y-44738000D01*
X28285715Y-44785619D01*
X28333334Y-44880857D01*
X28333334Y-44976095D01*
X28285715Y-45118952D01*
X27714286Y-45690381D01*
X28333334Y-45690381D01*
X48738095Y-93922381D02*
X48738095Y-94731905D01*
X48785714Y-94827143D01*
X48833333Y-94874762D01*
X48928571Y-94922381D01*
X49119048Y-94922381D01*
X49214286Y-94874762D01*
X49261905Y-94827143D01*
X49309524Y-94731905D01*
X49309524Y-93922381D01*
X50309524Y-94922381D02*
X49738095Y-94922381D01*
X50023809Y-94922381D02*
X50023809Y-93922381D01*
X49928571Y-94065238D01*
X49833333Y-94160476D01*
X49738095Y-94208095D01*
X37102381Y-68761905D02*
X37911905Y-68761905D01*
X38007143Y-68714286D01*
X38054762Y-68666667D01*
X38102381Y-68571429D01*
X38102381Y-68380952D01*
X38054762Y-68285714D01*
X38007143Y-68238095D01*
X37911905Y-68190476D01*
X37102381Y-68190476D01*
X37197619Y-67761905D02*
X37150000Y-67714286D01*
X37102381Y-67619048D01*
X37102381Y-67380952D01*
X37150000Y-67285714D01*
X37197619Y-67238095D01*
X37292857Y-67190476D01*
X37388095Y-67190476D01*
X37530952Y-67238095D01*
X38102381Y-67809524D01*
X38102381Y-67190476D01*
X40238095Y-56302381D02*
X40238095Y-57111905D01*
X40285714Y-57207143D01*
X40333333Y-57254762D01*
X40428571Y-57302381D01*
X40619048Y-57302381D01*
X40714286Y-57254762D01*
X40761905Y-57207143D01*
X40809524Y-57111905D01*
X40809524Y-56302381D01*
X41190476Y-56302381D02*
X41809524Y-56302381D01*
X41476190Y-56683333D01*
X41619048Y-56683333D01*
X41714286Y-56730952D01*
X41761905Y-56778571D01*
X41809524Y-56873810D01*
X41809524Y-57111905D01*
X41761905Y-57207143D01*
X41714286Y-57254762D01*
X41619048Y-57302381D01*
X41333333Y-57302381D01*
X41238095Y-57254762D01*
X41190476Y-57207143D01*
X36664095Y-64818381D02*
X36664095Y-65627905D01*
X36711714Y-65723143D01*
X36759333Y-65770762D01*
X36854571Y-65818381D01*
X37045048Y-65818381D01*
X37140286Y-65770762D01*
X37187905Y-65723143D01*
X37235524Y-65627905D01*
X37235524Y-64818381D01*
X38140286Y-65151714D02*
X38140286Y-65818381D01*
X37902190Y-64770762D02*
X37664095Y-65485048D01*
X38283143Y-65485048D01*
X62953641Y-82211105D02*
X63763165Y-82211105D01*
X63858403Y-82163486D01*
X63906022Y-82115867D01*
X63953641Y-82020629D01*
X63953641Y-81830152D01*
X63906022Y-81734914D01*
X63858403Y-81687295D01*
X63763165Y-81639676D01*
X62953641Y-81639676D01*
X62953641Y-80687295D02*
X62953641Y-81163486D01*
X63429831Y-81211105D01*
X63382212Y-81163486D01*
X63334593Y-81068248D01*
X63334593Y-80830152D01*
X63382212Y-80734914D01*
X63429831Y-80687295D01*
X63525070Y-80639676D01*
X63763165Y-80639676D01*
X63858403Y-80687295D01*
X63906022Y-80734914D01*
X63953641Y-80830152D01*
X63953641Y-81068248D01*
X63906022Y-81163486D01*
X63858403Y-81211105D01*
X28595238Y-41226381D02*
X28833333Y-42226381D01*
X29023810Y-41512095D01*
X29214286Y-42226381D01*
X29452381Y-41226381D01*
X30357143Y-42226381D02*
X29785714Y-42226381D01*
X30071428Y-42226381D02*
X30071428Y-41226381D01*
X29976190Y-41369238D01*
X29880952Y-41464476D01*
X29785714Y-41512095D01*
X22845238Y-40976381D02*
X23083333Y-41976381D01*
X23273810Y-41262095D01*
X23464286Y-41976381D01*
X23702381Y-40976381D01*
X24035714Y-41071619D02*
X24083333Y-41024000D01*
X24178571Y-40976381D01*
X24416667Y-40976381D01*
X24511905Y-41024000D01*
X24559524Y-41071619D01*
X24607143Y-41166857D01*
X24607143Y-41262095D01*
X24559524Y-41404952D01*
X23988095Y-41976381D01*
X24607143Y-41976381D01*
X20552381Y-90933333D02*
X21266667Y-90933333D01*
X21409524Y-90980953D01*
X21504762Y-91076191D01*
X21552381Y-91219048D01*
X21552381Y-91314286D01*
X21552381Y-90457143D02*
X20552381Y-90457143D01*
X20552381Y-90076190D01*
X20600000Y-89980952D01*
X20647619Y-89933333D01*
X20742857Y-89885714D01*
X20885714Y-89885714D01*
X20980952Y-89933333D01*
X21028571Y-89980952D01*
X21076190Y-90076190D01*
X21076190Y-90457143D01*
X21552381Y-88933333D02*
X21552381Y-89504762D01*
X21552381Y-89219048D02*
X20552381Y-89219048D01*
X20695238Y-89314286D01*
X20790476Y-89409524D01*
X20838095Y-89504762D01*
X20552381Y-84933333D02*
X21266667Y-84933333D01*
X21409524Y-84980953D01*
X21504762Y-85076191D01*
X21552381Y-85219048D01*
X21552381Y-85314286D01*
X21552381Y-84457143D02*
X20552381Y-84457143D01*
X20552381Y-84076190D01*
X20600000Y-83980952D01*
X20647619Y-83933333D01*
X20742857Y-83885714D01*
X20885714Y-83885714D01*
X20980952Y-83933333D01*
X21028571Y-83980952D01*
X21076190Y-84076190D01*
X21076190Y-84457143D01*
X20647619Y-83504762D02*
X20600000Y-83457143D01*
X20552381Y-83361905D01*
X20552381Y-83123809D01*
X20600000Y-83028571D01*
X20647619Y-82980952D01*
X20742857Y-82933333D01*
X20838095Y-82933333D01*
X20980952Y-82980952D01*
X21552381Y-83552381D01*
X21552381Y-82933333D01*
X20552381Y-78933333D02*
X21266667Y-78933333D01*
X21409524Y-78980953D01*
X21504762Y-79076191D01*
X21552381Y-79219048D01*
X21552381Y-79314286D01*
X21552381Y-78457143D02*
X20552381Y-78457143D01*
X20552381Y-78076190D01*
X20600000Y-77980952D01*
X20647619Y-77933333D01*
X20742857Y-77885714D01*
X20885714Y-77885714D01*
X20980952Y-77933333D01*
X21028571Y-77980952D01*
X21076190Y-78076190D01*
X21076190Y-78457143D01*
X20552381Y-77552381D02*
X20552381Y-76933333D01*
X20933333Y-77266667D01*
X20933333Y-77123809D01*
X20980952Y-77028571D01*
X21028571Y-76980952D01*
X21123810Y-76933333D01*
X21361905Y-76933333D01*
X21457143Y-76980952D01*
X21504762Y-77028571D01*
X21552381Y-77123809D01*
X21552381Y-77409524D01*
X21504762Y-77504762D01*
X21457143Y-77552381D01*
X52333334Y-70057143D02*
X52285715Y-70104762D01*
X52142858Y-70152381D01*
X52047620Y-70152381D01*
X51904762Y-70104762D01*
X51809524Y-70009524D01*
X51761905Y-69914286D01*
X51714286Y-69723810D01*
X51714286Y-69580952D01*
X51761905Y-69390476D01*
X51809524Y-69295238D01*
X51904762Y-69200000D01*
X52047620Y-69152381D01*
X52142858Y-69152381D01*
X52285715Y-69200000D01*
X52333334Y-69247619D01*
X52666667Y-69152381D02*
X53285715Y-69152381D01*
X52952381Y-69533333D01*
X53095239Y-69533333D01*
X53190477Y-69580952D01*
X53238096Y-69628571D01*
X53285715Y-69723810D01*
X53285715Y-69961905D01*
X53238096Y-70057143D01*
X53190477Y-70104762D01*
X53095239Y-70152381D01*
X52809524Y-70152381D01*
X52714286Y-70104762D01*
X52666667Y-70057143D01*
X55083334Y-86307143D02*
X55035715Y-86354762D01*
X54892858Y-86402381D01*
X54797620Y-86402381D01*
X54654762Y-86354762D01*
X54559524Y-86259524D01*
X54511905Y-86164286D01*
X54464286Y-85973810D01*
X54464286Y-85830952D01*
X54511905Y-85640476D01*
X54559524Y-85545238D01*
X54654762Y-85450000D01*
X54797620Y-85402381D01*
X54892858Y-85402381D01*
X55035715Y-85450000D01*
X55083334Y-85497619D01*
X55940477Y-85735714D02*
X55940477Y-86402381D01*
X55702381Y-85354762D02*
X55464286Y-86069048D01*
X56083334Y-86069048D01*
X60652381Y-105388095D02*
X59652381Y-105388095D01*
X60652381Y-104816666D02*
X60080952Y-105245238D01*
X59652381Y-104816666D02*
X60223810Y-105388095D01*
X60652381Y-103864285D02*
X60652381Y-104435714D01*
X60652381Y-104150000D02*
X59652381Y-104150000D01*
X59795238Y-104245238D01*
X59890476Y-104340476D01*
X59938095Y-104435714D01*
X42902381Y-105388095D02*
X41902381Y-105388095D01*
X42902381Y-104816666D02*
X42330952Y-105245238D01*
X41902381Y-104816666D02*
X42473810Y-105388095D01*
X41997619Y-104435714D02*
X41950000Y-104388095D01*
X41902381Y-104292857D01*
X41902381Y-104054761D01*
X41950000Y-103959523D01*
X41997619Y-103911904D01*
X42092857Y-103864285D01*
X42188095Y-103864285D01*
X42330952Y-103911904D01*
X42902381Y-104483333D01*
X42902381Y-103864285D01*
X24452381Y-105738095D02*
X23452381Y-105738095D01*
X23452381Y-105500000D01*
X23500000Y-105357142D01*
X23595238Y-105261904D01*
X23690476Y-105214285D01*
X23880952Y-105166666D01*
X24023810Y-105166666D01*
X24214286Y-105214285D01*
X24309524Y-105261904D01*
X24404762Y-105357142D01*
X24452381Y-105500000D01*
X24452381Y-105738095D01*
X23452381Y-104833333D02*
X23452381Y-104214285D01*
X23833333Y-104547619D01*
X23833333Y-104404761D01*
X23880952Y-104309523D01*
X23928571Y-104261904D01*
X24023810Y-104214285D01*
X24261905Y-104214285D01*
X24357143Y-104261904D01*
X24404762Y-104309523D01*
X24452381Y-104404761D01*
X24452381Y-104690476D01*
X24404762Y-104785714D01*
X24357143Y-104833333D01*
X39039667Y-73237381D02*
X38706333Y-72761190D01*
X38468238Y-73237381D02*
X38468238Y-72237381D01*
X38849191Y-72237381D01*
X38944429Y-72285000D01*
X38992048Y-72332619D01*
X39039667Y-72427857D01*
X39039667Y-72570714D01*
X38992048Y-72665952D01*
X38944429Y-72713571D01*
X38849191Y-72761190D01*
X38468238Y-72761190D01*
X39468238Y-72713571D02*
X39801572Y-72713571D01*
X39944429Y-73237381D02*
X39468238Y-73237381D01*
X39468238Y-72237381D01*
X39944429Y-72237381D01*
X40706334Y-72713571D02*
X40373000Y-72713571D01*
X40373000Y-73237381D02*
X40373000Y-72237381D01*
X40849191Y-72237381D01*
X41373000Y-72237381D02*
X41373000Y-72475476D01*
X41134905Y-72380238D02*
X41373000Y-72475476D01*
X41611096Y-72380238D01*
X41230143Y-72665952D02*
X41373000Y-72475476D01*
X41515858Y-72665952D01*
X42134905Y-72237381D02*
X42134905Y-72475476D01*
X41896810Y-72380238D02*
X42134905Y-72475476D01*
X42373001Y-72380238D01*
X41992048Y-72665952D02*
X42134905Y-72475476D01*
X42277763Y-72665952D01*
X22289667Y-113987381D02*
X21956333Y-113511190D01*
X21718238Y-113987381D02*
X21718238Y-112987381D01*
X22099191Y-112987381D01*
X22194429Y-113035000D01*
X22242048Y-113082619D01*
X22289667Y-113177857D01*
X22289667Y-113320714D01*
X22242048Y-113415952D01*
X22194429Y-113463571D01*
X22099191Y-113511190D01*
X21718238Y-113511190D01*
X22718238Y-113463571D02*
X23051572Y-113463571D01*
X23194429Y-113987381D02*
X22718238Y-113987381D01*
X22718238Y-112987381D01*
X23194429Y-112987381D01*
X23956334Y-113463571D02*
X23623000Y-113463571D01*
X23623000Y-113987381D02*
X23623000Y-112987381D01*
X24099191Y-112987381D01*
X24623000Y-112987381D02*
X24623000Y-113225476D01*
X24384905Y-113130238D02*
X24623000Y-113225476D01*
X24861096Y-113130238D01*
X24480143Y-113415952D02*
X24623000Y-113225476D01*
X24765858Y-113415952D01*
X25384905Y-112987381D02*
X25384905Y-113225476D01*
X25146810Y-113130238D02*
X25384905Y-113225476D01*
X25623001Y-113130238D01*
X25242048Y-113415952D02*
X25384905Y-113225476D01*
X25527763Y-113415952D01*
X22766107Y-112152421D02*
X22432773Y-111676230D01*
X22194678Y-112152421D02*
X22194678Y-111152421D01*
X22575631Y-111152421D01*
X22670869Y-111200040D01*
X22718488Y-111247659D01*
X22766107Y-111342897D01*
X22766107Y-111485754D01*
X22718488Y-111580992D01*
X22670869Y-111628611D01*
X22575631Y-111676230D01*
X22194678Y-111676230D01*
X23194678Y-111628611D02*
X23528012Y-111628611D01*
X23670869Y-112152421D02*
X23194678Y-112152421D01*
X23194678Y-111152421D01*
X23670869Y-111152421D01*
X24432774Y-111628611D02*
X24099440Y-111628611D01*
X24099440Y-112152421D02*
X24099440Y-111152421D01*
X24575631Y-111152421D01*
X25099440Y-111152421D02*
X25099440Y-111390516D01*
X24861345Y-111295278D02*
X25099440Y-111390516D01*
X25337536Y-111295278D01*
X24956583Y-111580992D02*
X25099440Y-111390516D01*
X25242298Y-111580992D01*
X25861345Y-111152421D02*
X25861345Y-111390516D01*
X25623250Y-111295278D02*
X25861345Y-111390516D01*
X26099441Y-111295278D01*
X25718488Y-111580992D02*
X25861345Y-111390516D01*
X26004203Y-111580992D01*
M02*
