G04 #@! TF.FileFunction,Copper,L1,Top,Signal*
%FSLAX46Y46*%
G04 Gerber Fmt 4.6, Leading zero omitted, Abs format (unit mm)*
G04 Created by KiCad (PCBNEW (2015-08-08 BZR 6073)-product) date Wed 12 Aug 2015 11:12:04 CEST*
%MOMM*%
G01*
G04 APERTURE LIST*
%ADD10C,0.100000*%
%ADD11C,0.381000*%
%ADD12R,1.250000X1.500000*%
%ADD13R,1.500000X1.250000*%
%ADD14R,0.797560X0.797560*%
%ADD15R,1.220000X0.910000*%
%ADD16R,3.200000X1.300000*%
%ADD17O,1.981200X3.962400*%
%ADD18R,2.032000X1.727200*%
%ADD19O,2.032000X1.727200*%
%ADD20O,1.501140X0.899160*%
%ADD21R,1.300000X1.500000*%
%ADD22R,1.500000X1.300000*%
%ADD23C,1.397000*%
%ADD24O,1.600000X1.600000*%
%ADD25O,0.350000X0.800000*%
%ADD26O,0.800000X0.350000*%
%ADD27R,1.350000X1.350000*%
%ADD28R,2.500000X1.100000*%
%ADD29O,2.500000X1.100000*%
%ADD30R,1.727200X1.727200*%
%ADD31C,1.727200*%
%ADD32R,2.501900X1.000760*%
%ADD33R,4.000500X1.998980*%
%ADD34R,1.000000X1.000000*%
%ADD35R,1.300000X1.300000*%
%ADD36C,1.300000*%
%ADD37C,2.500000*%
%ADD38C,3.000000*%
%ADD39C,0.600000*%
%ADD40C,0.250000*%
%ADD41C,2.000000*%
G04 APERTURE END LIST*
D10*
D11*
X40002160Y-80699640D02*
X41201040Y-77600840D01*
X41201040Y-77600840D02*
X40601600Y-77999620D01*
X39600840Y-78700660D02*
X40901320Y-75899040D01*
X40002160Y-80699640D02*
X40601600Y-80001140D01*
X40400940Y-75700920D02*
X39600840Y-78700660D01*
X39600840Y-78700660D02*
X40799720Y-77900560D01*
X40799720Y-77900560D02*
X40002160Y-80699640D01*
X40002160Y-80699640D02*
X39900560Y-79800480D01*
X40500000Y-74309000D02*
X45199000Y-81294000D01*
X45199000Y-81294000D02*
X35801000Y-81294000D01*
X35801000Y-81294000D02*
X40500000Y-74309000D01*
X23252160Y-121449640D02*
X24451040Y-118350840D01*
X24451040Y-118350840D02*
X23851600Y-118749620D01*
X22850840Y-119450660D02*
X24151320Y-116649040D01*
X23252160Y-121449640D02*
X23851600Y-120751140D01*
X23650940Y-116450920D02*
X22850840Y-119450660D01*
X22850840Y-119450660D02*
X24049720Y-118650560D01*
X24049720Y-118650560D02*
X23252160Y-121449640D01*
X23252160Y-121449640D02*
X23150560Y-120550480D01*
X23750000Y-115059000D02*
X28449000Y-122044000D01*
X28449000Y-122044000D02*
X19051000Y-122044000D01*
X19051000Y-122044000D02*
X23750000Y-115059000D01*
X23500000Y-120300480D02*
X23500000Y-120800860D01*
X23500000Y-120800860D02*
X23500000Y-120699260D01*
X23500000Y-117498860D02*
X23500000Y-117199140D01*
X21099700Y-118199900D02*
X25699640Y-119899160D01*
X21198760Y-118100840D02*
X25900300Y-119800100D01*
X24399160Y-117801120D02*
X24300100Y-117699520D01*
X24300100Y-117699520D02*
X23898780Y-117600460D01*
X23898780Y-117600460D02*
X23200280Y-117600460D01*
X23200280Y-117600460D02*
X22999620Y-117699520D01*
X22999620Y-117699520D02*
X22798960Y-117900180D01*
X22798960Y-117900180D02*
X22699900Y-118100840D01*
X22699900Y-118100840D02*
X22699900Y-118400560D01*
X22699900Y-118400560D02*
X22798960Y-118700280D01*
X22798960Y-118700280D02*
X22999620Y-118900940D01*
X22999620Y-118900940D02*
X23799720Y-119200660D01*
X23799720Y-119200660D02*
X24099440Y-119398780D01*
X24099440Y-119398780D02*
X24099440Y-119800100D01*
X24099440Y-119800100D02*
X23799720Y-120000760D01*
X23799720Y-120000760D02*
X23299340Y-120099820D01*
X23299340Y-120099820D02*
X22798960Y-120000760D01*
X22798960Y-120000760D02*
X22699900Y-120000760D01*
X22699900Y-120000760D02*
X22699900Y-120198880D01*
X22699900Y-120198880D02*
X22999620Y-120300480D01*
X22999620Y-120300480D02*
X23700660Y-120300480D01*
X23700660Y-120300480D02*
X24000380Y-120198880D01*
X24000380Y-120198880D02*
X24201040Y-120000760D01*
X24201040Y-120000760D02*
X24300100Y-119800100D01*
X24300100Y-119800100D02*
X24300100Y-119500380D01*
X24300100Y-119500380D02*
X24201040Y-119200660D01*
X24201040Y-119200660D02*
X23799720Y-118900940D01*
X23799720Y-118900940D02*
X23200280Y-118799340D01*
X23200280Y-118799340D02*
X22999620Y-118601220D01*
X22999620Y-118601220D02*
X22900560Y-118298960D01*
X22900560Y-118298960D02*
X22999620Y-118100840D01*
X22999620Y-118100840D02*
X23200280Y-117900180D01*
X23200280Y-117900180D02*
X23599060Y-117801120D01*
X23599060Y-117801120D02*
X23898780Y-117900180D01*
X23898780Y-117900180D02*
X24201040Y-117999240D01*
X24201040Y-117999240D02*
X24399160Y-117801120D01*
X23500000Y-116500640D02*
X23400940Y-116500640D01*
X23400940Y-116500640D02*
X22798960Y-116599700D01*
X22798960Y-116599700D02*
X22301120Y-116800360D01*
X22301120Y-116800360D02*
X21800740Y-117199140D01*
X21800740Y-117199140D02*
X21300360Y-117801120D01*
X21300360Y-117801120D02*
X21099700Y-118199900D01*
X21099700Y-118199900D02*
X21000640Y-118700280D01*
X21000640Y-118700280D02*
X21000640Y-119299720D01*
X21000640Y-119299720D02*
X21198760Y-120099820D01*
X21198760Y-120099820D02*
X21800740Y-120800860D01*
X21800740Y-120800860D02*
X22301120Y-121199640D01*
X22301120Y-121199640D02*
X22999620Y-121499360D01*
X22999620Y-121499360D02*
X23799720Y-121499360D01*
X23799720Y-121499360D02*
X24399160Y-121301240D01*
X24399160Y-121301240D02*
X25001140Y-120998980D01*
X25001140Y-120998980D02*
X25498980Y-120501140D01*
X25498980Y-120501140D02*
X25900300Y-119800100D01*
X25900300Y-119800100D02*
X25999360Y-119200660D01*
X25999360Y-119200660D02*
X25999360Y-118601220D01*
X25999360Y-118601220D02*
X25801240Y-117999240D01*
X25801240Y-117999240D02*
X25498980Y-117498860D01*
X25498980Y-117498860D02*
X25001140Y-117001020D01*
X25001140Y-117001020D02*
X24500760Y-116698760D01*
X24500760Y-116698760D02*
X24099440Y-116599700D01*
X24099440Y-116599700D02*
X23500000Y-116500640D01*
D12*
X26500000Y-66750000D03*
X26500000Y-69250000D03*
D13*
X28500000Y-63000000D03*
X31000000Y-63000000D03*
D14*
X60000000Y-89250700D03*
X60000000Y-90749300D03*
D15*
X61000000Y-107135000D03*
X61000000Y-103865000D03*
D16*
X23250000Y-62550000D03*
X23250000Y-71850000D03*
D17*
X36250000Y-122500000D03*
X31250000Y-122500000D03*
X47750000Y-122500000D03*
X42750000Y-122500000D03*
X59250000Y-122500000D03*
X54250000Y-122500000D03*
D18*
X66500000Y-40250000D03*
D19*
X66500000Y-42790000D03*
X66500000Y-45330000D03*
X66500000Y-47870000D03*
X66500000Y-50410000D03*
X66500000Y-52950000D03*
X66500000Y-55490000D03*
X66500000Y-58030000D03*
D18*
X66500000Y-62500000D03*
D19*
X66500000Y-65040000D03*
X66500000Y-67580000D03*
X66500000Y-70120000D03*
X66500000Y-72660000D03*
X66500000Y-75200000D03*
X66500000Y-77740000D03*
D18*
X66500000Y-106750000D03*
D19*
X66500000Y-104210000D03*
X66500000Y-101670000D03*
D18*
X66500000Y-111000000D03*
D19*
X66500000Y-113540000D03*
X66500000Y-116080000D03*
D18*
X66500000Y-97500000D03*
D19*
X66500000Y-94960000D03*
X66500000Y-92420000D03*
X66500000Y-89880000D03*
X66500000Y-87340000D03*
X66500000Y-84800000D03*
D20*
X33000000Y-89020000D03*
X33000000Y-90290000D03*
X33000000Y-87750000D03*
D21*
X61500000Y-65900000D03*
X61500000Y-68600000D03*
X29000000Y-66650000D03*
X29000000Y-69350000D03*
D22*
X37350000Y-62750000D03*
X34650000Y-62750000D03*
D23*
X23190000Y-58540000D03*
X23190000Y-53460000D03*
X30810000Y-58540000D03*
X30810000Y-53460000D03*
X30810000Y-43460000D03*
X30810000Y-48540000D03*
X23190000Y-43460000D03*
X23190000Y-48540000D03*
D24*
X49500000Y-89250000D03*
X49500000Y-86710000D03*
X41880000Y-86710000D03*
X41880000Y-89250000D03*
D25*
X35225000Y-66000000D03*
X34575000Y-66000000D03*
X33925000Y-66000000D03*
X33275000Y-66000000D03*
D26*
X32250000Y-67025000D03*
X32250000Y-67675000D03*
X32250000Y-68325000D03*
X32250000Y-68975000D03*
D25*
X33275000Y-70000000D03*
X33925000Y-70000000D03*
X34575000Y-70000000D03*
X35225000Y-70000000D03*
D26*
X36250000Y-68975000D03*
X36250000Y-68325000D03*
X36250000Y-67675000D03*
X36250000Y-67025000D03*
D27*
X33575000Y-68675000D03*
X34925000Y-68675000D03*
X33575000Y-67325000D03*
X34925000Y-67325000D03*
D28*
X38800000Y-40250000D03*
D29*
X38800000Y-42250000D03*
X38800000Y-44250000D03*
X38800000Y-46250000D03*
X38800000Y-48250000D03*
X38800000Y-50250000D03*
X38800000Y-52250000D03*
X38800000Y-54250000D03*
X54200000Y-54250000D03*
X54100000Y-52250000D03*
X54200000Y-50250000D03*
X54200000Y-48250000D03*
X54200000Y-46250000D03*
X54200000Y-44250000D03*
X54200000Y-42250000D03*
X54200000Y-40250000D03*
D30*
X58000000Y-58000000D03*
D31*
X58000000Y-55460000D03*
X58000000Y-52920000D03*
X58000000Y-50380000D03*
X58000000Y-47840000D03*
X58000000Y-45300000D03*
X58000000Y-42760000D03*
X58000000Y-40220000D03*
X58000000Y-37680000D03*
X58000000Y-35140000D03*
X58000000Y-32600000D03*
X35140000Y-32600000D03*
X35140000Y-35140000D03*
X35140000Y-37680000D03*
X35140000Y-40220000D03*
X35140000Y-42760000D03*
X35140000Y-45300000D03*
X35140000Y-47840000D03*
X35140000Y-50380000D03*
X35140000Y-52920000D03*
X35140000Y-55460000D03*
X35140000Y-58000000D03*
X43268000Y-60540000D03*
X45808000Y-60540000D03*
X48348000Y-60540000D03*
X50888000Y-60540000D03*
D32*
X56147960Y-79998860D03*
X56147960Y-81500000D03*
X56147960Y-83001140D03*
D33*
X60100200Y-81500000D03*
D10*
G36*
X58125350Y-82500760D02*
X57376050Y-82000380D01*
X57376050Y-80999620D01*
X58125350Y-80499240D01*
X58125350Y-82500760D01*
X58125350Y-82500760D01*
G37*
D23*
X30770000Y-40250000D03*
X28230000Y-40250000D03*
X25020000Y-40000000D03*
X22480000Y-40000000D03*
D34*
X23000000Y-88150000D03*
X23000000Y-90850000D03*
X23000000Y-89500000D03*
X23000000Y-82150000D03*
X23000000Y-84850000D03*
X23000000Y-83500000D03*
X23000000Y-76150000D03*
X23000000Y-78850000D03*
X23000000Y-77500000D03*
D35*
X51500000Y-73500000D03*
D36*
X53500000Y-73500000D03*
D35*
X54250000Y-89750000D03*
D36*
X56250000Y-89750000D03*
D37*
X57050000Y-110800000D03*
D38*
X57050000Y-98600000D03*
X45000000Y-98550000D03*
D37*
X45050000Y-110800000D03*
D38*
X51000000Y-112750000D03*
D37*
X39300000Y-110800000D03*
D38*
X39300000Y-98600000D03*
X27250000Y-98550000D03*
D37*
X27300000Y-110800000D03*
D38*
X33250000Y-112750000D03*
D15*
X22000000Y-103365000D03*
X22000000Y-106635000D03*
D39*
X31269200Y-66927800D03*
X23173600Y-75051100D03*
X68307500Y-82150900D03*
X53019200Y-69146800D03*
X31340400Y-68979800D03*
X22344900Y-80994800D03*
X36030900Y-66347000D03*
X24881400Y-78760100D03*
X37218900Y-67675000D03*
X36442700Y-69781700D03*
X42003300Y-51826600D03*
X62712200Y-66850100D03*
X62633000Y-60843100D03*
X59685900Y-64824700D03*
D40*
X25549700Y-69250000D02*
X26500000Y-69250000D01*
X23925000Y-70874700D02*
X25549700Y-69250000D01*
X23250000Y-70874700D02*
X23925000Y-70874700D01*
X23250000Y-71850000D02*
X23250000Y-70874700D01*
X27550300Y-69350000D02*
X29000000Y-69350000D01*
X27450300Y-69250000D02*
X27550300Y-69350000D01*
X26500000Y-69250000D02*
X27450300Y-69250000D01*
X33925000Y-65274700D02*
X33925000Y-66000000D01*
X31327200Y-65274700D02*
X33925000Y-65274700D01*
X29975300Y-66626600D02*
X31327200Y-65274700D01*
X29975300Y-69350000D02*
X29975300Y-66626600D01*
X29000000Y-69350000D02*
X29975300Y-69350000D01*
X22480000Y-40000000D02*
X25020000Y-40000000D01*
X32420000Y-32600000D02*
X25020000Y-40000000D01*
X35140000Y-32600000D02*
X32420000Y-32600000D01*
X34075900Y-90290000D02*
X33000000Y-90290000D01*
X34171300Y-90385400D02*
X34075900Y-90290000D01*
X44699300Y-90385400D02*
X34171300Y-90385400D01*
X48374700Y-86710000D02*
X44699300Y-90385400D01*
X49500000Y-86710000D02*
X48374700Y-86710000D01*
X28500000Y-63000000D02*
X28500000Y-63475100D01*
X22124200Y-54525800D02*
X23190000Y-53460000D01*
X22124200Y-60448900D02*
X22124200Y-54525800D01*
X23250000Y-61574700D02*
X22124200Y-60448900D01*
X23250000Y-62550000D02*
X23250000Y-61574700D01*
X67851000Y-88691000D02*
X66500000Y-87340000D01*
X67851000Y-90379600D02*
X67851000Y-88691000D01*
X67130700Y-91099900D02*
X67851000Y-90379600D01*
X61074700Y-91099900D02*
X67130700Y-91099900D01*
X60724100Y-90749300D02*
X61074700Y-91099900D01*
X60000000Y-90749300D02*
X60724100Y-90749300D01*
X57249300Y-90749300D02*
X56250000Y-89750000D01*
X60000000Y-90749300D02*
X57249300Y-90749300D01*
X31364100Y-90850000D02*
X23000000Y-90850000D01*
X31924100Y-90290000D02*
X31364100Y-90850000D01*
X33000000Y-90290000D02*
X31924100Y-90290000D01*
X22174700Y-90850000D02*
X23000000Y-90850000D01*
X22174700Y-86500600D02*
X22174700Y-90850000D01*
X23000000Y-85675300D02*
X22174700Y-86500600D01*
X23000000Y-84850000D02*
X23000000Y-85675300D01*
X23000000Y-78850000D02*
X22174700Y-78850000D01*
X25175300Y-62550000D02*
X23250000Y-62550000D01*
X26100400Y-63475100D02*
X25175300Y-62550000D01*
X28500000Y-63475100D02*
X26100400Y-63475100D01*
X27924700Y-66750000D02*
X26500000Y-66750000D01*
X28024700Y-66650000D02*
X27924700Y-66750000D01*
X29000000Y-66650000D02*
X28024700Y-66650000D01*
X34575000Y-64149900D02*
X34400200Y-63975100D01*
X34575000Y-66000000D02*
X34575000Y-64149900D01*
X34650000Y-63725300D02*
X34650000Y-62750000D01*
X34400200Y-63975100D02*
X34650000Y-63725300D01*
X30810000Y-48540000D02*
X23190000Y-48540000D01*
X22174700Y-84850000D02*
X23000000Y-84850000D01*
X21717700Y-84393000D02*
X22174700Y-84850000D01*
X21717700Y-79307000D02*
X21717700Y-84393000D01*
X22174700Y-78850000D02*
X21717700Y-79307000D01*
X34400200Y-63975100D02*
X29000000Y-63975100D01*
X30603000Y-67403300D02*
X31267900Y-68068200D01*
X30603000Y-66642500D02*
X30603000Y-67403300D01*
X31245500Y-66000000D02*
X30603000Y-66642500D01*
X33275000Y-66000000D02*
X31245500Y-66000000D01*
X31524700Y-68325000D02*
X32250000Y-68325000D01*
X31267900Y-68068200D02*
X31524700Y-68325000D01*
X22174700Y-78850000D02*
X22174700Y-72878200D01*
X21537100Y-72878200D02*
X22174700Y-72878200D01*
X21324600Y-72665700D02*
X21537100Y-72878200D01*
X21324600Y-70975100D02*
X21324600Y-72665700D01*
X25549700Y-66750000D02*
X21324600Y-70975100D01*
X26500000Y-66750000D02*
X25549700Y-66750000D01*
X30425700Y-68910400D02*
X31267900Y-68068200D01*
X30425700Y-69836900D02*
X30425700Y-68910400D01*
X27384400Y-72878200D02*
X30425700Y-69836900D01*
X22174700Y-72878200D02*
X27384400Y-72878200D01*
X28500000Y-63475100D02*
X29000000Y-63975100D01*
X29000000Y-63975100D02*
X29000000Y-66650000D01*
X30810000Y-48540000D02*
X30810000Y-53460000D01*
X54571800Y-74571800D02*
X53500000Y-73500000D01*
X54571800Y-79998900D02*
X54571800Y-74571800D01*
X56148000Y-79998900D02*
X54571800Y-79998900D01*
X65311100Y-43978900D02*
X66500000Y-43978900D01*
X60099000Y-49191000D02*
X65311100Y-43978900D01*
X53232400Y-49191000D02*
X60099000Y-49191000D01*
X52490700Y-49932700D02*
X53232400Y-49191000D01*
X52490700Y-53240700D02*
X52490700Y-49932700D01*
X53500000Y-54250000D02*
X52490700Y-53240700D01*
X66500000Y-42790000D02*
X66500000Y-43978900D01*
X31000000Y-62049700D02*
X31000000Y-63000000D01*
X31275100Y-61774600D02*
X31000000Y-62049700D01*
X35617600Y-61774600D02*
X31275100Y-61774600D01*
X35725300Y-61882300D02*
X35617600Y-61774600D01*
X35725300Y-64774400D02*
X35725300Y-61882300D01*
X35225000Y-65274700D02*
X35725300Y-64774400D01*
X35225000Y-66000000D02*
X35225000Y-65274700D01*
X58115300Y-110800000D02*
X57050000Y-110800000D01*
X61000000Y-107915000D02*
X58115300Y-110800000D01*
X61000000Y-107135000D02*
X61000000Y-107915000D01*
X66500000Y-102859000D02*
X66500000Y-101670000D01*
X64495800Y-102859000D02*
X66500000Y-102859000D01*
X61000000Y-106355000D02*
X64495800Y-102859000D01*
X61000000Y-107135000D02*
X61000000Y-106355000D01*
X51500000Y-79929300D02*
X51500000Y-73500000D01*
X54571800Y-83001100D02*
X51500000Y-79929300D01*
X56148000Y-83001100D02*
X54571800Y-83001100D01*
X66500000Y-88691100D02*
X66500000Y-89880000D01*
X63414300Y-88691100D02*
X66500000Y-88691100D01*
X57724300Y-83001100D02*
X63414300Y-88691100D01*
X56148000Y-83001100D02*
X57724300Y-83001100D01*
X38450000Y-45300000D02*
X39500000Y-44250000D01*
X35140000Y-45300000D02*
X38450000Y-45300000D01*
X57750700Y-81500000D02*
X56148000Y-81500000D01*
X23000000Y-82150000D02*
X23825300Y-82150000D01*
X23000000Y-87324700D02*
X23000000Y-88150000D01*
X23825300Y-86499400D02*
X23000000Y-87324700D01*
X23825300Y-82150000D02*
X23825300Y-86499400D01*
X31524700Y-67025000D02*
X32250000Y-67025000D01*
X31427500Y-66927800D02*
X31524700Y-67025000D01*
X31269200Y-66927800D02*
X31427500Y-66927800D01*
X32250000Y-67675000D02*
X32250000Y-67025000D01*
X25553100Y-80422200D02*
X23825300Y-82150000D01*
X25553100Y-77877800D02*
X25553100Y-80422200D01*
X23825300Y-76150000D02*
X25553100Y-77877800D01*
X23000000Y-76150000D02*
X23825300Y-76150000D01*
X23000000Y-75224700D02*
X23173600Y-75051100D01*
X23000000Y-76150000D02*
X23000000Y-75224700D01*
X65158700Y-39758700D02*
X65158700Y-40250000D01*
X58000000Y-32600000D02*
X65158700Y-39758700D01*
X57750700Y-81500000D02*
X60100200Y-81500000D01*
X66611900Y-99867200D02*
X67374200Y-100629300D01*
X64976800Y-99867200D02*
X66611900Y-99867200D01*
X55225300Y-90115700D02*
X64976800Y-99867200D01*
X55225300Y-89750000D02*
X55225300Y-90115700D01*
X54250000Y-89750000D02*
X55225300Y-89750000D01*
X66500000Y-105561000D02*
X66500000Y-106750000D01*
X67020100Y-105561000D02*
X66500000Y-105561000D01*
X67851000Y-104730000D02*
X67020100Y-105561000D01*
X67851000Y-101106000D02*
X67851000Y-104730000D01*
X67374200Y-100629300D02*
X67851000Y-101106000D01*
X65987700Y-40250000D02*
X65158700Y-40250000D01*
X65987700Y-40250000D02*
X66500000Y-40250000D01*
X60100200Y-81500000D02*
X62425800Y-81500000D01*
X63076700Y-82150900D02*
X68307500Y-82150900D01*
X62425800Y-81500000D02*
X63076700Y-82150900D01*
X68307500Y-99696000D02*
X68307500Y-82150900D01*
X67374200Y-100629300D02*
X68307500Y-99696000D01*
X50625300Y-89250000D02*
X49500000Y-89250000D01*
X51138000Y-88737300D02*
X50625300Y-89250000D01*
X58762500Y-88737300D02*
X51138000Y-88737300D01*
X59275900Y-89250700D02*
X58762500Y-88737300D01*
X60000000Y-89250700D02*
X59275900Y-89250700D01*
X59977900Y-69146800D02*
X53019200Y-69146800D01*
X60524700Y-68600000D02*
X59977900Y-69146800D01*
X61500000Y-68600000D02*
X60524700Y-68600000D01*
X39300000Y-110800000D02*
X45050000Y-110800000D01*
X31865000Y-102886000D02*
X31865000Y-103365000D01*
X38452600Y-96298900D02*
X31865000Y-102886000D01*
X46749200Y-96298900D02*
X38452600Y-96298900D01*
X54315300Y-103865000D02*
X46749200Y-96298900D01*
X61000000Y-103865000D02*
X54315300Y-103865000D01*
X22000000Y-103365000D02*
X31865000Y-103365000D01*
X31865000Y-103365000D02*
X39300000Y-110800000D01*
X25384700Y-110800000D02*
X27300000Y-110800000D01*
X22000000Y-107415000D02*
X25384700Y-110800000D01*
X22000000Y-106635000D02*
X22000000Y-107415000D01*
X40524700Y-89020000D02*
X33000000Y-89020000D01*
X40754700Y-89250000D02*
X40524700Y-89020000D01*
X41880000Y-89250000D02*
X40754700Y-89250000D01*
X31519900Y-68979800D02*
X31340400Y-68979800D01*
X31524700Y-68975000D02*
X31519900Y-68979800D01*
X32250000Y-68975000D02*
X31524700Y-68975000D01*
X53500000Y-52250000D02*
X55675300Y-52250000D01*
X66500000Y-45330000D02*
X65158700Y-45330000D01*
X37350000Y-60210000D02*
X37350000Y-61480000D01*
X35140000Y-58000000D02*
X37350000Y-60210000D01*
X37350000Y-61480000D02*
X37350000Y-62750000D01*
X66500000Y-65040000D02*
X66500000Y-63851100D01*
X56200300Y-51725000D02*
X59144600Y-51725000D01*
X55675300Y-52250000D02*
X56200300Y-51725000D01*
X65158700Y-45710900D02*
X65158700Y-45330000D01*
X59144600Y-51725000D02*
X65158700Y-45710900D01*
X62197100Y-63851100D02*
X66500000Y-63851100D01*
X59207300Y-60861300D02*
X62197100Y-63851100D01*
X59207300Y-51787700D02*
X59207300Y-60861300D01*
X59144600Y-51725000D02*
X59207300Y-51787700D01*
X37598900Y-61728900D02*
X37350000Y-61480000D01*
X58339700Y-61728900D02*
X37598900Y-61728900D01*
X59207300Y-60861300D02*
X58339700Y-61728900D01*
X33275000Y-80050300D02*
X33275000Y-72177300D01*
X23825300Y-89500000D02*
X33275000Y-80050300D01*
X23000000Y-89500000D02*
X23825300Y-89500000D01*
X33275000Y-72177300D02*
X33275000Y-70000000D01*
X67020100Y-49058900D02*
X66500000Y-49058900D01*
X68806200Y-50845000D02*
X67020100Y-49058900D01*
X68806200Y-72203000D02*
X68806200Y-50845000D01*
X67129600Y-73879600D02*
X68806200Y-72203000D01*
X63879100Y-73879600D02*
X67129600Y-73879600D01*
X62176800Y-72177300D02*
X63879100Y-73879600D01*
X33275000Y-72177300D02*
X62176800Y-72177300D01*
X66500000Y-47870000D02*
X66500000Y-49058900D01*
X36250000Y-66566100D02*
X36030900Y-66347000D01*
X36250000Y-67025000D02*
X36250000Y-66566100D01*
X22174700Y-81165000D02*
X22344900Y-80994800D01*
X22174700Y-83500000D02*
X22174700Y-81165000D01*
X23000000Y-83500000D02*
X22174700Y-83500000D01*
X23825300Y-77704000D02*
X24881400Y-78760100D01*
X23825300Y-77500000D02*
X23825300Y-77704000D01*
X23000000Y-77500000D02*
X23825300Y-77500000D01*
X36250000Y-67675000D02*
X37218900Y-67675000D01*
D41*
X36108000Y-117642000D02*
X31250000Y-122500000D01*
X46108000Y-117642000D02*
X36108000Y-117642000D01*
X51000000Y-112750000D02*
X46108000Y-117642000D01*
X54100400Y-107650000D02*
X45000000Y-98550000D01*
X54100400Y-116150000D02*
X54100400Y-107650000D01*
X50340900Y-119909000D02*
X54100400Y-116150000D01*
X50340900Y-122500000D02*
X50340900Y-119909000D01*
X47750000Y-122500000D02*
X50340900Y-122500000D01*
D40*
X28230000Y-40250000D02*
X30770000Y-40250000D01*
X52624700Y-44250000D02*
X53500000Y-44250000D01*
X49730300Y-41355600D02*
X52624700Y-44250000D01*
X37694200Y-41355600D02*
X49730300Y-41355600D01*
X37617500Y-41432300D02*
X37694200Y-41355600D01*
X31952300Y-41432300D02*
X37617500Y-41432300D01*
X30770000Y-40250000D02*
X31952300Y-41432300D01*
X34579400Y-71379700D02*
X33925000Y-70725300D01*
X67141000Y-71379700D02*
X34579400Y-71379700D01*
X67872500Y-70648200D02*
X67141000Y-71379700D01*
X67872500Y-69621300D02*
X67872500Y-70648200D01*
X67020100Y-68768900D02*
X67872500Y-69621300D01*
X66500000Y-68768900D02*
X67020100Y-68768900D01*
X66500000Y-67580000D02*
X66500000Y-68768900D01*
X33925000Y-70000000D02*
X33925000Y-70725300D01*
X64553400Y-70725300D02*
X34575000Y-70725300D01*
X65158700Y-70120000D02*
X64553400Y-70725300D01*
X66500000Y-70120000D02*
X65158700Y-70120000D01*
X34575000Y-70000000D02*
X34575000Y-70725300D01*
X37224700Y-48295300D02*
X35140000Y-50380000D01*
X37224700Y-48250000D02*
X37224700Y-48295300D01*
X39500000Y-48250000D02*
X37224700Y-48250000D01*
X65979900Y-51761100D02*
X66500000Y-51761100D01*
X65149000Y-50930200D02*
X65979900Y-51761100D01*
X65149000Y-47387100D02*
X65149000Y-50930200D01*
X65936100Y-46600000D02*
X65149000Y-47387100D01*
X67065000Y-46600000D02*
X65936100Y-46600000D01*
X67859500Y-45805500D02*
X67065000Y-46600000D01*
X67859500Y-42233400D02*
X67859500Y-45805500D01*
X67162100Y-41536000D02*
X67859500Y-42233400D01*
X65674200Y-41536000D02*
X67162100Y-41536000D01*
X63180200Y-44030000D02*
X65674200Y-41536000D01*
X57561700Y-44030000D02*
X63180200Y-44030000D01*
X56583400Y-45008300D02*
X57561700Y-44030000D01*
X56583400Y-45813400D02*
X56583400Y-45008300D01*
X55022100Y-47374700D02*
X56583400Y-45813400D01*
X41250600Y-47374700D02*
X55022100Y-47374700D01*
X40375300Y-48250000D02*
X41250600Y-47374700D01*
X39500000Y-48250000D02*
X40375300Y-48250000D01*
X66500000Y-52950000D02*
X66500000Y-51761100D01*
X40426700Y-50250000D02*
X42003300Y-51826600D01*
X39500000Y-50250000D02*
X40426700Y-50250000D01*
X37224700Y-50835300D02*
X35140000Y-52920000D01*
X37224700Y-50250000D02*
X37224700Y-50835300D01*
X39500000Y-50250000D02*
X37224700Y-50250000D01*
X35443300Y-69781700D02*
X36442700Y-69781700D01*
X35225000Y-70000000D02*
X35443300Y-69781700D01*
X66500000Y-55490000D02*
X66500000Y-56678900D01*
X67841400Y-65724000D02*
X67195200Y-66370200D01*
X67841400Y-57500200D02*
X67841400Y-65724000D01*
X67020100Y-56678900D02*
X67841400Y-57500200D01*
X66500000Y-56678900D02*
X67020100Y-56678900D01*
X68355800Y-70804200D02*
X66500000Y-72660000D01*
X68355800Y-67530800D02*
X68355800Y-70804200D01*
X67195200Y-66370200D02*
X68355800Y-67530800D01*
X64120100Y-66370200D02*
X67195200Y-66370200D01*
X62965700Y-67524600D02*
X64120100Y-66370200D01*
X39422200Y-67524600D02*
X62965700Y-67524600D01*
X37165100Y-69781700D02*
X39422200Y-67524600D01*
X36442700Y-69781700D02*
X37165100Y-69781700D01*
X37858200Y-68092100D02*
X37858200Y-66622300D01*
X36975300Y-68975000D02*
X37858200Y-68092100D01*
X36250000Y-68975000D02*
X36975300Y-68975000D01*
X33926000Y-56674000D02*
X35140000Y-55460000D01*
X33926000Y-58473000D02*
X33926000Y-56674000D01*
X36175700Y-60722700D02*
X33926000Y-58473000D01*
X36175700Y-63470100D02*
X36175700Y-60722700D01*
X37858200Y-65152600D02*
X36175700Y-63470100D01*
X37858200Y-66622300D02*
X37858200Y-65152600D01*
X62560500Y-67001800D02*
X62712200Y-66850100D01*
X38237700Y-67001800D02*
X62560500Y-67001800D01*
X37858200Y-66622300D02*
X38237700Y-67001800D01*
X64875800Y-60843100D02*
X66500000Y-59218900D01*
X62633000Y-60843100D02*
X64875800Y-60843100D01*
X66500000Y-58030000D02*
X66500000Y-59218900D01*
X61500000Y-64824700D02*
X59685900Y-64824700D01*
X61500000Y-65900000D02*
X61500000Y-64824700D01*
X36810100Y-39350100D02*
X35140000Y-37680000D01*
X48724700Y-39350100D02*
X36810100Y-39350100D01*
X52624600Y-43250000D02*
X48724700Y-39350100D01*
X55196300Y-43250000D02*
X52624600Y-43250000D01*
X55824000Y-43877700D02*
X55196300Y-43250000D01*
X55824000Y-44575400D02*
X55824000Y-43877700D01*
X54149400Y-46250000D02*
X55824000Y-44575400D01*
X53500000Y-46250000D02*
X54149400Y-46250000D01*
X33265100Y-86710000D02*
X41880000Y-86710000D01*
X33000000Y-86975100D02*
X33265100Y-86710000D01*
X33000000Y-87750000D02*
X33000000Y-86975100D01*
X55999000Y-58000000D02*
X49436900Y-51437800D01*
X58000000Y-58000000D02*
X55999000Y-58000000D01*
X47624700Y-53250000D02*
X49436900Y-51437800D01*
X37056700Y-53250000D02*
X47624700Y-53250000D01*
X36035700Y-54271000D02*
X37056700Y-53250000D01*
X33103800Y-54271000D02*
X36035700Y-54271000D01*
X28834800Y-58540000D02*
X33103800Y-54271000D01*
X52624700Y-48250000D02*
X53500000Y-48250000D01*
X49436900Y-51437800D02*
X52624700Y-48250000D01*
X23190000Y-58540000D02*
X28834800Y-58540000D01*
X28834800Y-58540000D02*
X30810000Y-58540000D01*
X31510000Y-42760000D02*
X30810000Y-43460000D01*
X35140000Y-42760000D02*
X31510000Y-42760000D01*
X23190000Y-43460000D02*
X30810000Y-43460000D01*
M02*
