M48
;DRILL file {KiCad (2015-08-08 BZR 6073)-product} date Wed 12 Aug 2015 11:12:13 CEST
;FORMAT={-:-/ absolute / inch / decimal}
FMAT,2
INCH,TZ
T1C0.016
T2C0.024
T3C0.026
T4C0.031
T5C0.032
T6C0.039
T7C0.040
T8C0.051
T9C0.052
T10C0.098
%
G90
G05
M72
T1
X0.8797Y-3.1888
X0.9123Y-2.9548
X0.9796Y-3.1008
X1.2311Y-2.635
X1.2339Y-2.7157
X1.4185Y-2.6121
X1.4348Y-2.7473
X1.4653Y-2.6644
X1.6537Y-2.0404
X2.0874Y-2.7223
X2.3498Y-2.5522
X2.4659Y-2.3954
X2.469Y-2.6319
X2.6893Y-3.2343
T2
X1.2992Y-3.4547
X1.2992Y-3.5047
X1.2992Y-3.5547
T3
X1.5551Y-1.5846
X1.5551Y-1.6634
X1.5551Y-1.7421
X1.5551Y-1.8209
X1.5551Y-1.8996
X1.5551Y-1.9783
X1.5551Y-2.0571
X1.5551Y-2.1358
X2.1063Y-1.5846
X2.1063Y-1.6634
X2.1063Y-1.7421
X2.1063Y-1.8209
X2.1063Y-1.8996
X2.1063Y-1.9783
X2.1063Y-2.0571
X2.1063Y-2.1358
T4
X1.6488Y-3.4138
X1.6488Y-3.5138
X1.9488Y-3.4138
X1.9488Y-3.5138
X2.0276Y-2.8937
X2.1063Y-2.8937
X2.1358Y-3.5335
X2.2146Y-3.5335
T5
X0.885Y-1.5748
X0.913Y-1.711
X0.913Y-1.911
X0.913Y-2.1047
X0.913Y-2.3047
X0.985Y-1.5748
X1.1114Y-1.5846
X1.2114Y-1.5846
X1.213Y-1.711
X1.213Y-1.911
X1.213Y-2.1047
X1.213Y-2.3047
T6
X1.0748Y-4.3622
X1.5472Y-4.3622
X1.7736Y-4.3622
X2.2461Y-4.3622
T7
X1.3835Y-1.2835
X1.3835Y-1.3835
X1.3835Y-1.4835
X1.3835Y-1.5835
X1.3835Y-1.6835
X1.3835Y-1.7835
X1.3835Y-1.8835
X1.3835Y-1.9835
X1.3835Y-2.0835
X1.3835Y-2.1835
X1.3835Y-2.2835
X1.7035Y-2.3835
X1.8035Y-2.3835
X1.9035Y-2.3835
X2.0035Y-2.3835
X2.2835Y-1.2835
X2.2835Y-1.3835
X2.2835Y-1.4835
X2.2835Y-1.5835
X2.2835Y-1.6835
X2.2835Y-1.7835
X2.2835Y-1.8835
X2.2835Y-1.9835
X2.2835Y-2.0835
X2.2835Y-2.1835
X2.2835Y-2.2835
X2.6181Y-1.5846
X2.6181Y-1.6846
X2.6181Y-1.7846
X2.6181Y-1.8846
X2.6181Y-1.9846
X2.6181Y-2.0846
X2.6181Y-2.1846
X2.6181Y-2.2846
X2.6181Y-2.4606
X2.6181Y-2.5606
X2.6181Y-2.6606
X2.6181Y-2.7606
X2.6181Y-2.8606
X2.6181Y-2.9606
X2.6181Y-3.0606
X2.6181Y-3.3386
X2.6181Y-3.4386
X2.6181Y-3.5386
X2.6181Y-3.6386
X2.6181Y-3.7386
X2.6181Y-3.8386
X2.6181Y-4.0028
X2.6181Y-4.1028
X2.6181Y-4.2028
X2.6181Y-4.3701
X2.6181Y-4.4701
X2.6181Y-4.5701
T8
X1.0728Y-3.8799
X1.3091Y-4.439
X1.5472Y-3.8819
X1.7717Y-3.8799
X2.0079Y-4.439
X2.2461Y-3.8819
T9
X1.2303Y-4.8228
X1.4272Y-4.8228
X1.6831Y-4.8228
X1.8799Y-4.8228
X2.1358Y-4.8228
X2.3327Y-4.8228
T10
X0.9252Y-4.9803
X0.935Y-1.3189
X2.6083Y-4.9705
X2.6181Y-1.3091
T0
M30
