G04 #@! TF.FileFunction,Copper,L2,Bot,Signal*
%FSLAX46Y46*%
G04 Gerber Fmt 4.6, Leading zero omitted, Abs format (unit mm)*
G04 Created by KiCad (PCBNEW (2015-08-08 BZR 6073)-product) date Wed 12 Aug 2015 16:27:57 CEST*
%MOMM*%
G01*
G04 APERTURE LIST*
%ADD10C,0.100000*%
%ADD11O,1.981200X3.962400*%
%ADD12R,2.032000X1.727200*%
%ADD13O,2.032000X1.727200*%
%ADD14O,1.501140X0.899160*%
%ADD15C,1.397000*%
%ADD16O,1.600000X1.600000*%
%ADD17R,2.500000X1.100000*%
%ADD18O,2.500000X1.100000*%
%ADD19R,1.727200X1.727200*%
%ADD20C,1.727200*%
%ADD21R,1.300000X1.300000*%
%ADD22C,1.300000*%
%ADD23C,2.500000*%
%ADD24C,3.000000*%
%ADD25R,1.998980X1.998980*%
%ADD26R,2.000000X2.000000*%
%ADD27C,2.000000*%
%ADD28C,0.600000*%
%ADD29C,0.250000*%
%ADD30C,2.000000*%
%ADD31C,0.254000*%
G04 APERTURE END LIST*
D10*
D11*
X47500000Y-122000000D03*
X42500000Y-122000000D03*
X35750000Y-122000000D03*
X30750000Y-122000000D03*
X59250000Y-122000000D03*
X54250000Y-122000000D03*
D12*
X66500000Y-40250000D03*
D13*
X66500000Y-42790000D03*
X66500000Y-45330000D03*
X66500000Y-47870000D03*
X66500000Y-50410000D03*
X66500000Y-52950000D03*
X66500000Y-55490000D03*
X66500000Y-58030000D03*
D12*
X66500000Y-62500000D03*
D13*
X66500000Y-65040000D03*
X66500000Y-67580000D03*
X66500000Y-70120000D03*
X66500000Y-72660000D03*
X66500000Y-75200000D03*
X66500000Y-77740000D03*
D12*
X66500000Y-106750000D03*
D13*
X66500000Y-104210000D03*
X66500000Y-101670000D03*
D12*
X66500000Y-111000000D03*
D13*
X66500000Y-113540000D03*
X66500000Y-116080000D03*
D12*
X66500000Y-97500000D03*
D13*
X66500000Y-94960000D03*
X66500000Y-92420000D03*
X66500000Y-89880000D03*
X66500000Y-87340000D03*
X66500000Y-84800000D03*
D14*
X33000000Y-85520000D03*
X33000000Y-86790000D03*
X33000000Y-84250000D03*
D15*
X23190000Y-58540000D03*
X23190000Y-53460000D03*
X30810000Y-58540000D03*
X30810000Y-53460000D03*
X30810000Y-43460000D03*
X30810000Y-48540000D03*
X23190000Y-43460000D03*
X23190000Y-48540000D03*
D16*
X46750000Y-87000000D03*
X46750000Y-84460000D03*
X39130000Y-84460000D03*
X39130000Y-87000000D03*
D17*
X38800000Y-40250000D03*
D18*
X38800000Y-42250000D03*
X38800000Y-44250000D03*
X38800000Y-46250000D03*
X38800000Y-48250000D03*
X38800000Y-50250000D03*
X38800000Y-52250000D03*
X38800000Y-54250000D03*
X54200000Y-54250000D03*
X54100000Y-52250000D03*
X54200000Y-50250000D03*
X54200000Y-48250000D03*
X54200000Y-46250000D03*
X54200000Y-44250000D03*
X54200000Y-42250000D03*
X54200000Y-40250000D03*
D19*
X58000000Y-58000000D03*
D20*
X58000000Y-55460000D03*
X58000000Y-52920000D03*
X58000000Y-50380000D03*
X58000000Y-47840000D03*
X58000000Y-45300000D03*
X58000000Y-42760000D03*
X58000000Y-40220000D03*
X58000000Y-37680000D03*
X58000000Y-35140000D03*
X58000000Y-32600000D03*
X35140000Y-32600000D03*
X35140000Y-35140000D03*
X35140000Y-37680000D03*
X35140000Y-40220000D03*
X35140000Y-42760000D03*
X35140000Y-45300000D03*
X35140000Y-47840000D03*
X35140000Y-50380000D03*
X35140000Y-52920000D03*
X35140000Y-55460000D03*
X35140000Y-58000000D03*
X43268000Y-60540000D03*
X45808000Y-60540000D03*
X48348000Y-60540000D03*
X50888000Y-60540000D03*
D15*
X30770000Y-40250000D03*
X28230000Y-40250000D03*
X25020000Y-40000000D03*
X22480000Y-40000000D03*
D21*
X58750000Y-82500000D03*
D22*
X60750000Y-82500000D03*
D21*
X60500000Y-71000000D03*
D22*
X58500000Y-71000000D03*
D23*
X30450000Y-98450000D03*
D24*
X30450000Y-110650000D03*
X42500000Y-110700000D03*
D23*
X42450000Y-98450000D03*
D24*
X36500000Y-96500000D03*
D23*
X47450000Y-98450000D03*
D24*
X47450000Y-110650000D03*
X59500000Y-110700000D03*
D23*
X59450000Y-98450000D03*
D24*
X53500000Y-96500000D03*
D25*
X31000000Y-63998740D03*
X31000000Y-74001260D03*
X36248740Y-74500000D03*
X46251260Y-74500000D03*
D26*
X51000000Y-85000000D03*
D27*
X53540000Y-85000000D03*
D25*
X51500000Y-68248740D03*
X51500000Y-78251260D03*
X27750000Y-63998740D03*
X27750000Y-74001260D03*
X62250000Y-45498740D03*
X62250000Y-55501260D03*
D28*
X36175000Y-65593500D03*
X33956100Y-66406700D03*
X36233800Y-64740900D03*
X34839500Y-70500000D03*
X25177300Y-80234000D03*
X23492600Y-80550700D03*
X39403400Y-67498500D03*
X53753500Y-113651600D03*
X29440600Y-56085400D03*
X38179500Y-70500000D03*
X39416600Y-69342200D03*
X44603500Y-59182700D03*
D29*
X27750000Y-74001300D02*
X31000000Y-74001300D01*
X31000000Y-70768500D02*
X36175000Y-65593500D01*
X31000000Y-74001300D02*
X31000000Y-70768500D01*
X62250000Y-55501300D02*
X60925200Y-55501300D01*
X22480000Y-40000000D02*
X25020000Y-40000000D01*
X32420000Y-32600000D02*
X25020000Y-40000000D01*
X35140000Y-32600000D02*
X32420000Y-32600000D01*
X51000000Y-85000000D02*
X49674700Y-85000000D01*
X30810000Y-48540000D02*
X23190000Y-48540000D01*
X55902400Y-56652400D02*
X53500000Y-54250000D01*
X59774100Y-56652400D02*
X55902400Y-56652400D01*
X60925200Y-55501300D02*
X59774100Y-56652400D01*
X27750000Y-63998700D02*
X31000000Y-63998700D01*
X31000000Y-63998700D02*
X32324800Y-63998700D01*
X49134700Y-84460000D02*
X46750000Y-84460000D01*
X49674700Y-85000000D02*
X49134700Y-84460000D01*
X46750000Y-84460000D02*
X45624700Y-84460000D01*
X33000000Y-86790000D02*
X34075900Y-86790000D01*
X36482900Y-84383000D02*
X34075900Y-86790000D01*
X36248700Y-84148900D02*
X36482900Y-84383000D01*
X36248700Y-74500000D02*
X36248700Y-84148900D01*
X44499400Y-85585300D02*
X45624700Y-84460000D01*
X37685100Y-85585300D02*
X44499400Y-85585300D01*
X36482900Y-84383000D02*
X37685100Y-85585300D01*
X33956100Y-64740900D02*
X36233800Y-64740900D01*
X33067000Y-64740900D02*
X33956100Y-64740900D01*
X32324800Y-63998700D02*
X33067000Y-64740900D01*
X33956100Y-64740900D02*
X33956100Y-66406700D01*
X66500000Y-77740000D02*
X66500000Y-78928900D01*
X62928900Y-83100100D02*
X62928900Y-82500000D01*
X65979900Y-86151100D02*
X62928900Y-83100100D01*
X66500000Y-86151100D02*
X65979900Y-86151100D01*
X60750000Y-82500000D02*
X62928900Y-82500000D01*
X62928900Y-82500000D02*
X66500000Y-78928900D01*
X66500000Y-87340000D02*
X66500000Y-86151100D01*
X59725300Y-82865700D02*
X59725300Y-82500000D01*
X65550700Y-88691100D02*
X59725300Y-82865700D01*
X66500000Y-88691100D02*
X65550700Y-88691100D01*
X66500000Y-89880000D02*
X66500000Y-88691100D01*
X58750000Y-82500000D02*
X59725300Y-82500000D01*
X33670000Y-101670000D02*
X66500000Y-101670000D01*
X30450000Y-98450000D02*
X33670000Y-101670000D01*
X65979900Y-63688900D02*
X66500000Y-63688900D01*
X60500000Y-69168800D02*
X65979900Y-63688900D01*
X60500000Y-71000000D02*
X60500000Y-69168800D01*
X66500000Y-62500000D02*
X66500000Y-63688900D01*
X67841400Y-109280300D02*
X66500000Y-107938900D01*
X67841400Y-112050000D02*
X67841400Y-109280300D01*
X67540300Y-112351100D02*
X67841400Y-112050000D01*
X66500000Y-112351100D02*
X67540300Y-112351100D01*
X66500000Y-113540000D02*
X66500000Y-112351100D01*
X66500000Y-106750000D02*
X66500000Y-107938900D01*
X60038900Y-32600000D02*
X66500000Y-39061100D01*
X58000000Y-32600000D02*
X60038900Y-32600000D01*
X66500000Y-40250000D02*
X66500000Y-39061100D01*
X36190000Y-44250000D02*
X35140000Y-45300000D01*
X39500000Y-44250000D02*
X36190000Y-44250000D01*
X51500000Y-78251300D02*
X51500000Y-79576100D01*
X53540000Y-81616100D02*
X53540000Y-85000000D01*
X51500000Y-79576100D02*
X53540000Y-81616100D01*
X51540000Y-87000000D02*
X46750000Y-87000000D01*
X53540000Y-85000000D02*
X51540000Y-87000000D01*
X47450000Y-98450000D02*
X42450000Y-98450000D01*
X41380600Y-88125300D02*
X40255300Y-87000000D01*
X49125300Y-88125300D02*
X41380600Y-88125300D01*
X59450000Y-98450000D02*
X49125300Y-88125300D01*
X39130000Y-87000000D02*
X40255300Y-87000000D01*
X68354200Y-63185800D02*
X66500000Y-65040000D01*
X68354200Y-47853000D02*
X68354200Y-63185800D01*
X67020100Y-46518900D02*
X68354200Y-47853000D01*
X66500000Y-46518900D02*
X67020100Y-46518900D01*
X66500000Y-45330000D02*
X66500000Y-46518900D01*
X64990000Y-45498700D02*
X65158700Y-45330000D01*
X62250000Y-45498700D02*
X64990000Y-45498700D01*
X66500000Y-45330000D02*
X65158700Y-45330000D01*
X36491000Y-56649000D02*
X35140000Y-58000000D01*
X48125700Y-56649000D02*
X36491000Y-56649000D01*
X52524700Y-52250000D02*
X48125700Y-56649000D01*
X53500000Y-52250000D02*
X52524700Y-52250000D01*
X66500000Y-47870000D02*
X66500000Y-49058900D01*
X39227000Y-66112500D02*
X34839500Y-70500000D01*
X39227000Y-62887300D02*
X39227000Y-66112500D01*
X43556900Y-58557400D02*
X39227000Y-62887300D01*
X53664700Y-58557400D02*
X43556900Y-58557400D01*
X54346600Y-59239300D02*
X53664700Y-58557400D01*
X61176600Y-59239300D02*
X54346600Y-59239300D01*
X63655900Y-56760000D02*
X61176600Y-59239300D01*
X67077000Y-56760000D02*
X63655900Y-56760000D01*
X67849700Y-55987300D02*
X67077000Y-56760000D01*
X67849700Y-49888500D02*
X67849700Y-55987300D01*
X67020100Y-49058900D02*
X67849700Y-49888500D01*
X66500000Y-49058900D02*
X67020100Y-49058900D01*
X32569700Y-72769800D02*
X34839500Y-70500000D01*
X32569700Y-74957900D02*
X32569700Y-72769800D01*
X27293600Y-80234000D02*
X32569700Y-74957900D01*
X25177300Y-80234000D02*
X27293600Y-80234000D01*
X23878600Y-80936700D02*
X23492600Y-80550700D01*
X27227800Y-80936700D02*
X23878600Y-80936700D01*
X33587400Y-74577100D02*
X27227800Y-80936700D01*
X33587400Y-73314500D02*
X33587400Y-74577100D01*
X39403400Y-67498500D02*
X33587400Y-73314500D01*
D30*
X62607800Y-121233100D02*
X61840900Y-122000000D01*
X62607800Y-109365000D02*
X62607800Y-121233100D01*
X60766100Y-107523300D02*
X62607800Y-109365000D01*
X33576700Y-107523300D02*
X60766100Y-107523300D01*
X30450000Y-110650000D02*
X33576700Y-107523300D01*
X59250000Y-122000000D02*
X61840900Y-122000000D01*
X32128800Y-125621200D02*
X35750000Y-122000000D01*
X29707000Y-125621200D02*
X32128800Y-125621200D01*
X28149600Y-124063800D02*
X29707000Y-125621200D01*
X28149600Y-119877500D02*
X28149600Y-124063800D01*
X37327100Y-110700000D02*
X28149600Y-119877500D01*
X42500000Y-110700000D02*
X37327100Y-110700000D01*
X50451600Y-113651600D02*
X53753500Y-113651600D01*
X47450000Y-110650000D02*
X50451600Y-113651600D01*
X59500000Y-111582500D02*
X59500000Y-110700000D01*
X54830600Y-116251900D02*
X59500000Y-111582500D01*
X36498100Y-116251900D02*
X54830600Y-116251900D01*
X30750000Y-122000000D02*
X36498100Y-116251900D01*
D29*
X62285400Y-50410000D02*
X66500000Y-50410000D01*
X58445400Y-46570000D02*
X62285400Y-50410000D01*
X56534600Y-46570000D02*
X58445400Y-46570000D01*
X54214600Y-44250000D02*
X56534600Y-46570000D01*
X53500000Y-44250000D02*
X54214600Y-44250000D01*
X28230000Y-40250000D02*
X30770000Y-40250000D01*
X29658300Y-56085400D02*
X29440600Y-56085400D01*
X35140000Y-50603700D02*
X29658300Y-56085400D01*
X35140000Y-50380000D02*
X35140000Y-50603700D01*
X66388900Y-51650000D02*
X66500000Y-51761100D01*
X57588400Y-51650000D02*
X66388900Y-51650000D01*
X55063700Y-49125300D02*
X57588400Y-51650000D01*
X41250600Y-49125300D02*
X55063700Y-49125300D01*
X40375300Y-48250000D02*
X41250600Y-49125300D01*
X39500000Y-48250000D02*
X40375300Y-48250000D01*
X66500000Y-52950000D02*
X66500000Y-51761100D01*
X66337800Y-54138900D02*
X66500000Y-54301100D01*
X57516100Y-54138900D02*
X66337800Y-54138900D01*
X56527000Y-53149800D02*
X57516100Y-54138900D01*
X56527000Y-52709400D02*
X56527000Y-53149800D01*
X54942900Y-51125300D02*
X56527000Y-52709400D01*
X41250600Y-51125300D02*
X54942900Y-51125300D01*
X40375300Y-50250000D02*
X41250600Y-51125300D01*
X39500000Y-50250000D02*
X40375300Y-50250000D01*
X37224700Y-50835300D02*
X37224700Y-50250000D01*
X35140000Y-52920000D02*
X37224700Y-50835300D01*
X39500000Y-50250000D02*
X37224700Y-50250000D01*
X66500000Y-55490000D02*
X66500000Y-54301100D01*
X37789600Y-70500000D02*
X38179500Y-70500000D01*
X34923800Y-73365800D02*
X37789600Y-70500000D01*
X34923800Y-73893700D02*
X34923800Y-73365800D01*
X27430400Y-81387100D02*
X34923800Y-73893700D01*
X23441000Y-81387100D02*
X27430400Y-81387100D01*
X22118000Y-80064100D02*
X23441000Y-81387100D01*
X22118000Y-58106200D02*
X22118000Y-80064100D01*
X22708100Y-57516100D02*
X22118000Y-58106200D01*
X30543900Y-57516100D02*
X22708100Y-57516100D01*
X35140000Y-52920000D02*
X30543900Y-57516100D01*
X66500000Y-58030000D02*
X66500000Y-59218900D01*
X37224700Y-53375300D02*
X37224700Y-52250000D01*
X35140000Y-55460000D02*
X37224700Y-53375300D01*
X59500100Y-71774600D02*
X59500100Y-66218800D01*
X62925500Y-75200000D02*
X59500100Y-71774600D01*
X66500000Y-75200000D02*
X62925500Y-75200000D01*
X59500100Y-66218800D02*
X66500000Y-59218900D01*
X44603500Y-59182700D02*
X45017100Y-59596200D01*
X52619600Y-59338300D02*
X59500100Y-66218800D01*
X45275000Y-59338300D02*
X52619600Y-59338300D01*
X45017100Y-59596200D02*
X45275000Y-59338300D01*
X39500000Y-52250000D02*
X37224700Y-52250000D01*
X44597800Y-64161000D02*
X39416600Y-69342200D01*
X44597800Y-60015500D02*
X44597800Y-64161000D01*
X45017100Y-59596200D02*
X44597800Y-60015500D01*
X53500000Y-46250000D02*
X52624700Y-46250000D01*
X44054700Y-37680000D02*
X52624700Y-46250000D01*
X35140000Y-37680000D02*
X44054700Y-37680000D01*
X65979900Y-93771100D02*
X66500000Y-93771100D01*
X55167000Y-82958200D02*
X65979900Y-93771100D01*
X55167000Y-77430300D02*
X55167000Y-82958200D01*
X45808000Y-68071300D02*
X55167000Y-77430300D01*
X45808000Y-60540000D02*
X45808000Y-68071300D01*
X66500000Y-94960000D02*
X66500000Y-93771100D01*
X66500000Y-92420000D02*
X66500000Y-91231100D01*
X57291300Y-69483300D02*
X48348000Y-60540000D01*
X57291300Y-82839800D02*
X57291300Y-69483300D01*
X65682600Y-91231100D02*
X57291300Y-82839800D01*
X66500000Y-91231100D02*
X65682600Y-91231100D01*
X58000000Y-58000000D02*
X56811100Y-58000000D01*
X30810000Y-58540000D02*
X23190000Y-58540000D01*
X31526400Y-59256400D02*
X30810000Y-58540000D01*
X40986800Y-59256400D02*
X31526400Y-59256400D01*
X42243200Y-58000000D02*
X40986800Y-59256400D01*
X56811100Y-58000000D02*
X42243200Y-58000000D01*
X31510000Y-42760000D02*
X30810000Y-43460000D01*
X35140000Y-42760000D02*
X31510000Y-42760000D01*
X23190000Y-43460000D02*
X30810000Y-43460000D01*
D31*
G36*
X69290000Y-129290000D02*
X64618900Y-129290000D01*
X64627000Y-129250000D01*
X64627000Y-127258183D01*
X64651043Y-127316372D01*
X65180839Y-127847093D01*
X65873405Y-128134672D01*
X66623305Y-128135326D01*
X67316372Y-127848957D01*
X67847093Y-127319161D01*
X68134672Y-126626595D01*
X68135326Y-125876695D01*
X67848957Y-125183628D01*
X67319161Y-124652907D01*
X66626595Y-124365328D01*
X65876695Y-124364674D01*
X65183628Y-124651043D01*
X64652907Y-125180839D01*
X64627000Y-125243230D01*
X64627000Y-116439026D01*
X64892642Y-116439026D01*
X64895291Y-116454791D01*
X65149268Y-116982036D01*
X65585680Y-117371954D01*
X66138087Y-117565184D01*
X66373000Y-117420924D01*
X66373000Y-116207000D01*
X66627000Y-116207000D01*
X66627000Y-117420924D01*
X66861913Y-117565184D01*
X67414320Y-117371954D01*
X67850732Y-116982036D01*
X68104709Y-116454791D01*
X68107358Y-116439026D01*
X67986217Y-116207000D01*
X66627000Y-116207000D01*
X66373000Y-116207000D01*
X65013783Y-116207000D01*
X64892642Y-116439026D01*
X64627000Y-116439026D01*
X64627000Y-113540000D01*
X64816655Y-113540000D01*
X64930729Y-114113489D01*
X65255585Y-114599670D01*
X65565069Y-114806461D01*
X65149268Y-115177964D01*
X64895291Y-115705209D01*
X64892642Y-115720974D01*
X65013783Y-115953000D01*
X66373000Y-115953000D01*
X66373000Y-115933000D01*
X66627000Y-115933000D01*
X66627000Y-115953000D01*
X67986217Y-115953000D01*
X68107358Y-115720974D01*
X68104709Y-115705209D01*
X67850732Y-115177964D01*
X67434931Y-114806461D01*
X67744415Y-114599670D01*
X68069271Y-114113489D01*
X68183345Y-113540000D01*
X68069271Y-112966511D01*
X68035837Y-112916474D01*
X68077701Y-112888501D01*
X68378801Y-112587401D01*
X68543548Y-112340839D01*
X68601400Y-112050000D01*
X68601400Y-109280300D01*
X68543548Y-108989461D01*
X68378801Y-108742899D01*
X67812983Y-108177081D01*
X67967441Y-108077690D01*
X68112431Y-107865490D01*
X68163440Y-107613600D01*
X68163440Y-105886400D01*
X68119162Y-105651083D01*
X67980090Y-105434959D01*
X67767890Y-105289969D01*
X67673073Y-105270768D01*
X67850732Y-105112036D01*
X68104709Y-104584791D01*
X68107358Y-104569026D01*
X67986217Y-104337000D01*
X66627000Y-104337000D01*
X66627000Y-104357000D01*
X66373000Y-104357000D01*
X66373000Y-104337000D01*
X65013783Y-104337000D01*
X64892642Y-104569026D01*
X64895291Y-104584791D01*
X65149268Y-105112036D01*
X65324845Y-105268907D01*
X65248683Y-105283238D01*
X65032559Y-105422310D01*
X64887569Y-105634510D01*
X64836560Y-105886400D01*
X64836560Y-107613600D01*
X64880838Y-107848917D01*
X65019910Y-108065041D01*
X65232110Y-108210031D01*
X65484000Y-108261040D01*
X65818767Y-108261040D01*
X65962599Y-108476301D01*
X66975258Y-109488960D01*
X65484000Y-109488960D01*
X65248683Y-109533238D01*
X65032559Y-109672310D01*
X64887569Y-109884510D01*
X64836560Y-110136400D01*
X64836560Y-111863600D01*
X64880838Y-112098917D01*
X65019910Y-112315041D01*
X65232110Y-112460031D01*
X65273439Y-112468400D01*
X65255585Y-112480330D01*
X64930729Y-112966511D01*
X64816655Y-113540000D01*
X64627000Y-113540000D01*
X64627000Y-102430000D01*
X65055352Y-102430000D01*
X65255585Y-102729670D01*
X65565069Y-102936461D01*
X65149268Y-103307964D01*
X64895291Y-103835209D01*
X64892642Y-103850974D01*
X65013783Y-104083000D01*
X66373000Y-104083000D01*
X66373000Y-104063000D01*
X66627000Y-104063000D01*
X66627000Y-104083000D01*
X67986217Y-104083000D01*
X68107358Y-103850974D01*
X68104709Y-103835209D01*
X67850732Y-103307964D01*
X67434931Y-102936461D01*
X67744415Y-102729670D01*
X68069271Y-102243489D01*
X68183345Y-101670000D01*
X68069271Y-101096511D01*
X67744415Y-100610330D01*
X67258234Y-100285474D01*
X66684745Y-100171400D01*
X66315255Y-100171400D01*
X65741766Y-100285474D01*
X65255585Y-100610330D01*
X65055352Y-100910000D01*
X64627000Y-100910000D01*
X64627000Y-94000000D01*
X64618315Y-93953841D01*
X64591035Y-93911447D01*
X64549410Y-93883006D01*
X64500000Y-93873000D01*
X55947802Y-93873000D01*
X49834802Y-87760000D01*
X51540000Y-87760000D01*
X51830839Y-87702148D01*
X52077401Y-87537401D01*
X53048527Y-86566275D01*
X53213352Y-86634716D01*
X53863795Y-86635284D01*
X54464943Y-86386894D01*
X54925278Y-85927363D01*
X55174716Y-85326648D01*
X55175284Y-84676205D01*
X54926894Y-84075057D01*
X54467363Y-83614722D01*
X54300000Y-83545227D01*
X54300000Y-81616100D01*
X54242148Y-81325261D01*
X54077401Y-81078699D01*
X52806488Y-79807786D01*
X52950931Y-79714840D01*
X53095921Y-79502640D01*
X53146930Y-79250750D01*
X53146930Y-77251770D01*
X53102652Y-77016453D01*
X52963580Y-76800329D01*
X52751380Y-76655339D01*
X52499490Y-76604330D01*
X50500510Y-76604330D01*
X50265193Y-76648608D01*
X50049069Y-76787680D01*
X49904079Y-76999880D01*
X49853070Y-77251770D01*
X49853070Y-79250750D01*
X49897348Y-79486067D01*
X50036420Y-79702191D01*
X50248620Y-79847181D01*
X50500510Y-79898190D01*
X50818733Y-79898190D01*
X50962599Y-80113501D01*
X52780000Y-81930902D01*
X52780000Y-83544953D01*
X52615057Y-83613106D01*
X52552803Y-83675251D01*
X52538327Y-83640302D01*
X52359699Y-83461673D01*
X52126310Y-83365000D01*
X51285750Y-83365000D01*
X51127000Y-83523750D01*
X51127000Y-84873000D01*
X51147000Y-84873000D01*
X51147000Y-85127000D01*
X51127000Y-85127000D01*
X51127000Y-85147000D01*
X50873000Y-85147000D01*
X50873000Y-85127000D01*
X49523750Y-85127000D01*
X49365000Y-85285750D01*
X49365000Y-86126309D01*
X49412092Y-86240000D01*
X47962995Y-86240000D01*
X47792811Y-85985302D01*
X47388297Y-85715014D01*
X47605134Y-85612389D01*
X47981041Y-85197423D01*
X48141904Y-84809039D01*
X48019915Y-84587000D01*
X46877000Y-84587000D01*
X46877000Y-84607000D01*
X46623000Y-84607000D01*
X46623000Y-84587000D01*
X45480085Y-84587000D01*
X45358096Y-84809039D01*
X45518959Y-85197423D01*
X45894866Y-85612389D01*
X46111703Y-85715014D01*
X45707189Y-85985302D01*
X45396120Y-86450849D01*
X45286887Y-87000000D01*
X45359550Y-87365300D01*
X41695402Y-87365300D01*
X40792701Y-86462599D01*
X40546139Y-86297852D01*
X40356437Y-86260118D01*
X40172811Y-85985302D01*
X39790725Y-85730000D01*
X40172811Y-85474698D01*
X40483880Y-85009151D01*
X40593113Y-84460000D01*
X40523685Y-84110961D01*
X45358096Y-84110961D01*
X45480085Y-84333000D01*
X46623000Y-84333000D01*
X46623000Y-83189371D01*
X46877000Y-83189371D01*
X46877000Y-84333000D01*
X48019915Y-84333000D01*
X48141904Y-84110961D01*
X48043631Y-83873691D01*
X49365000Y-83873691D01*
X49365000Y-84714250D01*
X49523750Y-84873000D01*
X50873000Y-84873000D01*
X50873000Y-83523750D01*
X50714250Y-83365000D01*
X49873690Y-83365000D01*
X49640301Y-83461673D01*
X49461673Y-83640302D01*
X49365000Y-83873691D01*
X48043631Y-83873691D01*
X47981041Y-83722577D01*
X47605134Y-83307611D01*
X47099041Y-83068086D01*
X46877000Y-83189371D01*
X46623000Y-83189371D01*
X46400959Y-83068086D01*
X45894866Y-83307611D01*
X45518959Y-83722577D01*
X45358096Y-84110961D01*
X40523685Y-84110961D01*
X40483880Y-83910849D01*
X40172811Y-83445302D01*
X39707264Y-83134233D01*
X39158113Y-83025000D01*
X39101887Y-83025000D01*
X38552736Y-83134233D01*
X38087189Y-83445302D01*
X37776120Y-83910849D01*
X37666887Y-84460000D01*
X37776120Y-85009151D01*
X38087189Y-85474698D01*
X38469275Y-85730000D01*
X38087189Y-85985302D01*
X37776120Y-86450849D01*
X37666887Y-87000000D01*
X37776120Y-87549151D01*
X38087189Y-88014698D01*
X38552736Y-88325767D01*
X39101887Y-88435000D01*
X39158113Y-88435000D01*
X39707264Y-88325767D01*
X40172811Y-88014698D01*
X40181777Y-88001279D01*
X40843199Y-88662701D01*
X41089761Y-88827448D01*
X41380600Y-88885300D01*
X48810498Y-88885300D01*
X53798198Y-93873000D01*
X25250000Y-93873000D01*
X25203841Y-93881685D01*
X25161447Y-93908965D01*
X25133006Y-93950590D01*
X25123000Y-94000000D01*
X25123000Y-125491817D01*
X25098957Y-125433628D01*
X24569161Y-124902907D01*
X23876595Y-124615328D01*
X23126695Y-124614674D01*
X22433628Y-124901043D01*
X21902907Y-125430839D01*
X21615328Y-126123405D01*
X21614674Y-126873305D01*
X21901043Y-127566372D01*
X22430839Y-128097093D01*
X23123405Y-128384672D01*
X23873305Y-128385326D01*
X24566372Y-128098957D01*
X25097093Y-127569161D01*
X25123000Y-127506770D01*
X25123000Y-129250000D01*
X25130526Y-129290000D01*
X20710000Y-129290000D01*
X20710000Y-87083935D01*
X31655019Y-87083935D01*
X31842294Y-87467111D01*
X32166627Y-87743420D01*
X32572010Y-87874580D01*
X32873000Y-87874580D01*
X32873000Y-86917000D01*
X33127000Y-86917000D01*
X33127000Y-87874580D01*
X33427990Y-87874580D01*
X33833373Y-87743420D01*
X34157706Y-87467111D01*
X34344981Y-87083935D01*
X34218068Y-86917000D01*
X33127000Y-86917000D01*
X32873000Y-86917000D01*
X31781932Y-86917000D01*
X31655019Y-87083935D01*
X20710000Y-87083935D01*
X20710000Y-84250000D01*
X31587285Y-84250000D01*
X31669844Y-84665051D01*
X31816809Y-84885000D01*
X31669844Y-85104949D01*
X31587285Y-85520000D01*
X31669844Y-85935051D01*
X31819641Y-86159238D01*
X31655019Y-86496065D01*
X31781932Y-86663000D01*
X32873000Y-86663000D01*
X32873000Y-86643000D01*
X33127000Y-86643000D01*
X33127000Y-86663000D01*
X34218068Y-86663000D01*
X34344981Y-86496065D01*
X34180359Y-86159238D01*
X34330156Y-85935051D01*
X34412715Y-85520000D01*
X34330156Y-85104949D01*
X34183191Y-84885000D01*
X34330156Y-84665051D01*
X34412715Y-84250000D01*
X34330156Y-83834949D01*
X34095049Y-83483086D01*
X33743186Y-83247979D01*
X33328135Y-83165420D01*
X32671865Y-83165420D01*
X32256814Y-83247979D01*
X31904951Y-83483086D01*
X31669844Y-83834949D01*
X31587285Y-84250000D01*
X20710000Y-84250000D01*
X20710000Y-75127000D01*
X21358000Y-75127000D01*
X21358000Y-80064100D01*
X21415852Y-80354939D01*
X21580599Y-80601501D01*
X22903599Y-81924501D01*
X23150161Y-82089248D01*
X23441000Y-82147100D01*
X27430400Y-82147100D01*
X27721239Y-82089248D01*
X27967801Y-81924501D01*
X34614250Y-75278052D01*
X34614250Y-75625800D01*
X34710923Y-75859189D01*
X34889552Y-76037817D01*
X35122941Y-76134490D01*
X35962990Y-76134490D01*
X36121740Y-75975740D01*
X36121740Y-74627000D01*
X36375740Y-74627000D01*
X36375740Y-75975740D01*
X36534490Y-76134490D01*
X37374539Y-76134490D01*
X37607928Y-76037817D01*
X37786557Y-75859189D01*
X37883230Y-75625800D01*
X37883230Y-74785750D01*
X37724480Y-74627000D01*
X36375740Y-74627000D01*
X36121740Y-74627000D01*
X36101740Y-74627000D01*
X36101740Y-74373000D01*
X36121740Y-74373000D01*
X36121740Y-74353000D01*
X36375740Y-74353000D01*
X36375740Y-74373000D01*
X37724480Y-74373000D01*
X37883230Y-74214250D01*
X37883230Y-73500510D01*
X44604330Y-73500510D01*
X44604330Y-75499490D01*
X44648608Y-75734807D01*
X44787680Y-75950931D01*
X44999880Y-76095921D01*
X45251770Y-76146930D01*
X47250750Y-76146930D01*
X47486067Y-76102652D01*
X47702191Y-75963580D01*
X47847181Y-75751380D01*
X47898190Y-75499490D01*
X47898190Y-73500510D01*
X47853912Y-73265193D01*
X47714840Y-73049069D01*
X47502640Y-72904079D01*
X47250750Y-72853070D01*
X45251770Y-72853070D01*
X45016453Y-72897348D01*
X44800329Y-73036420D01*
X44655339Y-73248620D01*
X44604330Y-73500510D01*
X37883230Y-73500510D01*
X37883230Y-73374200D01*
X37786557Y-73140811D01*
X37607928Y-72962183D01*
X37374539Y-72865510D01*
X36534490Y-72865510D01*
X36375742Y-73024258D01*
X36375742Y-72988660D01*
X37948089Y-71416313D01*
X37992701Y-71434838D01*
X38364667Y-71435162D01*
X38708443Y-71293117D01*
X38971692Y-71030327D01*
X39114338Y-70686799D01*
X39114662Y-70314833D01*
X39071965Y-70211499D01*
X39229801Y-70277038D01*
X39601767Y-70277362D01*
X39945543Y-70135317D01*
X40208792Y-69872527D01*
X40351438Y-69528999D01*
X40351479Y-69482123D01*
X45048000Y-64785602D01*
X45048000Y-68071300D01*
X45105852Y-68362139D01*
X45270599Y-68608701D01*
X54407000Y-77745102D01*
X54407000Y-82958200D01*
X54464852Y-83249039D01*
X54629599Y-83495601D01*
X65166962Y-94032964D01*
X64930729Y-94386511D01*
X64816655Y-94960000D01*
X64930729Y-95533489D01*
X65255585Y-96019670D01*
X65269913Y-96029243D01*
X65248683Y-96033238D01*
X65032559Y-96172310D01*
X64887569Y-96384510D01*
X64836560Y-96636400D01*
X64836560Y-98363600D01*
X64880838Y-98598917D01*
X65019910Y-98815041D01*
X65232110Y-98960031D01*
X65484000Y-99011040D01*
X67516000Y-99011040D01*
X67751317Y-98966762D01*
X67967441Y-98827690D01*
X68112431Y-98615490D01*
X68163440Y-98363600D01*
X68163440Y-96636400D01*
X68119162Y-96401083D01*
X67980090Y-96184959D01*
X67767890Y-96039969D01*
X67726561Y-96031600D01*
X67744415Y-96019670D01*
X68069271Y-95533489D01*
X68183345Y-94960000D01*
X68069271Y-94386511D01*
X67744415Y-93900330D01*
X67429634Y-93690000D01*
X67744415Y-93479670D01*
X68069271Y-92993489D01*
X68183345Y-92420000D01*
X68069271Y-91846511D01*
X67744415Y-91360330D01*
X67429634Y-91150000D01*
X67744415Y-90939670D01*
X68069271Y-90453489D01*
X68183345Y-89880000D01*
X68069271Y-89306511D01*
X67744415Y-88820330D01*
X67434931Y-88613539D01*
X67850732Y-88242036D01*
X68104709Y-87714791D01*
X68107358Y-87699026D01*
X67986217Y-87467000D01*
X66627000Y-87467000D01*
X66627000Y-87487000D01*
X66373000Y-87487000D01*
X66373000Y-87467000D01*
X66353000Y-87467000D01*
X66353000Y-87213000D01*
X66373000Y-87213000D01*
X66373000Y-87193000D01*
X66627000Y-87193000D01*
X66627000Y-87213000D01*
X67986217Y-87213000D01*
X68107358Y-86980974D01*
X68104709Y-86965209D01*
X67850732Y-86437964D01*
X67434931Y-86066461D01*
X67744415Y-85859670D01*
X68069271Y-85373489D01*
X68183345Y-84800000D01*
X68069271Y-84226511D01*
X67744415Y-83740330D01*
X67258234Y-83415474D01*
X66684745Y-83301400D01*
X66315255Y-83301400D01*
X65741766Y-83415474D01*
X65255585Y-83740330D01*
X64930729Y-84226511D01*
X64816655Y-84800000D01*
X64930729Y-85373489D01*
X65255585Y-85859670D01*
X65565069Y-86066461D01*
X65149268Y-86437964D01*
X64896695Y-86962293D01*
X61442959Y-83508557D01*
X61469410Y-83399016D01*
X60750000Y-82679605D01*
X60735858Y-82693748D01*
X60556252Y-82514142D01*
X60570395Y-82500000D01*
X60929605Y-82500000D01*
X61649016Y-83219410D01*
X61879611Y-83163729D01*
X62047622Y-82680922D01*
X62018083Y-82170572D01*
X61879611Y-81836271D01*
X61649016Y-81780590D01*
X60929605Y-82500000D01*
X60570395Y-82500000D01*
X60556252Y-82485858D01*
X60735858Y-82306252D01*
X60750000Y-82320395D01*
X61469410Y-81600984D01*
X61413729Y-81370389D01*
X60930922Y-81202378D01*
X60420572Y-81231917D01*
X60086271Y-81370389D01*
X60030590Y-81600982D01*
X59928928Y-81499320D01*
X59864090Y-81398559D01*
X59651890Y-81253569D01*
X59400000Y-81202560D01*
X58100000Y-81202560D01*
X58051300Y-81211724D01*
X58051300Y-78099026D01*
X64892642Y-78099026D01*
X64895291Y-78114791D01*
X65149268Y-78642036D01*
X65585680Y-79031954D01*
X66138087Y-79225184D01*
X66373000Y-79080924D01*
X66373000Y-77867000D01*
X66627000Y-77867000D01*
X66627000Y-79080924D01*
X66861913Y-79225184D01*
X67414320Y-79031954D01*
X67850732Y-78642036D01*
X68104709Y-78114791D01*
X68107358Y-78099026D01*
X67986217Y-77867000D01*
X66627000Y-77867000D01*
X66373000Y-77867000D01*
X65013783Y-77867000D01*
X64892642Y-78099026D01*
X58051300Y-78099026D01*
X58051300Y-72204438D01*
X58319078Y-72297622D01*
X58829428Y-72268083D01*
X58910826Y-72234367D01*
X58962699Y-72312001D01*
X62388099Y-75737401D01*
X62634661Y-75902148D01*
X62925500Y-75960000D01*
X65055352Y-75960000D01*
X65255585Y-76259670D01*
X65565069Y-76466461D01*
X65149268Y-76837964D01*
X64895291Y-77365209D01*
X64892642Y-77380974D01*
X65013783Y-77613000D01*
X66373000Y-77613000D01*
X66373000Y-77593000D01*
X66627000Y-77593000D01*
X66627000Y-77613000D01*
X67986217Y-77613000D01*
X68107358Y-77380974D01*
X68104709Y-77365209D01*
X67850732Y-76837964D01*
X67434931Y-76466461D01*
X67744415Y-76259670D01*
X68069271Y-75773489D01*
X68183345Y-75200000D01*
X68069271Y-74626511D01*
X67744415Y-74140330D01*
X67429634Y-73930000D01*
X67744415Y-73719670D01*
X68069271Y-73233489D01*
X68183345Y-72660000D01*
X68069271Y-72086511D01*
X67744415Y-71600330D01*
X67429634Y-71390000D01*
X67744415Y-71179670D01*
X68069271Y-70693489D01*
X68183345Y-70120000D01*
X68069271Y-69546511D01*
X67744415Y-69060330D01*
X67429634Y-68850000D01*
X67744415Y-68639670D01*
X68069271Y-68153489D01*
X68183345Y-67580000D01*
X68069271Y-67006511D01*
X67744415Y-66520330D01*
X67429634Y-66310000D01*
X67744415Y-66099670D01*
X68069271Y-65613489D01*
X68183345Y-65040000D01*
X68082381Y-64532421D01*
X68891601Y-63723201D01*
X69056348Y-63476639D01*
X69114200Y-63185800D01*
X69114200Y-47853000D01*
X69056348Y-47562161D01*
X69056348Y-47562160D01*
X68891601Y-47315599D01*
X67833038Y-46257036D01*
X68069271Y-45903489D01*
X68183345Y-45330000D01*
X68069271Y-44756511D01*
X67744415Y-44270330D01*
X67434931Y-44063539D01*
X67850732Y-43692036D01*
X68104709Y-43164791D01*
X68107358Y-43149026D01*
X67986217Y-42917000D01*
X66627000Y-42917000D01*
X66627000Y-42937000D01*
X66373000Y-42937000D01*
X66373000Y-42917000D01*
X65013783Y-42917000D01*
X64892642Y-43149026D01*
X64895291Y-43164791D01*
X65149268Y-43692036D01*
X65565069Y-44063539D01*
X65255585Y-44270330D01*
X65039510Y-44593709D01*
X64867861Y-44627852D01*
X64701965Y-44738700D01*
X63896930Y-44738700D01*
X63896930Y-44499250D01*
X63852652Y-44263933D01*
X63713580Y-44047809D01*
X63501380Y-43902819D01*
X63249490Y-43851810D01*
X61250510Y-43851810D01*
X61015193Y-43896088D01*
X60799069Y-44035160D01*
X60654079Y-44247360D01*
X60603070Y-44499250D01*
X60603070Y-46498230D01*
X60647348Y-46733547D01*
X60786420Y-46949671D01*
X60998620Y-47094661D01*
X61250510Y-47145670D01*
X63249490Y-47145670D01*
X63484807Y-47101392D01*
X63700931Y-46962320D01*
X63845921Y-46750120D01*
X63896930Y-46498230D01*
X63896930Y-46258700D01*
X64990000Y-46258700D01*
X65147182Y-46227434D01*
X65255585Y-46389670D01*
X65570366Y-46600000D01*
X65255585Y-46810330D01*
X64930729Y-47296511D01*
X64816655Y-47870000D01*
X64930729Y-48443489D01*
X65255585Y-48929670D01*
X65570366Y-49140000D01*
X65255585Y-49350330D01*
X65055352Y-49650000D01*
X62600202Y-49650000D01*
X59184881Y-46234679D01*
X59269710Y-46149997D01*
X59498339Y-45599398D01*
X59498859Y-45003218D01*
X59271192Y-44452220D01*
X58849997Y-44030290D01*
X58849069Y-44029905D01*
X59269710Y-43609997D01*
X59498339Y-43059398D01*
X59498859Y-42463218D01*
X59271192Y-41912220D01*
X58849997Y-41490290D01*
X58849069Y-41489905D01*
X59269710Y-41069997D01*
X59498339Y-40519398D01*
X59498859Y-39923218D01*
X59271192Y-39372220D01*
X58849997Y-38950290D01*
X58849069Y-38949905D01*
X59269710Y-38529997D01*
X59498339Y-37979398D01*
X59498859Y-37383218D01*
X59271192Y-36832220D01*
X58849997Y-36410290D01*
X58849069Y-36409905D01*
X59269710Y-35989997D01*
X59498339Y-35439398D01*
X59498859Y-34843218D01*
X59271192Y-34292220D01*
X58849997Y-33870290D01*
X58849069Y-33869905D01*
X59269710Y-33449997D01*
X59307080Y-33360000D01*
X59724098Y-33360000D01*
X65187017Y-38822919D01*
X65032559Y-38922310D01*
X64887569Y-39134510D01*
X64836560Y-39386400D01*
X64836560Y-41113600D01*
X64880838Y-41348917D01*
X65019910Y-41565041D01*
X65232110Y-41710031D01*
X65326927Y-41729232D01*
X65149268Y-41887964D01*
X64895291Y-42415209D01*
X64892642Y-42430974D01*
X65013783Y-42663000D01*
X66373000Y-42663000D01*
X66373000Y-42643000D01*
X66627000Y-42643000D01*
X66627000Y-42663000D01*
X67986217Y-42663000D01*
X68107358Y-42430974D01*
X68104709Y-42415209D01*
X67850732Y-41887964D01*
X67675155Y-41731093D01*
X67751317Y-41716762D01*
X67967441Y-41577690D01*
X68112431Y-41365490D01*
X68163440Y-41113600D01*
X68163440Y-39386400D01*
X68119162Y-39151083D01*
X67980090Y-38934959D01*
X67767890Y-38789969D01*
X67516000Y-38738960D01*
X67181234Y-38738960D01*
X67037401Y-38523699D01*
X62137007Y-33623305D01*
X64614674Y-33623305D01*
X64901043Y-34316372D01*
X65430839Y-34847093D01*
X66123405Y-35134672D01*
X66873305Y-35135326D01*
X67566372Y-34848957D01*
X68097093Y-34319161D01*
X68384672Y-33626595D01*
X68385326Y-32876695D01*
X68098957Y-32183628D01*
X67569161Y-31652907D01*
X66876595Y-31365328D01*
X66126695Y-31364674D01*
X65433628Y-31651043D01*
X64902907Y-32180839D01*
X64615328Y-32873405D01*
X64614674Y-33623305D01*
X62137007Y-33623305D01*
X60576301Y-32062599D01*
X60329739Y-31897852D01*
X60038900Y-31840000D01*
X59307462Y-31840000D01*
X59271192Y-31752220D01*
X58849997Y-31330290D01*
X58299398Y-31101661D01*
X57703218Y-31101141D01*
X57152220Y-31328808D01*
X56730290Y-31750003D01*
X56501661Y-32300602D01*
X56501141Y-32896782D01*
X56728808Y-33447780D01*
X57150003Y-33869710D01*
X57150931Y-33870095D01*
X56730290Y-34290003D01*
X56501661Y-34840602D01*
X56501141Y-35436782D01*
X56728808Y-35987780D01*
X57150003Y-36409710D01*
X57150931Y-36410095D01*
X56730290Y-36830003D01*
X56501661Y-37380602D01*
X56501141Y-37976782D01*
X56728808Y-38527780D01*
X57150003Y-38949710D01*
X57150931Y-38950095D01*
X56730290Y-39370003D01*
X56501661Y-39920602D01*
X56501141Y-40516782D01*
X56728808Y-41067780D01*
X57150003Y-41489710D01*
X57150931Y-41490095D01*
X56730290Y-41910003D01*
X56501661Y-42460602D01*
X56501141Y-43056782D01*
X56728808Y-43607780D01*
X57150003Y-44029710D01*
X57150931Y-44030095D01*
X56730290Y-44450003D01*
X56501661Y-45000602D01*
X56501259Y-45461857D01*
X55916032Y-44876630D01*
X56031726Y-44703480D01*
X56121929Y-44250000D01*
X56031726Y-43796520D01*
X55774851Y-43412078D01*
X55532283Y-43250000D01*
X55774851Y-43087922D01*
X56031726Y-42703480D01*
X56121929Y-42250000D01*
X56031726Y-41796520D01*
X55774851Y-41412078D01*
X55532283Y-41250000D01*
X55774851Y-41087922D01*
X56031726Y-40703480D01*
X56121929Y-40250000D01*
X56031726Y-39796520D01*
X55774851Y-39412078D01*
X55390409Y-39155203D01*
X54936929Y-39065000D01*
X53463071Y-39065000D01*
X53009591Y-39155203D01*
X52625149Y-39412078D01*
X52368274Y-39796520D01*
X52278071Y-40250000D01*
X52368274Y-40703480D01*
X52625149Y-41087922D01*
X52867717Y-41250000D01*
X52625149Y-41412078D01*
X52368274Y-41796520D01*
X52278071Y-42250000D01*
X52368274Y-42703480D01*
X52625149Y-43087922D01*
X52867717Y-43250000D01*
X52625149Y-43412078D01*
X52368274Y-43796520D01*
X52278071Y-44250000D01*
X52368274Y-44703480D01*
X52625149Y-45087922D01*
X52867717Y-45250000D01*
X52766879Y-45317377D01*
X46076502Y-38627000D01*
X55250000Y-38627000D01*
X55296159Y-38618315D01*
X55338553Y-38591035D01*
X55366994Y-38549410D01*
X55377000Y-38500000D01*
X55377000Y-31250000D01*
X55368315Y-31203841D01*
X55341035Y-31161447D01*
X55299410Y-31133006D01*
X55250000Y-31123000D01*
X37750000Y-31123000D01*
X37703841Y-31131685D01*
X37661447Y-31158965D01*
X37633006Y-31200590D01*
X37623000Y-31250000D01*
X37623000Y-36920000D01*
X36447462Y-36920000D01*
X36411192Y-36832220D01*
X35989997Y-36410290D01*
X35989069Y-36409905D01*
X36409710Y-35989997D01*
X36638339Y-35439398D01*
X36638859Y-34843218D01*
X36411192Y-34292220D01*
X35989997Y-33870290D01*
X35949463Y-33853459D01*
X36014200Y-33653805D01*
X35140000Y-32779605D01*
X34265800Y-33653805D01*
X34330399Y-33853033D01*
X34292220Y-33868808D01*
X33870290Y-34290003D01*
X33641661Y-34840602D01*
X33641141Y-35436782D01*
X33868808Y-35987780D01*
X34290003Y-36409710D01*
X34290931Y-36410095D01*
X33870290Y-36830003D01*
X33641661Y-37380602D01*
X33641141Y-37976782D01*
X33868808Y-38527780D01*
X34290003Y-38949710D01*
X34290931Y-38950095D01*
X33870290Y-39370003D01*
X33641661Y-39920602D01*
X33641141Y-40516782D01*
X33868808Y-41067780D01*
X34290003Y-41489710D01*
X34290931Y-41490095D01*
X33870290Y-41910003D01*
X33832920Y-42000000D01*
X31510000Y-42000000D01*
X31219161Y-42057852D01*
X31219159Y-42057853D01*
X31219160Y-42057853D01*
X31100873Y-42136889D01*
X31076413Y-42126732D01*
X30545914Y-42126269D01*
X30055620Y-42328854D01*
X29683826Y-42700000D01*
X24315536Y-42700000D01*
X23946353Y-42330173D01*
X23456413Y-42126732D01*
X22925914Y-42126269D01*
X22435620Y-42328854D01*
X22060173Y-42703647D01*
X21856732Y-43193587D01*
X21856269Y-43724086D01*
X22058854Y-44214380D01*
X22433647Y-44589827D01*
X22923587Y-44793268D01*
X23454086Y-44793731D01*
X23944380Y-44591146D01*
X24316174Y-44220000D01*
X29684464Y-44220000D01*
X30053647Y-44589827D01*
X30543587Y-44793268D01*
X31074086Y-44793731D01*
X31564380Y-44591146D01*
X31939827Y-44216353D01*
X32143268Y-43726413D01*
X32143448Y-43520000D01*
X33832538Y-43520000D01*
X33868808Y-43607780D01*
X34290003Y-44029710D01*
X34290931Y-44030095D01*
X33870290Y-44450003D01*
X33641661Y-45000602D01*
X33641141Y-45596782D01*
X33868808Y-46147780D01*
X34290003Y-46569710D01*
X34290931Y-46570095D01*
X33870290Y-46990003D01*
X33641661Y-47540602D01*
X33641141Y-48136782D01*
X33868808Y-48687780D01*
X34290003Y-49109710D01*
X34290931Y-49110095D01*
X33870290Y-49530003D01*
X33641661Y-50080602D01*
X33641141Y-50676782D01*
X33743759Y-50925139D01*
X31917999Y-52750899D01*
X31744188Y-52705417D01*
X30989605Y-53460000D01*
X31003748Y-53474143D01*
X30824143Y-53653748D01*
X30810000Y-53639605D01*
X30055417Y-54394188D01*
X30100899Y-54567999D01*
X29518431Y-55150467D01*
X29255433Y-55150238D01*
X28911657Y-55292283D01*
X28648408Y-55555073D01*
X28505762Y-55898601D01*
X28505438Y-56270567D01*
X28647483Y-56614343D01*
X28788993Y-56756100D01*
X22708100Y-56756100D01*
X22465514Y-56804354D01*
X22417260Y-56813952D01*
X22170699Y-56978699D01*
X21580599Y-57568799D01*
X21415852Y-57815361D01*
X21358000Y-58106200D01*
X21358000Y-61123000D01*
X20710000Y-61123000D01*
X20710000Y-54394188D01*
X22435417Y-54394188D01*
X22497071Y-54629800D01*
X22997480Y-54805927D01*
X23527199Y-54777148D01*
X23882929Y-54629800D01*
X23944583Y-54394188D01*
X23190000Y-53639605D01*
X22435417Y-54394188D01*
X20710000Y-54394188D01*
X20710000Y-53267480D01*
X21844073Y-53267480D01*
X21872852Y-53797199D01*
X22020200Y-54152929D01*
X22255812Y-54214583D01*
X23010395Y-53460000D01*
X23369605Y-53460000D01*
X24124188Y-54214583D01*
X24359800Y-54152929D01*
X24535927Y-53652520D01*
X24515009Y-53267480D01*
X29464073Y-53267480D01*
X29492852Y-53797199D01*
X29640200Y-54152929D01*
X29875812Y-54214583D01*
X30630395Y-53460000D01*
X29875812Y-52705417D01*
X29640200Y-52767071D01*
X29464073Y-53267480D01*
X24515009Y-53267480D01*
X24507148Y-53122801D01*
X24359800Y-52767071D01*
X24124188Y-52705417D01*
X23369605Y-53460000D01*
X23010395Y-53460000D01*
X22255812Y-52705417D01*
X22020200Y-52767071D01*
X21844073Y-53267480D01*
X20710000Y-53267480D01*
X20710000Y-52525812D01*
X22435417Y-52525812D01*
X23190000Y-53280395D01*
X23944583Y-52525812D01*
X30055417Y-52525812D01*
X30810000Y-53280395D01*
X31564583Y-52525812D01*
X31502929Y-52290200D01*
X31002520Y-52114073D01*
X30472801Y-52142852D01*
X30117071Y-52290200D01*
X30055417Y-52525812D01*
X23944583Y-52525812D01*
X23882929Y-52290200D01*
X23382520Y-52114073D01*
X22852801Y-52142852D01*
X22497071Y-52290200D01*
X22435417Y-52525812D01*
X20710000Y-52525812D01*
X20710000Y-49474188D01*
X22435417Y-49474188D01*
X22497071Y-49709800D01*
X22997480Y-49885927D01*
X23527199Y-49857148D01*
X23882929Y-49709800D01*
X23944583Y-49474188D01*
X30055417Y-49474188D01*
X30117071Y-49709800D01*
X30617480Y-49885927D01*
X31147199Y-49857148D01*
X31502929Y-49709800D01*
X31564583Y-49474188D01*
X30810000Y-48719605D01*
X30055417Y-49474188D01*
X23944583Y-49474188D01*
X23190000Y-48719605D01*
X22435417Y-49474188D01*
X20710000Y-49474188D01*
X20710000Y-48347480D01*
X21844073Y-48347480D01*
X21872852Y-48877199D01*
X22020200Y-49232929D01*
X22255812Y-49294583D01*
X23010395Y-48540000D01*
X23369605Y-48540000D01*
X24124188Y-49294583D01*
X24359800Y-49232929D01*
X24535927Y-48732520D01*
X24515009Y-48347480D01*
X29464073Y-48347480D01*
X29492852Y-48877199D01*
X29640200Y-49232929D01*
X29875812Y-49294583D01*
X30630395Y-48540000D01*
X30989605Y-48540000D01*
X31744188Y-49294583D01*
X31979800Y-49232929D01*
X32155927Y-48732520D01*
X32127148Y-48202801D01*
X31979800Y-47847071D01*
X31744188Y-47785417D01*
X30989605Y-48540000D01*
X30630395Y-48540000D01*
X29875812Y-47785417D01*
X29640200Y-47847071D01*
X29464073Y-48347480D01*
X24515009Y-48347480D01*
X24507148Y-48202801D01*
X24359800Y-47847071D01*
X24124188Y-47785417D01*
X23369605Y-48540000D01*
X23010395Y-48540000D01*
X22255812Y-47785417D01*
X22020200Y-47847071D01*
X21844073Y-48347480D01*
X20710000Y-48347480D01*
X20710000Y-47605812D01*
X22435417Y-47605812D01*
X23190000Y-48360395D01*
X23944583Y-47605812D01*
X30055417Y-47605812D01*
X30810000Y-48360395D01*
X31564583Y-47605812D01*
X31502929Y-47370200D01*
X31002520Y-47194073D01*
X30472801Y-47222852D01*
X30117071Y-47370200D01*
X30055417Y-47605812D01*
X23944583Y-47605812D01*
X23882929Y-47370200D01*
X23382520Y-47194073D01*
X22852801Y-47222852D01*
X22497071Y-47370200D01*
X22435417Y-47605812D01*
X20710000Y-47605812D01*
X20710000Y-40934188D01*
X21725417Y-40934188D01*
X21787071Y-41169800D01*
X22287480Y-41345927D01*
X22817199Y-41317148D01*
X23172929Y-41169800D01*
X23234583Y-40934188D01*
X24265417Y-40934188D01*
X24327071Y-41169800D01*
X24827480Y-41345927D01*
X25357199Y-41317148D01*
X25712929Y-41169800D01*
X25774583Y-40934188D01*
X25020000Y-40179605D01*
X24265417Y-40934188D01*
X23234583Y-40934188D01*
X22480000Y-40179605D01*
X21725417Y-40934188D01*
X20710000Y-40934188D01*
X20710000Y-39807480D01*
X21134073Y-39807480D01*
X21162852Y-40337199D01*
X21310200Y-40692929D01*
X21545812Y-40754583D01*
X22300395Y-40000000D01*
X22659605Y-40000000D01*
X23414188Y-40754583D01*
X23649800Y-40692929D01*
X23741859Y-40431371D01*
X23850200Y-40692929D01*
X24085812Y-40754583D01*
X24840395Y-40000000D01*
X25199605Y-40000000D01*
X25954188Y-40754583D01*
X26189800Y-40692929D01*
X26252746Y-40514086D01*
X26896269Y-40514086D01*
X27098854Y-41004380D01*
X27473647Y-41379827D01*
X27963587Y-41583268D01*
X28494086Y-41583731D01*
X28984380Y-41381146D01*
X29356174Y-41010000D01*
X29644464Y-41010000D01*
X30013647Y-41379827D01*
X30503587Y-41583268D01*
X31034086Y-41583731D01*
X31524380Y-41381146D01*
X31899827Y-41006353D01*
X32103268Y-40516413D01*
X32103731Y-39985914D01*
X31901146Y-39495620D01*
X31526353Y-39120173D01*
X31036413Y-38916732D01*
X30505914Y-38916269D01*
X30015620Y-39118854D01*
X29643826Y-39490000D01*
X29355536Y-39490000D01*
X28986353Y-39120173D01*
X28496413Y-38916732D01*
X27965914Y-38916269D01*
X27475620Y-39118854D01*
X27100173Y-39493647D01*
X26896732Y-39983587D01*
X26896269Y-40514086D01*
X26252746Y-40514086D01*
X26365927Y-40192520D01*
X26337148Y-39662801D01*
X26189800Y-39307071D01*
X25954188Y-39245417D01*
X25199605Y-40000000D01*
X24840395Y-40000000D01*
X24085812Y-39245417D01*
X23850200Y-39307071D01*
X23758141Y-39568629D01*
X23649800Y-39307071D01*
X23414188Y-39245417D01*
X22659605Y-40000000D01*
X22300395Y-40000000D01*
X21545812Y-39245417D01*
X21310200Y-39307071D01*
X21134073Y-39807480D01*
X20710000Y-39807480D01*
X20710000Y-39065812D01*
X21725417Y-39065812D01*
X22480000Y-39820395D01*
X23234583Y-39065812D01*
X24265417Y-39065812D01*
X25020000Y-39820395D01*
X25774583Y-39065812D01*
X25712929Y-38830200D01*
X25212520Y-38654073D01*
X24682801Y-38682852D01*
X24327071Y-38830200D01*
X24265417Y-39065812D01*
X23234583Y-39065812D01*
X23172929Y-38830200D01*
X22672520Y-38654073D01*
X22142801Y-38682852D01*
X21787071Y-38830200D01*
X21725417Y-39065812D01*
X20710000Y-39065812D01*
X20710000Y-33873305D01*
X21864674Y-33873305D01*
X22151043Y-34566372D01*
X22680839Y-35097093D01*
X23373405Y-35384672D01*
X24123305Y-35385326D01*
X24816372Y-35098957D01*
X25347093Y-34569161D01*
X25634672Y-33876595D01*
X25635326Y-33126695D01*
X25348957Y-32433628D01*
X25283474Y-32368030D01*
X33629752Y-32368030D01*
X33655942Y-32963635D01*
X33833484Y-33392259D01*
X34086195Y-33474200D01*
X34960395Y-32600000D01*
X35319605Y-32600000D01*
X36193805Y-33474200D01*
X36446516Y-33392259D01*
X36650248Y-32831970D01*
X36624058Y-32236365D01*
X36446516Y-31807741D01*
X36193805Y-31725800D01*
X35319605Y-32600000D01*
X34960395Y-32600000D01*
X34086195Y-31725800D01*
X33833484Y-31807741D01*
X33629752Y-32368030D01*
X25283474Y-32368030D01*
X24819161Y-31902907D01*
X24126595Y-31615328D01*
X23376695Y-31614674D01*
X22683628Y-31901043D01*
X22152907Y-32430839D01*
X21865328Y-33123405D01*
X21864674Y-33873305D01*
X20710000Y-33873305D01*
X20710000Y-31546195D01*
X34265800Y-31546195D01*
X35140000Y-32420395D01*
X36014200Y-31546195D01*
X35932259Y-31293484D01*
X35371970Y-31089752D01*
X34776365Y-31115942D01*
X34347741Y-31293484D01*
X34265800Y-31546195D01*
X20710000Y-31546195D01*
X20710000Y-30710000D01*
X69290000Y-30710000D01*
X69290000Y-129290000D01*
X69290000Y-129290000D01*
G37*
X69290000Y-129290000D02*
X64618900Y-129290000D01*
X64627000Y-129250000D01*
X64627000Y-127258183D01*
X64651043Y-127316372D01*
X65180839Y-127847093D01*
X65873405Y-128134672D01*
X66623305Y-128135326D01*
X67316372Y-127848957D01*
X67847093Y-127319161D01*
X68134672Y-126626595D01*
X68135326Y-125876695D01*
X67848957Y-125183628D01*
X67319161Y-124652907D01*
X66626595Y-124365328D01*
X65876695Y-124364674D01*
X65183628Y-124651043D01*
X64652907Y-125180839D01*
X64627000Y-125243230D01*
X64627000Y-116439026D01*
X64892642Y-116439026D01*
X64895291Y-116454791D01*
X65149268Y-116982036D01*
X65585680Y-117371954D01*
X66138087Y-117565184D01*
X66373000Y-117420924D01*
X66373000Y-116207000D01*
X66627000Y-116207000D01*
X66627000Y-117420924D01*
X66861913Y-117565184D01*
X67414320Y-117371954D01*
X67850732Y-116982036D01*
X68104709Y-116454791D01*
X68107358Y-116439026D01*
X67986217Y-116207000D01*
X66627000Y-116207000D01*
X66373000Y-116207000D01*
X65013783Y-116207000D01*
X64892642Y-116439026D01*
X64627000Y-116439026D01*
X64627000Y-113540000D01*
X64816655Y-113540000D01*
X64930729Y-114113489D01*
X65255585Y-114599670D01*
X65565069Y-114806461D01*
X65149268Y-115177964D01*
X64895291Y-115705209D01*
X64892642Y-115720974D01*
X65013783Y-115953000D01*
X66373000Y-115953000D01*
X66373000Y-115933000D01*
X66627000Y-115933000D01*
X66627000Y-115953000D01*
X67986217Y-115953000D01*
X68107358Y-115720974D01*
X68104709Y-115705209D01*
X67850732Y-115177964D01*
X67434931Y-114806461D01*
X67744415Y-114599670D01*
X68069271Y-114113489D01*
X68183345Y-113540000D01*
X68069271Y-112966511D01*
X68035837Y-112916474D01*
X68077701Y-112888501D01*
X68378801Y-112587401D01*
X68543548Y-112340839D01*
X68601400Y-112050000D01*
X68601400Y-109280300D01*
X68543548Y-108989461D01*
X68378801Y-108742899D01*
X67812983Y-108177081D01*
X67967441Y-108077690D01*
X68112431Y-107865490D01*
X68163440Y-107613600D01*
X68163440Y-105886400D01*
X68119162Y-105651083D01*
X67980090Y-105434959D01*
X67767890Y-105289969D01*
X67673073Y-105270768D01*
X67850732Y-105112036D01*
X68104709Y-104584791D01*
X68107358Y-104569026D01*
X67986217Y-104337000D01*
X66627000Y-104337000D01*
X66627000Y-104357000D01*
X66373000Y-104357000D01*
X66373000Y-104337000D01*
X65013783Y-104337000D01*
X64892642Y-104569026D01*
X64895291Y-104584791D01*
X65149268Y-105112036D01*
X65324845Y-105268907D01*
X65248683Y-105283238D01*
X65032559Y-105422310D01*
X64887569Y-105634510D01*
X64836560Y-105886400D01*
X64836560Y-107613600D01*
X64880838Y-107848917D01*
X65019910Y-108065041D01*
X65232110Y-108210031D01*
X65484000Y-108261040D01*
X65818767Y-108261040D01*
X65962599Y-108476301D01*
X66975258Y-109488960D01*
X65484000Y-109488960D01*
X65248683Y-109533238D01*
X65032559Y-109672310D01*
X64887569Y-109884510D01*
X64836560Y-110136400D01*
X64836560Y-111863600D01*
X64880838Y-112098917D01*
X65019910Y-112315041D01*
X65232110Y-112460031D01*
X65273439Y-112468400D01*
X65255585Y-112480330D01*
X64930729Y-112966511D01*
X64816655Y-113540000D01*
X64627000Y-113540000D01*
X64627000Y-102430000D01*
X65055352Y-102430000D01*
X65255585Y-102729670D01*
X65565069Y-102936461D01*
X65149268Y-103307964D01*
X64895291Y-103835209D01*
X64892642Y-103850974D01*
X65013783Y-104083000D01*
X66373000Y-104083000D01*
X66373000Y-104063000D01*
X66627000Y-104063000D01*
X66627000Y-104083000D01*
X67986217Y-104083000D01*
X68107358Y-103850974D01*
X68104709Y-103835209D01*
X67850732Y-103307964D01*
X67434931Y-102936461D01*
X67744415Y-102729670D01*
X68069271Y-102243489D01*
X68183345Y-101670000D01*
X68069271Y-101096511D01*
X67744415Y-100610330D01*
X67258234Y-100285474D01*
X66684745Y-100171400D01*
X66315255Y-100171400D01*
X65741766Y-100285474D01*
X65255585Y-100610330D01*
X65055352Y-100910000D01*
X64627000Y-100910000D01*
X64627000Y-94000000D01*
X64618315Y-93953841D01*
X64591035Y-93911447D01*
X64549410Y-93883006D01*
X64500000Y-93873000D01*
X55947802Y-93873000D01*
X49834802Y-87760000D01*
X51540000Y-87760000D01*
X51830839Y-87702148D01*
X52077401Y-87537401D01*
X53048527Y-86566275D01*
X53213352Y-86634716D01*
X53863795Y-86635284D01*
X54464943Y-86386894D01*
X54925278Y-85927363D01*
X55174716Y-85326648D01*
X55175284Y-84676205D01*
X54926894Y-84075057D01*
X54467363Y-83614722D01*
X54300000Y-83545227D01*
X54300000Y-81616100D01*
X54242148Y-81325261D01*
X54077401Y-81078699D01*
X52806488Y-79807786D01*
X52950931Y-79714840D01*
X53095921Y-79502640D01*
X53146930Y-79250750D01*
X53146930Y-77251770D01*
X53102652Y-77016453D01*
X52963580Y-76800329D01*
X52751380Y-76655339D01*
X52499490Y-76604330D01*
X50500510Y-76604330D01*
X50265193Y-76648608D01*
X50049069Y-76787680D01*
X49904079Y-76999880D01*
X49853070Y-77251770D01*
X49853070Y-79250750D01*
X49897348Y-79486067D01*
X50036420Y-79702191D01*
X50248620Y-79847181D01*
X50500510Y-79898190D01*
X50818733Y-79898190D01*
X50962599Y-80113501D01*
X52780000Y-81930902D01*
X52780000Y-83544953D01*
X52615057Y-83613106D01*
X52552803Y-83675251D01*
X52538327Y-83640302D01*
X52359699Y-83461673D01*
X52126310Y-83365000D01*
X51285750Y-83365000D01*
X51127000Y-83523750D01*
X51127000Y-84873000D01*
X51147000Y-84873000D01*
X51147000Y-85127000D01*
X51127000Y-85127000D01*
X51127000Y-85147000D01*
X50873000Y-85147000D01*
X50873000Y-85127000D01*
X49523750Y-85127000D01*
X49365000Y-85285750D01*
X49365000Y-86126309D01*
X49412092Y-86240000D01*
X47962995Y-86240000D01*
X47792811Y-85985302D01*
X47388297Y-85715014D01*
X47605134Y-85612389D01*
X47981041Y-85197423D01*
X48141904Y-84809039D01*
X48019915Y-84587000D01*
X46877000Y-84587000D01*
X46877000Y-84607000D01*
X46623000Y-84607000D01*
X46623000Y-84587000D01*
X45480085Y-84587000D01*
X45358096Y-84809039D01*
X45518959Y-85197423D01*
X45894866Y-85612389D01*
X46111703Y-85715014D01*
X45707189Y-85985302D01*
X45396120Y-86450849D01*
X45286887Y-87000000D01*
X45359550Y-87365300D01*
X41695402Y-87365300D01*
X40792701Y-86462599D01*
X40546139Y-86297852D01*
X40356437Y-86260118D01*
X40172811Y-85985302D01*
X39790725Y-85730000D01*
X40172811Y-85474698D01*
X40483880Y-85009151D01*
X40593113Y-84460000D01*
X40523685Y-84110961D01*
X45358096Y-84110961D01*
X45480085Y-84333000D01*
X46623000Y-84333000D01*
X46623000Y-83189371D01*
X46877000Y-83189371D01*
X46877000Y-84333000D01*
X48019915Y-84333000D01*
X48141904Y-84110961D01*
X48043631Y-83873691D01*
X49365000Y-83873691D01*
X49365000Y-84714250D01*
X49523750Y-84873000D01*
X50873000Y-84873000D01*
X50873000Y-83523750D01*
X50714250Y-83365000D01*
X49873690Y-83365000D01*
X49640301Y-83461673D01*
X49461673Y-83640302D01*
X49365000Y-83873691D01*
X48043631Y-83873691D01*
X47981041Y-83722577D01*
X47605134Y-83307611D01*
X47099041Y-83068086D01*
X46877000Y-83189371D01*
X46623000Y-83189371D01*
X46400959Y-83068086D01*
X45894866Y-83307611D01*
X45518959Y-83722577D01*
X45358096Y-84110961D01*
X40523685Y-84110961D01*
X40483880Y-83910849D01*
X40172811Y-83445302D01*
X39707264Y-83134233D01*
X39158113Y-83025000D01*
X39101887Y-83025000D01*
X38552736Y-83134233D01*
X38087189Y-83445302D01*
X37776120Y-83910849D01*
X37666887Y-84460000D01*
X37776120Y-85009151D01*
X38087189Y-85474698D01*
X38469275Y-85730000D01*
X38087189Y-85985302D01*
X37776120Y-86450849D01*
X37666887Y-87000000D01*
X37776120Y-87549151D01*
X38087189Y-88014698D01*
X38552736Y-88325767D01*
X39101887Y-88435000D01*
X39158113Y-88435000D01*
X39707264Y-88325767D01*
X40172811Y-88014698D01*
X40181777Y-88001279D01*
X40843199Y-88662701D01*
X41089761Y-88827448D01*
X41380600Y-88885300D01*
X48810498Y-88885300D01*
X53798198Y-93873000D01*
X25250000Y-93873000D01*
X25203841Y-93881685D01*
X25161447Y-93908965D01*
X25133006Y-93950590D01*
X25123000Y-94000000D01*
X25123000Y-125491817D01*
X25098957Y-125433628D01*
X24569161Y-124902907D01*
X23876595Y-124615328D01*
X23126695Y-124614674D01*
X22433628Y-124901043D01*
X21902907Y-125430839D01*
X21615328Y-126123405D01*
X21614674Y-126873305D01*
X21901043Y-127566372D01*
X22430839Y-128097093D01*
X23123405Y-128384672D01*
X23873305Y-128385326D01*
X24566372Y-128098957D01*
X25097093Y-127569161D01*
X25123000Y-127506770D01*
X25123000Y-129250000D01*
X25130526Y-129290000D01*
X20710000Y-129290000D01*
X20710000Y-87083935D01*
X31655019Y-87083935D01*
X31842294Y-87467111D01*
X32166627Y-87743420D01*
X32572010Y-87874580D01*
X32873000Y-87874580D01*
X32873000Y-86917000D01*
X33127000Y-86917000D01*
X33127000Y-87874580D01*
X33427990Y-87874580D01*
X33833373Y-87743420D01*
X34157706Y-87467111D01*
X34344981Y-87083935D01*
X34218068Y-86917000D01*
X33127000Y-86917000D01*
X32873000Y-86917000D01*
X31781932Y-86917000D01*
X31655019Y-87083935D01*
X20710000Y-87083935D01*
X20710000Y-84250000D01*
X31587285Y-84250000D01*
X31669844Y-84665051D01*
X31816809Y-84885000D01*
X31669844Y-85104949D01*
X31587285Y-85520000D01*
X31669844Y-85935051D01*
X31819641Y-86159238D01*
X31655019Y-86496065D01*
X31781932Y-86663000D01*
X32873000Y-86663000D01*
X32873000Y-86643000D01*
X33127000Y-86643000D01*
X33127000Y-86663000D01*
X34218068Y-86663000D01*
X34344981Y-86496065D01*
X34180359Y-86159238D01*
X34330156Y-85935051D01*
X34412715Y-85520000D01*
X34330156Y-85104949D01*
X34183191Y-84885000D01*
X34330156Y-84665051D01*
X34412715Y-84250000D01*
X34330156Y-83834949D01*
X34095049Y-83483086D01*
X33743186Y-83247979D01*
X33328135Y-83165420D01*
X32671865Y-83165420D01*
X32256814Y-83247979D01*
X31904951Y-83483086D01*
X31669844Y-83834949D01*
X31587285Y-84250000D01*
X20710000Y-84250000D01*
X20710000Y-75127000D01*
X21358000Y-75127000D01*
X21358000Y-80064100D01*
X21415852Y-80354939D01*
X21580599Y-80601501D01*
X22903599Y-81924501D01*
X23150161Y-82089248D01*
X23441000Y-82147100D01*
X27430400Y-82147100D01*
X27721239Y-82089248D01*
X27967801Y-81924501D01*
X34614250Y-75278052D01*
X34614250Y-75625800D01*
X34710923Y-75859189D01*
X34889552Y-76037817D01*
X35122941Y-76134490D01*
X35962990Y-76134490D01*
X36121740Y-75975740D01*
X36121740Y-74627000D01*
X36375740Y-74627000D01*
X36375740Y-75975740D01*
X36534490Y-76134490D01*
X37374539Y-76134490D01*
X37607928Y-76037817D01*
X37786557Y-75859189D01*
X37883230Y-75625800D01*
X37883230Y-74785750D01*
X37724480Y-74627000D01*
X36375740Y-74627000D01*
X36121740Y-74627000D01*
X36101740Y-74627000D01*
X36101740Y-74373000D01*
X36121740Y-74373000D01*
X36121740Y-74353000D01*
X36375740Y-74353000D01*
X36375740Y-74373000D01*
X37724480Y-74373000D01*
X37883230Y-74214250D01*
X37883230Y-73500510D01*
X44604330Y-73500510D01*
X44604330Y-75499490D01*
X44648608Y-75734807D01*
X44787680Y-75950931D01*
X44999880Y-76095921D01*
X45251770Y-76146930D01*
X47250750Y-76146930D01*
X47486067Y-76102652D01*
X47702191Y-75963580D01*
X47847181Y-75751380D01*
X47898190Y-75499490D01*
X47898190Y-73500510D01*
X47853912Y-73265193D01*
X47714840Y-73049069D01*
X47502640Y-72904079D01*
X47250750Y-72853070D01*
X45251770Y-72853070D01*
X45016453Y-72897348D01*
X44800329Y-73036420D01*
X44655339Y-73248620D01*
X44604330Y-73500510D01*
X37883230Y-73500510D01*
X37883230Y-73374200D01*
X37786557Y-73140811D01*
X37607928Y-72962183D01*
X37374539Y-72865510D01*
X36534490Y-72865510D01*
X36375742Y-73024258D01*
X36375742Y-72988660D01*
X37948089Y-71416313D01*
X37992701Y-71434838D01*
X38364667Y-71435162D01*
X38708443Y-71293117D01*
X38971692Y-71030327D01*
X39114338Y-70686799D01*
X39114662Y-70314833D01*
X39071965Y-70211499D01*
X39229801Y-70277038D01*
X39601767Y-70277362D01*
X39945543Y-70135317D01*
X40208792Y-69872527D01*
X40351438Y-69528999D01*
X40351479Y-69482123D01*
X45048000Y-64785602D01*
X45048000Y-68071300D01*
X45105852Y-68362139D01*
X45270599Y-68608701D01*
X54407000Y-77745102D01*
X54407000Y-82958200D01*
X54464852Y-83249039D01*
X54629599Y-83495601D01*
X65166962Y-94032964D01*
X64930729Y-94386511D01*
X64816655Y-94960000D01*
X64930729Y-95533489D01*
X65255585Y-96019670D01*
X65269913Y-96029243D01*
X65248683Y-96033238D01*
X65032559Y-96172310D01*
X64887569Y-96384510D01*
X64836560Y-96636400D01*
X64836560Y-98363600D01*
X64880838Y-98598917D01*
X65019910Y-98815041D01*
X65232110Y-98960031D01*
X65484000Y-99011040D01*
X67516000Y-99011040D01*
X67751317Y-98966762D01*
X67967441Y-98827690D01*
X68112431Y-98615490D01*
X68163440Y-98363600D01*
X68163440Y-96636400D01*
X68119162Y-96401083D01*
X67980090Y-96184959D01*
X67767890Y-96039969D01*
X67726561Y-96031600D01*
X67744415Y-96019670D01*
X68069271Y-95533489D01*
X68183345Y-94960000D01*
X68069271Y-94386511D01*
X67744415Y-93900330D01*
X67429634Y-93690000D01*
X67744415Y-93479670D01*
X68069271Y-92993489D01*
X68183345Y-92420000D01*
X68069271Y-91846511D01*
X67744415Y-91360330D01*
X67429634Y-91150000D01*
X67744415Y-90939670D01*
X68069271Y-90453489D01*
X68183345Y-89880000D01*
X68069271Y-89306511D01*
X67744415Y-88820330D01*
X67434931Y-88613539D01*
X67850732Y-88242036D01*
X68104709Y-87714791D01*
X68107358Y-87699026D01*
X67986217Y-87467000D01*
X66627000Y-87467000D01*
X66627000Y-87487000D01*
X66373000Y-87487000D01*
X66373000Y-87467000D01*
X66353000Y-87467000D01*
X66353000Y-87213000D01*
X66373000Y-87213000D01*
X66373000Y-87193000D01*
X66627000Y-87193000D01*
X66627000Y-87213000D01*
X67986217Y-87213000D01*
X68107358Y-86980974D01*
X68104709Y-86965209D01*
X67850732Y-86437964D01*
X67434931Y-86066461D01*
X67744415Y-85859670D01*
X68069271Y-85373489D01*
X68183345Y-84800000D01*
X68069271Y-84226511D01*
X67744415Y-83740330D01*
X67258234Y-83415474D01*
X66684745Y-83301400D01*
X66315255Y-83301400D01*
X65741766Y-83415474D01*
X65255585Y-83740330D01*
X64930729Y-84226511D01*
X64816655Y-84800000D01*
X64930729Y-85373489D01*
X65255585Y-85859670D01*
X65565069Y-86066461D01*
X65149268Y-86437964D01*
X64896695Y-86962293D01*
X61442959Y-83508557D01*
X61469410Y-83399016D01*
X60750000Y-82679605D01*
X60735858Y-82693748D01*
X60556252Y-82514142D01*
X60570395Y-82500000D01*
X60929605Y-82500000D01*
X61649016Y-83219410D01*
X61879611Y-83163729D01*
X62047622Y-82680922D01*
X62018083Y-82170572D01*
X61879611Y-81836271D01*
X61649016Y-81780590D01*
X60929605Y-82500000D01*
X60570395Y-82500000D01*
X60556252Y-82485858D01*
X60735858Y-82306252D01*
X60750000Y-82320395D01*
X61469410Y-81600984D01*
X61413729Y-81370389D01*
X60930922Y-81202378D01*
X60420572Y-81231917D01*
X60086271Y-81370389D01*
X60030590Y-81600982D01*
X59928928Y-81499320D01*
X59864090Y-81398559D01*
X59651890Y-81253569D01*
X59400000Y-81202560D01*
X58100000Y-81202560D01*
X58051300Y-81211724D01*
X58051300Y-78099026D01*
X64892642Y-78099026D01*
X64895291Y-78114791D01*
X65149268Y-78642036D01*
X65585680Y-79031954D01*
X66138087Y-79225184D01*
X66373000Y-79080924D01*
X66373000Y-77867000D01*
X66627000Y-77867000D01*
X66627000Y-79080924D01*
X66861913Y-79225184D01*
X67414320Y-79031954D01*
X67850732Y-78642036D01*
X68104709Y-78114791D01*
X68107358Y-78099026D01*
X67986217Y-77867000D01*
X66627000Y-77867000D01*
X66373000Y-77867000D01*
X65013783Y-77867000D01*
X64892642Y-78099026D01*
X58051300Y-78099026D01*
X58051300Y-72204438D01*
X58319078Y-72297622D01*
X58829428Y-72268083D01*
X58910826Y-72234367D01*
X58962699Y-72312001D01*
X62388099Y-75737401D01*
X62634661Y-75902148D01*
X62925500Y-75960000D01*
X65055352Y-75960000D01*
X65255585Y-76259670D01*
X65565069Y-76466461D01*
X65149268Y-76837964D01*
X64895291Y-77365209D01*
X64892642Y-77380974D01*
X65013783Y-77613000D01*
X66373000Y-77613000D01*
X66373000Y-77593000D01*
X66627000Y-77593000D01*
X66627000Y-77613000D01*
X67986217Y-77613000D01*
X68107358Y-77380974D01*
X68104709Y-77365209D01*
X67850732Y-76837964D01*
X67434931Y-76466461D01*
X67744415Y-76259670D01*
X68069271Y-75773489D01*
X68183345Y-75200000D01*
X68069271Y-74626511D01*
X67744415Y-74140330D01*
X67429634Y-73930000D01*
X67744415Y-73719670D01*
X68069271Y-73233489D01*
X68183345Y-72660000D01*
X68069271Y-72086511D01*
X67744415Y-71600330D01*
X67429634Y-71390000D01*
X67744415Y-71179670D01*
X68069271Y-70693489D01*
X68183345Y-70120000D01*
X68069271Y-69546511D01*
X67744415Y-69060330D01*
X67429634Y-68850000D01*
X67744415Y-68639670D01*
X68069271Y-68153489D01*
X68183345Y-67580000D01*
X68069271Y-67006511D01*
X67744415Y-66520330D01*
X67429634Y-66310000D01*
X67744415Y-66099670D01*
X68069271Y-65613489D01*
X68183345Y-65040000D01*
X68082381Y-64532421D01*
X68891601Y-63723201D01*
X69056348Y-63476639D01*
X69114200Y-63185800D01*
X69114200Y-47853000D01*
X69056348Y-47562161D01*
X69056348Y-47562160D01*
X68891601Y-47315599D01*
X67833038Y-46257036D01*
X68069271Y-45903489D01*
X68183345Y-45330000D01*
X68069271Y-44756511D01*
X67744415Y-44270330D01*
X67434931Y-44063539D01*
X67850732Y-43692036D01*
X68104709Y-43164791D01*
X68107358Y-43149026D01*
X67986217Y-42917000D01*
X66627000Y-42917000D01*
X66627000Y-42937000D01*
X66373000Y-42937000D01*
X66373000Y-42917000D01*
X65013783Y-42917000D01*
X64892642Y-43149026D01*
X64895291Y-43164791D01*
X65149268Y-43692036D01*
X65565069Y-44063539D01*
X65255585Y-44270330D01*
X65039510Y-44593709D01*
X64867861Y-44627852D01*
X64701965Y-44738700D01*
X63896930Y-44738700D01*
X63896930Y-44499250D01*
X63852652Y-44263933D01*
X63713580Y-44047809D01*
X63501380Y-43902819D01*
X63249490Y-43851810D01*
X61250510Y-43851810D01*
X61015193Y-43896088D01*
X60799069Y-44035160D01*
X60654079Y-44247360D01*
X60603070Y-44499250D01*
X60603070Y-46498230D01*
X60647348Y-46733547D01*
X60786420Y-46949671D01*
X60998620Y-47094661D01*
X61250510Y-47145670D01*
X63249490Y-47145670D01*
X63484807Y-47101392D01*
X63700931Y-46962320D01*
X63845921Y-46750120D01*
X63896930Y-46498230D01*
X63896930Y-46258700D01*
X64990000Y-46258700D01*
X65147182Y-46227434D01*
X65255585Y-46389670D01*
X65570366Y-46600000D01*
X65255585Y-46810330D01*
X64930729Y-47296511D01*
X64816655Y-47870000D01*
X64930729Y-48443489D01*
X65255585Y-48929670D01*
X65570366Y-49140000D01*
X65255585Y-49350330D01*
X65055352Y-49650000D01*
X62600202Y-49650000D01*
X59184881Y-46234679D01*
X59269710Y-46149997D01*
X59498339Y-45599398D01*
X59498859Y-45003218D01*
X59271192Y-44452220D01*
X58849997Y-44030290D01*
X58849069Y-44029905D01*
X59269710Y-43609997D01*
X59498339Y-43059398D01*
X59498859Y-42463218D01*
X59271192Y-41912220D01*
X58849997Y-41490290D01*
X58849069Y-41489905D01*
X59269710Y-41069997D01*
X59498339Y-40519398D01*
X59498859Y-39923218D01*
X59271192Y-39372220D01*
X58849997Y-38950290D01*
X58849069Y-38949905D01*
X59269710Y-38529997D01*
X59498339Y-37979398D01*
X59498859Y-37383218D01*
X59271192Y-36832220D01*
X58849997Y-36410290D01*
X58849069Y-36409905D01*
X59269710Y-35989997D01*
X59498339Y-35439398D01*
X59498859Y-34843218D01*
X59271192Y-34292220D01*
X58849997Y-33870290D01*
X58849069Y-33869905D01*
X59269710Y-33449997D01*
X59307080Y-33360000D01*
X59724098Y-33360000D01*
X65187017Y-38822919D01*
X65032559Y-38922310D01*
X64887569Y-39134510D01*
X64836560Y-39386400D01*
X64836560Y-41113600D01*
X64880838Y-41348917D01*
X65019910Y-41565041D01*
X65232110Y-41710031D01*
X65326927Y-41729232D01*
X65149268Y-41887964D01*
X64895291Y-42415209D01*
X64892642Y-42430974D01*
X65013783Y-42663000D01*
X66373000Y-42663000D01*
X66373000Y-42643000D01*
X66627000Y-42643000D01*
X66627000Y-42663000D01*
X67986217Y-42663000D01*
X68107358Y-42430974D01*
X68104709Y-42415209D01*
X67850732Y-41887964D01*
X67675155Y-41731093D01*
X67751317Y-41716762D01*
X67967441Y-41577690D01*
X68112431Y-41365490D01*
X68163440Y-41113600D01*
X68163440Y-39386400D01*
X68119162Y-39151083D01*
X67980090Y-38934959D01*
X67767890Y-38789969D01*
X67516000Y-38738960D01*
X67181234Y-38738960D01*
X67037401Y-38523699D01*
X62137007Y-33623305D01*
X64614674Y-33623305D01*
X64901043Y-34316372D01*
X65430839Y-34847093D01*
X66123405Y-35134672D01*
X66873305Y-35135326D01*
X67566372Y-34848957D01*
X68097093Y-34319161D01*
X68384672Y-33626595D01*
X68385326Y-32876695D01*
X68098957Y-32183628D01*
X67569161Y-31652907D01*
X66876595Y-31365328D01*
X66126695Y-31364674D01*
X65433628Y-31651043D01*
X64902907Y-32180839D01*
X64615328Y-32873405D01*
X64614674Y-33623305D01*
X62137007Y-33623305D01*
X60576301Y-32062599D01*
X60329739Y-31897852D01*
X60038900Y-31840000D01*
X59307462Y-31840000D01*
X59271192Y-31752220D01*
X58849997Y-31330290D01*
X58299398Y-31101661D01*
X57703218Y-31101141D01*
X57152220Y-31328808D01*
X56730290Y-31750003D01*
X56501661Y-32300602D01*
X56501141Y-32896782D01*
X56728808Y-33447780D01*
X57150003Y-33869710D01*
X57150931Y-33870095D01*
X56730290Y-34290003D01*
X56501661Y-34840602D01*
X56501141Y-35436782D01*
X56728808Y-35987780D01*
X57150003Y-36409710D01*
X57150931Y-36410095D01*
X56730290Y-36830003D01*
X56501661Y-37380602D01*
X56501141Y-37976782D01*
X56728808Y-38527780D01*
X57150003Y-38949710D01*
X57150931Y-38950095D01*
X56730290Y-39370003D01*
X56501661Y-39920602D01*
X56501141Y-40516782D01*
X56728808Y-41067780D01*
X57150003Y-41489710D01*
X57150931Y-41490095D01*
X56730290Y-41910003D01*
X56501661Y-42460602D01*
X56501141Y-43056782D01*
X56728808Y-43607780D01*
X57150003Y-44029710D01*
X57150931Y-44030095D01*
X56730290Y-44450003D01*
X56501661Y-45000602D01*
X56501259Y-45461857D01*
X55916032Y-44876630D01*
X56031726Y-44703480D01*
X56121929Y-44250000D01*
X56031726Y-43796520D01*
X55774851Y-43412078D01*
X55532283Y-43250000D01*
X55774851Y-43087922D01*
X56031726Y-42703480D01*
X56121929Y-42250000D01*
X56031726Y-41796520D01*
X55774851Y-41412078D01*
X55532283Y-41250000D01*
X55774851Y-41087922D01*
X56031726Y-40703480D01*
X56121929Y-40250000D01*
X56031726Y-39796520D01*
X55774851Y-39412078D01*
X55390409Y-39155203D01*
X54936929Y-39065000D01*
X53463071Y-39065000D01*
X53009591Y-39155203D01*
X52625149Y-39412078D01*
X52368274Y-39796520D01*
X52278071Y-40250000D01*
X52368274Y-40703480D01*
X52625149Y-41087922D01*
X52867717Y-41250000D01*
X52625149Y-41412078D01*
X52368274Y-41796520D01*
X52278071Y-42250000D01*
X52368274Y-42703480D01*
X52625149Y-43087922D01*
X52867717Y-43250000D01*
X52625149Y-43412078D01*
X52368274Y-43796520D01*
X52278071Y-44250000D01*
X52368274Y-44703480D01*
X52625149Y-45087922D01*
X52867717Y-45250000D01*
X52766879Y-45317377D01*
X46076502Y-38627000D01*
X55250000Y-38627000D01*
X55296159Y-38618315D01*
X55338553Y-38591035D01*
X55366994Y-38549410D01*
X55377000Y-38500000D01*
X55377000Y-31250000D01*
X55368315Y-31203841D01*
X55341035Y-31161447D01*
X55299410Y-31133006D01*
X55250000Y-31123000D01*
X37750000Y-31123000D01*
X37703841Y-31131685D01*
X37661447Y-31158965D01*
X37633006Y-31200590D01*
X37623000Y-31250000D01*
X37623000Y-36920000D01*
X36447462Y-36920000D01*
X36411192Y-36832220D01*
X35989997Y-36410290D01*
X35989069Y-36409905D01*
X36409710Y-35989997D01*
X36638339Y-35439398D01*
X36638859Y-34843218D01*
X36411192Y-34292220D01*
X35989997Y-33870290D01*
X35949463Y-33853459D01*
X36014200Y-33653805D01*
X35140000Y-32779605D01*
X34265800Y-33653805D01*
X34330399Y-33853033D01*
X34292220Y-33868808D01*
X33870290Y-34290003D01*
X33641661Y-34840602D01*
X33641141Y-35436782D01*
X33868808Y-35987780D01*
X34290003Y-36409710D01*
X34290931Y-36410095D01*
X33870290Y-36830003D01*
X33641661Y-37380602D01*
X33641141Y-37976782D01*
X33868808Y-38527780D01*
X34290003Y-38949710D01*
X34290931Y-38950095D01*
X33870290Y-39370003D01*
X33641661Y-39920602D01*
X33641141Y-40516782D01*
X33868808Y-41067780D01*
X34290003Y-41489710D01*
X34290931Y-41490095D01*
X33870290Y-41910003D01*
X33832920Y-42000000D01*
X31510000Y-42000000D01*
X31219161Y-42057852D01*
X31219159Y-42057853D01*
X31219160Y-42057853D01*
X31100873Y-42136889D01*
X31076413Y-42126732D01*
X30545914Y-42126269D01*
X30055620Y-42328854D01*
X29683826Y-42700000D01*
X24315536Y-42700000D01*
X23946353Y-42330173D01*
X23456413Y-42126732D01*
X22925914Y-42126269D01*
X22435620Y-42328854D01*
X22060173Y-42703647D01*
X21856732Y-43193587D01*
X21856269Y-43724086D01*
X22058854Y-44214380D01*
X22433647Y-44589827D01*
X22923587Y-44793268D01*
X23454086Y-44793731D01*
X23944380Y-44591146D01*
X24316174Y-44220000D01*
X29684464Y-44220000D01*
X30053647Y-44589827D01*
X30543587Y-44793268D01*
X31074086Y-44793731D01*
X31564380Y-44591146D01*
X31939827Y-44216353D01*
X32143268Y-43726413D01*
X32143448Y-43520000D01*
X33832538Y-43520000D01*
X33868808Y-43607780D01*
X34290003Y-44029710D01*
X34290931Y-44030095D01*
X33870290Y-44450003D01*
X33641661Y-45000602D01*
X33641141Y-45596782D01*
X33868808Y-46147780D01*
X34290003Y-46569710D01*
X34290931Y-46570095D01*
X33870290Y-46990003D01*
X33641661Y-47540602D01*
X33641141Y-48136782D01*
X33868808Y-48687780D01*
X34290003Y-49109710D01*
X34290931Y-49110095D01*
X33870290Y-49530003D01*
X33641661Y-50080602D01*
X33641141Y-50676782D01*
X33743759Y-50925139D01*
X31917999Y-52750899D01*
X31744188Y-52705417D01*
X30989605Y-53460000D01*
X31003748Y-53474143D01*
X30824143Y-53653748D01*
X30810000Y-53639605D01*
X30055417Y-54394188D01*
X30100899Y-54567999D01*
X29518431Y-55150467D01*
X29255433Y-55150238D01*
X28911657Y-55292283D01*
X28648408Y-55555073D01*
X28505762Y-55898601D01*
X28505438Y-56270567D01*
X28647483Y-56614343D01*
X28788993Y-56756100D01*
X22708100Y-56756100D01*
X22465514Y-56804354D01*
X22417260Y-56813952D01*
X22170699Y-56978699D01*
X21580599Y-57568799D01*
X21415852Y-57815361D01*
X21358000Y-58106200D01*
X21358000Y-61123000D01*
X20710000Y-61123000D01*
X20710000Y-54394188D01*
X22435417Y-54394188D01*
X22497071Y-54629800D01*
X22997480Y-54805927D01*
X23527199Y-54777148D01*
X23882929Y-54629800D01*
X23944583Y-54394188D01*
X23190000Y-53639605D01*
X22435417Y-54394188D01*
X20710000Y-54394188D01*
X20710000Y-53267480D01*
X21844073Y-53267480D01*
X21872852Y-53797199D01*
X22020200Y-54152929D01*
X22255812Y-54214583D01*
X23010395Y-53460000D01*
X23369605Y-53460000D01*
X24124188Y-54214583D01*
X24359800Y-54152929D01*
X24535927Y-53652520D01*
X24515009Y-53267480D01*
X29464073Y-53267480D01*
X29492852Y-53797199D01*
X29640200Y-54152929D01*
X29875812Y-54214583D01*
X30630395Y-53460000D01*
X29875812Y-52705417D01*
X29640200Y-52767071D01*
X29464073Y-53267480D01*
X24515009Y-53267480D01*
X24507148Y-53122801D01*
X24359800Y-52767071D01*
X24124188Y-52705417D01*
X23369605Y-53460000D01*
X23010395Y-53460000D01*
X22255812Y-52705417D01*
X22020200Y-52767071D01*
X21844073Y-53267480D01*
X20710000Y-53267480D01*
X20710000Y-52525812D01*
X22435417Y-52525812D01*
X23190000Y-53280395D01*
X23944583Y-52525812D01*
X30055417Y-52525812D01*
X30810000Y-53280395D01*
X31564583Y-52525812D01*
X31502929Y-52290200D01*
X31002520Y-52114073D01*
X30472801Y-52142852D01*
X30117071Y-52290200D01*
X30055417Y-52525812D01*
X23944583Y-52525812D01*
X23882929Y-52290200D01*
X23382520Y-52114073D01*
X22852801Y-52142852D01*
X22497071Y-52290200D01*
X22435417Y-52525812D01*
X20710000Y-52525812D01*
X20710000Y-49474188D01*
X22435417Y-49474188D01*
X22497071Y-49709800D01*
X22997480Y-49885927D01*
X23527199Y-49857148D01*
X23882929Y-49709800D01*
X23944583Y-49474188D01*
X30055417Y-49474188D01*
X30117071Y-49709800D01*
X30617480Y-49885927D01*
X31147199Y-49857148D01*
X31502929Y-49709800D01*
X31564583Y-49474188D01*
X30810000Y-48719605D01*
X30055417Y-49474188D01*
X23944583Y-49474188D01*
X23190000Y-48719605D01*
X22435417Y-49474188D01*
X20710000Y-49474188D01*
X20710000Y-48347480D01*
X21844073Y-48347480D01*
X21872852Y-48877199D01*
X22020200Y-49232929D01*
X22255812Y-49294583D01*
X23010395Y-48540000D01*
X23369605Y-48540000D01*
X24124188Y-49294583D01*
X24359800Y-49232929D01*
X24535927Y-48732520D01*
X24515009Y-48347480D01*
X29464073Y-48347480D01*
X29492852Y-48877199D01*
X29640200Y-49232929D01*
X29875812Y-49294583D01*
X30630395Y-48540000D01*
X30989605Y-48540000D01*
X31744188Y-49294583D01*
X31979800Y-49232929D01*
X32155927Y-48732520D01*
X32127148Y-48202801D01*
X31979800Y-47847071D01*
X31744188Y-47785417D01*
X30989605Y-48540000D01*
X30630395Y-48540000D01*
X29875812Y-47785417D01*
X29640200Y-47847071D01*
X29464073Y-48347480D01*
X24515009Y-48347480D01*
X24507148Y-48202801D01*
X24359800Y-47847071D01*
X24124188Y-47785417D01*
X23369605Y-48540000D01*
X23010395Y-48540000D01*
X22255812Y-47785417D01*
X22020200Y-47847071D01*
X21844073Y-48347480D01*
X20710000Y-48347480D01*
X20710000Y-47605812D01*
X22435417Y-47605812D01*
X23190000Y-48360395D01*
X23944583Y-47605812D01*
X30055417Y-47605812D01*
X30810000Y-48360395D01*
X31564583Y-47605812D01*
X31502929Y-47370200D01*
X31002520Y-47194073D01*
X30472801Y-47222852D01*
X30117071Y-47370200D01*
X30055417Y-47605812D01*
X23944583Y-47605812D01*
X23882929Y-47370200D01*
X23382520Y-47194073D01*
X22852801Y-47222852D01*
X22497071Y-47370200D01*
X22435417Y-47605812D01*
X20710000Y-47605812D01*
X20710000Y-40934188D01*
X21725417Y-40934188D01*
X21787071Y-41169800D01*
X22287480Y-41345927D01*
X22817199Y-41317148D01*
X23172929Y-41169800D01*
X23234583Y-40934188D01*
X24265417Y-40934188D01*
X24327071Y-41169800D01*
X24827480Y-41345927D01*
X25357199Y-41317148D01*
X25712929Y-41169800D01*
X25774583Y-40934188D01*
X25020000Y-40179605D01*
X24265417Y-40934188D01*
X23234583Y-40934188D01*
X22480000Y-40179605D01*
X21725417Y-40934188D01*
X20710000Y-40934188D01*
X20710000Y-39807480D01*
X21134073Y-39807480D01*
X21162852Y-40337199D01*
X21310200Y-40692929D01*
X21545812Y-40754583D01*
X22300395Y-40000000D01*
X22659605Y-40000000D01*
X23414188Y-40754583D01*
X23649800Y-40692929D01*
X23741859Y-40431371D01*
X23850200Y-40692929D01*
X24085812Y-40754583D01*
X24840395Y-40000000D01*
X25199605Y-40000000D01*
X25954188Y-40754583D01*
X26189800Y-40692929D01*
X26252746Y-40514086D01*
X26896269Y-40514086D01*
X27098854Y-41004380D01*
X27473647Y-41379827D01*
X27963587Y-41583268D01*
X28494086Y-41583731D01*
X28984380Y-41381146D01*
X29356174Y-41010000D01*
X29644464Y-41010000D01*
X30013647Y-41379827D01*
X30503587Y-41583268D01*
X31034086Y-41583731D01*
X31524380Y-41381146D01*
X31899827Y-41006353D01*
X32103268Y-40516413D01*
X32103731Y-39985914D01*
X31901146Y-39495620D01*
X31526353Y-39120173D01*
X31036413Y-38916732D01*
X30505914Y-38916269D01*
X30015620Y-39118854D01*
X29643826Y-39490000D01*
X29355536Y-39490000D01*
X28986353Y-39120173D01*
X28496413Y-38916732D01*
X27965914Y-38916269D01*
X27475620Y-39118854D01*
X27100173Y-39493647D01*
X26896732Y-39983587D01*
X26896269Y-40514086D01*
X26252746Y-40514086D01*
X26365927Y-40192520D01*
X26337148Y-39662801D01*
X26189800Y-39307071D01*
X25954188Y-39245417D01*
X25199605Y-40000000D01*
X24840395Y-40000000D01*
X24085812Y-39245417D01*
X23850200Y-39307071D01*
X23758141Y-39568629D01*
X23649800Y-39307071D01*
X23414188Y-39245417D01*
X22659605Y-40000000D01*
X22300395Y-40000000D01*
X21545812Y-39245417D01*
X21310200Y-39307071D01*
X21134073Y-39807480D01*
X20710000Y-39807480D01*
X20710000Y-39065812D01*
X21725417Y-39065812D01*
X22480000Y-39820395D01*
X23234583Y-39065812D01*
X24265417Y-39065812D01*
X25020000Y-39820395D01*
X25774583Y-39065812D01*
X25712929Y-38830200D01*
X25212520Y-38654073D01*
X24682801Y-38682852D01*
X24327071Y-38830200D01*
X24265417Y-39065812D01*
X23234583Y-39065812D01*
X23172929Y-38830200D01*
X22672520Y-38654073D01*
X22142801Y-38682852D01*
X21787071Y-38830200D01*
X21725417Y-39065812D01*
X20710000Y-39065812D01*
X20710000Y-33873305D01*
X21864674Y-33873305D01*
X22151043Y-34566372D01*
X22680839Y-35097093D01*
X23373405Y-35384672D01*
X24123305Y-35385326D01*
X24816372Y-35098957D01*
X25347093Y-34569161D01*
X25634672Y-33876595D01*
X25635326Y-33126695D01*
X25348957Y-32433628D01*
X25283474Y-32368030D01*
X33629752Y-32368030D01*
X33655942Y-32963635D01*
X33833484Y-33392259D01*
X34086195Y-33474200D01*
X34960395Y-32600000D01*
X35319605Y-32600000D01*
X36193805Y-33474200D01*
X36446516Y-33392259D01*
X36650248Y-32831970D01*
X36624058Y-32236365D01*
X36446516Y-31807741D01*
X36193805Y-31725800D01*
X35319605Y-32600000D01*
X34960395Y-32600000D01*
X34086195Y-31725800D01*
X33833484Y-31807741D01*
X33629752Y-32368030D01*
X25283474Y-32368030D01*
X24819161Y-31902907D01*
X24126595Y-31615328D01*
X23376695Y-31614674D01*
X22683628Y-31901043D01*
X22152907Y-32430839D01*
X21865328Y-33123405D01*
X21864674Y-33873305D01*
X20710000Y-33873305D01*
X20710000Y-31546195D01*
X34265800Y-31546195D01*
X35140000Y-32420395D01*
X36014200Y-31546195D01*
X35932259Y-31293484D01*
X35371970Y-31089752D01*
X34776365Y-31115942D01*
X34347741Y-31293484D01*
X34265800Y-31546195D01*
X20710000Y-31546195D01*
X20710000Y-30710000D01*
X69290000Y-30710000D01*
X69290000Y-129290000D01*
G36*
X30053647Y-59669827D02*
X30543587Y-59873268D01*
X31074086Y-59873731D01*
X31095426Y-59864913D01*
X31235561Y-59958548D01*
X31526400Y-60016400D01*
X40986800Y-60016400D01*
X41032111Y-60007387D01*
X38689599Y-62349899D01*
X38524852Y-62596461D01*
X38467000Y-62887300D01*
X38467000Y-65797698D01*
X34699820Y-69564878D01*
X34654333Y-69564838D01*
X34310557Y-69706883D01*
X34047308Y-69969673D01*
X33904662Y-70313201D01*
X33904621Y-70360077D01*
X32032299Y-72232399D01*
X31950828Y-72354330D01*
X31760000Y-72354330D01*
X31760000Y-71083302D01*
X36314680Y-66528622D01*
X36360167Y-66528662D01*
X36703943Y-66386617D01*
X36967192Y-66123827D01*
X37109838Y-65780299D01*
X37110162Y-65408333D01*
X36968117Y-65064557D01*
X36705327Y-64801308D01*
X36361799Y-64658662D01*
X35989833Y-64658338D01*
X35646057Y-64800383D01*
X35382808Y-65063173D01*
X35240162Y-65406701D01*
X35240121Y-65453577D01*
X30462599Y-70231099D01*
X30297852Y-70477661D01*
X30240000Y-70768500D01*
X30240000Y-72354330D01*
X30000510Y-72354330D01*
X29765193Y-72398608D01*
X29549069Y-72537680D01*
X29404079Y-72749880D01*
X29375805Y-72889501D01*
X29352652Y-72766453D01*
X29213580Y-72550329D01*
X29001380Y-72405339D01*
X28749490Y-72354330D01*
X26750510Y-72354330D01*
X26515193Y-72398608D01*
X26299069Y-72537680D01*
X26154079Y-72749880D01*
X26103070Y-73001770D01*
X26103070Y-75000750D01*
X26147348Y-75236067D01*
X26286420Y-75452191D01*
X26498620Y-75597181D01*
X26750510Y-75648190D01*
X28749490Y-75648190D01*
X28984807Y-75603912D01*
X29200931Y-75464840D01*
X29345921Y-75252640D01*
X29374195Y-75113019D01*
X29397348Y-75236067D01*
X29536420Y-75452191D01*
X29748620Y-75597181D01*
X30000510Y-75648190D01*
X30804608Y-75648190D01*
X26978798Y-79474000D01*
X25739763Y-79474000D01*
X25707627Y-79441808D01*
X25364099Y-79299162D01*
X24992133Y-79298838D01*
X24648357Y-79440883D01*
X24385108Y-79703673D01*
X24262630Y-79998630D01*
X24022927Y-79758508D01*
X23679399Y-79615862D01*
X23307433Y-79615538D01*
X22963657Y-79757583D01*
X22924937Y-79796235D01*
X22878000Y-79749298D01*
X22878000Y-75127000D01*
X25750000Y-75127000D01*
X25796159Y-75118315D01*
X25838553Y-75091035D01*
X25866994Y-75049410D01*
X25877000Y-75000000D01*
X25877000Y-64284490D01*
X26115510Y-64284490D01*
X26115510Y-65124539D01*
X26212183Y-65357928D01*
X26390811Y-65536557D01*
X26624200Y-65633230D01*
X27464250Y-65633230D01*
X27623000Y-65474480D01*
X27623000Y-64125740D01*
X27877000Y-64125740D01*
X27877000Y-65474480D01*
X28035750Y-65633230D01*
X28875800Y-65633230D01*
X29109189Y-65536557D01*
X29287817Y-65357928D01*
X29375000Y-65147450D01*
X29462183Y-65357928D01*
X29640811Y-65536557D01*
X29874200Y-65633230D01*
X30714250Y-65633230D01*
X30873000Y-65474480D01*
X30873000Y-64125740D01*
X31127000Y-64125740D01*
X31127000Y-65474480D01*
X31285750Y-65633230D01*
X32125800Y-65633230D01*
X32359189Y-65536557D01*
X32537817Y-65357928D01*
X32634490Y-65124539D01*
X32634490Y-64284490D01*
X32475740Y-64125740D01*
X31127000Y-64125740D01*
X30873000Y-64125740D01*
X29524260Y-64125740D01*
X29375000Y-64275000D01*
X29225740Y-64125740D01*
X27877000Y-64125740D01*
X27623000Y-64125740D01*
X26274260Y-64125740D01*
X26115510Y-64284490D01*
X25877000Y-64284490D01*
X25877000Y-62872941D01*
X26115510Y-62872941D01*
X26115510Y-63712990D01*
X26274260Y-63871740D01*
X27623000Y-63871740D01*
X27623000Y-62523000D01*
X27877000Y-62523000D01*
X27877000Y-63871740D01*
X29225740Y-63871740D01*
X29375000Y-63722480D01*
X29524260Y-63871740D01*
X30873000Y-63871740D01*
X30873000Y-62523000D01*
X31127000Y-62523000D01*
X31127000Y-63871740D01*
X32475740Y-63871740D01*
X32634490Y-63712990D01*
X32634490Y-62872941D01*
X32537817Y-62639552D01*
X32359189Y-62460923D01*
X32125800Y-62364250D01*
X31285750Y-62364250D01*
X31127000Y-62523000D01*
X30873000Y-62523000D01*
X30714250Y-62364250D01*
X29874200Y-62364250D01*
X29640811Y-62460923D01*
X29462183Y-62639552D01*
X29375000Y-62850030D01*
X29287817Y-62639552D01*
X29109189Y-62460923D01*
X28875800Y-62364250D01*
X28035750Y-62364250D01*
X27877000Y-62523000D01*
X27623000Y-62523000D01*
X27464250Y-62364250D01*
X26624200Y-62364250D01*
X26390811Y-62460923D01*
X26212183Y-62639552D01*
X26115510Y-62872941D01*
X25877000Y-62872941D01*
X25877000Y-61250000D01*
X25868315Y-61203841D01*
X25841035Y-61161447D01*
X25799410Y-61133006D01*
X25750000Y-61123000D01*
X22878000Y-61123000D01*
X22878000Y-59854339D01*
X22923587Y-59873268D01*
X23454086Y-59873731D01*
X23944380Y-59671146D01*
X24316174Y-59300000D01*
X29684464Y-59300000D01*
X30053647Y-59669827D01*
X30053647Y-59669827D01*
G37*
X30053647Y-59669827D02*
X30543587Y-59873268D01*
X31074086Y-59873731D01*
X31095426Y-59864913D01*
X31235561Y-59958548D01*
X31526400Y-60016400D01*
X40986800Y-60016400D01*
X41032111Y-60007387D01*
X38689599Y-62349899D01*
X38524852Y-62596461D01*
X38467000Y-62887300D01*
X38467000Y-65797698D01*
X34699820Y-69564878D01*
X34654333Y-69564838D01*
X34310557Y-69706883D01*
X34047308Y-69969673D01*
X33904662Y-70313201D01*
X33904621Y-70360077D01*
X32032299Y-72232399D01*
X31950828Y-72354330D01*
X31760000Y-72354330D01*
X31760000Y-71083302D01*
X36314680Y-66528622D01*
X36360167Y-66528662D01*
X36703943Y-66386617D01*
X36967192Y-66123827D01*
X37109838Y-65780299D01*
X37110162Y-65408333D01*
X36968117Y-65064557D01*
X36705327Y-64801308D01*
X36361799Y-64658662D01*
X35989833Y-64658338D01*
X35646057Y-64800383D01*
X35382808Y-65063173D01*
X35240162Y-65406701D01*
X35240121Y-65453577D01*
X30462599Y-70231099D01*
X30297852Y-70477661D01*
X30240000Y-70768500D01*
X30240000Y-72354330D01*
X30000510Y-72354330D01*
X29765193Y-72398608D01*
X29549069Y-72537680D01*
X29404079Y-72749880D01*
X29375805Y-72889501D01*
X29352652Y-72766453D01*
X29213580Y-72550329D01*
X29001380Y-72405339D01*
X28749490Y-72354330D01*
X26750510Y-72354330D01*
X26515193Y-72398608D01*
X26299069Y-72537680D01*
X26154079Y-72749880D01*
X26103070Y-73001770D01*
X26103070Y-75000750D01*
X26147348Y-75236067D01*
X26286420Y-75452191D01*
X26498620Y-75597181D01*
X26750510Y-75648190D01*
X28749490Y-75648190D01*
X28984807Y-75603912D01*
X29200931Y-75464840D01*
X29345921Y-75252640D01*
X29374195Y-75113019D01*
X29397348Y-75236067D01*
X29536420Y-75452191D01*
X29748620Y-75597181D01*
X30000510Y-75648190D01*
X30804608Y-75648190D01*
X26978798Y-79474000D01*
X25739763Y-79474000D01*
X25707627Y-79441808D01*
X25364099Y-79299162D01*
X24992133Y-79298838D01*
X24648357Y-79440883D01*
X24385108Y-79703673D01*
X24262630Y-79998630D01*
X24022927Y-79758508D01*
X23679399Y-79615862D01*
X23307433Y-79615538D01*
X22963657Y-79757583D01*
X22924937Y-79796235D01*
X22878000Y-79749298D01*
X22878000Y-75127000D01*
X25750000Y-75127000D01*
X25796159Y-75118315D01*
X25838553Y-75091035D01*
X25866994Y-75049410D01*
X25877000Y-75000000D01*
X25877000Y-64284490D01*
X26115510Y-64284490D01*
X26115510Y-65124539D01*
X26212183Y-65357928D01*
X26390811Y-65536557D01*
X26624200Y-65633230D01*
X27464250Y-65633230D01*
X27623000Y-65474480D01*
X27623000Y-64125740D01*
X27877000Y-64125740D01*
X27877000Y-65474480D01*
X28035750Y-65633230D01*
X28875800Y-65633230D01*
X29109189Y-65536557D01*
X29287817Y-65357928D01*
X29375000Y-65147450D01*
X29462183Y-65357928D01*
X29640811Y-65536557D01*
X29874200Y-65633230D01*
X30714250Y-65633230D01*
X30873000Y-65474480D01*
X30873000Y-64125740D01*
X31127000Y-64125740D01*
X31127000Y-65474480D01*
X31285750Y-65633230D01*
X32125800Y-65633230D01*
X32359189Y-65536557D01*
X32537817Y-65357928D01*
X32634490Y-65124539D01*
X32634490Y-64284490D01*
X32475740Y-64125740D01*
X31127000Y-64125740D01*
X30873000Y-64125740D01*
X29524260Y-64125740D01*
X29375000Y-64275000D01*
X29225740Y-64125740D01*
X27877000Y-64125740D01*
X27623000Y-64125740D01*
X26274260Y-64125740D01*
X26115510Y-64284490D01*
X25877000Y-64284490D01*
X25877000Y-62872941D01*
X26115510Y-62872941D01*
X26115510Y-63712990D01*
X26274260Y-63871740D01*
X27623000Y-63871740D01*
X27623000Y-62523000D01*
X27877000Y-62523000D01*
X27877000Y-63871740D01*
X29225740Y-63871740D01*
X29375000Y-63722480D01*
X29524260Y-63871740D01*
X30873000Y-63871740D01*
X30873000Y-62523000D01*
X31127000Y-62523000D01*
X31127000Y-63871740D01*
X32475740Y-63871740D01*
X32634490Y-63712990D01*
X32634490Y-62872941D01*
X32537817Y-62639552D01*
X32359189Y-62460923D01*
X32125800Y-62364250D01*
X31285750Y-62364250D01*
X31127000Y-62523000D01*
X30873000Y-62523000D01*
X30714250Y-62364250D01*
X29874200Y-62364250D01*
X29640811Y-62460923D01*
X29462183Y-62639552D01*
X29375000Y-62850030D01*
X29287817Y-62639552D01*
X29109189Y-62460923D01*
X28875800Y-62364250D01*
X28035750Y-62364250D01*
X27877000Y-62523000D01*
X27623000Y-62523000D01*
X27464250Y-62364250D01*
X26624200Y-62364250D01*
X26390811Y-62460923D01*
X26212183Y-62639552D01*
X26115510Y-62872941D01*
X25877000Y-62872941D01*
X25877000Y-61250000D01*
X25868315Y-61203841D01*
X25841035Y-61161447D01*
X25799410Y-61133006D01*
X25750000Y-61123000D01*
X22878000Y-61123000D01*
X22878000Y-59854339D01*
X22923587Y-59873268D01*
X23454086Y-59873731D01*
X23944380Y-59671146D01*
X24316174Y-59300000D01*
X29684464Y-59300000D01*
X30053647Y-59669827D01*
G36*
X58500000Y-70820395D02*
X58514143Y-70806253D01*
X58693748Y-70985858D01*
X58679605Y-71000000D01*
X58693748Y-71014143D01*
X58514143Y-71193748D01*
X58500000Y-71179605D01*
X58485858Y-71193748D01*
X58306253Y-71014143D01*
X58320395Y-71000000D01*
X58306253Y-70985858D01*
X58485858Y-70806252D01*
X58500000Y-70820395D01*
X58500000Y-70820395D01*
G37*
X58500000Y-70820395D02*
X58514143Y-70806253D01*
X58693748Y-70985858D01*
X58679605Y-71000000D01*
X58693748Y-71014143D01*
X58514143Y-71193748D01*
X58500000Y-71179605D01*
X58485858Y-71193748D01*
X58306253Y-71014143D01*
X58320395Y-71000000D01*
X58306253Y-70985858D01*
X58485858Y-70806252D01*
X58500000Y-70820395D01*
G36*
X60615510Y-55215510D02*
X60774260Y-55374260D01*
X62123000Y-55374260D01*
X62123000Y-55354260D01*
X62377000Y-55354260D01*
X62377000Y-55374260D01*
X63725740Y-55374260D01*
X63884490Y-55215510D01*
X63884490Y-54898900D01*
X64942496Y-54898900D01*
X64930729Y-54916511D01*
X64816655Y-55490000D01*
X64918100Y-56000000D01*
X63884490Y-56000000D01*
X63884490Y-55787010D01*
X63725740Y-55628260D01*
X62377000Y-55628260D01*
X62377000Y-55648260D01*
X62123000Y-55648260D01*
X62123000Y-55628260D01*
X60774260Y-55628260D01*
X60615510Y-55787010D01*
X60615510Y-56627059D01*
X60712183Y-56860448D01*
X60890811Y-57039077D01*
X61124200Y-57135750D01*
X61964250Y-57135750D01*
X62122998Y-56977002D01*
X62122998Y-57135750D01*
X62205348Y-57135750D01*
X60861798Y-58479300D01*
X59511040Y-58479300D01*
X59511040Y-57136400D01*
X59466762Y-56901083D01*
X59327690Y-56684959D01*
X59115490Y-56539969D01*
X59052180Y-56527148D01*
X59269710Y-56309997D01*
X59498339Y-55759398D01*
X59498859Y-55163218D01*
X59389645Y-54898900D01*
X60615510Y-54898900D01*
X60615510Y-55215510D01*
X60615510Y-55215510D01*
G37*
X60615510Y-55215510D02*
X60774260Y-55374260D01*
X62123000Y-55374260D01*
X62123000Y-55354260D01*
X62377000Y-55354260D01*
X62377000Y-55374260D01*
X63725740Y-55374260D01*
X63884490Y-55215510D01*
X63884490Y-54898900D01*
X64942496Y-54898900D01*
X64930729Y-54916511D01*
X64816655Y-55490000D01*
X64918100Y-56000000D01*
X63884490Y-56000000D01*
X63884490Y-55787010D01*
X63725740Y-55628260D01*
X62377000Y-55628260D01*
X62377000Y-55648260D01*
X62123000Y-55648260D01*
X62123000Y-55628260D01*
X60774260Y-55628260D01*
X60615510Y-55787010D01*
X60615510Y-56627059D01*
X60712183Y-56860448D01*
X60890811Y-57039077D01*
X61124200Y-57135750D01*
X61964250Y-57135750D01*
X62122998Y-56977002D01*
X62122998Y-57135750D01*
X62205348Y-57135750D01*
X60861798Y-58479300D01*
X59511040Y-58479300D01*
X59511040Y-57136400D01*
X59466762Y-56901083D01*
X59327690Y-56684959D01*
X59115490Y-56539969D01*
X59052180Y-56527148D01*
X59269710Y-56309997D01*
X59498339Y-55759398D01*
X59498859Y-55163218D01*
X59389645Y-54898900D01*
X60615510Y-54898900D01*
X60615510Y-55215510D01*
G36*
X55767000Y-53024202D02*
X55767000Y-53149800D01*
X55824852Y-53440639D01*
X55989599Y-53687201D01*
X56821425Y-54519027D01*
X56730290Y-54610003D01*
X56501661Y-55160602D01*
X56501141Y-55756782D01*
X56728808Y-56307780D01*
X56945525Y-56524876D01*
X56901083Y-56533238D01*
X56684959Y-56672310D01*
X56539969Y-56884510D01*
X56488960Y-57136400D01*
X56488960Y-57240000D01*
X48582884Y-57240000D01*
X48663101Y-57186401D01*
X51289758Y-54559744D01*
X52356197Y-54559744D01*
X52356602Y-54586146D01*
X52572276Y-54998118D01*
X52929187Y-55296196D01*
X53373000Y-55435000D01*
X54073000Y-55435000D01*
X54073000Y-54377000D01*
X54327000Y-54377000D01*
X54327000Y-55435000D01*
X55027000Y-55435000D01*
X55470813Y-55296196D01*
X55827724Y-54998118D01*
X56043398Y-54586146D01*
X56043803Y-54559744D01*
X55918361Y-54377000D01*
X54327000Y-54377000D01*
X54073000Y-54377000D01*
X52481639Y-54377000D01*
X52356197Y-54559744D01*
X51289758Y-54559744D01*
X52666879Y-53182623D01*
X52826691Y-53289405D01*
X52572276Y-53501882D01*
X52356602Y-53913854D01*
X52356197Y-53940256D01*
X52481639Y-54123000D01*
X54073000Y-54123000D01*
X54073000Y-54103000D01*
X54327000Y-54103000D01*
X54327000Y-54123000D01*
X55918361Y-54123000D01*
X56043803Y-53940256D01*
X56043398Y-53913854D01*
X55827724Y-53501882D01*
X55484417Y-53215165D01*
X55674851Y-53087922D01*
X55737283Y-52994485D01*
X55767000Y-53024202D01*
X55767000Y-53024202D01*
G37*
X55767000Y-53024202D02*
X55767000Y-53149800D01*
X55824852Y-53440639D01*
X55989599Y-53687201D01*
X56821425Y-54519027D01*
X56730290Y-54610003D01*
X56501661Y-55160602D01*
X56501141Y-55756782D01*
X56728808Y-56307780D01*
X56945525Y-56524876D01*
X56901083Y-56533238D01*
X56684959Y-56672310D01*
X56539969Y-56884510D01*
X56488960Y-57136400D01*
X56488960Y-57240000D01*
X48582884Y-57240000D01*
X48663101Y-57186401D01*
X51289758Y-54559744D01*
X52356197Y-54559744D01*
X52356602Y-54586146D01*
X52572276Y-54998118D01*
X52929187Y-55296196D01*
X53373000Y-55435000D01*
X54073000Y-55435000D01*
X54073000Y-54377000D01*
X54327000Y-54377000D01*
X54327000Y-55435000D01*
X55027000Y-55435000D01*
X55470813Y-55296196D01*
X55827724Y-54998118D01*
X56043398Y-54586146D01*
X56043803Y-54559744D01*
X55918361Y-54377000D01*
X54327000Y-54377000D01*
X54073000Y-54377000D01*
X52481639Y-54377000D01*
X52356197Y-54559744D01*
X51289758Y-54559744D01*
X52666879Y-53182623D01*
X52826691Y-53289405D01*
X52572276Y-53501882D01*
X52356602Y-53913854D01*
X52356197Y-53940256D01*
X52481639Y-54123000D01*
X54073000Y-54123000D01*
X54073000Y-54103000D01*
X54327000Y-54103000D01*
X54327000Y-54123000D01*
X55918361Y-54123000D01*
X56043803Y-53940256D01*
X56043398Y-53913854D01*
X55827724Y-53501882D01*
X55484417Y-53215165D01*
X55674851Y-53087922D01*
X55737283Y-52994485D01*
X55767000Y-53024202D01*
M02*
