G04 #@! TF.FileFunction,Legend,Top*
%FSLAX46Y46*%
G04 Gerber Fmt 4.6, Leading zero omitted, Abs format (unit mm)*
G04 Created by KiCad (PCBNEW (2015-08-08 BZR 6073)-product) date Wed 12 Aug 2015 16:27:57 CEST*
%MOMM*%
G01*
G04 APERTURE LIST*
%ADD10C,0.100000*%
%ADD11C,0.250000*%
%ADD12C,0.150000*%
%ADD13C,0.152400*%
%ADD14C,0.203200*%
G04 APERTURE END LIST*
D10*
D11*
X24440474Y-78452381D02*
X25011903Y-78452381D01*
X24726188Y-79452381D02*
X24726188Y-78452381D01*
X25345236Y-79452381D02*
X25345236Y-78452381D01*
X25773808Y-79452381D02*
X25773808Y-78928571D01*
X25726189Y-78833333D01*
X25630951Y-78785714D01*
X25488093Y-78785714D01*
X25392855Y-78833333D01*
X25345236Y-78880952D01*
X26678570Y-78785714D02*
X26678570Y-79452381D01*
X26249998Y-78785714D02*
X26249998Y-79309524D01*
X26297617Y-79404762D01*
X26392855Y-79452381D01*
X26535713Y-79452381D01*
X26630951Y-79404762D01*
X26678570Y-79357143D01*
X27154760Y-78785714D02*
X27154760Y-79452381D01*
X27154760Y-78880952D02*
X27202379Y-78833333D01*
X27297617Y-78785714D01*
X27440475Y-78785714D01*
X27535713Y-78833333D01*
X27583332Y-78928571D01*
X27583332Y-79452381D01*
X28488094Y-79452381D02*
X28488094Y-78452381D01*
X28488094Y-79404762D02*
X28392856Y-79452381D01*
X28202379Y-79452381D01*
X28107141Y-79404762D01*
X28059522Y-79357143D01*
X28011903Y-79261905D01*
X28011903Y-78976190D01*
X28059522Y-78880952D01*
X28107141Y-78833333D01*
X28202379Y-78785714D01*
X28392856Y-78785714D01*
X28488094Y-78833333D01*
X29345237Y-79404762D02*
X29249999Y-79452381D01*
X29059522Y-79452381D01*
X28964284Y-79404762D01*
X28916665Y-79309524D01*
X28916665Y-78928571D01*
X28964284Y-78833333D01*
X29059522Y-78785714D01*
X29249999Y-78785714D01*
X29345237Y-78833333D01*
X29392856Y-78928571D01*
X29392856Y-79023810D01*
X28916665Y-79119048D01*
X29821427Y-79452381D02*
X29821427Y-78785714D01*
X29821427Y-78976190D02*
X29869046Y-78880952D01*
X29916665Y-78833333D01*
X30011903Y-78785714D01*
X30107142Y-78785714D01*
X30392856Y-79404762D02*
X30488094Y-79452381D01*
X30678570Y-79452381D01*
X30773809Y-79404762D01*
X30821428Y-79309524D01*
X30821428Y-79261905D01*
X30773809Y-79166667D01*
X30678570Y-79119048D01*
X30535713Y-79119048D01*
X30440475Y-79071429D01*
X30392856Y-78976190D01*
X30392856Y-78928571D01*
X30440475Y-78833333D01*
X30535713Y-78785714D01*
X30678570Y-78785714D01*
X30773809Y-78833333D01*
X31107142Y-78785714D02*
X31488094Y-78785714D01*
X31249999Y-78452381D02*
X31249999Y-79309524D01*
X31297618Y-79404762D01*
X31392856Y-79452381D01*
X31488094Y-79452381D01*
X31964285Y-79452381D02*
X31869047Y-79404762D01*
X31821428Y-79357143D01*
X31773809Y-79261905D01*
X31773809Y-78976190D01*
X31821428Y-78880952D01*
X31869047Y-78833333D01*
X31964285Y-78785714D01*
X32107143Y-78785714D01*
X32202381Y-78833333D01*
X32250000Y-78880952D01*
X32297619Y-78976190D01*
X32297619Y-79261905D01*
X32250000Y-79357143D01*
X32202381Y-79404762D01*
X32107143Y-79452381D01*
X31964285Y-79452381D01*
X32726190Y-79452381D02*
X32726190Y-78785714D01*
X32726190Y-78976190D02*
X32773809Y-78880952D01*
X32821428Y-78833333D01*
X32916666Y-78785714D01*
X33011905Y-78785714D01*
X33345238Y-79452381D02*
X33345238Y-78785714D01*
X33345238Y-78880952D02*
X33392857Y-78833333D01*
X33488095Y-78785714D01*
X33630953Y-78785714D01*
X33726191Y-78833333D01*
X33773810Y-78928571D01*
X33773810Y-79452381D01*
X33773810Y-78928571D02*
X33821429Y-78833333D01*
X33916667Y-78785714D01*
X34059524Y-78785714D01*
X34154762Y-78833333D01*
X34202381Y-78928571D01*
X34202381Y-79452381D01*
X35440476Y-78785714D02*
X35440476Y-79785714D01*
X35440476Y-78833333D02*
X35535714Y-78785714D01*
X35726191Y-78785714D01*
X35821429Y-78833333D01*
X35869048Y-78880952D01*
X35916667Y-78976190D01*
X35916667Y-79261905D01*
X35869048Y-79357143D01*
X35821429Y-79404762D01*
X35726191Y-79452381D01*
X35535714Y-79452381D01*
X35440476Y-79404762D01*
X36345238Y-79452381D02*
X36345238Y-78785714D01*
X36345238Y-78976190D02*
X36392857Y-78880952D01*
X36440476Y-78833333D01*
X36535714Y-78785714D01*
X36630953Y-78785714D01*
X37107143Y-79452381D02*
X37011905Y-79404762D01*
X36964286Y-79357143D01*
X36916667Y-79261905D01*
X36916667Y-78976190D01*
X36964286Y-78880952D01*
X37011905Y-78833333D01*
X37107143Y-78785714D01*
X37250001Y-78785714D01*
X37345239Y-78833333D01*
X37392858Y-78880952D01*
X37440477Y-78976190D01*
X37440477Y-79261905D01*
X37392858Y-79357143D01*
X37345239Y-79404762D01*
X37250001Y-79452381D01*
X37107143Y-79452381D01*
X37726191Y-78785714D02*
X38107143Y-78785714D01*
X37869048Y-78452381D02*
X37869048Y-79309524D01*
X37916667Y-79404762D01*
X38011905Y-79452381D01*
X38107143Y-79452381D01*
X38821430Y-79404762D02*
X38726192Y-79452381D01*
X38535715Y-79452381D01*
X38440477Y-79404762D01*
X38392858Y-79309524D01*
X38392858Y-78928571D01*
X38440477Y-78833333D01*
X38535715Y-78785714D01*
X38726192Y-78785714D01*
X38821430Y-78833333D01*
X38869049Y-78928571D01*
X38869049Y-79023810D01*
X38392858Y-79119048D01*
X39726192Y-79404762D02*
X39630954Y-79452381D01*
X39440477Y-79452381D01*
X39345239Y-79404762D01*
X39297620Y-79357143D01*
X39250001Y-79261905D01*
X39250001Y-78976190D01*
X39297620Y-78880952D01*
X39345239Y-78833333D01*
X39440477Y-78785714D01*
X39630954Y-78785714D01*
X39726192Y-78833333D01*
X40011906Y-78785714D02*
X40392858Y-78785714D01*
X40154763Y-78452381D02*
X40154763Y-79309524D01*
X40202382Y-79404762D01*
X40297620Y-79452381D01*
X40392858Y-79452381D01*
X40869049Y-79452381D02*
X40773811Y-79404762D01*
X40726192Y-79357143D01*
X40678573Y-79261905D01*
X40678573Y-78976190D01*
X40726192Y-78880952D01*
X40773811Y-78833333D01*
X40869049Y-78785714D01*
X41011907Y-78785714D01*
X41107145Y-78833333D01*
X41154764Y-78880952D01*
X41202383Y-78976190D01*
X41202383Y-79261905D01*
X41154764Y-79357143D01*
X41107145Y-79404762D01*
X41011907Y-79452381D01*
X40869049Y-79452381D01*
X41630954Y-79452381D02*
X41630954Y-78785714D01*
X41630954Y-78976190D02*
X41678573Y-78880952D01*
X41726192Y-78833333D01*
X41821430Y-78785714D01*
X41916669Y-78785714D01*
X43011907Y-79452381D02*
X43011907Y-78785714D01*
X43011907Y-78452381D02*
X42964288Y-78500000D01*
X43011907Y-78547619D01*
X43059526Y-78500000D01*
X43011907Y-78452381D01*
X43011907Y-78547619D01*
X43630954Y-79452381D02*
X43535716Y-79404762D01*
X43488097Y-79357143D01*
X43440478Y-79261905D01*
X43440478Y-78976190D01*
X43488097Y-78880952D01*
X43535716Y-78833333D01*
X43630954Y-78785714D01*
X43773812Y-78785714D01*
X43869050Y-78833333D01*
X43916669Y-78880952D01*
X43964288Y-78976190D01*
X43964288Y-79261905D01*
X43916669Y-79357143D01*
X43869050Y-79404762D01*
X43773812Y-79452381D01*
X43630954Y-79452381D01*
X44250002Y-78785714D02*
X44630954Y-78785714D01*
X44392859Y-78452381D02*
X44392859Y-79309524D01*
X44440478Y-79404762D01*
X44535716Y-79452381D01*
X44630954Y-79452381D01*
X45678574Y-79404762D02*
X45773812Y-79452381D01*
X45964288Y-79452381D01*
X46059527Y-79404762D01*
X46107146Y-79309524D01*
X46107146Y-79261905D01*
X46059527Y-79166667D01*
X45964288Y-79119048D01*
X45821431Y-79119048D01*
X45726193Y-79071429D01*
X45678574Y-78976190D01*
X45678574Y-78928571D01*
X45726193Y-78833333D01*
X45821431Y-78785714D01*
X45964288Y-78785714D01*
X46059527Y-78833333D01*
X46440479Y-78785714D02*
X46630955Y-79452381D01*
X46821432Y-78976190D01*
X47011908Y-79452381D01*
X47202384Y-78785714D01*
X47583336Y-79452381D02*
X47583336Y-78785714D01*
X47583336Y-78452381D02*
X47535717Y-78500000D01*
X47583336Y-78547619D01*
X47630955Y-78500000D01*
X47583336Y-78452381D01*
X47583336Y-78547619D01*
X47916669Y-78785714D02*
X48297621Y-78785714D01*
X48059526Y-78452381D02*
X48059526Y-79309524D01*
X48107145Y-79404762D01*
X48202383Y-79452381D01*
X48297621Y-79452381D01*
X49059527Y-79404762D02*
X48964289Y-79452381D01*
X48773812Y-79452381D01*
X48678574Y-79404762D01*
X48630955Y-79357143D01*
X48583336Y-79261905D01*
X48583336Y-78976190D01*
X48630955Y-78880952D01*
X48678574Y-78833333D01*
X48773812Y-78785714D01*
X48964289Y-78785714D01*
X49059527Y-78833333D01*
X49488098Y-79452381D02*
X49488098Y-78452381D01*
X49916670Y-79452381D02*
X49916670Y-78928571D01*
X49869051Y-78833333D01*
X49773813Y-78785714D01*
X49630955Y-78785714D01*
X49535717Y-78833333D01*
X49488098Y-78880952D01*
X30488096Y-80785714D02*
X30488096Y-81595238D01*
X30440477Y-81690476D01*
X30392858Y-81738095D01*
X30297619Y-81785714D01*
X30154762Y-81785714D01*
X30059524Y-81738095D01*
X30488096Y-81404762D02*
X30392858Y-81452381D01*
X30202381Y-81452381D01*
X30107143Y-81404762D01*
X30059524Y-81357143D01*
X30011905Y-81261905D01*
X30011905Y-80976190D01*
X30059524Y-80880952D01*
X30107143Y-80833333D01*
X30202381Y-80785714D01*
X30392858Y-80785714D01*
X30488096Y-80833333D01*
X31107143Y-81452381D02*
X31011905Y-81404762D01*
X30964286Y-81357143D01*
X30916667Y-81261905D01*
X30916667Y-80976190D01*
X30964286Y-80880952D01*
X31011905Y-80833333D01*
X31107143Y-80785714D01*
X31250001Y-80785714D01*
X31345239Y-80833333D01*
X31392858Y-80880952D01*
X31440477Y-80976190D01*
X31440477Y-81261905D01*
X31392858Y-81357143D01*
X31345239Y-81404762D01*
X31250001Y-81452381D01*
X31107143Y-81452381D01*
X32011905Y-81452381D02*
X31916667Y-81404762D01*
X31869048Y-81309524D01*
X31869048Y-80452381D01*
X32535715Y-81452381D02*
X32440477Y-81404762D01*
X32392858Y-81357143D01*
X32345239Y-81261905D01*
X32345239Y-80976190D01*
X32392858Y-80880952D01*
X32440477Y-80833333D01*
X32535715Y-80785714D01*
X32678573Y-80785714D01*
X32773811Y-80833333D01*
X32821430Y-80880952D01*
X32869049Y-80976190D01*
X32869049Y-81261905D01*
X32821430Y-81357143D01*
X32773811Y-81404762D01*
X32678573Y-81452381D01*
X32535715Y-81452381D01*
X33297620Y-81452381D02*
X33297620Y-80452381D01*
X33297620Y-80833333D02*
X33392858Y-80785714D01*
X33583335Y-80785714D01*
X33678573Y-80833333D01*
X33726192Y-80880952D01*
X33773811Y-80976190D01*
X33773811Y-81261905D01*
X33726192Y-81357143D01*
X33678573Y-81404762D01*
X33583335Y-81452381D01*
X33392858Y-81452381D01*
X33297620Y-81404762D01*
X34202382Y-81357143D02*
X34250001Y-81404762D01*
X34202382Y-81452381D01*
X34154763Y-81404762D01*
X34202382Y-81357143D01*
X34202382Y-81452381D01*
X35107144Y-80785714D02*
X35107144Y-81452381D01*
X34678572Y-80785714D02*
X34678572Y-81309524D01*
X34726191Y-81404762D01*
X34821429Y-81452381D01*
X34964287Y-81452381D01*
X35059525Y-81404762D01*
X35107144Y-81357143D01*
X35583334Y-81452381D02*
X35583334Y-80785714D01*
X35583334Y-80976190D02*
X35630953Y-80880952D01*
X35678572Y-80833333D01*
X35773810Y-80785714D01*
X35869049Y-80785714D01*
X36345239Y-81452381D02*
X36250001Y-81404762D01*
X36202382Y-81357143D01*
X36154763Y-81261905D01*
X36154763Y-80976190D01*
X36202382Y-80880952D01*
X36250001Y-80833333D01*
X36345239Y-80785714D01*
X36488097Y-80785714D01*
X36583335Y-80833333D01*
X36630954Y-80880952D01*
X36678573Y-80976190D01*
X36678573Y-81261905D01*
X36630954Y-81357143D01*
X36583335Y-81404762D01*
X36488097Y-81452381D01*
X36345239Y-81452381D01*
X37059525Y-81404762D02*
X37154763Y-81452381D01*
X37345239Y-81452381D01*
X37440478Y-81404762D01*
X37488097Y-81309524D01*
X37488097Y-81261905D01*
X37440478Y-81166667D01*
X37345239Y-81119048D01*
X37202382Y-81119048D01*
X37107144Y-81071429D01*
X37059525Y-80976190D01*
X37059525Y-80928571D01*
X37107144Y-80833333D01*
X37202382Y-80785714D01*
X37345239Y-80785714D01*
X37440478Y-80833333D01*
X38535716Y-80976190D02*
X38488097Y-80928571D01*
X38392859Y-80880952D01*
X38297621Y-80880952D01*
X38202383Y-80928571D01*
X38154763Y-80976190D01*
X38107144Y-81071429D01*
X38107144Y-81166667D01*
X38154763Y-81261905D01*
X38202383Y-81309524D01*
X38297621Y-81357143D01*
X38392859Y-81357143D01*
X38488097Y-81309524D01*
X38535716Y-81261905D01*
X38535716Y-80880952D02*
X38535716Y-81261905D01*
X38583335Y-81309524D01*
X38630954Y-81309524D01*
X38726192Y-81261905D01*
X38773811Y-81166667D01*
X38773811Y-80928571D01*
X38678573Y-80785714D01*
X38535716Y-80690476D01*
X38345240Y-80642857D01*
X38154763Y-80690476D01*
X38011906Y-80785714D01*
X37916668Y-80928571D01*
X37869049Y-81119048D01*
X37916668Y-81309524D01*
X38011906Y-81452381D01*
X38154763Y-81547619D01*
X38345240Y-81595238D01*
X38535716Y-81547619D01*
X38678573Y-81452381D01*
X39630954Y-80785714D02*
X39630954Y-81595238D01*
X39583335Y-81690476D01*
X39535716Y-81738095D01*
X39440477Y-81785714D01*
X39297620Y-81785714D01*
X39202382Y-81738095D01*
X39630954Y-81404762D02*
X39535716Y-81452381D01*
X39345239Y-81452381D01*
X39250001Y-81404762D01*
X39202382Y-81357143D01*
X39154763Y-81261905D01*
X39154763Y-80976190D01*
X39202382Y-80880952D01*
X39250001Y-80833333D01*
X39345239Y-80785714D01*
X39535716Y-80785714D01*
X39630954Y-80833333D01*
X40107144Y-81452381D02*
X40107144Y-80785714D01*
X40107144Y-80880952D02*
X40154763Y-80833333D01*
X40250001Y-80785714D01*
X40392859Y-80785714D01*
X40488097Y-80833333D01*
X40535716Y-80928571D01*
X40535716Y-81452381D01*
X40535716Y-80928571D02*
X40583335Y-80833333D01*
X40678573Y-80785714D01*
X40821430Y-80785714D01*
X40916668Y-80833333D01*
X40964287Y-80928571D01*
X40964287Y-81452381D01*
X41869049Y-81452381D02*
X41869049Y-80928571D01*
X41821430Y-80833333D01*
X41726192Y-80785714D01*
X41535715Y-80785714D01*
X41440477Y-80833333D01*
X41869049Y-81404762D02*
X41773811Y-81452381D01*
X41535715Y-81452381D01*
X41440477Y-81404762D01*
X41392858Y-81309524D01*
X41392858Y-81214286D01*
X41440477Y-81119048D01*
X41535715Y-81071429D01*
X41773811Y-81071429D01*
X41869049Y-81023810D01*
X42345239Y-81452381D02*
X42345239Y-80785714D01*
X42345239Y-80452381D02*
X42297620Y-80500000D01*
X42345239Y-80547619D01*
X42392858Y-80500000D01*
X42345239Y-80452381D01*
X42345239Y-80547619D01*
X42964286Y-81452381D02*
X42869048Y-81404762D01*
X42821429Y-81309524D01*
X42821429Y-80452381D01*
X43345239Y-81357143D02*
X43392858Y-81404762D01*
X43345239Y-81452381D01*
X43297620Y-81404762D01*
X43345239Y-81357143D01*
X43345239Y-81452381D01*
X44250001Y-81404762D02*
X44154763Y-81452381D01*
X43964286Y-81452381D01*
X43869048Y-81404762D01*
X43821429Y-81357143D01*
X43773810Y-81261905D01*
X43773810Y-80976190D01*
X43821429Y-80880952D01*
X43869048Y-80833333D01*
X43964286Y-80785714D01*
X44154763Y-80785714D01*
X44250001Y-80833333D01*
X44821429Y-81452381D02*
X44726191Y-81404762D01*
X44678572Y-81357143D01*
X44630953Y-81261905D01*
X44630953Y-80976190D01*
X44678572Y-80880952D01*
X44726191Y-80833333D01*
X44821429Y-80785714D01*
X44964287Y-80785714D01*
X45059525Y-80833333D01*
X45107144Y-80880952D01*
X45154763Y-80976190D01*
X45154763Y-81261905D01*
X45107144Y-81357143D01*
X45059525Y-81404762D01*
X44964287Y-81452381D01*
X44821429Y-81452381D01*
X45583334Y-81452381D02*
X45583334Y-80785714D01*
X45583334Y-80880952D02*
X45630953Y-80833333D01*
X45726191Y-80785714D01*
X45869049Y-80785714D01*
X45964287Y-80833333D01*
X46011906Y-80928571D01*
X46011906Y-81452381D01*
X46011906Y-80928571D02*
X46059525Y-80833333D01*
X46154763Y-80785714D01*
X46297620Y-80785714D01*
X46392858Y-80833333D01*
X46440477Y-80928571D01*
X46440477Y-81452381D01*
D12*
X51150000Y-88800000D02*
X53050000Y-88800000D01*
X51150000Y-87700000D02*
X53050000Y-87700000D01*
X52050000Y-88250000D02*
X52500000Y-88250000D01*
X52000000Y-88000000D02*
X52000000Y-88500000D01*
X52000000Y-88250000D02*
X52250000Y-88000000D01*
X52250000Y-88000000D02*
X52250000Y-88500000D01*
X52250000Y-88500000D02*
X52000000Y-88250000D01*
X32567500Y-93250000D02*
X32948500Y-93250000D01*
X31551500Y-93250000D02*
X31932500Y-93250000D01*
X31932500Y-93250000D02*
X32567500Y-92869000D01*
X32567500Y-92869000D02*
X32567500Y-93631000D01*
X32567500Y-93631000D02*
X31932500Y-93250000D01*
X31932500Y-92742000D02*
X31932500Y-93758000D01*
X30250000Y-94150000D02*
X33790000Y-94150000D01*
X30250000Y-92350000D02*
X33790000Y-92350000D01*
X20600000Y-62500000D02*
X24400000Y-62500000D01*
X24400000Y-62500000D02*
X24400000Y-74500000D01*
X24400000Y-74500000D02*
X20500000Y-74500000D01*
X20500000Y-74500000D02*
X20500000Y-62400000D01*
X20500000Y-62400000D02*
X20400000Y-62600000D01*
X48759600Y-119460000D02*
X46219600Y-119460000D01*
X46219600Y-119460000D02*
X46219600Y-122254000D01*
X48759600Y-122254000D02*
X46219600Y-122254000D01*
X48759600Y-119460000D02*
X48759600Y-122254000D01*
X43755800Y-119460000D02*
X41215800Y-119460000D01*
X41215800Y-119460000D02*
X41215800Y-122254000D01*
X43755800Y-122254000D02*
X41215800Y-122254000D01*
X43755800Y-119460000D02*
X43755800Y-122254000D01*
X39895000Y-128223000D02*
X39895000Y-125175000D01*
X39895000Y-128223000D02*
X50080000Y-128223000D01*
X39895000Y-128223000D02*
X39387000Y-128223000D01*
X39387000Y-128223000D02*
X39387000Y-123397000D01*
X39387000Y-123397000D02*
X39895000Y-123651000D01*
X39387000Y-116539000D02*
X39895000Y-116793000D01*
X39895000Y-116793000D02*
X39895000Y-115777000D01*
X39387000Y-118190000D02*
X39895000Y-117936000D01*
X39895000Y-117936000D02*
X39895000Y-116793000D01*
X39387000Y-118190000D02*
X39387000Y-116539000D01*
X44517800Y-115777000D02*
X44517800Y-117682000D01*
X40453800Y-122254000D02*
X40453800Y-117682000D01*
X44517800Y-115777000D02*
X40453800Y-115777000D01*
X40453800Y-115777000D02*
X39895000Y-115777000D01*
X45457600Y-115777000D02*
X45457600Y-117682000D01*
X45457600Y-115777000D02*
X44517800Y-115777000D01*
X49521600Y-122254000D02*
X49521600Y-117682000D01*
X50080000Y-115777000D02*
X49521600Y-115777000D01*
X49521600Y-115777000D02*
X45457600Y-115777000D01*
X44517800Y-117682000D02*
X40453800Y-117682000D01*
X44517800Y-117682000D02*
X44517800Y-122254000D01*
X40453800Y-117682000D02*
X40453800Y-115777000D01*
X45457600Y-117682000D02*
X49521600Y-117682000D01*
X45457600Y-117682000D02*
X45457600Y-122254000D01*
X49521600Y-117682000D02*
X49521600Y-115777000D01*
X40834800Y-118317000D02*
X40834800Y-121492000D01*
X40834800Y-118317000D02*
X44136800Y-118317000D01*
X44136800Y-118317000D02*
X44136800Y-121492000D01*
X45838600Y-118317000D02*
X45838600Y-121492000D01*
X45838600Y-118317000D02*
X49140600Y-118317000D01*
X49140600Y-118317000D02*
X49140600Y-121492000D01*
X49140600Y-121492000D02*
X48759600Y-121492000D01*
X45838600Y-121492000D02*
X46219600Y-121492000D01*
X44136800Y-121492000D02*
X43755800Y-121492000D01*
X40834800Y-121492000D02*
X41215800Y-121492000D01*
X50080000Y-115777000D02*
X50080000Y-122635000D01*
X50080000Y-122635000D02*
X50080000Y-125175000D01*
X39895000Y-123651000D02*
X39895000Y-122635000D01*
X39895000Y-122635000D02*
X39895000Y-117936000D01*
X50080000Y-125175000D02*
X39895000Y-125175000D01*
X50080000Y-125175000D02*
X50080000Y-128223000D01*
X39895000Y-125175000D02*
X39895000Y-123651000D01*
X44517800Y-125429000D02*
X44517800Y-127969000D01*
X44517800Y-127969000D02*
X40453800Y-127969000D01*
X40453800Y-127969000D02*
X40453800Y-125429000D01*
X40453800Y-125429000D02*
X44517800Y-125429000D01*
X45457600Y-125429000D02*
X45457600Y-127969000D01*
X45457600Y-125429000D02*
X49521600Y-125429000D01*
X49521600Y-125429000D02*
X49521600Y-127969000D01*
X45457600Y-127969000D02*
X49521600Y-127969000D01*
X44111400Y-126445000D02*
X41063400Y-127080000D01*
X43984400Y-126318000D02*
X40936400Y-126953000D01*
X49115200Y-126445000D02*
X46064660Y-127080000D01*
X48988200Y-126318000D02*
X45940200Y-126953000D01*
X49521600Y-122254000D02*
X49140600Y-122254000D01*
X45457600Y-122254000D02*
X45838600Y-122254000D01*
X45838600Y-122254000D02*
X49140600Y-122254000D01*
X50080000Y-122635000D02*
X49140600Y-122635000D01*
X49140600Y-122635000D02*
X45838600Y-122635000D01*
X45838600Y-122635000D02*
X44136800Y-122635000D01*
X39895000Y-122635000D02*
X40834800Y-122635000D01*
X40834800Y-122635000D02*
X44136800Y-122635000D01*
X40453800Y-122254000D02*
X40834800Y-122254000D01*
X44517800Y-122254000D02*
X44136800Y-122254000D01*
X44136800Y-122254000D02*
X40834800Y-122254000D01*
X41017028Y-126085430D02*
G75*
G03X40964340Y-127052060I452772J-509430D01*
G01*
X43959728Y-126165104D02*
G75*
G03X40971960Y-126117340I-1524728J-1905496D01*
G01*
X40960589Y-127056844D02*
G75*
G03X44111400Y-127003800I1553151J1348444D01*
G01*
X44060097Y-127053481D02*
G75*
G03X43918360Y-126127500I-431297J407821D01*
G01*
X46020851Y-126082890D02*
G75*
G03X45965600Y-127052060I452749J-511970D01*
G01*
X48960988Y-126165104D02*
G75*
G03X45973220Y-126117340I-1524728J-1905496D01*
G01*
X45958427Y-127061847D02*
G75*
G03X49115200Y-127003800I1554033J1353447D01*
G01*
X49064520Y-127051019D02*
G75*
G03X48919620Y-126127500I-431920J405359D01*
G01*
X37009600Y-119460000D02*
X34469600Y-119460000D01*
X34469600Y-119460000D02*
X34469600Y-122254000D01*
X37009600Y-122254000D02*
X34469600Y-122254000D01*
X37009600Y-119460000D02*
X37009600Y-122254000D01*
X32005800Y-119460000D02*
X29465800Y-119460000D01*
X29465800Y-119460000D02*
X29465800Y-122254000D01*
X32005800Y-122254000D02*
X29465800Y-122254000D01*
X32005800Y-119460000D02*
X32005800Y-122254000D01*
X28145000Y-128223000D02*
X28145000Y-125175000D01*
X28145000Y-128223000D02*
X38330000Y-128223000D01*
X28145000Y-128223000D02*
X27637000Y-128223000D01*
X27637000Y-128223000D02*
X27637000Y-123397000D01*
X27637000Y-123397000D02*
X28145000Y-123651000D01*
X27637000Y-116539000D02*
X28145000Y-116793000D01*
X28145000Y-116793000D02*
X28145000Y-115777000D01*
X27637000Y-118190000D02*
X28145000Y-117936000D01*
X28145000Y-117936000D02*
X28145000Y-116793000D01*
X27637000Y-118190000D02*
X27637000Y-116539000D01*
X32767800Y-115777000D02*
X32767800Y-117682000D01*
X28703800Y-122254000D02*
X28703800Y-117682000D01*
X32767800Y-115777000D02*
X28703800Y-115777000D01*
X28703800Y-115777000D02*
X28145000Y-115777000D01*
X33707600Y-115777000D02*
X33707600Y-117682000D01*
X33707600Y-115777000D02*
X32767800Y-115777000D01*
X37771600Y-122254000D02*
X37771600Y-117682000D01*
X38330000Y-115777000D02*
X37771600Y-115777000D01*
X37771600Y-115777000D02*
X33707600Y-115777000D01*
X32767800Y-117682000D02*
X28703800Y-117682000D01*
X32767800Y-117682000D02*
X32767800Y-122254000D01*
X28703800Y-117682000D02*
X28703800Y-115777000D01*
X33707600Y-117682000D02*
X37771600Y-117682000D01*
X33707600Y-117682000D02*
X33707600Y-122254000D01*
X37771600Y-117682000D02*
X37771600Y-115777000D01*
X29084800Y-118317000D02*
X29084800Y-121492000D01*
X29084800Y-118317000D02*
X32386800Y-118317000D01*
X32386800Y-118317000D02*
X32386800Y-121492000D01*
X34088600Y-118317000D02*
X34088600Y-121492000D01*
X34088600Y-118317000D02*
X37390600Y-118317000D01*
X37390600Y-118317000D02*
X37390600Y-121492000D01*
X37390600Y-121492000D02*
X37009600Y-121492000D01*
X34088600Y-121492000D02*
X34469600Y-121492000D01*
X32386800Y-121492000D02*
X32005800Y-121492000D01*
X29084800Y-121492000D02*
X29465800Y-121492000D01*
X38330000Y-115777000D02*
X38330000Y-122635000D01*
X38330000Y-122635000D02*
X38330000Y-125175000D01*
X28145000Y-123651000D02*
X28145000Y-122635000D01*
X28145000Y-122635000D02*
X28145000Y-117936000D01*
X38330000Y-125175000D02*
X28145000Y-125175000D01*
X38330000Y-125175000D02*
X38330000Y-128223000D01*
X28145000Y-125175000D02*
X28145000Y-123651000D01*
X32767800Y-125429000D02*
X32767800Y-127969000D01*
X32767800Y-127969000D02*
X28703800Y-127969000D01*
X28703800Y-127969000D02*
X28703800Y-125429000D01*
X28703800Y-125429000D02*
X32767800Y-125429000D01*
X33707600Y-125429000D02*
X33707600Y-127969000D01*
X33707600Y-125429000D02*
X37771600Y-125429000D01*
X37771600Y-125429000D02*
X37771600Y-127969000D01*
X33707600Y-127969000D02*
X37771600Y-127969000D01*
X32361400Y-126445000D02*
X29313400Y-127080000D01*
X32234400Y-126318000D02*
X29186400Y-126953000D01*
X37365200Y-126445000D02*
X34314660Y-127080000D01*
X37238200Y-126318000D02*
X34190200Y-126953000D01*
X37771600Y-122254000D02*
X37390600Y-122254000D01*
X33707600Y-122254000D02*
X34088600Y-122254000D01*
X34088600Y-122254000D02*
X37390600Y-122254000D01*
X38330000Y-122635000D02*
X37390600Y-122635000D01*
X37390600Y-122635000D02*
X34088600Y-122635000D01*
X34088600Y-122635000D02*
X32386800Y-122635000D01*
X28145000Y-122635000D02*
X29084800Y-122635000D01*
X29084800Y-122635000D02*
X32386800Y-122635000D01*
X28703800Y-122254000D02*
X29084800Y-122254000D01*
X32767800Y-122254000D02*
X32386800Y-122254000D01*
X32386800Y-122254000D02*
X29084800Y-122254000D01*
X29267028Y-126085430D02*
G75*
G03X29214340Y-127052060I452772J-509430D01*
G01*
X32209728Y-126165104D02*
G75*
G03X29221960Y-126117340I-1524728J-1905496D01*
G01*
X29210589Y-127056844D02*
G75*
G03X32361400Y-127003800I1553151J1348444D01*
G01*
X32310097Y-127053481D02*
G75*
G03X32168360Y-126127500I-431297J407821D01*
G01*
X34270851Y-126082890D02*
G75*
G03X34215600Y-127052060I452749J-511970D01*
G01*
X37210988Y-126165104D02*
G75*
G03X34223220Y-126117340I-1524728J-1905496D01*
G01*
X34208427Y-127061847D02*
G75*
G03X37365200Y-127003800I1554033J1353447D01*
G01*
X37314520Y-127051019D02*
G75*
G03X37169620Y-126127500I-431920J405359D01*
G01*
X60509600Y-119460000D02*
X57969600Y-119460000D01*
X57969600Y-119460000D02*
X57969600Y-122254000D01*
X60509600Y-122254000D02*
X57969600Y-122254000D01*
X60509600Y-119460000D02*
X60509600Y-122254000D01*
X55505800Y-119460000D02*
X52965800Y-119460000D01*
X52965800Y-119460000D02*
X52965800Y-122254000D01*
X55505800Y-122254000D02*
X52965800Y-122254000D01*
X55505800Y-119460000D02*
X55505800Y-122254000D01*
X51645000Y-128223000D02*
X51645000Y-125175000D01*
X51645000Y-128223000D02*
X61830000Y-128223000D01*
X51645000Y-128223000D02*
X51137000Y-128223000D01*
X51137000Y-128223000D02*
X51137000Y-123397000D01*
X51137000Y-123397000D02*
X51645000Y-123651000D01*
X51137000Y-116539000D02*
X51645000Y-116793000D01*
X51645000Y-116793000D02*
X51645000Y-115777000D01*
X51137000Y-118190000D02*
X51645000Y-117936000D01*
X51645000Y-117936000D02*
X51645000Y-116793000D01*
X51137000Y-118190000D02*
X51137000Y-116539000D01*
X56267800Y-115777000D02*
X56267800Y-117682000D01*
X52203800Y-122254000D02*
X52203800Y-117682000D01*
X56267800Y-115777000D02*
X52203800Y-115777000D01*
X52203800Y-115777000D02*
X51645000Y-115777000D01*
X57207600Y-115777000D02*
X57207600Y-117682000D01*
X57207600Y-115777000D02*
X56267800Y-115777000D01*
X61271600Y-122254000D02*
X61271600Y-117682000D01*
X61830000Y-115777000D02*
X61271600Y-115777000D01*
X61271600Y-115777000D02*
X57207600Y-115777000D01*
X56267800Y-117682000D02*
X52203800Y-117682000D01*
X56267800Y-117682000D02*
X56267800Y-122254000D01*
X52203800Y-117682000D02*
X52203800Y-115777000D01*
X57207600Y-117682000D02*
X61271600Y-117682000D01*
X57207600Y-117682000D02*
X57207600Y-122254000D01*
X61271600Y-117682000D02*
X61271600Y-115777000D01*
X52584800Y-118317000D02*
X52584800Y-121492000D01*
X52584800Y-118317000D02*
X55886800Y-118317000D01*
X55886800Y-118317000D02*
X55886800Y-121492000D01*
X57588600Y-118317000D02*
X57588600Y-121492000D01*
X57588600Y-118317000D02*
X60890600Y-118317000D01*
X60890600Y-118317000D02*
X60890600Y-121492000D01*
X60890600Y-121492000D02*
X60509600Y-121492000D01*
X57588600Y-121492000D02*
X57969600Y-121492000D01*
X55886800Y-121492000D02*
X55505800Y-121492000D01*
X52584800Y-121492000D02*
X52965800Y-121492000D01*
X61830000Y-115777000D02*
X61830000Y-122635000D01*
X61830000Y-122635000D02*
X61830000Y-125175000D01*
X51645000Y-123651000D02*
X51645000Y-122635000D01*
X51645000Y-122635000D02*
X51645000Y-117936000D01*
X61830000Y-125175000D02*
X51645000Y-125175000D01*
X61830000Y-125175000D02*
X61830000Y-128223000D01*
X51645000Y-125175000D02*
X51645000Y-123651000D01*
X56267800Y-125429000D02*
X56267800Y-127969000D01*
X56267800Y-127969000D02*
X52203800Y-127969000D01*
X52203800Y-127969000D02*
X52203800Y-125429000D01*
X52203800Y-125429000D02*
X56267800Y-125429000D01*
X57207600Y-125429000D02*
X57207600Y-127969000D01*
X57207600Y-125429000D02*
X61271600Y-125429000D01*
X61271600Y-125429000D02*
X61271600Y-127969000D01*
X57207600Y-127969000D02*
X61271600Y-127969000D01*
X55861400Y-126445000D02*
X52813400Y-127080000D01*
X55734400Y-126318000D02*
X52686400Y-126953000D01*
X60865200Y-126445000D02*
X57814660Y-127080000D01*
X60738200Y-126318000D02*
X57690200Y-126953000D01*
X61271600Y-122254000D02*
X60890600Y-122254000D01*
X57207600Y-122254000D02*
X57588600Y-122254000D01*
X57588600Y-122254000D02*
X60890600Y-122254000D01*
X61830000Y-122635000D02*
X60890600Y-122635000D01*
X60890600Y-122635000D02*
X57588600Y-122635000D01*
X57588600Y-122635000D02*
X55886800Y-122635000D01*
X51645000Y-122635000D02*
X52584800Y-122635000D01*
X52584800Y-122635000D02*
X55886800Y-122635000D01*
X52203800Y-122254000D02*
X52584800Y-122254000D01*
X56267800Y-122254000D02*
X55886800Y-122254000D01*
X55886800Y-122254000D02*
X52584800Y-122254000D01*
X52767028Y-126085430D02*
G75*
G03X52714340Y-127052060I452772J-509430D01*
G01*
X55709728Y-126165104D02*
G75*
G03X52721960Y-126117340I-1524728J-1905496D01*
G01*
X52710589Y-127056844D02*
G75*
G03X55861400Y-127003800I1553151J1348444D01*
G01*
X55810097Y-127053481D02*
G75*
G03X55668360Y-126127500I-431297J407821D01*
G01*
X57770851Y-126082890D02*
G75*
G03X57715600Y-127052060I452749J-511970D01*
G01*
X60710988Y-126165104D02*
G75*
G03X57723220Y-126117340I-1524728J-1905496D01*
G01*
X57708427Y-127061847D02*
G75*
G03X60865200Y-127003800I1554033J1353447D01*
G01*
X60814520Y-127051019D02*
G75*
G03X60669620Y-126127500I-431920J405359D01*
G01*
X67770000Y-41520000D02*
X67770000Y-59300000D01*
X67770000Y-59300000D02*
X65230000Y-59300000D01*
X65230000Y-59300000D02*
X65230000Y-41520000D01*
X68050000Y-38700000D02*
X68050000Y-40250000D01*
X67770000Y-41520000D02*
X65230000Y-41520000D01*
X64950000Y-40250000D02*
X64950000Y-38700000D01*
X64950000Y-38700000D02*
X68050000Y-38700000D01*
X67770000Y-63770000D02*
X67770000Y-79010000D01*
X67770000Y-79010000D02*
X65230000Y-79010000D01*
X65230000Y-79010000D02*
X65230000Y-63770000D01*
X68050000Y-60950000D02*
X68050000Y-62500000D01*
X67770000Y-63770000D02*
X65230000Y-63770000D01*
X64950000Y-62500000D02*
X64950000Y-60950000D01*
X64950000Y-60950000D02*
X68050000Y-60950000D01*
X67770000Y-105480000D02*
X67770000Y-100400000D01*
X67770000Y-100400000D02*
X65230000Y-100400000D01*
X65230000Y-100400000D02*
X65230000Y-105480000D01*
X64950000Y-108300000D02*
X64950000Y-106750000D01*
X65230000Y-105480000D02*
X67770000Y-105480000D01*
X68050000Y-106750000D02*
X68050000Y-108300000D01*
X68050000Y-108300000D02*
X64950000Y-108300000D01*
X65230000Y-112270000D02*
X65230000Y-117350000D01*
X65230000Y-117350000D02*
X67770000Y-117350000D01*
X67770000Y-117350000D02*
X67770000Y-112270000D01*
X68050000Y-109450000D02*
X68050000Y-111000000D01*
X67770000Y-112270000D02*
X65230000Y-112270000D01*
X64950000Y-111000000D02*
X64950000Y-109450000D01*
X64950000Y-109450000D02*
X68050000Y-109450000D01*
X65230000Y-96230000D02*
X65230000Y-83530000D01*
X65230000Y-83530000D02*
X67770000Y-83530000D01*
X67770000Y-83530000D02*
X67770000Y-96230000D01*
X64950000Y-99050000D02*
X64950000Y-97500000D01*
X65230000Y-96230000D02*
X67770000Y-96230000D01*
X68050000Y-97500000D02*
X68050000Y-99050000D01*
X68050000Y-99050000D02*
X64950000Y-99050000D01*
X31300000Y-83820000D02*
X31300000Y-87220000D01*
X31302944Y-83822944D02*
G75*
G02X35400000Y-85520000I1697056J-1697056D01*
G01*
X31302944Y-87217056D02*
G75*
G03X35400000Y-85520000I1697056J1697056D01*
G01*
X29540000Y-56000000D02*
G75*
G03X29540000Y-56000000I-2540000J0D01*
G01*
X30810000Y-59810000D02*
X23190000Y-59810000D01*
X23190000Y-59810000D02*
X23190000Y-52190000D01*
X23190000Y-52190000D02*
X30810000Y-52190000D01*
X30810000Y-59810000D02*
X30810000Y-52190000D01*
X29540000Y-46000000D02*
G75*
G03X29540000Y-46000000I-2540000J0D01*
G01*
X23190000Y-42190000D02*
X30810000Y-42190000D01*
X30810000Y-42190000D02*
X30810000Y-49810000D01*
X30810000Y-49810000D02*
X23190000Y-49810000D01*
X23190000Y-42190000D02*
X23190000Y-49810000D01*
X46615000Y-89295000D02*
X46615000Y-88025000D01*
X39265000Y-89295000D02*
X39265000Y-88025000D01*
X39265000Y-82165000D02*
X39265000Y-83435000D01*
X46615000Y-82165000D02*
X46615000Y-83435000D01*
X46615000Y-89295000D02*
X39265000Y-89295000D01*
X46615000Y-82165000D02*
X39265000Y-82165000D01*
X46615000Y-88025000D02*
X47550000Y-88025000D01*
X38675000Y-70675000D02*
X37875000Y-70675000D01*
X34325000Y-66325000D02*
X35125000Y-66325000D01*
X34325000Y-70675000D02*
X35125000Y-70675000D01*
X38675000Y-66325000D02*
X38675000Y-67125000D01*
X34325000Y-66325000D02*
X34325000Y-67125000D01*
X34325000Y-70675000D02*
X34325000Y-69875000D01*
X38675000Y-70675000D02*
X38675000Y-69875000D01*
D13*
X38484000Y-55109000D02*
X38484000Y-55871000D01*
X38484000Y-55871000D02*
X54486000Y-55871000D01*
X54486000Y-55871000D02*
X54486000Y-55109000D01*
D12*
X58049340Y-74850080D02*
X58349060Y-75099000D01*
X58349060Y-75099000D02*
X58498920Y-75200600D01*
X58498920Y-75200600D02*
X57650560Y-75200600D01*
X59550480Y-74499560D02*
X57749620Y-74499560D01*
X59550480Y-74499560D02*
X59550480Y-75149800D01*
X59550480Y-79000440D02*
X57749620Y-79000440D01*
X59550480Y-79000440D02*
X59550480Y-78350200D01*
X31405000Y-41139000D02*
X27722000Y-41139000D01*
X27722000Y-41139000D02*
X27214000Y-40631000D01*
X27214000Y-40631000D02*
X27214000Y-39869000D01*
X27214000Y-39869000D02*
X27722000Y-39361000D01*
X27722000Y-39361000D02*
X31405000Y-39361000D01*
X31405000Y-39361000D02*
X31913000Y-39869000D01*
X31913000Y-39869000D02*
X31913000Y-40631000D01*
X31913000Y-40631000D02*
X31405000Y-41139000D01*
X25655000Y-40889000D02*
X21972000Y-40889000D01*
X21972000Y-40889000D02*
X21464000Y-40381000D01*
X21464000Y-40381000D02*
X21464000Y-39619000D01*
X21464000Y-39619000D02*
X21972000Y-39111000D01*
X21972000Y-39111000D02*
X25655000Y-39111000D01*
X25655000Y-39111000D02*
X26163000Y-39619000D01*
X26163000Y-39619000D02*
X26163000Y-40381000D01*
X26163000Y-40381000D02*
X25655000Y-40889000D01*
D14*
X24000000Y-89100000D02*
X22000000Y-89100000D01*
X22000000Y-89100000D02*
X22000000Y-89900000D01*
X22000000Y-89900000D02*
X24000000Y-89900000D01*
X24000000Y-89900000D02*
X24000000Y-89100000D01*
X21984000Y-90454000D02*
X24016000Y-90454000D01*
X24016000Y-88546000D02*
X21984000Y-88546000D01*
X21984000Y-90454000D02*
G75*
G03X23000000Y-91470000I1016000J0D01*
G01*
X23000000Y-91470000D02*
G75*
G03X24016000Y-90454000I0J1016000D01*
G01*
X24016000Y-88546000D02*
G75*
G03X23000000Y-87530000I-1016000J0D01*
G01*
X23000000Y-87530000D02*
G75*
G03X21984000Y-88546000I0J-1016000D01*
G01*
X24000000Y-83100000D02*
X22000000Y-83100000D01*
X22000000Y-83100000D02*
X22000000Y-83900000D01*
X22000000Y-83900000D02*
X24000000Y-83900000D01*
X24000000Y-83900000D02*
X24000000Y-83100000D01*
X21984000Y-84454000D02*
X24016000Y-84454000D01*
X24016000Y-82546000D02*
X21984000Y-82546000D01*
X21984000Y-84454000D02*
G75*
G03X23000000Y-85470000I1016000J0D01*
G01*
X23000000Y-85470000D02*
G75*
G03X24016000Y-84454000I0J1016000D01*
G01*
X24016000Y-82546000D02*
G75*
G03X23000000Y-81530000I-1016000J0D01*
G01*
X23000000Y-81530000D02*
G75*
G03X21984000Y-82546000I0J-1016000D01*
G01*
X24000000Y-77100000D02*
X22000000Y-77100000D01*
X22000000Y-77100000D02*
X22000000Y-77900000D01*
X22000000Y-77900000D02*
X24000000Y-77900000D01*
X24000000Y-77900000D02*
X24000000Y-77100000D01*
X21984000Y-78454000D02*
X24016000Y-78454000D01*
X24016000Y-76546000D02*
X21984000Y-76546000D01*
X21984000Y-78454000D02*
G75*
G03X23000000Y-79470000I1016000J0D01*
G01*
X23000000Y-79470000D02*
G75*
G03X24016000Y-78454000I0J1016000D01*
G01*
X24016000Y-76546000D02*
G75*
G03X23000000Y-75530000I-1016000J0D01*
G01*
X23000000Y-75530000D02*
G75*
G03X21984000Y-76546000I0J-1016000D01*
G01*
D12*
X59825000Y-80001000D02*
X59825000Y-84999000D01*
X59965000Y-80009000D02*
X59965000Y-82346000D01*
X59965000Y-82654000D02*
X59965000Y-84991000D01*
X60105000Y-80025000D02*
X60105000Y-82027000D01*
X60105000Y-82973000D02*
X60105000Y-84975000D01*
X60245000Y-80049000D02*
X60245000Y-81880000D01*
X60245000Y-83120000D02*
X60245000Y-84951000D01*
X60385000Y-80082000D02*
X60385000Y-81788000D01*
X60385000Y-83212000D02*
X60385000Y-84918000D01*
X60525000Y-80123000D02*
X60525000Y-81732000D01*
X60525000Y-83268000D02*
X60525000Y-84877000D01*
X60665000Y-80173000D02*
X60665000Y-81705000D01*
X60665000Y-83295000D02*
X60665000Y-84827000D01*
X60805000Y-80234000D02*
X60805000Y-81702000D01*
X60805000Y-83298000D02*
X60805000Y-84766000D01*
X60945000Y-80304000D02*
X60945000Y-81724000D01*
X60945000Y-83276000D02*
X60945000Y-84696000D01*
X61085000Y-80386000D02*
X61085000Y-81774000D01*
X61085000Y-83226000D02*
X61085000Y-84614000D01*
X61225000Y-80481000D02*
X61225000Y-81856000D01*
X61225000Y-83144000D02*
X61225000Y-84519000D01*
X61365000Y-80592000D02*
X61365000Y-81988000D01*
X61365000Y-83012000D02*
X61365000Y-84408000D01*
X61505000Y-80720000D02*
X61505000Y-82235000D01*
X61505000Y-82765000D02*
X61505000Y-84280000D01*
X61645000Y-80869000D02*
X61645000Y-84131000D01*
X61785000Y-81048000D02*
X61785000Y-83952000D01*
X61925000Y-81267000D02*
X61925000Y-83733000D01*
X62065000Y-81556000D02*
X62065000Y-83444000D01*
X62205000Y-82028000D02*
X62205000Y-82972000D01*
X61550000Y-82500000D02*
G75*
G03X61550000Y-82500000I-800000J0D01*
G01*
X62287500Y-82500000D02*
G75*
G03X62287500Y-82500000I-2537500J0D01*
G01*
X59425000Y-73499000D02*
X59425000Y-68501000D01*
X59285000Y-73491000D02*
X59285000Y-71154000D01*
X59285000Y-70846000D02*
X59285000Y-68509000D01*
X59145000Y-73475000D02*
X59145000Y-71473000D01*
X59145000Y-70527000D02*
X59145000Y-68525000D01*
X59005000Y-73451000D02*
X59005000Y-71620000D01*
X59005000Y-70380000D02*
X59005000Y-68549000D01*
X58865000Y-73418000D02*
X58865000Y-71712000D01*
X58865000Y-70288000D02*
X58865000Y-68582000D01*
X58725000Y-73377000D02*
X58725000Y-71768000D01*
X58725000Y-70232000D02*
X58725000Y-68623000D01*
X58585000Y-73327000D02*
X58585000Y-71795000D01*
X58585000Y-70205000D02*
X58585000Y-68673000D01*
X58445000Y-73266000D02*
X58445000Y-71798000D01*
X58445000Y-70202000D02*
X58445000Y-68734000D01*
X58305000Y-73196000D02*
X58305000Y-71776000D01*
X58305000Y-70224000D02*
X58305000Y-68804000D01*
X58165000Y-73114000D02*
X58165000Y-71726000D01*
X58165000Y-70274000D02*
X58165000Y-68886000D01*
X58025000Y-73019000D02*
X58025000Y-71644000D01*
X58025000Y-70356000D02*
X58025000Y-68981000D01*
X57885000Y-72908000D02*
X57885000Y-71512000D01*
X57885000Y-70488000D02*
X57885000Y-69092000D01*
X57745000Y-72780000D02*
X57745000Y-71265000D01*
X57745000Y-70735000D02*
X57745000Y-69220000D01*
X57605000Y-72631000D02*
X57605000Y-69369000D01*
X57465000Y-72452000D02*
X57465000Y-69548000D01*
X57325000Y-72233000D02*
X57325000Y-69767000D01*
X57185000Y-71944000D02*
X57185000Y-70056000D01*
X57045000Y-71472000D02*
X57045000Y-70528000D01*
X59300000Y-71000000D02*
G75*
G03X59300000Y-71000000I-800000J0D01*
G01*
X62037500Y-71000000D02*
G75*
G03X62037500Y-71000000I-2537500J0D01*
G01*
X28800000Y-111500000D02*
X28800000Y-114800000D01*
X28800000Y-114800000D02*
X44200000Y-114800000D01*
X44200000Y-114800000D02*
X44200000Y-111450000D01*
X35150000Y-95200000D02*
X28800000Y-95200000D01*
X28800000Y-95200000D02*
X28800000Y-109750000D01*
X37900000Y-95200000D02*
X44200000Y-95200000D01*
X44200000Y-95200000D02*
X44200000Y-109950000D01*
X44150000Y-95200000D02*
X37900000Y-95200000D01*
X32300000Y-110650000D02*
X34750000Y-110650000D01*
X40700000Y-110650000D02*
X38200000Y-110650000D01*
X30450000Y-100050000D02*
X30450000Y-102550000D01*
X36450000Y-99150000D02*
X36450000Y-98350000D01*
X42450000Y-102550000D02*
X42450000Y-100050000D01*
X36450000Y-105950000D02*
X36450000Y-107450000D01*
X36450000Y-107450000D02*
X38950000Y-112050000D01*
X32850000Y-105950000D02*
X32850000Y-99150000D01*
X36450000Y-105950000D02*
X32850000Y-105950000D01*
X36450000Y-99150000D02*
X32850000Y-99150000D01*
X42450000Y-102550000D02*
X38250000Y-102550000D01*
X34650000Y-102550000D02*
X30450000Y-102550000D01*
X34650000Y-104550000D02*
X38250000Y-100550000D01*
X34650000Y-100550000D02*
X38250000Y-100550000D01*
X38250000Y-100550000D02*
X38250000Y-104550000D01*
X38250000Y-104550000D02*
X34650000Y-104550000D01*
X34650000Y-104550000D02*
X34650000Y-100550000D01*
X45800000Y-111500000D02*
X45800000Y-114800000D01*
X45800000Y-114800000D02*
X61200000Y-114800000D01*
X61200000Y-114800000D02*
X61200000Y-111450000D01*
X52150000Y-95200000D02*
X45800000Y-95200000D01*
X45800000Y-95200000D02*
X45800000Y-109750000D01*
X54900000Y-95200000D02*
X61200000Y-95200000D01*
X61200000Y-95200000D02*
X61200000Y-109950000D01*
X61150000Y-95200000D02*
X54900000Y-95200000D01*
X49300000Y-110650000D02*
X51750000Y-110650000D01*
X57700000Y-110650000D02*
X55200000Y-110650000D01*
X47450000Y-100050000D02*
X47450000Y-102550000D01*
X53450000Y-99150000D02*
X53450000Y-98350000D01*
X59450000Y-102550000D02*
X59450000Y-100050000D01*
X53450000Y-105950000D02*
X53450000Y-107450000D01*
X53450000Y-107450000D02*
X55950000Y-112050000D01*
X49850000Y-105950000D02*
X49850000Y-99150000D01*
X53450000Y-105950000D02*
X49850000Y-105950000D01*
X53450000Y-99150000D02*
X49850000Y-99150000D01*
X59450000Y-102550000D02*
X55250000Y-102550000D01*
X51650000Y-102550000D02*
X47450000Y-102550000D01*
X51650000Y-104550000D02*
X55250000Y-100550000D01*
X51650000Y-100550000D02*
X55250000Y-100550000D01*
X55250000Y-100550000D02*
X55250000Y-104550000D01*
X55250000Y-104550000D02*
X51650000Y-104550000D01*
X51650000Y-104550000D02*
X51650000Y-100550000D01*
X58317500Y-93500000D02*
X58698500Y-93500000D01*
X57301500Y-93500000D02*
X57682500Y-93500000D01*
X57682500Y-93500000D02*
X58317500Y-93119000D01*
X58317500Y-93119000D02*
X58317500Y-93881000D01*
X58317500Y-93881000D02*
X57682500Y-93500000D01*
X57682500Y-92992000D02*
X57682500Y-94008000D01*
X56000000Y-94400000D02*
X59540000Y-94400000D01*
X56000000Y-92600000D02*
X59540000Y-92600000D01*
X30199900Y-69000000D02*
X30199900Y-69200660D01*
X30199900Y-69000000D02*
X30199900Y-68799340D01*
X31800100Y-68900940D02*
X31800100Y-68799340D01*
X31800100Y-68799340D02*
X31800100Y-69200660D01*
X41250000Y-75300100D02*
X41450660Y-75300100D01*
X41250000Y-75300100D02*
X41049340Y-75300100D01*
X41150940Y-73699900D02*
X41049340Y-73699900D01*
X41049340Y-73699900D02*
X41450660Y-73699900D01*
X50801000Y-86314000D02*
X50801000Y-86114000D01*
X50801000Y-83720000D02*
X50801000Y-83900000D01*
X54028744Y-84030357D02*
G75*
G03X50801000Y-83714000I-1727744J-1003643D01*
G01*
X53353006Y-83900932D02*
G75*
G03X51250000Y-83900000I-1052006J-1133068D01*
G01*
X50813780Y-86340726D02*
G75*
G03X54051000Y-85994000I1497220J1306726D01*
G01*
X51287111Y-86113253D02*
G75*
G03X53335000Y-86094000I1013889J1079253D01*
G01*
X50699900Y-73250000D02*
X50699900Y-73450660D01*
X50699900Y-73250000D02*
X50699900Y-73049340D01*
X52300100Y-73150940D02*
X52300100Y-73049340D01*
X52300100Y-73049340D02*
X52300100Y-73450660D01*
X26949900Y-69000000D02*
X26949900Y-69200660D01*
X26949900Y-69000000D02*
X26949900Y-68799340D01*
X28550100Y-68900940D02*
X28550100Y-68799340D01*
X28550100Y-68799340D02*
X28550100Y-69200660D01*
X61449900Y-50500000D02*
X61449900Y-50700660D01*
X61449900Y-50500000D02*
X61449900Y-50299340D01*
X63050100Y-50400940D02*
X63050100Y-50299340D01*
X63050100Y-50299340D02*
X63050100Y-50700660D01*
X27700840Y-85900240D02*
X27749100Y-85900240D01*
X30499820Y-85199200D02*
X30499820Y-85900240D01*
X30499820Y-85900240D02*
X30250900Y-85900240D01*
X27700840Y-85900240D02*
X27500180Y-85900240D01*
X27500180Y-85900240D02*
X27500180Y-85199200D01*
X51511905Y-87202381D02*
X51511905Y-86202381D01*
X51750000Y-86202381D01*
X51892858Y-86250000D01*
X51988096Y-86345238D01*
X52035715Y-86440476D01*
X52083334Y-86630952D01*
X52083334Y-86773810D01*
X52035715Y-86964286D01*
X51988096Y-87059524D01*
X51892858Y-87154762D01*
X51750000Y-87202381D01*
X51511905Y-87202381D01*
X53035715Y-87202381D02*
X52464286Y-87202381D01*
X52750000Y-87202381D02*
X52750000Y-86202381D01*
X52654762Y-86345238D01*
X52559524Y-86440476D01*
X52464286Y-86488095D01*
X31511905Y-91702381D02*
X31511905Y-90702381D01*
X31750000Y-90702381D01*
X31892858Y-90750000D01*
X31988096Y-90845238D01*
X32035715Y-90940476D01*
X32083334Y-91130952D01*
X32083334Y-91273810D01*
X32035715Y-91464286D01*
X31988096Y-91559524D01*
X31892858Y-91654762D01*
X31750000Y-91702381D01*
X31511905Y-91702381D01*
X32464286Y-90797619D02*
X32511905Y-90750000D01*
X32607143Y-90702381D01*
X32845239Y-90702381D01*
X32940477Y-90750000D01*
X32988096Y-90797619D01*
X33035715Y-90892857D01*
X33035715Y-90988095D01*
X32988096Y-91130952D01*
X32416667Y-91702381D01*
X33035715Y-91702381D01*
X19152381Y-73866666D02*
X19152381Y-74342857D01*
X18152381Y-74342857D01*
X19152381Y-73009523D02*
X19152381Y-73580952D01*
X19152381Y-73295238D02*
X18152381Y-73295238D01*
X18295238Y-73390476D01*
X18390476Y-73485714D01*
X18438095Y-73580952D01*
X25852381Y-72185714D02*
X25185714Y-72185714D01*
X25280952Y-72185714D02*
X25233333Y-72138095D01*
X25185714Y-72042857D01*
X25185714Y-71899999D01*
X25233333Y-71804761D01*
X25328571Y-71757142D01*
X25852381Y-71757142D01*
X25328571Y-71757142D02*
X25233333Y-71709523D01*
X25185714Y-71614285D01*
X25185714Y-71471428D01*
X25233333Y-71376190D01*
X25328571Y-71328571D01*
X25852381Y-71328571D01*
X25852381Y-70423809D02*
X25328571Y-70423809D01*
X25233333Y-70471428D01*
X25185714Y-70566666D01*
X25185714Y-70757143D01*
X25233333Y-70852381D01*
X25804762Y-70423809D02*
X25852381Y-70519047D01*
X25852381Y-70757143D01*
X25804762Y-70852381D01*
X25709524Y-70900000D01*
X25614286Y-70900000D01*
X25519048Y-70852381D01*
X25471429Y-70757143D01*
X25471429Y-70519047D01*
X25423810Y-70423809D01*
X24852381Y-69471428D02*
X24852381Y-69947619D01*
X25328571Y-69995238D01*
X25280952Y-69947619D01*
X25233333Y-69852381D01*
X25233333Y-69614285D01*
X25280952Y-69519047D01*
X25328571Y-69471428D01*
X25423810Y-69423809D01*
X25661905Y-69423809D01*
X25757143Y-69471428D01*
X25804762Y-69519047D01*
X25852381Y-69614285D01*
X25852381Y-69852381D01*
X25804762Y-69947619D01*
X25757143Y-69995238D01*
X24852381Y-68519047D02*
X24852381Y-68995238D01*
X25328571Y-69042857D01*
X25280952Y-68995238D01*
X25233333Y-68900000D01*
X25233333Y-68661904D01*
X25280952Y-68566666D01*
X25328571Y-68519047D01*
X25423810Y-68471428D01*
X25661905Y-68471428D01*
X25757143Y-68519047D01*
X25804762Y-68566666D01*
X25852381Y-68661904D01*
X25852381Y-68900000D01*
X25804762Y-68995238D01*
X25757143Y-69042857D01*
X24852381Y-68138095D02*
X24852381Y-67519047D01*
X25233333Y-67852381D01*
X25233333Y-67709523D01*
X25280952Y-67614285D01*
X25328571Y-67566666D01*
X25423810Y-67519047D01*
X25661905Y-67519047D01*
X25757143Y-67566666D01*
X25804762Y-67614285D01*
X25852381Y-67709523D01*
X25852381Y-67995238D01*
X25804762Y-68090476D01*
X25757143Y-68138095D01*
X24947619Y-67138095D02*
X24900000Y-67090476D01*
X24852381Y-66995238D01*
X24852381Y-66757142D01*
X24900000Y-66661904D01*
X24947619Y-66614285D01*
X25042857Y-66566666D01*
X25138095Y-66566666D01*
X25280952Y-66614285D01*
X25852381Y-67185714D01*
X25852381Y-66566666D01*
X25471429Y-66138095D02*
X25471429Y-65376190D01*
X25852381Y-64471428D02*
X25328571Y-64471428D01*
X25233333Y-64519047D01*
X25185714Y-64614285D01*
X25185714Y-64804762D01*
X25233333Y-64900000D01*
X25804762Y-64471428D02*
X25852381Y-64566666D01*
X25852381Y-64804762D01*
X25804762Y-64900000D01*
X25709524Y-64947619D01*
X25614286Y-64947619D01*
X25519048Y-64900000D01*
X25471429Y-64804762D01*
X25471429Y-64566666D01*
X25423810Y-64471428D01*
X25804762Y-63614285D02*
X25852381Y-63709523D01*
X25852381Y-63900000D01*
X25804762Y-63995238D01*
X25709524Y-64042857D01*
X25328571Y-64042857D01*
X25233333Y-63995238D01*
X25185714Y-63900000D01*
X25185714Y-63709523D01*
X25233333Y-63614285D01*
X25328571Y-63566666D01*
X25423810Y-63566666D01*
X25519048Y-64042857D01*
X48681905Y-129437381D02*
X48681905Y-128437381D01*
X49062858Y-128437381D01*
X49158096Y-128485000D01*
X49205715Y-128532619D01*
X49253334Y-128627857D01*
X49253334Y-128770714D01*
X49205715Y-128865952D01*
X49158096Y-128913571D01*
X49062858Y-128961190D01*
X48681905Y-128961190D01*
X50205715Y-129437381D02*
X49634286Y-129437381D01*
X49920000Y-129437381D02*
X49920000Y-128437381D01*
X49824762Y-128580238D01*
X49729524Y-128675476D01*
X49634286Y-128723095D01*
X36931905Y-129437381D02*
X36931905Y-128437381D01*
X37312858Y-128437381D01*
X37408096Y-128485000D01*
X37455715Y-128532619D01*
X37503334Y-128627857D01*
X37503334Y-128770714D01*
X37455715Y-128865952D01*
X37408096Y-128913571D01*
X37312858Y-128961190D01*
X36931905Y-128961190D01*
X37884286Y-128532619D02*
X37931905Y-128485000D01*
X38027143Y-128437381D01*
X38265239Y-128437381D01*
X38360477Y-128485000D01*
X38408096Y-128532619D01*
X38455715Y-128627857D01*
X38455715Y-128723095D01*
X38408096Y-128865952D01*
X37836667Y-129437381D01*
X38455715Y-129437381D01*
X60431905Y-129437381D02*
X60431905Y-128437381D01*
X60812858Y-128437381D01*
X60908096Y-128485000D01*
X60955715Y-128532619D01*
X61003334Y-128627857D01*
X61003334Y-128770714D01*
X60955715Y-128865952D01*
X60908096Y-128913571D01*
X60812858Y-128961190D01*
X60431905Y-128961190D01*
X61336667Y-128437381D02*
X61955715Y-128437381D01*
X61622381Y-128818333D01*
X61765239Y-128818333D01*
X61860477Y-128865952D01*
X61908096Y-128913571D01*
X61955715Y-129008810D01*
X61955715Y-129246905D01*
X61908096Y-129342143D01*
X61860477Y-129389762D01*
X61765239Y-129437381D01*
X61479524Y-129437381D01*
X61384286Y-129389762D01*
X61336667Y-129342143D01*
X65761905Y-35602381D02*
X65761905Y-34602381D01*
X66142858Y-34602381D01*
X66238096Y-34650000D01*
X66285715Y-34697619D01*
X66333334Y-34792857D01*
X66333334Y-34935714D01*
X66285715Y-35030952D01*
X66238096Y-35078571D01*
X66142858Y-35126190D01*
X65761905Y-35126190D01*
X67190477Y-34935714D02*
X67190477Y-35602381D01*
X66952381Y-34554762D02*
X66714286Y-35269048D01*
X67333334Y-35269048D01*
X65761905Y-57852381D02*
X65761905Y-56852381D01*
X66142858Y-56852381D01*
X66238096Y-56900000D01*
X66285715Y-56947619D01*
X66333334Y-57042857D01*
X66333334Y-57185714D01*
X66285715Y-57280952D01*
X66238096Y-57328571D01*
X66142858Y-57376190D01*
X65761905Y-57376190D01*
X67238096Y-56852381D02*
X66761905Y-56852381D01*
X66714286Y-57328571D01*
X66761905Y-57280952D01*
X66857143Y-57233333D01*
X67095239Y-57233333D01*
X67190477Y-57280952D01*
X67238096Y-57328571D01*
X67285715Y-57423810D01*
X67285715Y-57661905D01*
X67238096Y-57757143D01*
X67190477Y-57804762D01*
X67095239Y-57852381D01*
X66857143Y-57852381D01*
X66761905Y-57804762D01*
X66714286Y-57757143D01*
X65761905Y-112302381D02*
X65761905Y-111302381D01*
X66142858Y-111302381D01*
X66238096Y-111350000D01*
X66285715Y-111397619D01*
X66333334Y-111492857D01*
X66333334Y-111635714D01*
X66285715Y-111730952D01*
X66238096Y-111778571D01*
X66142858Y-111826190D01*
X65761905Y-111826190D01*
X67190477Y-111302381D02*
X67000000Y-111302381D01*
X66904762Y-111350000D01*
X66857143Y-111397619D01*
X66761905Y-111540476D01*
X66714286Y-111730952D01*
X66714286Y-112111905D01*
X66761905Y-112207143D01*
X66809524Y-112254762D01*
X66904762Y-112302381D01*
X67095239Y-112302381D01*
X67190477Y-112254762D01*
X67238096Y-112207143D01*
X67285715Y-112111905D01*
X67285715Y-111873810D01*
X67238096Y-111778571D01*
X67190477Y-111730952D01*
X67095239Y-111683333D01*
X66904762Y-111683333D01*
X66809524Y-111730952D01*
X66761905Y-111778571D01*
X66714286Y-111873810D01*
X65761905Y-106352381D02*
X65761905Y-105352381D01*
X66142858Y-105352381D01*
X66238096Y-105400000D01*
X66285715Y-105447619D01*
X66333334Y-105542857D01*
X66333334Y-105685714D01*
X66285715Y-105780952D01*
X66238096Y-105828571D01*
X66142858Y-105876190D01*
X65761905Y-105876190D01*
X66666667Y-105352381D02*
X67333334Y-105352381D01*
X66904762Y-106352381D01*
X65761905Y-103052381D02*
X65761905Y-102052381D01*
X66142858Y-102052381D01*
X66238096Y-102100000D01*
X66285715Y-102147619D01*
X66333334Y-102242857D01*
X66333334Y-102385714D01*
X66285715Y-102480952D01*
X66238096Y-102528571D01*
X66142858Y-102576190D01*
X65761905Y-102576190D01*
X66904762Y-102480952D02*
X66809524Y-102433333D01*
X66761905Y-102385714D01*
X66714286Y-102290476D01*
X66714286Y-102242857D01*
X66761905Y-102147619D01*
X66809524Y-102100000D01*
X66904762Y-102052381D01*
X67095239Y-102052381D01*
X67190477Y-102100000D01*
X67238096Y-102147619D01*
X67285715Y-102242857D01*
X67285715Y-102290476D01*
X67238096Y-102385714D01*
X67190477Y-102433333D01*
X67095239Y-102480952D01*
X66904762Y-102480952D01*
X66809524Y-102528571D01*
X66761905Y-102576190D01*
X66714286Y-102671429D01*
X66714286Y-102861905D01*
X66761905Y-102957143D01*
X66809524Y-103004762D01*
X66904762Y-103052381D01*
X67095239Y-103052381D01*
X67190477Y-103004762D01*
X67238096Y-102957143D01*
X67285715Y-102861905D01*
X67285715Y-102671429D01*
X67238096Y-102576190D01*
X67190477Y-102528571D01*
X67095239Y-102480952D01*
X37547619Y-84345238D02*
X37500000Y-84440476D01*
X37404762Y-84535714D01*
X37261905Y-84678571D01*
X37214286Y-84773810D01*
X37214286Y-84869048D01*
X37452381Y-84821429D02*
X37404762Y-84916667D01*
X37309524Y-85011905D01*
X37119048Y-85059524D01*
X36785714Y-85059524D01*
X36595238Y-85011905D01*
X36500000Y-84916667D01*
X36452381Y-84821429D01*
X36452381Y-84630952D01*
X36500000Y-84535714D01*
X36595238Y-84440476D01*
X36785714Y-84392857D01*
X37119048Y-84392857D01*
X37309524Y-84440476D01*
X37404762Y-84535714D01*
X37452381Y-84630952D01*
X37452381Y-84821429D01*
X37452381Y-83440476D02*
X37452381Y-84011905D01*
X37452381Y-83726191D02*
X36452381Y-83726191D01*
X36595238Y-83821429D01*
X36690476Y-83916667D01*
X36738095Y-84011905D01*
X25666667Y-57166762D02*
X25809524Y-57214381D01*
X26047620Y-57214381D01*
X26142858Y-57166762D01*
X26190477Y-57119143D01*
X26238096Y-57023905D01*
X26238096Y-56928667D01*
X26190477Y-56833429D01*
X26142858Y-56785810D01*
X26047620Y-56738190D01*
X25857143Y-56690571D01*
X25761905Y-56642952D01*
X25714286Y-56595333D01*
X25666667Y-56500095D01*
X25666667Y-56404857D01*
X25714286Y-56309619D01*
X25761905Y-56262000D01*
X25857143Y-56214381D01*
X26095239Y-56214381D01*
X26238096Y-56262000D01*
X26571429Y-56214381D02*
X26809524Y-57214381D01*
X27000001Y-56500095D01*
X27190477Y-57214381D01*
X27428572Y-56214381D01*
X28333334Y-57214381D02*
X27761905Y-57214381D01*
X28047619Y-57214381D02*
X28047619Y-56214381D01*
X27952381Y-56357238D01*
X27857143Y-56452476D01*
X27761905Y-56500095D01*
X25666667Y-45642762D02*
X25809524Y-45690381D01*
X26047620Y-45690381D01*
X26142858Y-45642762D01*
X26190477Y-45595143D01*
X26238096Y-45499905D01*
X26238096Y-45404667D01*
X26190477Y-45309429D01*
X26142858Y-45261810D01*
X26047620Y-45214190D01*
X25857143Y-45166571D01*
X25761905Y-45118952D01*
X25714286Y-45071333D01*
X25666667Y-44976095D01*
X25666667Y-44880857D01*
X25714286Y-44785619D01*
X25761905Y-44738000D01*
X25857143Y-44690381D01*
X26095239Y-44690381D01*
X26238096Y-44738000D01*
X26571429Y-44690381D02*
X26809524Y-45690381D01*
X27000001Y-44976095D01*
X27190477Y-45690381D01*
X27428572Y-44690381D01*
X27761905Y-44785619D02*
X27809524Y-44738000D01*
X27904762Y-44690381D01*
X28142858Y-44690381D01*
X28238096Y-44738000D01*
X28285715Y-44785619D01*
X28333334Y-44880857D01*
X28333334Y-44976095D01*
X28285715Y-45118952D01*
X27714286Y-45690381D01*
X28333334Y-45690381D01*
X45988095Y-91672381D02*
X45988095Y-92481905D01*
X46035714Y-92577143D01*
X46083333Y-92624762D01*
X46178571Y-92672381D01*
X46369048Y-92672381D01*
X46464286Y-92624762D01*
X46511905Y-92577143D01*
X46559524Y-92481905D01*
X46559524Y-91672381D01*
X47559524Y-92672381D02*
X46988095Y-92672381D01*
X47273809Y-92672381D02*
X47273809Y-91672381D01*
X47178571Y-91815238D01*
X47083333Y-91910476D01*
X46988095Y-91958095D01*
X39352381Y-69261905D02*
X40161905Y-69261905D01*
X40257143Y-69214286D01*
X40304762Y-69166667D01*
X40352381Y-69071429D01*
X40352381Y-68880952D01*
X40304762Y-68785714D01*
X40257143Y-68738095D01*
X40161905Y-68690476D01*
X39352381Y-68690476D01*
X39447619Y-68261905D02*
X39400000Y-68214286D01*
X39352381Y-68119048D01*
X39352381Y-67880952D01*
X39400000Y-67785714D01*
X39447619Y-67738095D01*
X39542857Y-67690476D01*
X39638095Y-67690476D01*
X39780952Y-67738095D01*
X40352381Y-68309524D01*
X40352381Y-67690476D01*
X40238095Y-56302381D02*
X40238095Y-57111905D01*
X40285714Y-57207143D01*
X40333333Y-57254762D01*
X40428571Y-57302381D01*
X40619048Y-57302381D01*
X40714286Y-57254762D01*
X40761905Y-57207143D01*
X40809524Y-57111905D01*
X40809524Y-56302381D01*
X41190476Y-56302381D02*
X41809524Y-56302381D01*
X41476190Y-56683333D01*
X41619048Y-56683333D01*
X41714286Y-56730952D01*
X41761905Y-56778571D01*
X41809524Y-56873810D01*
X41809524Y-57111905D01*
X41761905Y-57207143D01*
X41714286Y-57254762D01*
X41619048Y-57302381D01*
X41333333Y-57302381D01*
X41238095Y-57254762D01*
X41190476Y-57207143D01*
X36664095Y-64818381D02*
X36664095Y-65627905D01*
X36711714Y-65723143D01*
X36759333Y-65770762D01*
X36854571Y-65818381D01*
X37045048Y-65818381D01*
X37140286Y-65770762D01*
X37187905Y-65723143D01*
X37235524Y-65627905D01*
X37235524Y-64818381D01*
X38140286Y-65151714D02*
X38140286Y-65818381D01*
X37902190Y-64770762D02*
X37664095Y-65485048D01*
X38283143Y-65485048D01*
X62703641Y-77461105D02*
X63513165Y-77461105D01*
X63608403Y-77413486D01*
X63656022Y-77365867D01*
X63703641Y-77270629D01*
X63703641Y-77080152D01*
X63656022Y-76984914D01*
X63608403Y-76937295D01*
X63513165Y-76889676D01*
X62703641Y-76889676D01*
X62703641Y-75937295D02*
X62703641Y-76413486D01*
X63179831Y-76461105D01*
X63132212Y-76413486D01*
X63084593Y-76318248D01*
X63084593Y-76080152D01*
X63132212Y-75984914D01*
X63179831Y-75937295D01*
X63275070Y-75889676D01*
X63513165Y-75889676D01*
X63608403Y-75937295D01*
X63656022Y-75984914D01*
X63703641Y-76080152D01*
X63703641Y-76318248D01*
X63656022Y-76413486D01*
X63608403Y-76461105D01*
X28595238Y-41226381D02*
X28833333Y-42226381D01*
X29023810Y-41512095D01*
X29214286Y-42226381D01*
X29452381Y-41226381D01*
X30357143Y-42226381D02*
X29785714Y-42226381D01*
X30071428Y-42226381D02*
X30071428Y-41226381D01*
X29976190Y-41369238D01*
X29880952Y-41464476D01*
X29785714Y-41512095D01*
X22845238Y-40976381D02*
X23083333Y-41976381D01*
X23273810Y-41262095D01*
X23464286Y-41976381D01*
X23702381Y-40976381D01*
X24035714Y-41071619D02*
X24083333Y-41024000D01*
X24178571Y-40976381D01*
X24416667Y-40976381D01*
X24511905Y-41024000D01*
X24559524Y-41071619D01*
X24607143Y-41166857D01*
X24607143Y-41262095D01*
X24559524Y-41404952D01*
X23988095Y-41976381D01*
X24607143Y-41976381D01*
X20552381Y-90933333D02*
X21266667Y-90933333D01*
X21409524Y-90980953D01*
X21504762Y-91076191D01*
X21552381Y-91219048D01*
X21552381Y-91314286D01*
X21552381Y-90457143D02*
X20552381Y-90457143D01*
X20552381Y-90076190D01*
X20600000Y-89980952D01*
X20647619Y-89933333D01*
X20742857Y-89885714D01*
X20885714Y-89885714D01*
X20980952Y-89933333D01*
X21028571Y-89980952D01*
X21076190Y-90076190D01*
X21076190Y-90457143D01*
X21552381Y-88933333D02*
X21552381Y-89504762D01*
X21552381Y-89219048D02*
X20552381Y-89219048D01*
X20695238Y-89314286D01*
X20790476Y-89409524D01*
X20838095Y-89504762D01*
X20552381Y-84933333D02*
X21266667Y-84933333D01*
X21409524Y-84980953D01*
X21504762Y-85076191D01*
X21552381Y-85219048D01*
X21552381Y-85314286D01*
X21552381Y-84457143D02*
X20552381Y-84457143D01*
X20552381Y-84076190D01*
X20600000Y-83980952D01*
X20647619Y-83933333D01*
X20742857Y-83885714D01*
X20885714Y-83885714D01*
X20980952Y-83933333D01*
X21028571Y-83980952D01*
X21076190Y-84076190D01*
X21076190Y-84457143D01*
X20647619Y-83504762D02*
X20600000Y-83457143D01*
X20552381Y-83361905D01*
X20552381Y-83123809D01*
X20600000Y-83028571D01*
X20647619Y-82980952D01*
X20742857Y-82933333D01*
X20838095Y-82933333D01*
X20980952Y-82980952D01*
X21552381Y-83552381D01*
X21552381Y-82933333D01*
X20552381Y-78933333D02*
X21266667Y-78933333D01*
X21409524Y-78980953D01*
X21504762Y-79076191D01*
X21552381Y-79219048D01*
X21552381Y-79314286D01*
X21552381Y-78457143D02*
X20552381Y-78457143D01*
X20552381Y-78076190D01*
X20600000Y-77980952D01*
X20647619Y-77933333D01*
X20742857Y-77885714D01*
X20885714Y-77885714D01*
X20980952Y-77933333D01*
X21028571Y-77980952D01*
X21076190Y-78076190D01*
X21076190Y-78457143D01*
X20552381Y-77552381D02*
X20552381Y-76933333D01*
X20933333Y-77266667D01*
X20933333Y-77123809D01*
X20980952Y-77028571D01*
X21028571Y-76980952D01*
X21123810Y-76933333D01*
X21361905Y-76933333D01*
X21457143Y-76980952D01*
X21504762Y-77028571D01*
X21552381Y-77123809D01*
X21552381Y-77409524D01*
X21504762Y-77504762D01*
X21457143Y-77552381D01*
X59583334Y-79057143D02*
X59535715Y-79104762D01*
X59392858Y-79152381D01*
X59297620Y-79152381D01*
X59154762Y-79104762D01*
X59059524Y-79009524D01*
X59011905Y-78914286D01*
X58964286Y-78723810D01*
X58964286Y-78580952D01*
X59011905Y-78390476D01*
X59059524Y-78295238D01*
X59154762Y-78200000D01*
X59297620Y-78152381D01*
X59392858Y-78152381D01*
X59535715Y-78200000D01*
X59583334Y-78247619D01*
X59916667Y-78152381D02*
X60535715Y-78152381D01*
X60202381Y-78533333D01*
X60345239Y-78533333D01*
X60440477Y-78580952D01*
X60488096Y-78628571D01*
X60535715Y-78723810D01*
X60535715Y-78961905D01*
X60488096Y-79057143D01*
X60440477Y-79104762D01*
X60345239Y-79152381D01*
X60059524Y-79152381D01*
X59964286Y-79104762D01*
X59916667Y-79057143D01*
X59333334Y-75157143D02*
X59285715Y-75204762D01*
X59142858Y-75252381D01*
X59047620Y-75252381D01*
X58904762Y-75204762D01*
X58809524Y-75109524D01*
X58761905Y-75014286D01*
X58714286Y-74823810D01*
X58714286Y-74680952D01*
X58761905Y-74490476D01*
X58809524Y-74395238D01*
X58904762Y-74300000D01*
X59047620Y-74252381D01*
X59142858Y-74252381D01*
X59285715Y-74300000D01*
X59333334Y-74347619D01*
X60190477Y-74585714D02*
X60190477Y-75252381D01*
X59952381Y-74204762D02*
X59714286Y-74919048D01*
X60333334Y-74919048D01*
X27752381Y-105338095D02*
X26752381Y-105338095D01*
X27752381Y-104766666D02*
X27180952Y-105195238D01*
X26752381Y-104766666D02*
X27323810Y-105338095D01*
X27752381Y-103814285D02*
X27752381Y-104385714D01*
X27752381Y-104100000D02*
X26752381Y-104100000D01*
X26895238Y-104195238D01*
X26990476Y-104290476D01*
X27038095Y-104385714D01*
X44752381Y-105338095D02*
X43752381Y-105338095D01*
X44752381Y-104766666D02*
X44180952Y-105195238D01*
X43752381Y-104766666D02*
X44323810Y-105338095D01*
X43847619Y-104385714D02*
X43800000Y-104338095D01*
X43752381Y-104242857D01*
X43752381Y-104004761D01*
X43800000Y-103909523D01*
X43847619Y-103861904D01*
X43942857Y-103814285D01*
X44038095Y-103814285D01*
X44180952Y-103861904D01*
X44752381Y-104433333D01*
X44752381Y-103814285D01*
X57261905Y-91952381D02*
X57261905Y-90952381D01*
X57500000Y-90952381D01*
X57642858Y-91000000D01*
X57738096Y-91095238D01*
X57785715Y-91190476D01*
X57833334Y-91380952D01*
X57833334Y-91523810D01*
X57785715Y-91714286D01*
X57738096Y-91809524D01*
X57642858Y-91904762D01*
X57500000Y-91952381D01*
X57261905Y-91952381D01*
X58166667Y-90952381D02*
X58785715Y-90952381D01*
X58452381Y-91333333D01*
X58595239Y-91333333D01*
X58690477Y-91380952D01*
X58738096Y-91428571D01*
X58785715Y-91523810D01*
X58785715Y-91761905D01*
X58738096Y-91857143D01*
X58690477Y-91904762D01*
X58595239Y-91952381D01*
X58309524Y-91952381D01*
X58214286Y-91904762D01*
X58166667Y-91857143D01*
X22266000Y-115245381D02*
X21932666Y-114769190D01*
X21694571Y-115245381D02*
X21694571Y-114245381D01*
X22075524Y-114245381D01*
X22170762Y-114293000D01*
X22218381Y-114340619D01*
X22266000Y-114435857D01*
X22266000Y-114578714D01*
X22218381Y-114673952D01*
X22170762Y-114721571D01*
X22075524Y-114769190D01*
X21694571Y-114769190D01*
X22694571Y-114721571D02*
X23027905Y-114721571D01*
X23170762Y-115245381D02*
X22694571Y-115245381D01*
X22694571Y-114245381D01*
X23170762Y-114245381D01*
X23932667Y-114721571D02*
X23599333Y-114721571D01*
X23599333Y-115245381D02*
X23599333Y-114245381D01*
X24075524Y-114245381D01*
X24408857Y-114340619D02*
X24456476Y-114293000D01*
X24551714Y-114245381D01*
X24789810Y-114245381D01*
X24885048Y-114293000D01*
X24932667Y-114340619D01*
X24980286Y-114435857D01*
X24980286Y-114531095D01*
X24932667Y-114673952D01*
X24361238Y-115245381D01*
X24980286Y-115245381D01*
X25361238Y-114340619D02*
X25408857Y-114293000D01*
X25504095Y-114245381D01*
X25742191Y-114245381D01*
X25837429Y-114293000D01*
X25885048Y-114340619D01*
X25932667Y-114435857D01*
X25932667Y-114531095D01*
X25885048Y-114673952D01*
X25313619Y-115245381D01*
X25932667Y-115245381D01*
X26551714Y-114245381D02*
X26646953Y-114245381D01*
X26742191Y-114293000D01*
X26789810Y-114340619D01*
X26837429Y-114435857D01*
X26885048Y-114626333D01*
X26885048Y-114864429D01*
X26837429Y-115054905D01*
X26789810Y-115150143D01*
X26742191Y-115197762D01*
X26646953Y-115245381D01*
X26551714Y-115245381D01*
X26456476Y-115197762D01*
X26408857Y-115150143D01*
X26361238Y-115054905D01*
X26313619Y-114864429D01*
X26313619Y-114626333D01*
X26361238Y-114435857D01*
X26408857Y-114340619D01*
X26456476Y-114293000D01*
X26551714Y-114245381D01*
X34455943Y-69265726D02*
X34503562Y-69313345D01*
X34551181Y-69456202D01*
X34551181Y-69551440D01*
X34503562Y-69694298D01*
X34408324Y-69789536D01*
X34313086Y-69837155D01*
X34122610Y-69884774D01*
X33979752Y-69884774D01*
X33789276Y-69837155D01*
X33694038Y-69789536D01*
X33598800Y-69694298D01*
X33551181Y-69551440D01*
X33551181Y-69456202D01*
X33598800Y-69313345D01*
X33646419Y-69265726D01*
X34551181Y-68313345D02*
X34551181Y-68884774D01*
X34551181Y-68599060D02*
X33551181Y-68599060D01*
X33694038Y-68694298D01*
X33789276Y-68789536D01*
X33836895Y-68884774D01*
X41182394Y-71758343D02*
X41134775Y-71805962D01*
X40991918Y-71853581D01*
X40896680Y-71853581D01*
X40753822Y-71805962D01*
X40658584Y-71710724D01*
X40610965Y-71615486D01*
X40563346Y-71425010D01*
X40563346Y-71282152D01*
X40610965Y-71091676D01*
X40658584Y-70996438D01*
X40753822Y-70901200D01*
X40896680Y-70853581D01*
X40991918Y-70853581D01*
X41134775Y-70901200D01*
X41182394Y-70948819D01*
X41563346Y-70948819D02*
X41610965Y-70901200D01*
X41706203Y-70853581D01*
X41944299Y-70853581D01*
X42039537Y-70901200D01*
X42087156Y-70948819D01*
X42134775Y-71044057D01*
X42134775Y-71139295D01*
X42087156Y-71282152D01*
X41515727Y-71853581D01*
X42134775Y-71853581D01*
X52171905Y-88512381D02*
X52171905Y-87512381D01*
X52410000Y-87512381D01*
X52552858Y-87560000D01*
X52648096Y-87655238D01*
X52695715Y-87750476D01*
X52743334Y-87940952D01*
X52743334Y-88083810D01*
X52695715Y-88274286D01*
X52648096Y-88369524D01*
X52552858Y-88464762D01*
X52410000Y-88512381D01*
X52171905Y-88512381D01*
X53600477Y-87845714D02*
X53600477Y-88512381D01*
X53362381Y-87464762D02*
X53124286Y-88179048D01*
X53743334Y-88179048D01*
X49048095Y-87192381D02*
X49048095Y-86192381D01*
X49619524Y-87192381D02*
X49190952Y-86620952D01*
X49619524Y-86192381D02*
X49048095Y-86763810D01*
X55051181Y-73515726D02*
X54574990Y-73849060D01*
X55051181Y-74087155D02*
X54051181Y-74087155D01*
X54051181Y-73706202D01*
X54098800Y-73610964D01*
X54146419Y-73563345D01*
X54241657Y-73515726D01*
X54384514Y-73515726D01*
X54479752Y-73563345D01*
X54527371Y-73610964D01*
X54574990Y-73706202D01*
X54574990Y-74087155D01*
X55051181Y-72563345D02*
X55051181Y-73134774D01*
X55051181Y-72849060D02*
X54051181Y-72849060D01*
X54194038Y-72944298D01*
X54289276Y-73039536D01*
X54336895Y-73134774D01*
X31301181Y-69265726D02*
X30824990Y-69599060D01*
X31301181Y-69837155D02*
X30301181Y-69837155D01*
X30301181Y-69456202D01*
X30348800Y-69360964D01*
X30396419Y-69313345D01*
X30491657Y-69265726D01*
X30634514Y-69265726D01*
X30729752Y-69313345D01*
X30777371Y-69360964D01*
X30824990Y-69456202D01*
X30824990Y-69837155D01*
X30396419Y-68884774D02*
X30348800Y-68837155D01*
X30301181Y-68741917D01*
X30301181Y-68503821D01*
X30348800Y-68408583D01*
X30396419Y-68360964D01*
X30491657Y-68313345D01*
X30586895Y-68313345D01*
X30729752Y-68360964D01*
X31301181Y-68932393D01*
X31301181Y-68313345D01*
X65801181Y-50765726D02*
X65324990Y-51099060D01*
X65801181Y-51337155D02*
X64801181Y-51337155D01*
X64801181Y-50956202D01*
X64848800Y-50860964D01*
X64896419Y-50813345D01*
X64991657Y-50765726D01*
X65134514Y-50765726D01*
X65229752Y-50813345D01*
X65277371Y-50860964D01*
X65324990Y-50956202D01*
X65324990Y-51337155D01*
X64801181Y-50432393D02*
X64801181Y-49813345D01*
X65182133Y-50146679D01*
X65182133Y-50003821D01*
X65229752Y-49908583D01*
X65277371Y-49860964D01*
X65372610Y-49813345D01*
X65610705Y-49813345D01*
X65705943Y-49860964D01*
X65753562Y-49908583D01*
X65801181Y-50003821D01*
X65801181Y-50289536D01*
X65753562Y-50384774D01*
X65705943Y-50432393D01*
X28904762Y-88047619D02*
X28809524Y-88000000D01*
X28714286Y-87904762D01*
X28571429Y-87761905D01*
X28476190Y-87714286D01*
X28380952Y-87714286D01*
X28428571Y-87952381D02*
X28333333Y-87904762D01*
X28238095Y-87809524D01*
X28190476Y-87619048D01*
X28190476Y-87285714D01*
X28238095Y-87095238D01*
X28333333Y-87000000D01*
X28428571Y-86952381D01*
X28619048Y-86952381D01*
X28714286Y-87000000D01*
X28809524Y-87095238D01*
X28857143Y-87285714D01*
X28857143Y-87619048D01*
X28809524Y-87809524D01*
X28714286Y-87904762D01*
X28619048Y-87952381D01*
X28428571Y-87952381D01*
X29238095Y-87047619D02*
X29285714Y-87000000D01*
X29380952Y-86952381D01*
X29619048Y-86952381D01*
X29714286Y-87000000D01*
X29761905Y-87047619D01*
X29809524Y-87142857D01*
X29809524Y-87238095D01*
X29761905Y-87380952D01*
X29190476Y-87952381D01*
X29809524Y-87952381D01*
M02*
