G04 #@! TF.FileFunction,Soldermask,Top*
%FSLAX46Y46*%
G04 Gerber Fmt 4.6, Leading zero omitted, Abs format (unit mm)*
G04 Created by KiCad (PCBNEW (2015-08-08 BZR 6073)-product) date Wed 12 Aug 2015 16:27:57 CEST*
%MOMM*%
G01*
G04 APERTURE LIST*
%ADD10C,0.100000*%
%ADD11R,1.197560X1.197560*%
%ADD12R,1.310000X1.620000*%
%ADD13R,3.600000X1.700000*%
%ADD14O,2.381200X4.362400*%
%ADD15R,2.432000X2.127200*%
%ADD16O,2.432000X2.127200*%
%ADD17O,1.901140X1.299160*%
%ADD18C,1.797000*%
%ADD19O,2.000000X2.000000*%
%ADD20O,0.750000X1.200000*%
%ADD21O,1.200000X0.750000*%
%ADD22R,1.750000X1.750000*%
%ADD23R,2.900000X1.500000*%
%ADD24O,2.900000X1.500000*%
%ADD25R,2.127200X2.127200*%
%ADD26C,2.127200*%
%ADD27R,2.901900X1.400760*%
%ADD28R,4.400500X2.398980*%
%ADD29R,1.400000X1.400000*%
%ADD30R,1.700000X1.700000*%
%ADD31C,1.700000*%
%ADD32C,2.900000*%
%ADD33C,3.400000*%
%ADD34R,2.398980X2.398980*%
%ADD35R,2.400000X2.400000*%
%ADD36C,2.400000*%
%ADD37R,1.200100X1.200100*%
G04 APERTURE END LIST*
D10*
D11*
X52999300Y-88250000D03*
X51500700Y-88250000D03*
D12*
X30615000Y-93250000D03*
X33885000Y-93250000D03*
D13*
X22500000Y-63800000D03*
X22500000Y-73100000D03*
D14*
X47500000Y-122000000D03*
X42500000Y-122000000D03*
X35750000Y-122000000D03*
X30750000Y-122000000D03*
X59250000Y-122000000D03*
X54250000Y-122000000D03*
D15*
X66500000Y-40250000D03*
D16*
X66500000Y-42790000D03*
X66500000Y-45330000D03*
X66500000Y-47870000D03*
X66500000Y-50410000D03*
X66500000Y-52950000D03*
X66500000Y-55490000D03*
X66500000Y-58030000D03*
D15*
X66500000Y-62500000D03*
D16*
X66500000Y-65040000D03*
X66500000Y-67580000D03*
X66500000Y-70120000D03*
X66500000Y-72660000D03*
X66500000Y-75200000D03*
X66500000Y-77740000D03*
D15*
X66500000Y-106750000D03*
D16*
X66500000Y-104210000D03*
X66500000Y-101670000D03*
D15*
X66500000Y-111000000D03*
D16*
X66500000Y-113540000D03*
X66500000Y-116080000D03*
D15*
X66500000Y-97500000D03*
D16*
X66500000Y-94960000D03*
X66500000Y-92420000D03*
X66500000Y-89880000D03*
X66500000Y-87340000D03*
X66500000Y-84800000D03*
D17*
X33000000Y-85520000D03*
X33000000Y-86790000D03*
X33000000Y-84250000D03*
D18*
X23190000Y-58540000D03*
X23190000Y-53460000D03*
X30810000Y-58540000D03*
X30810000Y-53460000D03*
X30810000Y-43460000D03*
X30810000Y-48540000D03*
X23190000Y-43460000D03*
X23190000Y-48540000D03*
D19*
X46750000Y-87000000D03*
X46750000Y-84460000D03*
X39130000Y-84460000D03*
X39130000Y-87000000D03*
D20*
X37475000Y-66500000D03*
X36825000Y-66500000D03*
X36175000Y-66500000D03*
X35525000Y-66500000D03*
D21*
X34500000Y-67525000D03*
X34500000Y-68175000D03*
X34500000Y-68825000D03*
X34500000Y-69475000D03*
D20*
X35525000Y-70500000D03*
X36175000Y-70500000D03*
X36825000Y-70500000D03*
X37475000Y-70500000D03*
D21*
X38500000Y-69475000D03*
X38500000Y-68825000D03*
X38500000Y-68175000D03*
X38500000Y-67525000D03*
D22*
X35825000Y-69175000D03*
X37175000Y-69175000D03*
X35825000Y-67825000D03*
X37175000Y-67825000D03*
D23*
X38800000Y-40250000D03*
D24*
X38800000Y-42250000D03*
X38800000Y-44250000D03*
X38800000Y-46250000D03*
X38800000Y-48250000D03*
X38800000Y-50250000D03*
X38800000Y-52250000D03*
X38800000Y-54250000D03*
X54200000Y-54250000D03*
X54100000Y-52250000D03*
X54200000Y-50250000D03*
X54200000Y-48250000D03*
X54200000Y-46250000D03*
X54200000Y-44250000D03*
X54200000Y-42250000D03*
X54200000Y-40250000D03*
D25*
X58000000Y-58000000D03*
D26*
X58000000Y-55460000D03*
X58000000Y-52920000D03*
X58000000Y-50380000D03*
X58000000Y-47840000D03*
X58000000Y-45300000D03*
X58000000Y-42760000D03*
X58000000Y-40220000D03*
X58000000Y-37680000D03*
X58000000Y-35140000D03*
X58000000Y-32600000D03*
X35140000Y-32600000D03*
X35140000Y-35140000D03*
X35140000Y-37680000D03*
X35140000Y-40220000D03*
X35140000Y-42760000D03*
X35140000Y-45300000D03*
X35140000Y-47840000D03*
X35140000Y-50380000D03*
X35140000Y-52920000D03*
X35140000Y-55460000D03*
X35140000Y-58000000D03*
X43268000Y-60540000D03*
X45808000Y-60540000D03*
X48348000Y-60540000D03*
X50888000Y-60540000D03*
D27*
X55897960Y-75248860D03*
X55897960Y-76750000D03*
X55897960Y-78251140D03*
D28*
X59850200Y-76750000D03*
D10*
G36*
X58075350Y-77950760D02*
X56926050Y-77450380D01*
X56926050Y-76049620D01*
X58075350Y-75549240D01*
X58075350Y-77950760D01*
X58075350Y-77950760D01*
G37*
D18*
X30770000Y-40250000D03*
X28230000Y-40250000D03*
X25020000Y-40000000D03*
X22480000Y-40000000D03*
D29*
X23000000Y-88150000D03*
X23000000Y-90850000D03*
X23000000Y-89500000D03*
X23000000Y-82150000D03*
X23000000Y-84850000D03*
X23000000Y-83500000D03*
X23000000Y-76150000D03*
X23000000Y-78850000D03*
X23000000Y-77500000D03*
D30*
X58750000Y-82500000D03*
D31*
X60750000Y-82500000D03*
D30*
X60500000Y-71000000D03*
D31*
X58500000Y-71000000D03*
D32*
X30450000Y-98450000D03*
D33*
X30450000Y-110650000D03*
X42500000Y-110700000D03*
D32*
X42450000Y-98450000D03*
D33*
X36500000Y-96500000D03*
D32*
X47450000Y-98450000D03*
D33*
X47450000Y-110650000D03*
X59500000Y-110700000D03*
D32*
X59450000Y-98450000D03*
D33*
X53500000Y-96500000D03*
D12*
X56365000Y-93500000D03*
X59635000Y-93500000D03*
D10*
G36*
X29601120Y-64636940D02*
X32398880Y-64636940D01*
X32000100Y-68537060D01*
X29999900Y-68537060D01*
X29601120Y-64636940D01*
X29601120Y-64636940D01*
G37*
G36*
X32398880Y-73363060D02*
X29601120Y-73363060D01*
X29999900Y-69462940D01*
X32000100Y-69462940D01*
X32398880Y-73363060D01*
X32398880Y-73363060D01*
G37*
D34*
X31000000Y-63998740D03*
X31000000Y-74001260D03*
D10*
G36*
X36886940Y-75898880D02*
X36886940Y-73101120D01*
X40787060Y-73499900D01*
X40787060Y-75500100D01*
X36886940Y-75898880D01*
X36886940Y-75898880D01*
G37*
G36*
X45613060Y-73101120D02*
X45613060Y-75898880D01*
X41712940Y-75500100D01*
X41712940Y-73499900D01*
X45613060Y-73101120D01*
X45613060Y-73101120D01*
G37*
D34*
X36248740Y-74500000D03*
X46251260Y-74500000D03*
D35*
X51000000Y-85000000D03*
D36*
X53540000Y-85000000D03*
D10*
G36*
X50101120Y-68886940D02*
X52898880Y-68886940D01*
X52500100Y-72787060D01*
X50499900Y-72787060D01*
X50101120Y-68886940D01*
X50101120Y-68886940D01*
G37*
G36*
X52898880Y-77613060D02*
X50101120Y-77613060D01*
X50499900Y-73712940D01*
X52500100Y-73712940D01*
X52898880Y-77613060D01*
X52898880Y-77613060D01*
G37*
D34*
X51500000Y-68248740D03*
X51500000Y-78251260D03*
D10*
G36*
X26351120Y-64636940D02*
X29148880Y-64636940D01*
X28750100Y-68537060D01*
X26749900Y-68537060D01*
X26351120Y-64636940D01*
X26351120Y-64636940D01*
G37*
G36*
X29148880Y-73363060D02*
X26351120Y-73363060D01*
X26749900Y-69462940D01*
X28750100Y-69462940D01*
X29148880Y-73363060D01*
X29148880Y-73363060D01*
G37*
D34*
X27750000Y-63998740D03*
X27750000Y-74001260D03*
D10*
G36*
X60851120Y-46136940D02*
X63648880Y-46136940D01*
X63250100Y-50037060D01*
X61249900Y-50037060D01*
X60851120Y-46136940D01*
X60851120Y-46136940D01*
G37*
G36*
X63648880Y-54863060D02*
X60851120Y-54863060D01*
X61249900Y-50962940D01*
X63250100Y-50962940D01*
X63648880Y-54863060D01*
X63648880Y-54863060D01*
G37*
D34*
X62250000Y-45498740D03*
X62250000Y-55501260D03*
D37*
X29950000Y-84249240D03*
X28050000Y-84249240D03*
X29000000Y-86248220D03*
M02*
