G04 #@! TF.FileFunction,Legend,Top*
%FSLAX46Y46*%
G04 Gerber Fmt 4.6, Leading zero omitted, Abs format (unit mm)*
G04 Created by KiCad (PCBNEW (2015-08-08 BZR 6073)-product) date Wed 19 Aug 2015 12:39:56 CEST*
%MOMM*%
G01*
G04 APERTURE LIST*
%ADD10C,0.100000*%
%ADD11C,0.250000*%
%ADD12C,0.150000*%
%ADD13C,0.152400*%
%ADD14C,0.203200*%
G04 APERTURE END LIST*
D10*
D11*
X21190474Y-77252381D02*
X21761903Y-77252381D01*
X21476188Y-78252381D02*
X21476188Y-77252381D01*
X22095236Y-78252381D02*
X22095236Y-77252381D01*
X22523808Y-78252381D02*
X22523808Y-77728571D01*
X22476189Y-77633333D01*
X22380951Y-77585714D01*
X22238093Y-77585714D01*
X22142855Y-77633333D01*
X22095236Y-77680952D01*
X23428570Y-77585714D02*
X23428570Y-78252381D01*
X22999998Y-77585714D02*
X22999998Y-78109524D01*
X23047617Y-78204762D01*
X23142855Y-78252381D01*
X23285713Y-78252381D01*
X23380951Y-78204762D01*
X23428570Y-78157143D01*
X23904760Y-77585714D02*
X23904760Y-78252381D01*
X23904760Y-77680952D02*
X23952379Y-77633333D01*
X24047617Y-77585714D01*
X24190475Y-77585714D01*
X24285713Y-77633333D01*
X24333332Y-77728571D01*
X24333332Y-78252381D01*
X25238094Y-78252381D02*
X25238094Y-77252381D01*
X25238094Y-78204762D02*
X25142856Y-78252381D01*
X24952379Y-78252381D01*
X24857141Y-78204762D01*
X24809522Y-78157143D01*
X24761903Y-78061905D01*
X24761903Y-77776190D01*
X24809522Y-77680952D01*
X24857141Y-77633333D01*
X24952379Y-77585714D01*
X25142856Y-77585714D01*
X25238094Y-77633333D01*
X26095237Y-78204762D02*
X25999999Y-78252381D01*
X25809522Y-78252381D01*
X25714284Y-78204762D01*
X25666665Y-78109524D01*
X25666665Y-77728571D01*
X25714284Y-77633333D01*
X25809522Y-77585714D01*
X25999999Y-77585714D01*
X26095237Y-77633333D01*
X26142856Y-77728571D01*
X26142856Y-77823810D01*
X25666665Y-77919048D01*
X26571427Y-78252381D02*
X26571427Y-77585714D01*
X26571427Y-77776190D02*
X26619046Y-77680952D01*
X26666665Y-77633333D01*
X26761903Y-77585714D01*
X26857142Y-77585714D01*
X27142856Y-78204762D02*
X27238094Y-78252381D01*
X27428570Y-78252381D01*
X27523809Y-78204762D01*
X27571428Y-78109524D01*
X27571428Y-78061905D01*
X27523809Y-77966667D01*
X27428570Y-77919048D01*
X27285713Y-77919048D01*
X27190475Y-77871429D01*
X27142856Y-77776190D01*
X27142856Y-77728571D01*
X27190475Y-77633333D01*
X27285713Y-77585714D01*
X27428570Y-77585714D01*
X27523809Y-77633333D01*
X27857142Y-77585714D02*
X28238094Y-77585714D01*
X27999999Y-77252381D02*
X27999999Y-78109524D01*
X28047618Y-78204762D01*
X28142856Y-78252381D01*
X28238094Y-78252381D01*
X28714285Y-78252381D02*
X28619047Y-78204762D01*
X28571428Y-78157143D01*
X28523809Y-78061905D01*
X28523809Y-77776190D01*
X28571428Y-77680952D01*
X28619047Y-77633333D01*
X28714285Y-77585714D01*
X28857143Y-77585714D01*
X28952381Y-77633333D01*
X29000000Y-77680952D01*
X29047619Y-77776190D01*
X29047619Y-78061905D01*
X29000000Y-78157143D01*
X28952381Y-78204762D01*
X28857143Y-78252381D01*
X28714285Y-78252381D01*
X29476190Y-78252381D02*
X29476190Y-77585714D01*
X29476190Y-77776190D02*
X29523809Y-77680952D01*
X29571428Y-77633333D01*
X29666666Y-77585714D01*
X29761905Y-77585714D01*
X30095238Y-78252381D02*
X30095238Y-77585714D01*
X30095238Y-77680952D02*
X30142857Y-77633333D01*
X30238095Y-77585714D01*
X30380953Y-77585714D01*
X30476191Y-77633333D01*
X30523810Y-77728571D01*
X30523810Y-78252381D01*
X30523810Y-77728571D02*
X30571429Y-77633333D01*
X30666667Y-77585714D01*
X30809524Y-77585714D01*
X30904762Y-77633333D01*
X30952381Y-77728571D01*
X30952381Y-78252381D01*
X32190476Y-77585714D02*
X32190476Y-78585714D01*
X32190476Y-77633333D02*
X32285714Y-77585714D01*
X32476191Y-77585714D01*
X32571429Y-77633333D01*
X32619048Y-77680952D01*
X32666667Y-77776190D01*
X32666667Y-78061905D01*
X32619048Y-78157143D01*
X32571429Y-78204762D01*
X32476191Y-78252381D01*
X32285714Y-78252381D01*
X32190476Y-78204762D01*
X33095238Y-78252381D02*
X33095238Y-77585714D01*
X33095238Y-77776190D02*
X33142857Y-77680952D01*
X33190476Y-77633333D01*
X33285714Y-77585714D01*
X33380953Y-77585714D01*
X33857143Y-78252381D02*
X33761905Y-78204762D01*
X33714286Y-78157143D01*
X33666667Y-78061905D01*
X33666667Y-77776190D01*
X33714286Y-77680952D01*
X33761905Y-77633333D01*
X33857143Y-77585714D01*
X34000001Y-77585714D01*
X34095239Y-77633333D01*
X34142858Y-77680952D01*
X34190477Y-77776190D01*
X34190477Y-78061905D01*
X34142858Y-78157143D01*
X34095239Y-78204762D01*
X34000001Y-78252381D01*
X33857143Y-78252381D01*
X34476191Y-77585714D02*
X34857143Y-77585714D01*
X34619048Y-77252381D02*
X34619048Y-78109524D01*
X34666667Y-78204762D01*
X34761905Y-78252381D01*
X34857143Y-78252381D01*
X35571430Y-78204762D02*
X35476192Y-78252381D01*
X35285715Y-78252381D01*
X35190477Y-78204762D01*
X35142858Y-78109524D01*
X35142858Y-77728571D01*
X35190477Y-77633333D01*
X35285715Y-77585714D01*
X35476192Y-77585714D01*
X35571430Y-77633333D01*
X35619049Y-77728571D01*
X35619049Y-77823810D01*
X35142858Y-77919048D01*
X36476192Y-78204762D02*
X36380954Y-78252381D01*
X36190477Y-78252381D01*
X36095239Y-78204762D01*
X36047620Y-78157143D01*
X36000001Y-78061905D01*
X36000001Y-77776190D01*
X36047620Y-77680952D01*
X36095239Y-77633333D01*
X36190477Y-77585714D01*
X36380954Y-77585714D01*
X36476192Y-77633333D01*
X36761906Y-77585714D02*
X37142858Y-77585714D01*
X36904763Y-77252381D02*
X36904763Y-78109524D01*
X36952382Y-78204762D01*
X37047620Y-78252381D01*
X37142858Y-78252381D01*
X37619049Y-78252381D02*
X37523811Y-78204762D01*
X37476192Y-78157143D01*
X37428573Y-78061905D01*
X37428573Y-77776190D01*
X37476192Y-77680952D01*
X37523811Y-77633333D01*
X37619049Y-77585714D01*
X37761907Y-77585714D01*
X37857145Y-77633333D01*
X37904764Y-77680952D01*
X37952383Y-77776190D01*
X37952383Y-78061905D01*
X37904764Y-78157143D01*
X37857145Y-78204762D01*
X37761907Y-78252381D01*
X37619049Y-78252381D01*
X38380954Y-78252381D02*
X38380954Y-77585714D01*
X38380954Y-77776190D02*
X38428573Y-77680952D01*
X38476192Y-77633333D01*
X38571430Y-77585714D01*
X38666669Y-77585714D01*
X39761907Y-78252381D02*
X39761907Y-77585714D01*
X39761907Y-77252381D02*
X39714288Y-77300000D01*
X39761907Y-77347619D01*
X39809526Y-77300000D01*
X39761907Y-77252381D01*
X39761907Y-77347619D01*
X40380954Y-78252381D02*
X40285716Y-78204762D01*
X40238097Y-78157143D01*
X40190478Y-78061905D01*
X40190478Y-77776190D01*
X40238097Y-77680952D01*
X40285716Y-77633333D01*
X40380954Y-77585714D01*
X40523812Y-77585714D01*
X40619050Y-77633333D01*
X40666669Y-77680952D01*
X40714288Y-77776190D01*
X40714288Y-78061905D01*
X40666669Y-78157143D01*
X40619050Y-78204762D01*
X40523812Y-78252381D01*
X40380954Y-78252381D01*
X41000002Y-77585714D02*
X41380954Y-77585714D01*
X41142859Y-77252381D02*
X41142859Y-78109524D01*
X41190478Y-78204762D01*
X41285716Y-78252381D01*
X41380954Y-78252381D01*
X42428574Y-78204762D02*
X42523812Y-78252381D01*
X42714288Y-78252381D01*
X42809527Y-78204762D01*
X42857146Y-78109524D01*
X42857146Y-78061905D01*
X42809527Y-77966667D01*
X42714288Y-77919048D01*
X42571431Y-77919048D01*
X42476193Y-77871429D01*
X42428574Y-77776190D01*
X42428574Y-77728571D01*
X42476193Y-77633333D01*
X42571431Y-77585714D01*
X42714288Y-77585714D01*
X42809527Y-77633333D01*
X43190479Y-77585714D02*
X43380955Y-78252381D01*
X43571432Y-77776190D01*
X43761908Y-78252381D01*
X43952384Y-77585714D01*
X44333336Y-78252381D02*
X44333336Y-77585714D01*
X44333336Y-77252381D02*
X44285717Y-77300000D01*
X44333336Y-77347619D01*
X44380955Y-77300000D01*
X44333336Y-77252381D01*
X44333336Y-77347619D01*
X44666669Y-77585714D02*
X45047621Y-77585714D01*
X44809526Y-77252381D02*
X44809526Y-78109524D01*
X44857145Y-78204762D01*
X44952383Y-78252381D01*
X45047621Y-78252381D01*
X45809527Y-78204762D02*
X45714289Y-78252381D01*
X45523812Y-78252381D01*
X45428574Y-78204762D01*
X45380955Y-78157143D01*
X45333336Y-78061905D01*
X45333336Y-77776190D01*
X45380955Y-77680952D01*
X45428574Y-77633333D01*
X45523812Y-77585714D01*
X45714289Y-77585714D01*
X45809527Y-77633333D01*
X46238098Y-78252381D02*
X46238098Y-77252381D01*
X46666670Y-78252381D02*
X46666670Y-77728571D01*
X46619051Y-77633333D01*
X46523813Y-77585714D01*
X46380955Y-77585714D01*
X46285717Y-77633333D01*
X46238098Y-77680952D01*
X21638096Y-75385714D02*
X21638096Y-76195238D01*
X21590477Y-76290476D01*
X21542858Y-76338095D01*
X21447619Y-76385714D01*
X21304762Y-76385714D01*
X21209524Y-76338095D01*
X21638096Y-76004762D02*
X21542858Y-76052381D01*
X21352381Y-76052381D01*
X21257143Y-76004762D01*
X21209524Y-75957143D01*
X21161905Y-75861905D01*
X21161905Y-75576190D01*
X21209524Y-75480952D01*
X21257143Y-75433333D01*
X21352381Y-75385714D01*
X21542858Y-75385714D01*
X21638096Y-75433333D01*
X22257143Y-76052381D02*
X22161905Y-76004762D01*
X22114286Y-75957143D01*
X22066667Y-75861905D01*
X22066667Y-75576190D01*
X22114286Y-75480952D01*
X22161905Y-75433333D01*
X22257143Y-75385714D01*
X22400001Y-75385714D01*
X22495239Y-75433333D01*
X22542858Y-75480952D01*
X22590477Y-75576190D01*
X22590477Y-75861905D01*
X22542858Y-75957143D01*
X22495239Y-76004762D01*
X22400001Y-76052381D01*
X22257143Y-76052381D01*
X23161905Y-76052381D02*
X23066667Y-76004762D01*
X23019048Y-75909524D01*
X23019048Y-75052381D01*
X23685715Y-76052381D02*
X23590477Y-76004762D01*
X23542858Y-75957143D01*
X23495239Y-75861905D01*
X23495239Y-75576190D01*
X23542858Y-75480952D01*
X23590477Y-75433333D01*
X23685715Y-75385714D01*
X23828573Y-75385714D01*
X23923811Y-75433333D01*
X23971430Y-75480952D01*
X24019049Y-75576190D01*
X24019049Y-75861905D01*
X23971430Y-75957143D01*
X23923811Y-76004762D01*
X23828573Y-76052381D01*
X23685715Y-76052381D01*
X24447620Y-76052381D02*
X24447620Y-75052381D01*
X24447620Y-75433333D02*
X24542858Y-75385714D01*
X24733335Y-75385714D01*
X24828573Y-75433333D01*
X24876192Y-75480952D01*
X24923811Y-75576190D01*
X24923811Y-75861905D01*
X24876192Y-75957143D01*
X24828573Y-76004762D01*
X24733335Y-76052381D01*
X24542858Y-76052381D01*
X24447620Y-76004762D01*
X25352382Y-75957143D02*
X25400001Y-76004762D01*
X25352382Y-76052381D01*
X25304763Y-76004762D01*
X25352382Y-75957143D01*
X25352382Y-76052381D01*
X26257144Y-75385714D02*
X26257144Y-76052381D01*
X25828572Y-75385714D02*
X25828572Y-75909524D01*
X25876191Y-76004762D01*
X25971429Y-76052381D01*
X26114287Y-76052381D01*
X26209525Y-76004762D01*
X26257144Y-75957143D01*
X26733334Y-76052381D02*
X26733334Y-75385714D01*
X26733334Y-75576190D02*
X26780953Y-75480952D01*
X26828572Y-75433333D01*
X26923810Y-75385714D01*
X27019049Y-75385714D01*
X27495239Y-76052381D02*
X27400001Y-76004762D01*
X27352382Y-75957143D01*
X27304763Y-75861905D01*
X27304763Y-75576190D01*
X27352382Y-75480952D01*
X27400001Y-75433333D01*
X27495239Y-75385714D01*
X27638097Y-75385714D01*
X27733335Y-75433333D01*
X27780954Y-75480952D01*
X27828573Y-75576190D01*
X27828573Y-75861905D01*
X27780954Y-75957143D01*
X27733335Y-76004762D01*
X27638097Y-76052381D01*
X27495239Y-76052381D01*
X28209525Y-76004762D02*
X28304763Y-76052381D01*
X28495239Y-76052381D01*
X28590478Y-76004762D01*
X28638097Y-75909524D01*
X28638097Y-75861905D01*
X28590478Y-75766667D01*
X28495239Y-75719048D01*
X28352382Y-75719048D01*
X28257144Y-75671429D01*
X28209525Y-75576190D01*
X28209525Y-75528571D01*
X28257144Y-75433333D01*
X28352382Y-75385714D01*
X28495239Y-75385714D01*
X28590478Y-75433333D01*
X29685716Y-75576190D02*
X29638097Y-75528571D01*
X29542859Y-75480952D01*
X29447621Y-75480952D01*
X29352383Y-75528571D01*
X29304763Y-75576190D01*
X29257144Y-75671429D01*
X29257144Y-75766667D01*
X29304763Y-75861905D01*
X29352383Y-75909524D01*
X29447621Y-75957143D01*
X29542859Y-75957143D01*
X29638097Y-75909524D01*
X29685716Y-75861905D01*
X29685716Y-75480952D02*
X29685716Y-75861905D01*
X29733335Y-75909524D01*
X29780954Y-75909524D01*
X29876192Y-75861905D01*
X29923811Y-75766667D01*
X29923811Y-75528571D01*
X29828573Y-75385714D01*
X29685716Y-75290476D01*
X29495240Y-75242857D01*
X29304763Y-75290476D01*
X29161906Y-75385714D01*
X29066668Y-75528571D01*
X29019049Y-75719048D01*
X29066668Y-75909524D01*
X29161906Y-76052381D01*
X29304763Y-76147619D01*
X29495240Y-76195238D01*
X29685716Y-76147619D01*
X29828573Y-76052381D01*
X30780954Y-75385714D02*
X30780954Y-76195238D01*
X30733335Y-76290476D01*
X30685716Y-76338095D01*
X30590477Y-76385714D01*
X30447620Y-76385714D01*
X30352382Y-76338095D01*
X30780954Y-76004762D02*
X30685716Y-76052381D01*
X30495239Y-76052381D01*
X30400001Y-76004762D01*
X30352382Y-75957143D01*
X30304763Y-75861905D01*
X30304763Y-75576190D01*
X30352382Y-75480952D01*
X30400001Y-75433333D01*
X30495239Y-75385714D01*
X30685716Y-75385714D01*
X30780954Y-75433333D01*
X31257144Y-76052381D02*
X31257144Y-75385714D01*
X31257144Y-75480952D02*
X31304763Y-75433333D01*
X31400001Y-75385714D01*
X31542859Y-75385714D01*
X31638097Y-75433333D01*
X31685716Y-75528571D01*
X31685716Y-76052381D01*
X31685716Y-75528571D02*
X31733335Y-75433333D01*
X31828573Y-75385714D01*
X31971430Y-75385714D01*
X32066668Y-75433333D01*
X32114287Y-75528571D01*
X32114287Y-76052381D01*
X33019049Y-76052381D02*
X33019049Y-75528571D01*
X32971430Y-75433333D01*
X32876192Y-75385714D01*
X32685715Y-75385714D01*
X32590477Y-75433333D01*
X33019049Y-76004762D02*
X32923811Y-76052381D01*
X32685715Y-76052381D01*
X32590477Y-76004762D01*
X32542858Y-75909524D01*
X32542858Y-75814286D01*
X32590477Y-75719048D01*
X32685715Y-75671429D01*
X32923811Y-75671429D01*
X33019049Y-75623810D01*
X33495239Y-76052381D02*
X33495239Y-75385714D01*
X33495239Y-75052381D02*
X33447620Y-75100000D01*
X33495239Y-75147619D01*
X33542858Y-75100000D01*
X33495239Y-75052381D01*
X33495239Y-75147619D01*
X34114286Y-76052381D02*
X34019048Y-76004762D01*
X33971429Y-75909524D01*
X33971429Y-75052381D01*
X34495239Y-75957143D02*
X34542858Y-76004762D01*
X34495239Y-76052381D01*
X34447620Y-76004762D01*
X34495239Y-75957143D01*
X34495239Y-76052381D01*
X35400001Y-76004762D02*
X35304763Y-76052381D01*
X35114286Y-76052381D01*
X35019048Y-76004762D01*
X34971429Y-75957143D01*
X34923810Y-75861905D01*
X34923810Y-75576190D01*
X34971429Y-75480952D01*
X35019048Y-75433333D01*
X35114286Y-75385714D01*
X35304763Y-75385714D01*
X35400001Y-75433333D01*
X35971429Y-76052381D02*
X35876191Y-76004762D01*
X35828572Y-75957143D01*
X35780953Y-75861905D01*
X35780953Y-75576190D01*
X35828572Y-75480952D01*
X35876191Y-75433333D01*
X35971429Y-75385714D01*
X36114287Y-75385714D01*
X36209525Y-75433333D01*
X36257144Y-75480952D01*
X36304763Y-75576190D01*
X36304763Y-75861905D01*
X36257144Y-75957143D01*
X36209525Y-76004762D01*
X36114287Y-76052381D01*
X35971429Y-76052381D01*
X36733334Y-76052381D02*
X36733334Y-75385714D01*
X36733334Y-75480952D02*
X36780953Y-75433333D01*
X36876191Y-75385714D01*
X37019049Y-75385714D01*
X37114287Y-75433333D01*
X37161906Y-75528571D01*
X37161906Y-76052381D01*
X37161906Y-75528571D02*
X37209525Y-75433333D01*
X37304763Y-75385714D01*
X37447620Y-75385714D01*
X37542858Y-75433333D01*
X37590477Y-75528571D01*
X37590477Y-76052381D01*
D12*
X55700000Y-70250000D02*
X53800000Y-70250000D01*
X55700000Y-71350000D02*
X53800000Y-71350000D01*
X54800000Y-70800000D02*
X54350000Y-70800000D01*
X54850000Y-71050000D02*
X54850000Y-70550000D01*
X54850000Y-70800000D02*
X54600000Y-71050000D01*
X54600000Y-71050000D02*
X54600000Y-70550000D01*
X54600000Y-70550000D02*
X54850000Y-70800000D01*
X65700000Y-55400000D02*
X69500000Y-55400000D01*
X69500000Y-55400000D02*
X69500000Y-67400000D01*
X69500000Y-67400000D02*
X65600000Y-67400000D01*
X65600000Y-67400000D02*
X65600000Y-55300000D01*
X65600000Y-55300000D02*
X65500000Y-55500000D01*
X65070000Y-33270000D02*
X65070000Y-51050000D01*
X65070000Y-51050000D02*
X62530000Y-51050000D01*
X62530000Y-51050000D02*
X62530000Y-33270000D01*
X65350000Y-30450000D02*
X65350000Y-32000000D01*
X65070000Y-33270000D02*
X62530000Y-33270000D01*
X62250000Y-32000000D02*
X62250000Y-30450000D01*
X62250000Y-30450000D02*
X65350000Y-30450000D01*
X69070000Y-33270000D02*
X69070000Y-48510000D01*
X69070000Y-48510000D02*
X66530000Y-48510000D01*
X66530000Y-48510000D02*
X66530000Y-33270000D01*
X69350000Y-30450000D02*
X69350000Y-32000000D01*
X69070000Y-33270000D02*
X66530000Y-33270000D01*
X66250000Y-32000000D02*
X66250000Y-30450000D01*
X66250000Y-30450000D02*
X69350000Y-30450000D01*
X21130000Y-60270000D02*
X21130000Y-65350000D01*
X21130000Y-65350000D02*
X23670000Y-65350000D01*
X23670000Y-65350000D02*
X23670000Y-60270000D01*
X23950000Y-57450000D02*
X23950000Y-59000000D01*
X23670000Y-60270000D02*
X21130000Y-60270000D01*
X20850000Y-59000000D02*
X20850000Y-57450000D01*
X20850000Y-57450000D02*
X23950000Y-57450000D01*
X24930000Y-70330000D02*
X24930000Y-57630000D01*
X24930000Y-57630000D02*
X27470000Y-57630000D01*
X27470000Y-57630000D02*
X27470000Y-70330000D01*
X24650000Y-73150000D02*
X24650000Y-71600000D01*
X24930000Y-70330000D02*
X27470000Y-70330000D01*
X27750000Y-71600000D02*
X27750000Y-73150000D01*
X27750000Y-73150000D02*
X24650000Y-73150000D01*
X27740000Y-52400000D02*
G75*
G03X27740000Y-52400000I-2540000J0D01*
G01*
X29010000Y-56210000D02*
X21390000Y-56210000D01*
X21390000Y-56210000D02*
X21390000Y-48590000D01*
X21390000Y-48590000D02*
X29010000Y-48590000D01*
X29010000Y-56210000D02*
X29010000Y-48590000D01*
X27740000Y-44000000D02*
G75*
G03X27740000Y-44000000I-2540000J0D01*
G01*
X21390000Y-40190000D02*
X29010000Y-40190000D01*
X29010000Y-40190000D02*
X29010000Y-47810000D01*
X29010000Y-47810000D02*
X21390000Y-47810000D01*
X21390000Y-40190000D02*
X21390000Y-47810000D01*
X40135000Y-69505000D02*
X40135000Y-70775000D01*
X47485000Y-69505000D02*
X47485000Y-70775000D01*
X47485000Y-76635000D02*
X47485000Y-75365000D01*
X40135000Y-76635000D02*
X40135000Y-75365000D01*
X40135000Y-69505000D02*
X47485000Y-69505000D01*
X40135000Y-76635000D02*
X47485000Y-76635000D01*
X40135000Y-70775000D02*
X39200000Y-70775000D01*
X53625000Y-67175000D02*
X53625000Y-66375000D01*
X57975000Y-62825000D02*
X57975000Y-63625000D01*
X53625000Y-62825000D02*
X53625000Y-63625000D01*
X57975000Y-67175000D02*
X57175000Y-67175000D01*
X57975000Y-62825000D02*
X57175000Y-62825000D01*
X53625000Y-62825000D02*
X54425000Y-62825000D01*
X53625000Y-67175000D02*
X54425000Y-67175000D01*
D13*
X39184000Y-47459000D02*
X39184000Y-48221000D01*
X39184000Y-48221000D02*
X55186000Y-48221000D01*
X55186000Y-48221000D02*
X55186000Y-47459000D01*
D12*
X41299920Y-62199340D02*
X41051000Y-62499060D01*
X41051000Y-62499060D02*
X40949400Y-62648920D01*
X40949400Y-62648920D02*
X40949400Y-61800560D01*
X41650440Y-63700480D02*
X41650440Y-61899620D01*
X41650440Y-63700480D02*
X41000200Y-63700480D01*
X37149560Y-63700480D02*
X37149560Y-61899620D01*
X37149560Y-63700480D02*
X37799800Y-63700480D01*
X69105000Y-71489000D02*
X65422000Y-71489000D01*
X65422000Y-71489000D02*
X64914000Y-70981000D01*
X64914000Y-70981000D02*
X64914000Y-70219000D01*
X64914000Y-70219000D02*
X65422000Y-69711000D01*
X65422000Y-69711000D02*
X69105000Y-69711000D01*
X69105000Y-69711000D02*
X69613000Y-70219000D01*
X69613000Y-70219000D02*
X69613000Y-70981000D01*
X69613000Y-70981000D02*
X69105000Y-71489000D01*
X66911000Y-53305000D02*
X66911000Y-49622000D01*
X66911000Y-49622000D02*
X67419000Y-49114000D01*
X67419000Y-49114000D02*
X68181000Y-49114000D01*
X68181000Y-49114000D02*
X68689000Y-49622000D01*
X68689000Y-49622000D02*
X68689000Y-53305000D01*
X68689000Y-53305000D02*
X68181000Y-53813000D01*
X68181000Y-53813000D02*
X67419000Y-53813000D01*
X67419000Y-53813000D02*
X66911000Y-53305000D01*
D14*
X48200000Y-64600000D02*
X46200000Y-64600000D01*
X46200000Y-64600000D02*
X46200000Y-65400000D01*
X46200000Y-65400000D02*
X48200000Y-65400000D01*
X48200000Y-65400000D02*
X48200000Y-64600000D01*
X46184000Y-65954000D02*
X48216000Y-65954000D01*
X48216000Y-64046000D02*
X46184000Y-64046000D01*
X46184000Y-65954000D02*
G75*
G03X47200000Y-66970000I1016000J0D01*
G01*
X47200000Y-66970000D02*
G75*
G03X48216000Y-65954000I0J1016000D01*
G01*
X48216000Y-64046000D02*
G75*
G03X47200000Y-63030000I-1016000J0D01*
G01*
X47200000Y-63030000D02*
G75*
G03X46184000Y-64046000I0J-1016000D01*
G01*
X62200000Y-74200000D02*
X62200000Y-72200000D01*
X62200000Y-72200000D02*
X61400000Y-72200000D01*
X61400000Y-72200000D02*
X61400000Y-74200000D01*
X61400000Y-74200000D02*
X62200000Y-74200000D01*
X60846000Y-72184000D02*
X60846000Y-74216000D01*
X62754000Y-74216000D02*
X62754000Y-72184000D01*
X60846000Y-72184000D02*
G75*
G03X59830000Y-73200000I0J-1016000D01*
G01*
X59830000Y-73200000D02*
G75*
G03X60846000Y-74216000I1016000J0D01*
G01*
X62754000Y-74216000D02*
G75*
G03X63770000Y-73200000I0J1016000D01*
G01*
X63770000Y-73200000D02*
G75*
G03X62754000Y-72184000I-1016000J0D01*
G01*
X56400000Y-72200000D02*
X56400000Y-74200000D01*
X56400000Y-74200000D02*
X57200000Y-74200000D01*
X57200000Y-74200000D02*
X57200000Y-72200000D01*
X57200000Y-72200000D02*
X56400000Y-72200000D01*
X57754000Y-74216000D02*
X57754000Y-72184000D01*
X55846000Y-72184000D02*
X55846000Y-74216000D01*
X57754000Y-74216000D02*
G75*
G03X58770000Y-73200000I0J1016000D01*
G01*
X58770000Y-73200000D02*
G75*
G03X57754000Y-72184000I-1016000J0D01*
G01*
X55846000Y-72184000D02*
G75*
G03X54830000Y-73200000I0J-1016000D01*
G01*
X54830000Y-73200000D02*
G75*
G03X55846000Y-74216000I1016000J0D01*
G01*
D12*
X33499000Y-61475000D02*
X28501000Y-61475000D01*
X33491000Y-61615000D02*
X31154000Y-61615000D01*
X30846000Y-61615000D02*
X28509000Y-61615000D01*
X33475000Y-61755000D02*
X31473000Y-61755000D01*
X30527000Y-61755000D02*
X28525000Y-61755000D01*
X33451000Y-61895000D02*
X31620000Y-61895000D01*
X30380000Y-61895000D02*
X28549000Y-61895000D01*
X33418000Y-62035000D02*
X31712000Y-62035000D01*
X30288000Y-62035000D02*
X28582000Y-62035000D01*
X33377000Y-62175000D02*
X31768000Y-62175000D01*
X30232000Y-62175000D02*
X28623000Y-62175000D01*
X33327000Y-62315000D02*
X31795000Y-62315000D01*
X30205000Y-62315000D02*
X28673000Y-62315000D01*
X33266000Y-62455000D02*
X31798000Y-62455000D01*
X30202000Y-62455000D02*
X28734000Y-62455000D01*
X33196000Y-62595000D02*
X31776000Y-62595000D01*
X30224000Y-62595000D02*
X28804000Y-62595000D01*
X33114000Y-62735000D02*
X31726000Y-62735000D01*
X30274000Y-62735000D02*
X28886000Y-62735000D01*
X33019000Y-62875000D02*
X31644000Y-62875000D01*
X30356000Y-62875000D02*
X28981000Y-62875000D01*
X32908000Y-63015000D02*
X31512000Y-63015000D01*
X30488000Y-63015000D02*
X29092000Y-63015000D01*
X32780000Y-63155000D02*
X31265000Y-63155000D01*
X30735000Y-63155000D02*
X29220000Y-63155000D01*
X32631000Y-63295000D02*
X29369000Y-63295000D01*
X32452000Y-63435000D02*
X29548000Y-63435000D01*
X32233000Y-63575000D02*
X29767000Y-63575000D01*
X31944000Y-63715000D02*
X30056000Y-63715000D01*
X31472000Y-63855000D02*
X30528000Y-63855000D01*
X31800000Y-62400000D02*
G75*
G03X31800000Y-62400000I-800000J0D01*
G01*
X33537500Y-61400000D02*
G75*
G03X33537500Y-61400000I-2537500J0D01*
G01*
X28501000Y-67125000D02*
X33499000Y-67125000D01*
X28509000Y-66985000D02*
X30846000Y-66985000D01*
X31154000Y-66985000D02*
X33491000Y-66985000D01*
X28525000Y-66845000D02*
X30527000Y-66845000D01*
X31473000Y-66845000D02*
X33475000Y-66845000D01*
X28549000Y-66705000D02*
X30380000Y-66705000D01*
X31620000Y-66705000D02*
X33451000Y-66705000D01*
X28582000Y-66565000D02*
X30288000Y-66565000D01*
X31712000Y-66565000D02*
X33418000Y-66565000D01*
X28623000Y-66425000D02*
X30232000Y-66425000D01*
X31768000Y-66425000D02*
X33377000Y-66425000D01*
X28673000Y-66285000D02*
X30205000Y-66285000D01*
X31795000Y-66285000D02*
X33327000Y-66285000D01*
X28734000Y-66145000D02*
X30202000Y-66145000D01*
X31798000Y-66145000D02*
X33266000Y-66145000D01*
X28804000Y-66005000D02*
X30224000Y-66005000D01*
X31776000Y-66005000D02*
X33196000Y-66005000D01*
X28886000Y-65865000D02*
X30274000Y-65865000D01*
X31726000Y-65865000D02*
X33114000Y-65865000D01*
X28981000Y-65725000D02*
X30356000Y-65725000D01*
X31644000Y-65725000D02*
X33019000Y-65725000D01*
X29092000Y-65585000D02*
X30488000Y-65585000D01*
X31512000Y-65585000D02*
X32908000Y-65585000D01*
X29220000Y-65445000D02*
X30735000Y-65445000D01*
X31265000Y-65445000D02*
X32780000Y-65445000D01*
X29369000Y-65305000D02*
X32631000Y-65305000D01*
X29548000Y-65165000D02*
X32452000Y-65165000D01*
X29767000Y-65025000D02*
X32233000Y-65025000D01*
X30056000Y-64885000D02*
X31944000Y-64885000D01*
X30528000Y-64745000D02*
X31472000Y-64745000D01*
X31800000Y-66200000D02*
G75*
G03X31800000Y-66200000I-800000J0D01*
G01*
X33537500Y-67200000D02*
G75*
G03X33537500Y-67200000I-2537500J0D01*
G01*
X61050000Y-63900000D02*
X61050000Y-62900000D01*
X59350000Y-62900000D02*
X59350000Y-63900000D01*
X59700000Y-69650000D02*
X60700000Y-69650000D01*
X60700000Y-67950000D02*
X59700000Y-67950000D01*
X52075000Y-70200000D02*
X52075000Y-71400000D01*
X50325000Y-71400000D02*
X50325000Y-70200000D01*
X62325000Y-64000000D02*
X62325000Y-62800000D01*
X64075000Y-62800000D02*
X64075000Y-64000000D01*
X52000000Y-51475000D02*
X50800000Y-51475000D01*
X50800000Y-49725000D02*
X52000000Y-49725000D01*
X45400000Y-51475000D02*
X44200000Y-51475000D01*
X44200000Y-49725000D02*
X45400000Y-49725000D01*
X39725000Y-52600000D02*
X39725000Y-51400000D01*
X41475000Y-51400000D02*
X41475000Y-52600000D01*
X51600000Y-79350000D02*
X50050000Y-79350000D01*
X50050000Y-79350000D02*
X50050000Y-76250000D01*
X50050000Y-76250000D02*
X51600000Y-76250000D01*
X52870000Y-76530000D02*
X63030000Y-76530000D01*
X63030000Y-76530000D02*
X63030000Y-79070000D01*
X63030000Y-79070000D02*
X52870000Y-79070000D01*
X52870000Y-76530000D02*
X52870000Y-79070000D01*
X65350000Y-51450000D02*
X65350000Y-53000000D01*
X62250000Y-53000000D02*
X62250000Y-51450000D01*
X62250000Y-51450000D02*
X65350000Y-51450000D01*
X62530000Y-54270000D02*
X65070000Y-54270000D01*
X64252381Y-66766666D02*
X64252381Y-67242857D01*
X63252381Y-67242857D01*
X64252381Y-65909523D02*
X64252381Y-66480952D01*
X64252381Y-66195238D02*
X63252381Y-66195238D01*
X63395238Y-66290476D01*
X63490476Y-66385714D01*
X63538095Y-66480952D01*
X64252381Y-60585714D02*
X63585714Y-60585714D01*
X63680952Y-60585714D02*
X63633333Y-60538095D01*
X63585714Y-60442857D01*
X63585714Y-60299999D01*
X63633333Y-60204761D01*
X63728571Y-60157142D01*
X64252381Y-60157142D01*
X63728571Y-60157142D02*
X63633333Y-60109523D01*
X63585714Y-60014285D01*
X63585714Y-59871428D01*
X63633333Y-59776190D01*
X63728571Y-59728571D01*
X64252381Y-59728571D01*
X64252381Y-58823809D02*
X63728571Y-58823809D01*
X63633333Y-58871428D01*
X63585714Y-58966666D01*
X63585714Y-59157143D01*
X63633333Y-59252381D01*
X64204762Y-58823809D02*
X64252381Y-58919047D01*
X64252381Y-59157143D01*
X64204762Y-59252381D01*
X64109524Y-59300000D01*
X64014286Y-59300000D01*
X63919048Y-59252381D01*
X63871429Y-59157143D01*
X63871429Y-58919047D01*
X63823810Y-58823809D01*
X63252381Y-57871428D02*
X63252381Y-58347619D01*
X63728571Y-58395238D01*
X63680952Y-58347619D01*
X63633333Y-58252381D01*
X63633333Y-58014285D01*
X63680952Y-57919047D01*
X63728571Y-57871428D01*
X63823810Y-57823809D01*
X64061905Y-57823809D01*
X64157143Y-57871428D01*
X64204762Y-57919047D01*
X64252381Y-58014285D01*
X64252381Y-58252381D01*
X64204762Y-58347619D01*
X64157143Y-58395238D01*
X63252381Y-56919047D02*
X63252381Y-57395238D01*
X63728571Y-57442857D01*
X63680952Y-57395238D01*
X63633333Y-57300000D01*
X63633333Y-57061904D01*
X63680952Y-56966666D01*
X63728571Y-56919047D01*
X63823810Y-56871428D01*
X64061905Y-56871428D01*
X64157143Y-56919047D01*
X64204762Y-56966666D01*
X64252381Y-57061904D01*
X64252381Y-57300000D01*
X64204762Y-57395238D01*
X64157143Y-57442857D01*
X63252381Y-56538095D02*
X63252381Y-55919047D01*
X63633333Y-56252381D01*
X63633333Y-56109523D01*
X63680952Y-56014285D01*
X63728571Y-55966666D01*
X63823810Y-55919047D01*
X64061905Y-55919047D01*
X64157143Y-55966666D01*
X64204762Y-56014285D01*
X64252381Y-56109523D01*
X64252381Y-56395238D01*
X64204762Y-56490476D01*
X64157143Y-56538095D01*
X63347619Y-55538095D02*
X63300000Y-55490476D01*
X63252381Y-55395238D01*
X63252381Y-55157142D01*
X63300000Y-55061904D01*
X63347619Y-55014285D01*
X63442857Y-54966666D01*
X63538095Y-54966666D01*
X63680952Y-55014285D01*
X64252381Y-55585714D01*
X64252381Y-54966666D01*
X60785714Y-32695238D02*
X61452381Y-32457143D01*
X60785714Y-32219047D01*
X61404762Y-31409523D02*
X61452381Y-31504761D01*
X61452381Y-31695238D01*
X61404762Y-31790476D01*
X61357143Y-31838095D01*
X61261905Y-31885714D01*
X60976190Y-31885714D01*
X60880952Y-31838095D01*
X60833333Y-31790476D01*
X60785714Y-31695238D01*
X60785714Y-31504761D01*
X60833333Y-31409523D01*
X61404762Y-30552380D02*
X61452381Y-30647618D01*
X61452381Y-30838095D01*
X61404762Y-30933333D01*
X61357143Y-30980952D01*
X61261905Y-31028571D01*
X60976190Y-31028571D01*
X60880952Y-30980952D01*
X60833333Y-30933333D01*
X60785714Y-30838095D01*
X60785714Y-30647618D01*
X60833333Y-30552380D01*
X21661905Y-54352381D02*
X21661905Y-53352381D01*
X22042858Y-53352381D01*
X22138096Y-53400000D01*
X22185715Y-53447619D01*
X22233334Y-53542857D01*
X22233334Y-53685714D01*
X22185715Y-53780952D01*
X22138096Y-53828571D01*
X22042858Y-53876190D01*
X21661905Y-53876190D01*
X23090477Y-53352381D02*
X22900000Y-53352381D01*
X22804762Y-53400000D01*
X22757143Y-53447619D01*
X22661905Y-53590476D01*
X22614286Y-53780952D01*
X22614286Y-54161905D01*
X22661905Y-54257143D01*
X22709524Y-54304762D01*
X22804762Y-54352381D01*
X22995239Y-54352381D01*
X23090477Y-54304762D01*
X23138096Y-54257143D01*
X23185715Y-54161905D01*
X23185715Y-53923810D01*
X23138096Y-53828571D01*
X23090477Y-53780952D01*
X22995239Y-53733333D01*
X22804762Y-53733333D01*
X22709524Y-53780952D01*
X22661905Y-53828571D01*
X22614286Y-53923810D01*
X28461905Y-72252381D02*
X28461905Y-71252381D01*
X28842858Y-71252381D01*
X28938096Y-71300000D01*
X28985715Y-71347619D01*
X29033334Y-71442857D01*
X29033334Y-71585714D01*
X28985715Y-71680952D01*
X28938096Y-71728571D01*
X28842858Y-71776190D01*
X28461905Y-71776190D01*
X29604762Y-71680952D02*
X29509524Y-71633333D01*
X29461905Y-71585714D01*
X29414286Y-71490476D01*
X29414286Y-71442857D01*
X29461905Y-71347619D01*
X29509524Y-71300000D01*
X29604762Y-71252381D01*
X29795239Y-71252381D01*
X29890477Y-71300000D01*
X29938096Y-71347619D01*
X29985715Y-71442857D01*
X29985715Y-71490476D01*
X29938096Y-71585714D01*
X29890477Y-71633333D01*
X29795239Y-71680952D01*
X29604762Y-71680952D01*
X29509524Y-71728571D01*
X29461905Y-71776190D01*
X29414286Y-71871429D01*
X29414286Y-72061905D01*
X29461905Y-72157143D01*
X29509524Y-72204762D01*
X29604762Y-72252381D01*
X29795239Y-72252381D01*
X29890477Y-72204762D01*
X29938096Y-72157143D01*
X29985715Y-72061905D01*
X29985715Y-71871429D01*
X29938096Y-71776190D01*
X29890477Y-71728571D01*
X29795239Y-71680952D01*
X23866667Y-53566762D02*
X24009524Y-53614381D01*
X24247620Y-53614381D01*
X24342858Y-53566762D01*
X24390477Y-53519143D01*
X24438096Y-53423905D01*
X24438096Y-53328667D01*
X24390477Y-53233429D01*
X24342858Y-53185810D01*
X24247620Y-53138190D01*
X24057143Y-53090571D01*
X23961905Y-53042952D01*
X23914286Y-52995333D01*
X23866667Y-52900095D01*
X23866667Y-52804857D01*
X23914286Y-52709619D01*
X23961905Y-52662000D01*
X24057143Y-52614381D01*
X24295239Y-52614381D01*
X24438096Y-52662000D01*
X24771429Y-52614381D02*
X25009524Y-53614381D01*
X25200001Y-52900095D01*
X25390477Y-53614381D01*
X25628572Y-52614381D01*
X26533334Y-53614381D02*
X25961905Y-53614381D01*
X26247619Y-53614381D02*
X26247619Y-52614381D01*
X26152381Y-52757238D01*
X26057143Y-52852476D01*
X25961905Y-52900095D01*
X23866667Y-43642762D02*
X24009524Y-43690381D01*
X24247620Y-43690381D01*
X24342858Y-43642762D01*
X24390477Y-43595143D01*
X24438096Y-43499905D01*
X24438096Y-43404667D01*
X24390477Y-43309429D01*
X24342858Y-43261810D01*
X24247620Y-43214190D01*
X24057143Y-43166571D01*
X23961905Y-43118952D01*
X23914286Y-43071333D01*
X23866667Y-42976095D01*
X23866667Y-42880857D01*
X23914286Y-42785619D01*
X23961905Y-42738000D01*
X24057143Y-42690381D01*
X24295239Y-42690381D01*
X24438096Y-42738000D01*
X24771429Y-42690381D02*
X25009524Y-43690381D01*
X25200001Y-42976095D01*
X25390477Y-43690381D01*
X25628572Y-42690381D01*
X25961905Y-42785619D02*
X26009524Y-42738000D01*
X26104762Y-42690381D01*
X26342858Y-42690381D01*
X26438096Y-42738000D01*
X26485715Y-42785619D01*
X26533334Y-42880857D01*
X26533334Y-42976095D01*
X26485715Y-43118952D01*
X25914286Y-43690381D01*
X26533334Y-43690381D01*
X39238095Y-66032381D02*
X39238095Y-66841905D01*
X39285714Y-66937143D01*
X39333333Y-66984762D01*
X39428571Y-67032381D01*
X39619048Y-67032381D01*
X39714286Y-66984762D01*
X39761905Y-66937143D01*
X39809524Y-66841905D01*
X39809524Y-66032381D01*
X40809524Y-67032381D02*
X40238095Y-67032381D01*
X40523809Y-67032381D02*
X40523809Y-66032381D01*
X40428571Y-66175238D01*
X40333333Y-66270476D01*
X40238095Y-66318095D01*
X55038095Y-67852381D02*
X55038095Y-68661905D01*
X55085714Y-68757143D01*
X55133333Y-68804762D01*
X55228571Y-68852381D01*
X55419048Y-68852381D01*
X55514286Y-68804762D01*
X55561905Y-68757143D01*
X55609524Y-68661905D01*
X55609524Y-67852381D01*
X56038095Y-67947619D02*
X56085714Y-67900000D01*
X56180952Y-67852381D01*
X56419048Y-67852381D01*
X56514286Y-67900000D01*
X56561905Y-67947619D01*
X56609524Y-68042857D01*
X56609524Y-68138095D01*
X56561905Y-68280952D01*
X55990476Y-68852381D01*
X56609524Y-68852381D01*
X40938095Y-48652381D02*
X40938095Y-49461905D01*
X40985714Y-49557143D01*
X41033333Y-49604762D01*
X41128571Y-49652381D01*
X41319048Y-49652381D01*
X41414286Y-49604762D01*
X41461905Y-49557143D01*
X41509524Y-49461905D01*
X41509524Y-48652381D01*
X41890476Y-48652381D02*
X42509524Y-48652381D01*
X42176190Y-49033333D01*
X42319048Y-49033333D01*
X42414286Y-49080952D01*
X42461905Y-49128571D01*
X42509524Y-49223810D01*
X42509524Y-49461905D01*
X42461905Y-49557143D01*
X42414286Y-49604762D01*
X42319048Y-49652381D01*
X42033333Y-49652381D01*
X41938095Y-49604762D01*
X41890476Y-49557143D01*
X37064095Y-65418381D02*
X37064095Y-66227905D01*
X37111714Y-66323143D01*
X37159333Y-66370762D01*
X37254571Y-66418381D01*
X37445048Y-66418381D01*
X37540286Y-66370762D01*
X37587905Y-66323143D01*
X37635524Y-66227905D01*
X37635524Y-65418381D01*
X38540286Y-65751714D02*
X38540286Y-66418381D01*
X38302190Y-65370762D02*
X38064095Y-66085048D01*
X38683143Y-66085048D01*
X66176191Y-72576381D02*
X66176191Y-71576381D01*
X67223810Y-72576381D02*
X66890476Y-72100190D01*
X66652381Y-72576381D02*
X66652381Y-71576381D01*
X67033334Y-71576381D01*
X67128572Y-71624000D01*
X67176191Y-71671619D01*
X67223810Y-71766857D01*
X67223810Y-71909714D01*
X67176191Y-72004952D01*
X67128572Y-72052571D01*
X67033334Y-72100190D01*
X66652381Y-72100190D01*
X68319048Y-72671619D02*
X68223810Y-72624000D01*
X68128572Y-72528762D01*
X67985715Y-72385905D01*
X67890476Y-72338286D01*
X67795238Y-72338286D01*
X67842857Y-72576381D02*
X67747619Y-72528762D01*
X67652381Y-72433524D01*
X67604762Y-72243048D01*
X67604762Y-71909714D01*
X67652381Y-71719238D01*
X67747619Y-71624000D01*
X67842857Y-71576381D01*
X68033334Y-71576381D01*
X68128572Y-71624000D01*
X68223810Y-71719238D01*
X68271429Y-71909714D01*
X68271429Y-72243048D01*
X68223810Y-72433524D01*
X68128572Y-72528762D01*
X68033334Y-72576381D01*
X67842857Y-72576381D01*
X68985714Y-51890476D02*
X69795238Y-51890476D01*
X69890476Y-51938095D01*
X69938095Y-51985714D01*
X69985714Y-52080953D01*
X69985714Y-52223810D01*
X69938095Y-52319048D01*
X69604762Y-51890476D02*
X69652381Y-51985714D01*
X69652381Y-52176191D01*
X69604762Y-52271429D01*
X69557143Y-52319048D01*
X69461905Y-52366667D01*
X69176190Y-52366667D01*
X69080952Y-52319048D01*
X69033333Y-52271429D01*
X68985714Y-52176191D01*
X68985714Y-51985714D01*
X69033333Y-51890476D01*
X68985714Y-51414286D02*
X69652381Y-51414286D01*
X69080952Y-51414286D02*
X69033333Y-51366667D01*
X68985714Y-51271429D01*
X68985714Y-51128571D01*
X69033333Y-51033333D01*
X69128571Y-50985714D01*
X69652381Y-50985714D01*
X69652381Y-50080952D02*
X68652381Y-50080952D01*
X69604762Y-50080952D02*
X69652381Y-50176190D01*
X69652381Y-50366667D01*
X69604762Y-50461905D01*
X69557143Y-50509524D01*
X69461905Y-50557143D01*
X69176190Y-50557143D01*
X69080952Y-50509524D01*
X69033333Y-50461905D01*
X68985714Y-50366667D01*
X68985714Y-50176190D01*
X69033333Y-50080952D01*
X45704762Y-68171428D02*
X45752381Y-68076190D01*
X45752381Y-67885714D01*
X45704762Y-67790475D01*
X45609524Y-67742856D01*
X45561905Y-67742856D01*
X45466667Y-67790475D01*
X45419048Y-67885714D01*
X45419048Y-68028571D01*
X45371429Y-68123809D01*
X45276190Y-68171428D01*
X45228571Y-68171428D01*
X45133333Y-68123809D01*
X45085714Y-68028571D01*
X45085714Y-67885714D01*
X45133333Y-67790475D01*
X45085714Y-67314285D02*
X46085714Y-67314285D01*
X45133333Y-67314285D02*
X45085714Y-67219047D01*
X45085714Y-67028570D01*
X45133333Y-66933332D01*
X45180952Y-66885713D01*
X45276190Y-66838094D01*
X45561905Y-66838094D01*
X45657143Y-66885713D01*
X45704762Y-66933332D01*
X45752381Y-67028570D01*
X45752381Y-67219047D01*
X45704762Y-67314285D01*
X45752381Y-66409523D02*
X45085714Y-66409523D01*
X44752381Y-66409523D02*
X44800000Y-66457142D01*
X44847619Y-66409523D01*
X44800000Y-66361904D01*
X44752381Y-66409523D01*
X44847619Y-66409523D01*
X44704762Y-65219047D02*
X45990476Y-66076190D01*
X45752381Y-64885714D02*
X45085714Y-64885714D01*
X44752381Y-64885714D02*
X44800000Y-64933333D01*
X44847619Y-64885714D01*
X44800000Y-64838095D01*
X44752381Y-64885714D01*
X44847619Y-64885714D01*
X44847619Y-64457143D02*
X44800000Y-64409524D01*
X44752381Y-64314286D01*
X44752381Y-64076190D01*
X44800000Y-63980952D01*
X44847619Y-63933333D01*
X44942857Y-63885714D01*
X45038095Y-63885714D01*
X45180952Y-63933333D01*
X45752381Y-64504762D01*
X45752381Y-63885714D01*
X45704762Y-63028571D02*
X45752381Y-63123809D01*
X45752381Y-63314286D01*
X45704762Y-63409524D01*
X45657143Y-63457143D01*
X45561905Y-63504762D01*
X45276190Y-63504762D01*
X45180952Y-63457143D01*
X45133333Y-63409524D01*
X45085714Y-63314286D01*
X45085714Y-63123809D01*
X45133333Y-63028571D01*
X60433334Y-75452381D02*
X60433334Y-74928571D01*
X60385715Y-74833333D01*
X60290477Y-74785714D01*
X60100000Y-74785714D01*
X60004762Y-74833333D01*
X60433334Y-75404762D02*
X60338096Y-75452381D01*
X60100000Y-75452381D01*
X60004762Y-75404762D01*
X59957143Y-75309524D01*
X59957143Y-75214286D01*
X60004762Y-75119048D01*
X60100000Y-75071429D01*
X60338096Y-75071429D01*
X60433334Y-75023810D01*
X61338096Y-75452381D02*
X61338096Y-74452381D01*
X61338096Y-75404762D02*
X61242858Y-75452381D01*
X61052381Y-75452381D01*
X60957143Y-75404762D01*
X60909524Y-75357143D01*
X60861905Y-75261905D01*
X60861905Y-74976190D01*
X60909524Y-74880952D01*
X60957143Y-74833333D01*
X61052381Y-74785714D01*
X61242858Y-74785714D01*
X61338096Y-74833333D01*
X62242858Y-75452381D02*
X62242858Y-74452381D01*
X62242858Y-75404762D02*
X62147620Y-75452381D01*
X61957143Y-75452381D01*
X61861905Y-75404762D01*
X61814286Y-75357143D01*
X61766667Y-75261905D01*
X61766667Y-74976190D01*
X61814286Y-74880952D01*
X61861905Y-74833333D01*
X61957143Y-74785714D01*
X62147620Y-74785714D01*
X62242858Y-74833333D01*
X63242858Y-75452381D02*
X62671429Y-75452381D01*
X62957143Y-75452381D02*
X62957143Y-74452381D01*
X62861905Y-74595238D01*
X62766667Y-74690476D01*
X62671429Y-74738095D01*
X55433334Y-75452381D02*
X55433334Y-74928571D01*
X55385715Y-74833333D01*
X55290477Y-74785714D01*
X55100000Y-74785714D01*
X55004762Y-74833333D01*
X55433334Y-75404762D02*
X55338096Y-75452381D01*
X55100000Y-75452381D01*
X55004762Y-75404762D01*
X54957143Y-75309524D01*
X54957143Y-75214286D01*
X55004762Y-75119048D01*
X55100000Y-75071429D01*
X55338096Y-75071429D01*
X55433334Y-75023810D01*
X56338096Y-75452381D02*
X56338096Y-74452381D01*
X56338096Y-75404762D02*
X56242858Y-75452381D01*
X56052381Y-75452381D01*
X55957143Y-75404762D01*
X55909524Y-75357143D01*
X55861905Y-75261905D01*
X55861905Y-74976190D01*
X55909524Y-74880952D01*
X55957143Y-74833333D01*
X56052381Y-74785714D01*
X56242858Y-74785714D01*
X56338096Y-74833333D01*
X57242858Y-75452381D02*
X57242858Y-74452381D01*
X57242858Y-75404762D02*
X57147620Y-75452381D01*
X56957143Y-75452381D01*
X56861905Y-75404762D01*
X56814286Y-75357143D01*
X56766667Y-75261905D01*
X56766667Y-74976190D01*
X56814286Y-74880952D01*
X56861905Y-74833333D01*
X56957143Y-74785714D01*
X57147620Y-74785714D01*
X57242858Y-74833333D01*
X57909524Y-74452381D02*
X58004763Y-74452381D01*
X58100001Y-74500000D01*
X58147620Y-74547619D01*
X58195239Y-74642857D01*
X58242858Y-74833333D01*
X58242858Y-75071429D01*
X58195239Y-75261905D01*
X58147620Y-75357143D01*
X58100001Y-75404762D01*
X58004763Y-75452381D01*
X57909524Y-75452381D01*
X57814286Y-75404762D01*
X57766667Y-75357143D01*
X57719048Y-75261905D01*
X57671429Y-75071429D01*
X57671429Y-74833333D01*
X57719048Y-74642857D01*
X57766667Y-74547619D01*
X57814286Y-74500000D01*
X57909524Y-74452381D01*
X35157143Y-61566666D02*
X35204762Y-61614285D01*
X35252381Y-61757142D01*
X35252381Y-61852380D01*
X35204762Y-61995238D01*
X35109524Y-62090476D01*
X35014286Y-62138095D01*
X34823810Y-62185714D01*
X34680952Y-62185714D01*
X34490476Y-62138095D01*
X34395238Y-62090476D01*
X34300000Y-61995238D01*
X34252381Y-61852380D01*
X34252381Y-61757142D01*
X34300000Y-61614285D01*
X34347619Y-61566666D01*
X34252381Y-61233333D02*
X34252381Y-60614285D01*
X34633333Y-60947619D01*
X34633333Y-60804761D01*
X34680952Y-60709523D01*
X34728571Y-60661904D01*
X34823810Y-60614285D01*
X35061905Y-60614285D01*
X35157143Y-60661904D01*
X35204762Y-60709523D01*
X35252381Y-60804761D01*
X35252381Y-61090476D01*
X35204762Y-61185714D01*
X35157143Y-61233333D01*
X27557143Y-67366666D02*
X27604762Y-67414285D01*
X27652381Y-67557142D01*
X27652381Y-67652380D01*
X27604762Y-67795238D01*
X27509524Y-67890476D01*
X27414286Y-67938095D01*
X27223810Y-67985714D01*
X27080952Y-67985714D01*
X26890476Y-67938095D01*
X26795238Y-67890476D01*
X26700000Y-67795238D01*
X26652381Y-67652380D01*
X26652381Y-67557142D01*
X26700000Y-67414285D01*
X26747619Y-67366666D01*
X26985714Y-66509523D02*
X27652381Y-66509523D01*
X26604762Y-66747619D02*
X27319048Y-66985714D01*
X27319048Y-66366666D01*
X62657143Y-63566666D02*
X62704762Y-63614285D01*
X62752381Y-63757142D01*
X62752381Y-63852380D01*
X62704762Y-63995238D01*
X62609524Y-64090476D01*
X62514286Y-64138095D01*
X62323810Y-64185714D01*
X62180952Y-64185714D01*
X61990476Y-64138095D01*
X61895238Y-64090476D01*
X61800000Y-63995238D01*
X61752381Y-63852380D01*
X61752381Y-63757142D01*
X61800000Y-63614285D01*
X61847619Y-63566666D01*
X62752381Y-62614285D02*
X62752381Y-63185714D01*
X62752381Y-62900000D02*
X61752381Y-62900000D01*
X61895238Y-62995238D01*
X61990476Y-63090476D01*
X62038095Y-63185714D01*
X60033334Y-71257143D02*
X59985715Y-71304762D01*
X59842858Y-71352381D01*
X59747620Y-71352381D01*
X59604762Y-71304762D01*
X59509524Y-71209524D01*
X59461905Y-71114286D01*
X59414286Y-70923810D01*
X59414286Y-70780952D01*
X59461905Y-70590476D01*
X59509524Y-70495238D01*
X59604762Y-70400000D01*
X59747620Y-70352381D01*
X59842858Y-70352381D01*
X59985715Y-70400000D01*
X60033334Y-70447619D01*
X60414286Y-70447619D02*
X60461905Y-70400000D01*
X60557143Y-70352381D01*
X60795239Y-70352381D01*
X60890477Y-70400000D01*
X60938096Y-70447619D01*
X60985715Y-70542857D01*
X60985715Y-70638095D01*
X60938096Y-70780952D01*
X60366667Y-71352381D01*
X60985715Y-71352381D01*
X49552381Y-70966666D02*
X49076190Y-71300000D01*
X49552381Y-71538095D02*
X48552381Y-71538095D01*
X48552381Y-71157142D01*
X48600000Y-71061904D01*
X48647619Y-71014285D01*
X48742857Y-70966666D01*
X48885714Y-70966666D01*
X48980952Y-71014285D01*
X49028571Y-71061904D01*
X49076190Y-71157142D01*
X49076190Y-71538095D01*
X49552381Y-70014285D02*
X49552381Y-70585714D01*
X49552381Y-70300000D02*
X48552381Y-70300000D01*
X48695238Y-70395238D01*
X48790476Y-70490476D01*
X48838095Y-70585714D01*
X65752381Y-63566666D02*
X65276190Y-63900000D01*
X65752381Y-64138095D02*
X64752381Y-64138095D01*
X64752381Y-63757142D01*
X64800000Y-63661904D01*
X64847619Y-63614285D01*
X64942857Y-63566666D01*
X65085714Y-63566666D01*
X65180952Y-63614285D01*
X65228571Y-63661904D01*
X65276190Y-63757142D01*
X65276190Y-64138095D01*
X64847619Y-63185714D02*
X64800000Y-63138095D01*
X64752381Y-63042857D01*
X64752381Y-62804761D01*
X64800000Y-62709523D01*
X64847619Y-62661904D01*
X64942857Y-62614285D01*
X65038095Y-62614285D01*
X65180952Y-62661904D01*
X65752381Y-63233333D01*
X65752381Y-62614285D01*
X51233334Y-48952381D02*
X50900000Y-48476190D01*
X50661905Y-48952381D02*
X50661905Y-47952381D01*
X51042858Y-47952381D01*
X51138096Y-48000000D01*
X51185715Y-48047619D01*
X51233334Y-48142857D01*
X51233334Y-48285714D01*
X51185715Y-48380952D01*
X51138096Y-48428571D01*
X51042858Y-48476190D01*
X50661905Y-48476190D01*
X51566667Y-47952381D02*
X52185715Y-47952381D01*
X51852381Y-48333333D01*
X51995239Y-48333333D01*
X52090477Y-48380952D01*
X52138096Y-48428571D01*
X52185715Y-48523810D01*
X52185715Y-48761905D01*
X52138096Y-48857143D01*
X52090477Y-48904762D01*
X51995239Y-48952381D01*
X51709524Y-48952381D01*
X51614286Y-48904762D01*
X51566667Y-48857143D01*
X44633334Y-48952381D02*
X44300000Y-48476190D01*
X44061905Y-48952381D02*
X44061905Y-47952381D01*
X44442858Y-47952381D01*
X44538096Y-48000000D01*
X44585715Y-48047619D01*
X44633334Y-48142857D01*
X44633334Y-48285714D01*
X44585715Y-48380952D01*
X44538096Y-48428571D01*
X44442858Y-48476190D01*
X44061905Y-48476190D01*
X45490477Y-48285714D02*
X45490477Y-48952381D01*
X45252381Y-47904762D02*
X45014286Y-48619048D01*
X45633334Y-48619048D01*
X43152381Y-52166666D02*
X42676190Y-52500000D01*
X43152381Y-52738095D02*
X42152381Y-52738095D01*
X42152381Y-52357142D01*
X42200000Y-52261904D01*
X42247619Y-52214285D01*
X42342857Y-52166666D01*
X42485714Y-52166666D01*
X42580952Y-52214285D01*
X42628571Y-52261904D01*
X42676190Y-52357142D01*
X42676190Y-52738095D01*
X42152381Y-51261904D02*
X42152381Y-51738095D01*
X42628571Y-51785714D01*
X42580952Y-51738095D01*
X42533333Y-51642857D01*
X42533333Y-51404761D01*
X42580952Y-51309523D01*
X42628571Y-51261904D01*
X42723810Y-51214285D01*
X42961905Y-51214285D01*
X43057143Y-51261904D01*
X43104762Y-51309523D01*
X43152381Y-51404761D01*
X43152381Y-51642857D01*
X43104762Y-51738095D01*
X43057143Y-51785714D01*
X49852381Y-75338095D02*
X48852381Y-75338095D01*
X48852381Y-74957142D01*
X48900000Y-74861904D01*
X48947619Y-74814285D01*
X49042857Y-74766666D01*
X49185714Y-74766666D01*
X49280952Y-74814285D01*
X49328571Y-74861904D01*
X49376190Y-74957142D01*
X49376190Y-75338095D01*
X48852381Y-74433333D02*
X48852381Y-73766666D01*
X49852381Y-74195238D01*
X63061905Y-48352381D02*
X63061905Y-47352381D01*
X63442858Y-47352381D01*
X63538096Y-47400000D01*
X63585715Y-47447619D01*
X63633334Y-47542857D01*
X63633334Y-47685714D01*
X63585715Y-47780952D01*
X63538096Y-47828571D01*
X63442858Y-47876190D01*
X63061905Y-47876190D01*
X64109524Y-48352381D02*
X64300000Y-48352381D01*
X64395239Y-48304762D01*
X64442858Y-48257143D01*
X64538096Y-48114286D01*
X64585715Y-47923810D01*
X64585715Y-47542857D01*
X64538096Y-47447619D01*
X64490477Y-47400000D01*
X64395239Y-47352381D01*
X64204762Y-47352381D01*
X64109524Y-47400000D01*
X64061905Y-47447619D01*
X64014286Y-47542857D01*
X64014286Y-47780952D01*
X64061905Y-47876190D01*
X64109524Y-47923810D01*
X64204762Y-47971429D01*
X64395239Y-47971429D01*
X64490477Y-47923810D01*
X64538096Y-47876190D01*
X64585715Y-47780952D01*
M02*
