G04 #@! TF.FileFunction,Copper,L1,Top,Signal*
%FSLAX46Y46*%
G04 Gerber Fmt 4.6, Leading zero omitted, Abs format (unit mm)*
G04 Created by KiCad (PCBNEW (2015-08-08 BZR 6073)-product) date Wed 19 Aug 2015 12:39:56 CEST*
%MOMM*%
G01*
G04 APERTURE LIST*
%ADD10C,0.100000*%
%ADD11R,0.797560X0.797560*%
%ADD12R,3.200000X1.300000*%
%ADD13R,2.032000X1.727200*%
%ADD14O,2.032000X1.727200*%
%ADD15C,1.397000*%
%ADD16O,1.600000X1.600000*%
%ADD17O,0.800000X0.350000*%
%ADD18O,0.350000X0.800000*%
%ADD19R,1.350000X1.350000*%
%ADD20R,2.500000X1.100000*%
%ADD21O,2.500000X1.100000*%
%ADD22R,1.727200X1.727200*%
%ADD23C,1.727200*%
%ADD24R,1.000760X2.501900*%
%ADD25R,1.998980X4.000500*%
%ADD26R,1.000000X1.000000*%
%ADD27R,1.300000X1.300000*%
%ADD28C,1.300000*%
%ADD29R,1.250000X1.500000*%
%ADD30R,1.500000X1.250000*%
%ADD31R,1.300000X1.500000*%
%ADD32R,1.500000X1.300000*%
%ADD33R,1.727200X2.032000*%
%ADD34O,1.727200X2.032000*%
%ADD35R,2.235200X2.235200*%
%ADD36C,0.600000*%
%ADD37C,0.250000*%
%ADD38C,0.254000*%
G04 APERTURE END LIST*
D10*
D11*
X53850700Y-70800000D03*
X55349300Y-70800000D03*
D12*
X67600000Y-56700000D03*
X67600000Y-66000000D03*
D13*
X63800000Y-32000000D03*
D14*
X63800000Y-34540000D03*
X63800000Y-37080000D03*
X63800000Y-39620000D03*
X63800000Y-42160000D03*
X63800000Y-44700000D03*
X63800000Y-47240000D03*
X63800000Y-49780000D03*
D13*
X67800000Y-32000000D03*
D14*
X67800000Y-34540000D03*
X67800000Y-37080000D03*
X67800000Y-39620000D03*
X67800000Y-42160000D03*
X67800000Y-44700000D03*
X67800000Y-47240000D03*
D13*
X22400000Y-59000000D03*
D14*
X22400000Y-61540000D03*
X22400000Y-64080000D03*
D13*
X26200000Y-71600000D03*
D14*
X26200000Y-69060000D03*
X26200000Y-66520000D03*
X26200000Y-63980000D03*
X26200000Y-61440000D03*
X26200000Y-58900000D03*
D15*
X21390000Y-54940000D03*
X21390000Y-49860000D03*
X29010000Y-54940000D03*
X29010000Y-49860000D03*
X29010000Y-41460000D03*
X29010000Y-46540000D03*
X21390000Y-41460000D03*
X21390000Y-46540000D03*
D16*
X40000000Y-71800000D03*
X40000000Y-74340000D03*
X47620000Y-74340000D03*
X47620000Y-71800000D03*
D17*
X57800000Y-65975000D03*
X57800000Y-65325000D03*
X57800000Y-64675000D03*
X57800000Y-64025000D03*
D18*
X56775000Y-63000000D03*
X56125000Y-63000000D03*
X55475000Y-63000000D03*
X54825000Y-63000000D03*
D17*
X53800000Y-64025000D03*
X53800000Y-64675000D03*
X53800000Y-65325000D03*
X53800000Y-65975000D03*
D18*
X54825000Y-67000000D03*
X55475000Y-67000000D03*
X56125000Y-67000000D03*
X56775000Y-67000000D03*
D19*
X55125000Y-64325000D03*
X55125000Y-65675000D03*
X56475000Y-64325000D03*
X56475000Y-65675000D03*
D20*
X39500000Y-32600000D03*
D21*
X39500000Y-34600000D03*
X39500000Y-36600000D03*
X39500000Y-38600000D03*
X39500000Y-40600000D03*
X39500000Y-42600000D03*
X39500000Y-44600000D03*
X39500000Y-46600000D03*
X54900000Y-46600000D03*
X54800000Y-44600000D03*
X54900000Y-42600000D03*
X54900000Y-40600000D03*
X54900000Y-38600000D03*
X54900000Y-36600000D03*
X54900000Y-34600000D03*
X54900000Y-32600000D03*
D22*
X58400000Y-58600000D03*
D23*
X58400000Y-56060000D03*
X58400000Y-53520000D03*
X58400000Y-50980000D03*
X58400000Y-48440000D03*
X58400000Y-45900000D03*
X58400000Y-43360000D03*
X58400000Y-40820000D03*
X58400000Y-38280000D03*
X58400000Y-35740000D03*
X58400000Y-33200000D03*
X35540000Y-33200000D03*
X35540000Y-35740000D03*
X35540000Y-38280000D03*
X35540000Y-40820000D03*
X35540000Y-43360000D03*
X35540000Y-45900000D03*
X35540000Y-48440000D03*
X35540000Y-50980000D03*
X35540000Y-53520000D03*
X35540000Y-56060000D03*
X35540000Y-58600000D03*
X43668000Y-61140000D03*
X46208000Y-61140000D03*
X48748000Y-61140000D03*
X51288000Y-61140000D03*
D24*
X40901140Y-60047960D03*
X39400000Y-60047960D03*
X37898860Y-60047960D03*
D25*
X39400000Y-64000200D03*
D10*
G36*
X38399240Y-62025350D02*
X38899620Y-61276050D01*
X39900380Y-61276050D01*
X40400760Y-62025350D01*
X38399240Y-62025350D01*
X38399240Y-62025350D01*
G37*
D15*
X68470000Y-70600000D03*
X65930000Y-70600000D03*
X67800000Y-52670000D03*
X67800000Y-50130000D03*
D26*
X47200000Y-63650000D03*
X47200000Y-66350000D03*
X47200000Y-65000000D03*
X63150000Y-73200000D03*
X60450000Y-73200000D03*
X61800000Y-73200000D03*
X55450000Y-73200000D03*
X58150000Y-73200000D03*
X56800000Y-73200000D03*
D27*
X31000000Y-60400000D03*
D28*
X31000000Y-62400000D03*
D27*
X31000000Y-68200000D03*
D28*
X31000000Y-66200000D03*
D29*
X60200000Y-62150000D03*
X60200000Y-64650000D03*
D30*
X61450000Y-68800000D03*
X58950000Y-68800000D03*
D31*
X51200000Y-72150000D03*
X51200000Y-69450000D03*
X63200000Y-62050000D03*
X63200000Y-64750000D03*
D32*
X50050000Y-50600000D03*
X52750000Y-50600000D03*
X43450000Y-50600000D03*
X46150000Y-50600000D03*
D31*
X40600000Y-50650000D03*
X40600000Y-53350000D03*
D33*
X51600000Y-77800000D03*
D34*
X54140000Y-77800000D03*
X56680000Y-77800000D03*
X59220000Y-77800000D03*
X61760000Y-77800000D03*
D35*
X63800000Y-53000000D03*
D36*
X61450000Y-71606900D03*
X55349300Y-71843200D03*
X56125000Y-62098800D03*
X48345300Y-65000000D03*
X53998200Y-62873000D03*
X57177700Y-60380500D03*
X53691100Y-62049600D03*
X38481000Y-56595200D03*
X52927200Y-59532600D03*
X59763900Y-59195100D03*
X53800000Y-66660800D03*
X49097500Y-43709900D03*
X33480800Y-59732800D03*
X56804300Y-49621600D03*
X56475400Y-50749200D03*
D37*
X57825000Y-64650000D02*
X57800000Y-64675000D01*
X60200000Y-64650000D02*
X57825000Y-64650000D01*
X60300000Y-64750000D02*
X60200000Y-64650000D01*
X63200000Y-64750000D02*
X60300000Y-64750000D01*
X65350000Y-64750000D02*
X63200000Y-64750000D01*
X66600000Y-66000000D02*
X65350000Y-64750000D01*
X67600000Y-66000000D02*
X66600000Y-66000000D01*
X67600000Y-57650000D02*
X63200000Y-62050000D01*
X67600000Y-56700000D02*
X67600000Y-57650000D01*
X60300000Y-62050000D02*
X60200000Y-62150000D01*
X63200000Y-62050000D02*
X60300000Y-62050000D01*
X60571100Y-74146400D02*
X60450000Y-74025300D01*
X60571100Y-77800000D02*
X60571100Y-74146400D01*
X61760000Y-77800000D02*
X60571100Y-77800000D01*
X60450000Y-73200000D02*
X60450000Y-74025300D01*
X40600000Y-53350000D02*
X40600000Y-54425300D01*
X54200000Y-48174700D02*
X54200000Y-46600000D01*
X52750000Y-49624700D02*
X54200000Y-48174700D01*
X31000000Y-66200000D02*
X31000000Y-62400000D01*
X58150000Y-73200000D02*
X60450000Y-73200000D01*
X46374700Y-63846700D02*
X43668000Y-61140000D01*
X46374700Y-66350000D02*
X46374700Y-63846700D01*
X47200000Y-66350000D02*
X46374700Y-66350000D01*
X67800000Y-52670000D02*
X67800000Y-50130000D01*
X67800000Y-50130000D02*
X67800000Y-47240000D01*
X43668000Y-60548800D02*
X43668000Y-61140000D01*
X41591000Y-58471800D02*
X43668000Y-60548800D01*
X40901100Y-58471800D02*
X41591000Y-58471800D01*
X40901100Y-60048000D02*
X40901100Y-58471800D01*
X40901100Y-54726400D02*
X40901100Y-58471800D01*
X40600000Y-54425300D02*
X40901100Y-54726400D01*
X35540000Y-35740000D02*
X35540000Y-33200000D01*
X52750000Y-50112300D02*
X52750000Y-49624700D01*
X60774800Y-67849700D02*
X61450000Y-67849700D01*
X58525300Y-65600200D02*
X60774800Y-67849700D01*
X58525300Y-65325000D02*
X58525300Y-65600200D01*
X57800000Y-65325000D02*
X58525300Y-65325000D01*
X61450000Y-68800000D02*
X61450000Y-67849700D01*
X21390000Y-46540000D02*
X21390000Y-49860000D01*
X21359700Y-60351100D02*
X22400000Y-60351100D01*
X20335400Y-59326800D02*
X21359700Y-60351100D01*
X20335400Y-50914600D02*
X20335400Y-59326800D01*
X21390000Y-49860000D02*
X20335400Y-50914600D01*
X22400000Y-61540000D02*
X22400000Y-60351100D01*
X29010000Y-46540000D02*
X29010000Y-49860000D01*
X58325000Y-64025000D02*
X58062500Y-64025000D01*
X60200000Y-62150000D02*
X58325000Y-64025000D01*
X58062500Y-64025000D02*
X57800000Y-64025000D01*
X40901100Y-68823400D02*
X40901100Y-60048000D01*
X38832300Y-70892200D02*
X40901100Y-68823400D01*
X38832300Y-72328300D02*
X38832300Y-70892200D01*
X39718700Y-73214700D02*
X38832300Y-72328300D01*
X40000000Y-73214700D02*
X39718700Y-73214700D01*
X40000000Y-74340000D02*
X40000000Y-73214700D01*
X61450000Y-71606900D02*
X61450000Y-68800000D01*
X56451300Y-61466200D02*
X55795500Y-61466200D01*
X58062500Y-63077400D02*
X56451300Y-61466200D01*
X58062500Y-64025000D02*
X58062500Y-63077400D01*
X55475000Y-61786700D02*
X55475000Y-63000000D01*
X55795500Y-61466200D02*
X55475000Y-61786700D01*
X52750000Y-50112300D02*
X52750000Y-50600000D01*
X55795500Y-54620800D02*
X55795500Y-61466200D01*
X52750000Y-51575300D02*
X55795500Y-54620800D01*
X52750000Y-50600000D02*
X52750000Y-51575300D01*
X55349300Y-71843200D02*
X55349300Y-70800000D01*
X33316000Y-42234000D02*
X29010000Y-46540000D01*
X33316000Y-37964000D02*
X33316000Y-42234000D01*
X35540000Y-35740000D02*
X33316000Y-37964000D01*
X57800000Y-66699700D02*
X57800000Y-65975000D01*
X58950000Y-67849700D02*
X57800000Y-66699700D01*
X58950000Y-68800000D02*
X58950000Y-67849700D01*
X27633600Y-62791100D02*
X26200000Y-62791100D01*
X30024700Y-60400000D02*
X27633600Y-62791100D01*
X31000000Y-60400000D02*
X30024700Y-60400000D01*
X35432400Y-60400000D02*
X31000000Y-60400000D01*
X37073200Y-58759200D02*
X35432400Y-60400000D01*
X37073200Y-58575000D02*
X37073200Y-58759200D01*
X37176400Y-58471800D02*
X37073200Y-58575000D01*
X37898900Y-58471800D02*
X37176400Y-58471800D01*
X37898900Y-60048000D02*
X37898900Y-58471800D01*
X26200000Y-63980000D02*
X26200000Y-63467600D01*
X26200000Y-63467600D02*
X26200000Y-62791100D01*
X24353700Y-63467600D02*
X23741300Y-64080000D01*
X26200000Y-63467600D02*
X24353700Y-63467600D01*
X22400000Y-64080000D02*
X23741300Y-64080000D01*
X55491100Y-74066400D02*
X55450000Y-74025300D01*
X55491100Y-77800000D02*
X55491100Y-74066400D01*
X56680000Y-77800000D02*
X55491100Y-77800000D01*
X41075300Y-47250000D02*
X41075300Y-46600000D01*
X43450000Y-49624700D02*
X41075300Y-47250000D01*
X43450000Y-50600000D02*
X43450000Y-49624700D01*
X55450000Y-73200000D02*
X55450000Y-73612600D01*
X55450000Y-73612600D02*
X55450000Y-74025300D01*
X57868900Y-78320100D02*
X57868900Y-77800000D01*
X58717200Y-79168400D02*
X57868900Y-78320100D01*
X62253200Y-79168400D02*
X58717200Y-79168400D01*
X63150000Y-78271600D02*
X62253200Y-79168400D01*
X63150000Y-73200000D02*
X63150000Y-78271600D01*
X56680000Y-77800000D02*
X57868900Y-77800000D01*
X39400000Y-61650700D02*
X39400000Y-60048000D01*
X58400000Y-33200000D02*
X58400000Y-35740000D01*
X40962700Y-46600000D02*
X41075300Y-46600000D01*
X41075300Y-46600000D02*
X41075300Y-36600000D01*
X40200000Y-36600000D02*
X41075300Y-36600000D01*
X40581400Y-46600000D02*
X40962700Y-46600000D01*
X40581400Y-46600000D02*
X40200000Y-46600000D01*
X40200000Y-46600000D02*
X38220000Y-48580000D01*
X39400000Y-49760000D02*
X38220000Y-48580000D01*
X39400000Y-60048000D02*
X39400000Y-49760000D01*
X38220000Y-48580000D02*
X35540000Y-45900000D01*
X56125000Y-63000000D02*
X56775000Y-63000000D01*
X56125000Y-63000000D02*
X56125000Y-62098800D01*
X47200000Y-63650000D02*
X48025300Y-63650000D01*
X51288000Y-63650000D02*
X48025300Y-63650000D01*
X51288000Y-61140000D02*
X51288000Y-63650000D01*
X31975300Y-67956200D02*
X31975300Y-68200000D01*
X38256800Y-61674700D02*
X31975300Y-67956200D01*
X39400000Y-61674700D02*
X38256800Y-61674700D01*
X39400000Y-64000200D02*
X39400000Y-61674700D01*
X39400000Y-61674700D02*
X39400000Y-61650700D01*
X31000000Y-68200000D02*
X31975300Y-68200000D01*
X54625100Y-72787700D02*
X55450000Y-73612600D01*
X54625100Y-69723600D02*
X54625100Y-72787700D01*
X51288000Y-66386500D02*
X54625100Y-69723600D01*
X51288000Y-63650000D02*
X51288000Y-66386500D01*
X53850700Y-70800000D02*
X53126600Y-70800000D01*
X51200000Y-69450000D02*
X52175300Y-69450000D01*
X43475300Y-69450000D02*
X51200000Y-69450000D01*
X41125300Y-71800000D02*
X43475300Y-69450000D01*
X40000000Y-71800000D02*
X41125300Y-71800000D01*
X53126600Y-70401300D02*
X52175300Y-69450000D01*
X53126600Y-70800000D02*
X53126600Y-70401300D01*
X54200000Y-44600000D02*
X53224700Y-44600000D01*
X63962200Y-35728900D02*
X63800000Y-35891100D01*
X67800000Y-35728900D02*
X63962200Y-35728900D01*
X67800000Y-34540000D02*
X67800000Y-35728900D01*
X63800000Y-37080000D02*
X63800000Y-36567600D01*
X63800000Y-36567600D02*
X63800000Y-35891100D01*
X53224700Y-40276300D02*
X53224700Y-44600000D01*
X53901000Y-39600000D02*
X53224700Y-40276300D01*
X60767600Y-39600000D02*
X53901000Y-39600000D01*
X63800000Y-36567600D02*
X60767600Y-39600000D01*
X50050000Y-47774700D02*
X53224700Y-44600000D01*
X50050000Y-50600000D02*
X50050000Y-47774700D01*
X50050000Y-50600000D02*
X50050000Y-51575300D01*
X54825000Y-56350300D02*
X54825000Y-63000000D01*
X50050000Y-51575300D02*
X54825000Y-56350300D01*
X47200000Y-65000000D02*
X48345300Y-65000000D01*
X61306100Y-42113900D02*
X63800000Y-39620000D01*
X61306100Y-47299400D02*
X61306100Y-42113900D01*
X58895500Y-49710000D02*
X61306100Y-47299400D01*
X57987600Y-49710000D02*
X58895500Y-49710000D01*
X57177700Y-50519900D02*
X57987600Y-49710000D01*
X57177700Y-60380500D02*
X57177700Y-50519900D01*
X53998200Y-63826800D02*
X53998200Y-62873000D01*
X53800000Y-64025000D02*
X53998200Y-63826800D01*
X60627200Y-72374700D02*
X61800000Y-72374700D01*
X56775000Y-68522500D02*
X60627200Y-72374700D01*
X56775000Y-67000000D02*
X56775000Y-68522500D01*
X61800000Y-73200000D02*
X61800000Y-72374700D01*
X56125000Y-69493700D02*
X56125000Y-67000000D01*
X56800000Y-70168700D02*
X56125000Y-69493700D01*
X56800000Y-73200000D02*
X56800000Y-70168700D01*
X64583900Y-40971100D02*
X63800000Y-40971100D01*
X67286100Y-38268900D02*
X64583900Y-40971100D01*
X67800000Y-38268900D02*
X67286100Y-38268900D01*
X67800000Y-37080000D02*
X67800000Y-38268900D01*
X63800000Y-42160000D02*
X63800000Y-40971100D01*
X53800000Y-64675000D02*
X53074700Y-64675000D01*
X53691100Y-62163500D02*
X53691100Y-62049600D01*
X53074700Y-62779900D02*
X53691100Y-62163500D01*
X53074700Y-64675000D02*
X53074700Y-62779900D01*
X64583900Y-43511100D02*
X63800000Y-43511100D01*
X67286100Y-40808900D02*
X64583900Y-43511100D01*
X67800000Y-40808900D02*
X67286100Y-40808900D01*
X67800000Y-39620000D02*
X67800000Y-40808900D01*
X63800000Y-44700000D02*
X63800000Y-43511100D01*
X38481000Y-53921000D02*
X38481000Y-56595200D01*
X35540000Y-50980000D02*
X38481000Y-53921000D01*
X53800000Y-65325000D02*
X53074700Y-65325000D01*
X52927200Y-62290500D02*
X52927200Y-59532600D01*
X52589500Y-62628200D02*
X52927200Y-62290500D01*
X52589500Y-64839800D02*
X52589500Y-62628200D01*
X53074700Y-65325000D02*
X52589500Y-64839800D01*
X64583900Y-46051100D02*
X63800000Y-46051100D01*
X67286100Y-43348900D02*
X64583900Y-46051100D01*
X67800000Y-43348900D02*
X67286100Y-43348900D01*
X67800000Y-42160000D02*
X67800000Y-43348900D01*
X63800000Y-46727600D02*
X63800000Y-47081600D01*
X63800000Y-47240000D02*
X63800000Y-47081600D01*
X63800000Y-46727600D02*
X63800000Y-46051100D01*
X59763900Y-51117700D02*
X59763900Y-59195100D01*
X63800000Y-47081600D02*
X59763900Y-51117700D01*
X53800000Y-65975000D02*
X53800000Y-66660800D01*
X48973100Y-43834300D02*
X49097500Y-43709900D01*
X48973100Y-57028100D02*
X48973100Y-43834300D01*
X52476900Y-60531900D02*
X48973100Y-57028100D01*
X52476900Y-61878600D02*
X52476900Y-60531900D01*
X52130700Y-62224800D02*
X52476900Y-61878600D01*
X52130700Y-65878100D02*
X52130700Y-62224800D01*
X53538800Y-67286200D02*
X52130700Y-65878100D01*
X54538800Y-67286200D02*
X53538800Y-67286200D01*
X54825000Y-67000000D02*
X54538800Y-67286200D01*
X51200000Y-72150000D02*
X52062800Y-72150000D01*
X54140000Y-74227200D02*
X54140000Y-77800000D01*
X52062800Y-72150000D02*
X54140000Y-74227200D01*
X34189000Y-39631000D02*
X35540000Y-38280000D01*
X34189000Y-59024600D02*
X34189000Y-39631000D01*
X33480800Y-59732800D02*
X34189000Y-59024600D01*
X54200000Y-32600000D02*
X53324700Y-32600000D01*
X47448000Y-59900000D02*
X46208000Y-61140000D01*
X47448000Y-38476700D02*
X47448000Y-59900000D01*
X53324700Y-32600000D02*
X47448000Y-38476700D01*
X54200000Y-34600000D02*
X53324700Y-34600000D01*
X48466600Y-60858600D02*
X48748000Y-61140000D01*
X48466600Y-39458100D02*
X48466600Y-60858600D01*
X53324700Y-34600000D02*
X48466600Y-39458100D01*
X54888500Y-40600000D02*
X54200000Y-40600000D01*
X56935100Y-42646600D02*
X54888500Y-40600000D01*
X56935100Y-49490800D02*
X56935100Y-42646600D01*
X56804300Y-49621600D02*
X56935100Y-49490800D01*
X37924700Y-40975300D02*
X35540000Y-43360000D01*
X37924700Y-32600000D02*
X37924700Y-40975300D01*
X40200000Y-32600000D02*
X37924700Y-32600000D01*
X46150000Y-50600000D02*
X46150000Y-51575300D01*
X41087700Y-50650000D02*
X41575300Y-50650000D01*
X41087700Y-50650000D02*
X40600000Y-50650000D01*
X44525400Y-38050100D02*
X44525400Y-51575300D01*
X41075300Y-34600000D02*
X44525400Y-38050100D01*
X42500600Y-51575300D02*
X44525400Y-51575300D01*
X41575300Y-50650000D02*
X42500600Y-51575300D01*
X44525400Y-51575300D02*
X46150000Y-51575300D01*
X40200000Y-34600000D02*
X41075300Y-34600000D01*
X56179000Y-50452800D02*
X56475400Y-50749200D01*
X56179000Y-49362600D02*
X56179000Y-50452800D01*
X56475400Y-49066200D02*
X56179000Y-49362600D01*
X56475400Y-44305300D02*
X56475400Y-49066200D01*
X54770100Y-42600000D02*
X56475400Y-44305300D01*
X54200000Y-42600000D02*
X54770100Y-42600000D01*
D38*
G36*
X58971838Y-65635317D02*
X59110910Y-65851441D01*
X59323110Y-65996431D01*
X59575000Y-66047440D01*
X59673000Y-66047440D01*
X59673000Y-66400000D01*
X59681685Y-66446159D01*
X59708965Y-66488553D01*
X59750590Y-66516994D01*
X59800000Y-66527000D01*
X60747394Y-66527000D01*
X61760394Y-67540000D01*
X61735750Y-67540000D01*
X61577000Y-67698750D01*
X61577000Y-68673000D01*
X62676250Y-68673000D01*
X62835000Y-68514250D01*
X62835000Y-68127000D01*
X69290000Y-68127000D01*
X69290000Y-69533931D01*
X69226353Y-69470173D01*
X68736413Y-69266732D01*
X68205914Y-69266269D01*
X67715620Y-69468854D01*
X67340173Y-69843647D01*
X67199906Y-70181446D01*
X67061146Y-69845620D01*
X66686353Y-69470173D01*
X66196413Y-69266732D01*
X65665914Y-69266269D01*
X65175620Y-69468854D01*
X64800173Y-69843647D01*
X64596732Y-70333587D01*
X64596269Y-70864086D01*
X64798854Y-71354380D01*
X65173647Y-71729827D01*
X65663587Y-71933268D01*
X66194086Y-71933731D01*
X66684380Y-71731146D01*
X67059827Y-71356353D01*
X67200094Y-71018554D01*
X67338854Y-71354380D01*
X67713647Y-71729827D01*
X68203587Y-71933268D01*
X68734086Y-71933731D01*
X69224380Y-71731146D01*
X69290000Y-71665640D01*
X69290000Y-79290000D01*
X63206402Y-79290000D01*
X63687401Y-78809001D01*
X63852148Y-78562439D01*
X63910000Y-78271600D01*
X63910000Y-76773305D01*
X64714674Y-76773305D01*
X65001043Y-77466372D01*
X65530839Y-77997093D01*
X66223405Y-78284672D01*
X66973305Y-78285326D01*
X67666372Y-77998957D01*
X68197093Y-77469161D01*
X68484672Y-76776595D01*
X68485326Y-76026695D01*
X68198957Y-75333628D01*
X67669161Y-74802907D01*
X66976595Y-74515328D01*
X66226695Y-74514674D01*
X65533628Y-74801043D01*
X65002907Y-75330839D01*
X64715328Y-76023405D01*
X64714674Y-76773305D01*
X63910000Y-76773305D01*
X63910000Y-74287279D01*
X64101441Y-74164090D01*
X64246431Y-73951890D01*
X64297440Y-73700000D01*
X64297440Y-72700000D01*
X64253162Y-72464683D01*
X64114090Y-72248559D01*
X63901890Y-72103569D01*
X63650000Y-72052560D01*
X62650000Y-72052560D01*
X62500082Y-72080769D01*
X62337401Y-71837299D01*
X62090839Y-71672552D01*
X61800000Y-71614700D01*
X60942002Y-71614700D01*
X59399742Y-70072440D01*
X59700000Y-70072440D01*
X59935317Y-70028162D01*
X60151441Y-69889090D01*
X60197969Y-69820994D01*
X60340302Y-69963327D01*
X60573691Y-70060000D01*
X61164250Y-70060000D01*
X61323000Y-69901250D01*
X61323000Y-68927000D01*
X61577000Y-68927000D01*
X61577000Y-69901250D01*
X61735750Y-70060000D01*
X62326309Y-70060000D01*
X62559698Y-69963327D01*
X62738327Y-69784699D01*
X62835000Y-69551310D01*
X62835000Y-69085750D01*
X62676250Y-68927000D01*
X61577000Y-68927000D01*
X61323000Y-68927000D01*
X61303000Y-68927000D01*
X61303000Y-68673000D01*
X61323000Y-68673000D01*
X61323000Y-67698750D01*
X61164250Y-67540000D01*
X60573691Y-67540000D01*
X60340302Y-67636673D01*
X60199064Y-67777910D01*
X60164090Y-67723559D01*
X59951890Y-67578569D01*
X59700000Y-67527560D01*
X59631233Y-67527560D01*
X59487401Y-67312299D01*
X58660020Y-66484918D01*
X58793619Y-66284974D01*
X58855277Y-65975000D01*
X58793619Y-65665026D01*
X58778219Y-65641978D01*
X58797164Y-65611164D01*
X58806658Y-65537393D01*
X58713459Y-65452002D01*
X58835000Y-65452002D01*
X58835000Y-65410000D01*
X58929442Y-65410000D01*
X58971838Y-65635317D01*
X58971838Y-65635317D01*
G37*
X58971838Y-65635317D02*
X59110910Y-65851441D01*
X59323110Y-65996431D01*
X59575000Y-66047440D01*
X59673000Y-66047440D01*
X59673000Y-66400000D01*
X59681685Y-66446159D01*
X59708965Y-66488553D01*
X59750590Y-66516994D01*
X59800000Y-66527000D01*
X60747394Y-66527000D01*
X61760394Y-67540000D01*
X61735750Y-67540000D01*
X61577000Y-67698750D01*
X61577000Y-68673000D01*
X62676250Y-68673000D01*
X62835000Y-68514250D01*
X62835000Y-68127000D01*
X69290000Y-68127000D01*
X69290000Y-69533931D01*
X69226353Y-69470173D01*
X68736413Y-69266732D01*
X68205914Y-69266269D01*
X67715620Y-69468854D01*
X67340173Y-69843647D01*
X67199906Y-70181446D01*
X67061146Y-69845620D01*
X66686353Y-69470173D01*
X66196413Y-69266732D01*
X65665914Y-69266269D01*
X65175620Y-69468854D01*
X64800173Y-69843647D01*
X64596732Y-70333587D01*
X64596269Y-70864086D01*
X64798854Y-71354380D01*
X65173647Y-71729827D01*
X65663587Y-71933268D01*
X66194086Y-71933731D01*
X66684380Y-71731146D01*
X67059827Y-71356353D01*
X67200094Y-71018554D01*
X67338854Y-71354380D01*
X67713647Y-71729827D01*
X68203587Y-71933268D01*
X68734086Y-71933731D01*
X69224380Y-71731146D01*
X69290000Y-71665640D01*
X69290000Y-79290000D01*
X63206402Y-79290000D01*
X63687401Y-78809001D01*
X63852148Y-78562439D01*
X63910000Y-78271600D01*
X63910000Y-76773305D01*
X64714674Y-76773305D01*
X65001043Y-77466372D01*
X65530839Y-77997093D01*
X66223405Y-78284672D01*
X66973305Y-78285326D01*
X67666372Y-77998957D01*
X68197093Y-77469161D01*
X68484672Y-76776595D01*
X68485326Y-76026695D01*
X68198957Y-75333628D01*
X67669161Y-74802907D01*
X66976595Y-74515328D01*
X66226695Y-74514674D01*
X65533628Y-74801043D01*
X65002907Y-75330839D01*
X64715328Y-76023405D01*
X64714674Y-76773305D01*
X63910000Y-76773305D01*
X63910000Y-74287279D01*
X64101441Y-74164090D01*
X64246431Y-73951890D01*
X64297440Y-73700000D01*
X64297440Y-72700000D01*
X64253162Y-72464683D01*
X64114090Y-72248559D01*
X63901890Y-72103569D01*
X63650000Y-72052560D01*
X62650000Y-72052560D01*
X62500082Y-72080769D01*
X62337401Y-71837299D01*
X62090839Y-71672552D01*
X61800000Y-71614700D01*
X60942002Y-71614700D01*
X59399742Y-70072440D01*
X59700000Y-70072440D01*
X59935317Y-70028162D01*
X60151441Y-69889090D01*
X60197969Y-69820994D01*
X60340302Y-69963327D01*
X60573691Y-70060000D01*
X61164250Y-70060000D01*
X61323000Y-69901250D01*
X61323000Y-68927000D01*
X61577000Y-68927000D01*
X61577000Y-69901250D01*
X61735750Y-70060000D01*
X62326309Y-70060000D01*
X62559698Y-69963327D01*
X62738327Y-69784699D01*
X62835000Y-69551310D01*
X62835000Y-69085750D01*
X62676250Y-68927000D01*
X61577000Y-68927000D01*
X61323000Y-68927000D01*
X61303000Y-68927000D01*
X61303000Y-68673000D01*
X61323000Y-68673000D01*
X61323000Y-67698750D01*
X61164250Y-67540000D01*
X60573691Y-67540000D01*
X60340302Y-67636673D01*
X60199064Y-67777910D01*
X60164090Y-67723559D01*
X59951890Y-67578569D01*
X59700000Y-67527560D01*
X59631233Y-67527560D01*
X59487401Y-67312299D01*
X58660020Y-66484918D01*
X58793619Y-66284974D01*
X58855277Y-65975000D01*
X58793619Y-65665026D01*
X58778219Y-65641978D01*
X58797164Y-65611164D01*
X58806658Y-65537393D01*
X58713459Y-65452002D01*
X58835000Y-65452002D01*
X58835000Y-65410000D01*
X58929442Y-65410000D01*
X58971838Y-65635317D01*
G36*
X62187569Y-30884510D02*
X62136560Y-31136400D01*
X62136560Y-32863600D01*
X62180838Y-33098917D01*
X62319910Y-33315041D01*
X62532110Y-33460031D01*
X62626927Y-33479232D01*
X62449268Y-33637964D01*
X62195291Y-34165209D01*
X62192642Y-34180974D01*
X62313783Y-34413000D01*
X63673000Y-34413000D01*
X63673000Y-34393000D01*
X63927000Y-34393000D01*
X63927000Y-34413000D01*
X65286217Y-34413000D01*
X65407358Y-34180974D01*
X65404709Y-34165209D01*
X65150732Y-33637964D01*
X64975155Y-33481093D01*
X65051317Y-33466762D01*
X65267441Y-33327690D01*
X65412431Y-33115490D01*
X65463440Y-32863600D01*
X65463440Y-31136400D01*
X65419162Y-30901083D01*
X65296203Y-30710000D01*
X66306807Y-30710000D01*
X66187569Y-30884510D01*
X66136560Y-31136400D01*
X66136560Y-32863600D01*
X66180838Y-33098917D01*
X66319910Y-33315041D01*
X66532110Y-33460031D01*
X66573439Y-33468400D01*
X66555585Y-33480330D01*
X66230729Y-33966511D01*
X66116655Y-34540000D01*
X66201968Y-34968900D01*
X65378644Y-34968900D01*
X65404709Y-34914791D01*
X65407358Y-34899026D01*
X65286217Y-34667000D01*
X63927000Y-34667000D01*
X63927000Y-34687000D01*
X63673000Y-34687000D01*
X63673000Y-34667000D01*
X62313783Y-34667000D01*
X62192642Y-34899026D01*
X62195291Y-34914791D01*
X62449268Y-35442036D01*
X62865069Y-35813539D01*
X62555585Y-36020330D01*
X62230729Y-36506511D01*
X62116655Y-37080000D01*
X62132606Y-37160192D01*
X60452798Y-38840000D01*
X59790127Y-38840000D01*
X59898339Y-38579398D01*
X59898859Y-37983218D01*
X59671192Y-37432220D01*
X59249997Y-37010290D01*
X59249069Y-37009905D01*
X59669710Y-36589997D01*
X59898339Y-36039398D01*
X59898859Y-35443218D01*
X59671192Y-34892220D01*
X59249997Y-34470290D01*
X59249069Y-34469905D01*
X59669710Y-34049997D01*
X59898339Y-33499398D01*
X59898859Y-32903218D01*
X59671192Y-32352220D01*
X59249997Y-31930290D01*
X58699398Y-31701661D01*
X58103218Y-31701141D01*
X57552220Y-31928808D01*
X57130290Y-32350003D01*
X56901661Y-32900602D01*
X56901141Y-33496782D01*
X57128808Y-34047780D01*
X57550003Y-34469710D01*
X57550931Y-34470095D01*
X57130290Y-34890003D01*
X56901661Y-35440602D01*
X56901141Y-36036782D01*
X57128808Y-36587780D01*
X57550003Y-37009710D01*
X57550931Y-37010095D01*
X57130290Y-37430003D01*
X56901661Y-37980602D01*
X56901141Y-38576782D01*
X57009900Y-38840000D01*
X56774190Y-38840000D01*
X56821929Y-38600000D01*
X56731726Y-38146520D01*
X56474851Y-37762078D01*
X56232283Y-37600000D01*
X56474851Y-37437922D01*
X56731726Y-37053480D01*
X56821929Y-36600000D01*
X56731726Y-36146520D01*
X56474851Y-35762078D01*
X56232283Y-35600000D01*
X56474851Y-35437922D01*
X56731726Y-35053480D01*
X56821929Y-34600000D01*
X56731726Y-34146520D01*
X56474851Y-33762078D01*
X56232283Y-33600000D01*
X56474851Y-33437922D01*
X56731726Y-33053480D01*
X56821929Y-32600000D01*
X56731726Y-32146520D01*
X56474851Y-31762078D01*
X56090409Y-31505203D01*
X55636929Y-31415000D01*
X54163071Y-31415000D01*
X53709591Y-31505203D01*
X53325149Y-31762078D01*
X53265171Y-31851841D01*
X53033861Y-31897852D01*
X52787299Y-32062599D01*
X46910599Y-37939299D01*
X46745852Y-38185861D01*
X46688000Y-38476700D01*
X46688000Y-49302560D01*
X45400000Y-49302560D01*
X45285400Y-49324124D01*
X45285400Y-38050100D01*
X45230590Y-37774552D01*
X45227548Y-37759260D01*
X45062801Y-37512699D01*
X41612701Y-34062599D01*
X41366139Y-33897852D01*
X41134829Y-33851841D01*
X41074851Y-33762078D01*
X41024129Y-33728187D01*
X41201441Y-33614090D01*
X41346431Y-33401890D01*
X41397440Y-33150000D01*
X41397440Y-32050000D01*
X41353162Y-31814683D01*
X41214090Y-31598559D01*
X41001890Y-31453569D01*
X40750000Y-31402560D01*
X38250000Y-31402560D01*
X38014683Y-31446838D01*
X37798559Y-31585910D01*
X37653569Y-31798110D01*
X37633294Y-31898231D01*
X37387299Y-32062599D01*
X37222552Y-32309161D01*
X37164700Y-32600000D01*
X37164700Y-40660498D01*
X37038629Y-40786569D01*
X37038859Y-40523218D01*
X36811192Y-39972220D01*
X36389997Y-39550290D01*
X36389069Y-39549905D01*
X36809710Y-39129997D01*
X37038339Y-38579398D01*
X37038859Y-37983218D01*
X36811192Y-37432220D01*
X36389997Y-37010290D01*
X36349463Y-36993459D01*
X36414200Y-36793805D01*
X35540000Y-35919605D01*
X34665800Y-36793805D01*
X34730399Y-36993033D01*
X34692220Y-37008808D01*
X34270290Y-37430003D01*
X34041661Y-37980602D01*
X34041141Y-38576782D01*
X34078354Y-38666844D01*
X33651599Y-39093599D01*
X33486852Y-39340161D01*
X33429000Y-39631000D01*
X33429000Y-58709798D01*
X33341120Y-58797678D01*
X33295633Y-58797638D01*
X32951857Y-58939683D01*
X32688608Y-59202473D01*
X32545962Y-59546001D01*
X32545880Y-59640000D01*
X32276742Y-59640000D01*
X32253162Y-59514683D01*
X32114090Y-59298559D01*
X31901890Y-59153569D01*
X31650000Y-59102560D01*
X30350000Y-59102560D01*
X30114683Y-59146838D01*
X29898559Y-59285910D01*
X29753569Y-59498110D01*
X29709875Y-59713879D01*
X29487299Y-59862599D01*
X27719380Y-61630518D01*
X27686217Y-61567000D01*
X26327000Y-61567000D01*
X26327000Y-61587000D01*
X26073000Y-61587000D01*
X26073000Y-61567000D01*
X24713783Y-61567000D01*
X24592642Y-61799026D01*
X24595291Y-61814791D01*
X24849268Y-62342036D01*
X25258422Y-62707600D01*
X24353700Y-62707600D01*
X24062860Y-62765452D01*
X23816299Y-62930199D01*
X23677161Y-63069337D01*
X23644415Y-63020330D01*
X23334931Y-62813539D01*
X23750732Y-62442036D01*
X24004709Y-61914791D01*
X24007358Y-61899026D01*
X23886217Y-61667000D01*
X22527000Y-61667000D01*
X22527000Y-61687000D01*
X22273000Y-61687000D01*
X22273000Y-61667000D01*
X20913783Y-61667000D01*
X20792642Y-61899026D01*
X20795291Y-61914791D01*
X21049268Y-62442036D01*
X21465069Y-62813539D01*
X21155585Y-63020330D01*
X20830729Y-63506511D01*
X20716655Y-64080000D01*
X20830729Y-64653489D01*
X21155585Y-65139670D01*
X21641766Y-65464526D01*
X22215255Y-65578600D01*
X22584745Y-65578600D01*
X23158234Y-65464526D01*
X23644415Y-65139670D01*
X23860490Y-64816291D01*
X24032139Y-64782148D01*
X24278701Y-64617401D01*
X24582927Y-64313175D01*
X24630729Y-64553489D01*
X24955585Y-65039670D01*
X25270366Y-65250000D01*
X24955585Y-65460330D01*
X24630729Y-65946511D01*
X24516655Y-66520000D01*
X24630729Y-67093489D01*
X24955585Y-67579670D01*
X25270366Y-67790000D01*
X24955585Y-68000330D01*
X24630729Y-68486511D01*
X24516655Y-69060000D01*
X24630729Y-69633489D01*
X24955585Y-70119670D01*
X24969913Y-70129243D01*
X24948683Y-70133238D01*
X24732559Y-70272310D01*
X24587569Y-70484510D01*
X24536560Y-70736400D01*
X24536560Y-72463600D01*
X24580838Y-72698917D01*
X24719910Y-72915041D01*
X24932110Y-73060031D01*
X25184000Y-73111040D01*
X27216000Y-73111040D01*
X27451317Y-73066762D01*
X27667441Y-72927690D01*
X27812431Y-72715490D01*
X27863440Y-72463600D01*
X27863440Y-70736400D01*
X27819162Y-70501083D01*
X27680090Y-70284959D01*
X27467890Y-70139969D01*
X27426561Y-70131600D01*
X27444415Y-70119670D01*
X27769271Y-69633489D01*
X27883345Y-69060000D01*
X27769271Y-68486511D01*
X27444415Y-68000330D01*
X27129634Y-67790000D01*
X27444415Y-67579670D01*
X27769271Y-67093489D01*
X27883345Y-66520000D01*
X27769271Y-65946511D01*
X27444415Y-65460330D01*
X27205937Y-65300984D01*
X30280590Y-65300984D01*
X31000000Y-66020395D01*
X31719410Y-65300984D01*
X31663729Y-65070389D01*
X31180922Y-64902378D01*
X30670572Y-64931917D01*
X30336271Y-65070389D01*
X30280590Y-65300984D01*
X27205937Y-65300984D01*
X27129634Y-65250000D01*
X27444415Y-65039670D01*
X27769271Y-64553489D01*
X27883345Y-63980000D01*
X27791773Y-63519637D01*
X27924439Y-63493248D01*
X28171001Y-63328501D01*
X28200486Y-63299016D01*
X30280590Y-63299016D01*
X30336271Y-63529611D01*
X30819078Y-63697622D01*
X31329428Y-63668083D01*
X31663729Y-63529611D01*
X31719410Y-63299016D01*
X31000000Y-62579605D01*
X30280590Y-63299016D01*
X28200486Y-63299016D01*
X29952537Y-61546965D01*
X29999328Y-61578936D01*
X30100982Y-61680590D01*
X29870389Y-61736271D01*
X29702378Y-62219078D01*
X29731917Y-62729428D01*
X29870389Y-63063729D01*
X30100984Y-63119410D01*
X30820395Y-62400000D01*
X30806252Y-62385858D01*
X30985858Y-62206252D01*
X31000000Y-62220395D01*
X31014142Y-62206252D01*
X31193748Y-62385858D01*
X31179605Y-62400000D01*
X31899016Y-63119410D01*
X32129611Y-63063729D01*
X32297622Y-62580922D01*
X32268083Y-62070572D01*
X32129611Y-61736271D01*
X31899018Y-61680590D01*
X32000680Y-61578928D01*
X32101441Y-61514090D01*
X32246431Y-61301890D01*
X32275164Y-61160000D01*
X35432400Y-61160000D01*
X35723239Y-61102148D01*
X35969801Y-60937401D01*
X36751040Y-60156162D01*
X36751040Y-61298910D01*
X36795318Y-61534227D01*
X36934390Y-61750351D01*
X37036546Y-61820151D01*
X32202539Y-66654159D01*
X32297622Y-66380922D01*
X32268083Y-65870572D01*
X32129611Y-65536271D01*
X31899016Y-65480590D01*
X31179605Y-66200000D01*
X31193748Y-66214142D01*
X31014142Y-66393748D01*
X31000000Y-66379605D01*
X30985858Y-66393748D01*
X30806252Y-66214142D01*
X30820395Y-66200000D01*
X30100984Y-65480590D01*
X29870389Y-65536271D01*
X29702378Y-66019078D01*
X29731917Y-66529428D01*
X29870389Y-66863729D01*
X30100982Y-66919410D01*
X29999320Y-67021072D01*
X29898559Y-67085910D01*
X29753569Y-67298110D01*
X29702560Y-67550000D01*
X29702560Y-68850000D01*
X29746838Y-69085317D01*
X29885910Y-69301441D01*
X30098110Y-69446431D01*
X30350000Y-69497440D01*
X31650000Y-69497440D01*
X31885317Y-69453162D01*
X32101441Y-69314090D01*
X32246431Y-69101890D01*
X32290125Y-68886121D01*
X32512701Y-68737401D01*
X32677448Y-68490839D01*
X32717670Y-68288632D01*
X37753070Y-63253233D01*
X37753070Y-66000450D01*
X37797348Y-66235767D01*
X37936420Y-66451891D01*
X38148620Y-66596881D01*
X38400510Y-66647890D01*
X40399490Y-66647890D01*
X40464008Y-66635750D01*
X46065000Y-66635750D01*
X46065000Y-66976309D01*
X46161673Y-67209698D01*
X46340301Y-67388327D01*
X46573690Y-67485000D01*
X46914250Y-67485000D01*
X47073000Y-67326250D01*
X47073000Y-66477000D01*
X47327000Y-66477000D01*
X47327000Y-67326250D01*
X47485750Y-67485000D01*
X47826310Y-67485000D01*
X48059699Y-67388327D01*
X48238327Y-67209698D01*
X48335000Y-66976309D01*
X48335000Y-66635750D01*
X48176250Y-66477000D01*
X47327000Y-66477000D01*
X47073000Y-66477000D01*
X46223750Y-66477000D01*
X46065000Y-66635750D01*
X40464008Y-66635750D01*
X40634807Y-66603612D01*
X40850931Y-66464540D01*
X40995921Y-66252340D01*
X41046930Y-66000450D01*
X41046930Y-62193805D01*
X42793800Y-62193805D01*
X42875741Y-62446516D01*
X43436030Y-62650248D01*
X44031635Y-62624058D01*
X44460259Y-62446516D01*
X44542200Y-62193805D01*
X43668000Y-61319605D01*
X42793800Y-62193805D01*
X41046930Y-62193805D01*
X41046930Y-61999950D01*
X41036229Y-61943081D01*
X41036649Y-61903598D01*
X41028142Y-61882843D01*
X41028142Y-61775162D01*
X41186890Y-61933910D01*
X41527829Y-61933910D01*
X41761218Y-61837237D01*
X41939847Y-61658609D01*
X42036520Y-61425220D01*
X42036520Y-60908030D01*
X42157752Y-60908030D01*
X42183942Y-61503635D01*
X42361484Y-61932259D01*
X42614195Y-62014200D01*
X43488395Y-61140000D01*
X42614195Y-60265800D01*
X42361484Y-60347741D01*
X42157752Y-60908030D01*
X42036520Y-60908030D01*
X42036520Y-60333710D01*
X41877770Y-60174960D01*
X41028140Y-60174960D01*
X41028140Y-60194960D01*
X40774140Y-60194960D01*
X40774140Y-60174960D01*
X40754140Y-60174960D01*
X40754140Y-60086195D01*
X42793800Y-60086195D01*
X43668000Y-60960395D01*
X44542200Y-60086195D01*
X44460259Y-59833484D01*
X43899970Y-59629752D01*
X43304365Y-59655942D01*
X42875741Y-59833484D01*
X42793800Y-60086195D01*
X40754140Y-60086195D01*
X40754140Y-59920960D01*
X40774140Y-59920960D01*
X40774140Y-58320760D01*
X41028140Y-58320760D01*
X41028140Y-59920960D01*
X41877770Y-59920960D01*
X42036520Y-59762210D01*
X42036520Y-58670700D01*
X41939847Y-58437311D01*
X41761218Y-58258683D01*
X41527829Y-58162010D01*
X41186890Y-58162010D01*
X41028140Y-58320760D01*
X40774140Y-58320760D01*
X40615390Y-58162010D01*
X40274451Y-58162010D01*
X40163241Y-58208075D01*
X40160000Y-58205861D01*
X40160000Y-54735000D01*
X40314250Y-54735000D01*
X40473000Y-54576250D01*
X40473000Y-53477000D01*
X40727000Y-53477000D01*
X40727000Y-54576250D01*
X40885750Y-54735000D01*
X41376310Y-54735000D01*
X41609699Y-54638327D01*
X41788327Y-54459698D01*
X41885000Y-54226309D01*
X41885000Y-53635750D01*
X41726250Y-53477000D01*
X40727000Y-53477000D01*
X40473000Y-53477000D01*
X40453000Y-53477000D01*
X40453000Y-53223000D01*
X40473000Y-53223000D01*
X40473000Y-53203000D01*
X40727000Y-53203000D01*
X40727000Y-53223000D01*
X41726250Y-53223000D01*
X41885000Y-53064250D01*
X41885000Y-52473691D01*
X41788327Y-52240302D01*
X41609699Y-52061673D01*
X41473713Y-52005346D01*
X41485317Y-52003162D01*
X41701441Y-51864090D01*
X41706778Y-51856280D01*
X41963199Y-52112701D01*
X42209761Y-52277448D01*
X42500600Y-52335300D01*
X46150000Y-52335300D01*
X46440839Y-52277448D01*
X46687401Y-52112701D01*
X46688000Y-52111805D01*
X46688000Y-59585198D01*
X46595114Y-59678084D01*
X46507398Y-59641661D01*
X45911218Y-59641141D01*
X45360220Y-59868808D01*
X44938290Y-60290003D01*
X44921459Y-60330537D01*
X44721805Y-60265800D01*
X43847605Y-61140000D01*
X44721805Y-62014200D01*
X44921033Y-61949601D01*
X44936808Y-61987780D01*
X45358003Y-62409710D01*
X45908602Y-62638339D01*
X46321926Y-62638700D01*
X46248559Y-62685910D01*
X46103569Y-62898110D01*
X46052560Y-63150000D01*
X46052560Y-64150000D01*
X46086697Y-64331424D01*
X46052560Y-64500000D01*
X46052560Y-65500000D01*
X46085389Y-65674469D01*
X46065000Y-65723691D01*
X46065000Y-66064250D01*
X46223750Y-66223000D01*
X47073000Y-66223000D01*
X47073000Y-66203000D01*
X47327000Y-66203000D01*
X47327000Y-66223000D01*
X48176250Y-66223000D01*
X48335000Y-66064250D01*
X48335000Y-65934992D01*
X48530467Y-65935162D01*
X48874243Y-65793117D01*
X49137492Y-65530327D01*
X49280138Y-65186799D01*
X49280462Y-64814833D01*
X49138417Y-64471057D01*
X49077466Y-64410000D01*
X50528000Y-64410000D01*
X50528000Y-66386500D01*
X50585852Y-66677339D01*
X50750599Y-66923901D01*
X51886687Y-68059989D01*
X51850000Y-68052560D01*
X50550000Y-68052560D01*
X50314683Y-68096838D01*
X50098559Y-68235910D01*
X49953569Y-68448110D01*
X49904585Y-68690000D01*
X43475300Y-68690000D01*
X43184461Y-68747852D01*
X42937899Y-68912599D01*
X41051777Y-70798721D01*
X41042811Y-70785302D01*
X40577264Y-70474233D01*
X40028113Y-70365000D01*
X39971887Y-70365000D01*
X39422736Y-70474233D01*
X38957189Y-70785302D01*
X38646120Y-71250849D01*
X38536887Y-71800000D01*
X38646120Y-72349151D01*
X38957189Y-72814698D01*
X39361703Y-73084986D01*
X39144866Y-73187611D01*
X38768959Y-73602577D01*
X38608096Y-73990961D01*
X38730085Y-74213000D01*
X39873000Y-74213000D01*
X39873000Y-74193000D01*
X40127000Y-74193000D01*
X40127000Y-74213000D01*
X41269915Y-74213000D01*
X41391904Y-73990961D01*
X41231041Y-73602577D01*
X40855134Y-73187611D01*
X40638297Y-73084986D01*
X41042811Y-72814698D01*
X41226437Y-72539882D01*
X41416139Y-72502148D01*
X41662701Y-72337401D01*
X42200102Y-71800000D01*
X46156887Y-71800000D01*
X46266120Y-72349151D01*
X46577189Y-72814698D01*
X46959275Y-73070000D01*
X46577189Y-73325302D01*
X46266120Y-73790849D01*
X46156887Y-74340000D01*
X46266120Y-74889151D01*
X46577189Y-75354698D01*
X47042736Y-75665767D01*
X47591887Y-75775000D01*
X47648113Y-75775000D01*
X48197264Y-75665767D01*
X48662811Y-75354698D01*
X48973880Y-74889151D01*
X49083113Y-74340000D01*
X48973880Y-73790849D01*
X48662811Y-73325302D01*
X48280725Y-73070000D01*
X48662811Y-72814698D01*
X48973880Y-72349151D01*
X49083113Y-71800000D01*
X48973880Y-71250849D01*
X48662811Y-70785302D01*
X48197264Y-70474233D01*
X47648113Y-70365000D01*
X47591887Y-70365000D01*
X47042736Y-70474233D01*
X46577189Y-70785302D01*
X46266120Y-71250849D01*
X46156887Y-71800000D01*
X42200102Y-71800000D01*
X43790102Y-70210000D01*
X49904442Y-70210000D01*
X49946838Y-70435317D01*
X50085910Y-70651441D01*
X50298110Y-70796431D01*
X50311197Y-70799081D01*
X50098559Y-70935910D01*
X49953569Y-71148110D01*
X49902560Y-71400000D01*
X49902560Y-72900000D01*
X49946838Y-73135317D01*
X50085910Y-73351441D01*
X50298110Y-73496431D01*
X50550000Y-73547440D01*
X51850000Y-73547440D01*
X52085317Y-73503162D01*
X52240988Y-73402990D01*
X53380000Y-74542002D01*
X53380000Y-76355352D01*
X53080330Y-76555585D01*
X53070757Y-76569913D01*
X53066762Y-76548683D01*
X52927690Y-76332559D01*
X52715490Y-76187569D01*
X52463600Y-76136560D01*
X50736400Y-76136560D01*
X50501083Y-76180838D01*
X50284959Y-76319910D01*
X50139969Y-76532110D01*
X50088960Y-76784000D01*
X50088960Y-78816000D01*
X50133238Y-79051317D01*
X50272310Y-79267441D01*
X50305326Y-79290000D01*
X20710000Y-79290000D01*
X20710000Y-74689039D01*
X38608096Y-74689039D01*
X38768959Y-75077423D01*
X39144866Y-75492389D01*
X39650959Y-75731914D01*
X39873000Y-75610629D01*
X39873000Y-74467000D01*
X40127000Y-74467000D01*
X40127000Y-75610629D01*
X40349041Y-75731914D01*
X40855134Y-75492389D01*
X41231041Y-75077423D01*
X41391904Y-74689039D01*
X41269915Y-74467000D01*
X40127000Y-74467000D01*
X39873000Y-74467000D01*
X38730085Y-74467000D01*
X38608096Y-74689039D01*
X20710000Y-74689039D01*
X20710000Y-58136400D01*
X20736560Y-58136400D01*
X20736560Y-59863600D01*
X20780838Y-60098917D01*
X20919910Y-60315041D01*
X21132110Y-60460031D01*
X21226927Y-60479232D01*
X21049268Y-60637964D01*
X20795291Y-61165209D01*
X20792642Y-61180974D01*
X20913783Y-61413000D01*
X22273000Y-61413000D01*
X22273000Y-61393000D01*
X22527000Y-61393000D01*
X22527000Y-61413000D01*
X23886217Y-61413000D01*
X24007358Y-61180974D01*
X24004709Y-61165209D01*
X23750732Y-60637964D01*
X23575155Y-60481093D01*
X23651317Y-60466762D01*
X23867441Y-60327690D01*
X24012431Y-60115490D01*
X24063440Y-59863600D01*
X24063440Y-58900000D01*
X24516655Y-58900000D01*
X24630729Y-59473489D01*
X24955585Y-59959670D01*
X25265069Y-60166461D01*
X24849268Y-60537964D01*
X24595291Y-61065209D01*
X24592642Y-61080974D01*
X24713783Y-61313000D01*
X26073000Y-61313000D01*
X26073000Y-61293000D01*
X26327000Y-61293000D01*
X26327000Y-61313000D01*
X27686217Y-61313000D01*
X27807358Y-61080974D01*
X27804709Y-61065209D01*
X27550732Y-60537964D01*
X27134931Y-60166461D01*
X27444415Y-59959670D01*
X27769271Y-59473489D01*
X27883345Y-58900000D01*
X27769271Y-58326511D01*
X27444415Y-57840330D01*
X26958234Y-57515474D01*
X26384745Y-57401400D01*
X26015255Y-57401400D01*
X25441766Y-57515474D01*
X24955585Y-57840330D01*
X24630729Y-58326511D01*
X24516655Y-58900000D01*
X24063440Y-58900000D01*
X24063440Y-58136400D01*
X24019162Y-57901083D01*
X23880090Y-57684959D01*
X23667890Y-57539969D01*
X23416000Y-57488960D01*
X21384000Y-57488960D01*
X21148683Y-57533238D01*
X20932559Y-57672310D01*
X20787569Y-57884510D01*
X20736560Y-58136400D01*
X20710000Y-58136400D01*
X20710000Y-56101532D01*
X21123587Y-56273268D01*
X21654086Y-56273731D01*
X22144380Y-56071146D01*
X22519827Y-55696353D01*
X22723268Y-55206413D01*
X22723270Y-55204086D01*
X27676269Y-55204086D01*
X27878854Y-55694380D01*
X28253647Y-56069827D01*
X28743587Y-56273268D01*
X29274086Y-56273731D01*
X29764380Y-56071146D01*
X30139827Y-55696353D01*
X30343268Y-55206413D01*
X30343731Y-54675914D01*
X30141146Y-54185620D01*
X29766353Y-53810173D01*
X29276413Y-53606732D01*
X28745914Y-53606269D01*
X28255620Y-53808854D01*
X27880173Y-54183647D01*
X27676732Y-54673587D01*
X27676269Y-55204086D01*
X22723270Y-55204086D01*
X22723731Y-54675914D01*
X22521146Y-54185620D01*
X22146353Y-53810173D01*
X21656413Y-53606732D01*
X21125914Y-53606269D01*
X20710000Y-53778121D01*
X20710000Y-51034351D01*
X21197480Y-51205927D01*
X21727199Y-51177148D01*
X22082929Y-51029800D01*
X22144583Y-50794188D01*
X28255417Y-50794188D01*
X28317071Y-51029800D01*
X28817480Y-51205927D01*
X29347199Y-51177148D01*
X29702929Y-51029800D01*
X29764583Y-50794188D01*
X29010000Y-50039605D01*
X28255417Y-50794188D01*
X22144583Y-50794188D01*
X21390000Y-50039605D01*
X21375858Y-50053748D01*
X21196253Y-49874143D01*
X21210395Y-49860000D01*
X21569605Y-49860000D01*
X22324188Y-50614583D01*
X22559800Y-50552929D01*
X22735927Y-50052520D01*
X22715009Y-49667480D01*
X27664073Y-49667480D01*
X27692852Y-50197199D01*
X27840200Y-50552929D01*
X28075812Y-50614583D01*
X28830395Y-49860000D01*
X29189605Y-49860000D01*
X29944188Y-50614583D01*
X30179800Y-50552929D01*
X30355927Y-50052520D01*
X30327148Y-49522801D01*
X30179800Y-49167071D01*
X29944188Y-49105417D01*
X29189605Y-49860000D01*
X28830395Y-49860000D01*
X28075812Y-49105417D01*
X27840200Y-49167071D01*
X27664073Y-49667480D01*
X22715009Y-49667480D01*
X22707148Y-49522801D01*
X22559800Y-49167071D01*
X22324188Y-49105417D01*
X21569605Y-49860000D01*
X21210395Y-49860000D01*
X21196253Y-49845858D01*
X21375858Y-49666253D01*
X21390000Y-49680395D01*
X22144583Y-48925812D01*
X28255417Y-48925812D01*
X29010000Y-49680395D01*
X29764583Y-48925812D01*
X29702929Y-48690200D01*
X29202520Y-48514073D01*
X28672801Y-48542852D01*
X28317071Y-48690200D01*
X28255417Y-48925812D01*
X22144583Y-48925812D01*
X22082929Y-48690200D01*
X21582520Y-48514073D01*
X21052801Y-48542852D01*
X20710000Y-48684845D01*
X20710000Y-47714351D01*
X21197480Y-47885927D01*
X21727199Y-47857148D01*
X22082929Y-47709800D01*
X22144583Y-47474188D01*
X28255417Y-47474188D01*
X28317071Y-47709800D01*
X28817480Y-47885927D01*
X29347199Y-47857148D01*
X29702929Y-47709800D01*
X29764583Y-47474188D01*
X29010000Y-46719605D01*
X28255417Y-47474188D01*
X22144583Y-47474188D01*
X21390000Y-46719605D01*
X21375858Y-46733748D01*
X21196253Y-46554143D01*
X21210395Y-46540000D01*
X21569605Y-46540000D01*
X22324188Y-47294583D01*
X22559800Y-47232929D01*
X22735927Y-46732520D01*
X22715009Y-46347480D01*
X27664073Y-46347480D01*
X27692852Y-46877199D01*
X27840200Y-47232929D01*
X28075812Y-47294583D01*
X28830395Y-46540000D01*
X29189605Y-46540000D01*
X29944188Y-47294583D01*
X30179800Y-47232929D01*
X30355927Y-46732520D01*
X30327148Y-46202801D01*
X30179800Y-45847071D01*
X29944188Y-45785417D01*
X29189605Y-46540000D01*
X28830395Y-46540000D01*
X28075812Y-45785417D01*
X27840200Y-45847071D01*
X27664073Y-46347480D01*
X22715009Y-46347480D01*
X22707148Y-46202801D01*
X22559800Y-45847071D01*
X22324188Y-45785417D01*
X21569605Y-46540000D01*
X21210395Y-46540000D01*
X21196253Y-46525858D01*
X21375858Y-46346253D01*
X21390000Y-46360395D01*
X22144583Y-45605812D01*
X28255417Y-45605812D01*
X29010000Y-46360395D01*
X29764583Y-45605812D01*
X29702929Y-45370200D01*
X29202520Y-45194073D01*
X28672801Y-45222852D01*
X28317071Y-45370200D01*
X28255417Y-45605812D01*
X22144583Y-45605812D01*
X22082929Y-45370200D01*
X21582520Y-45194073D01*
X21052801Y-45222852D01*
X20710000Y-45364845D01*
X20710000Y-42621532D01*
X21123587Y-42793268D01*
X21654086Y-42793731D01*
X22144380Y-42591146D01*
X22519827Y-42216353D01*
X22723268Y-41726413D01*
X22723270Y-41724086D01*
X27676269Y-41724086D01*
X27878854Y-42214380D01*
X28253647Y-42589827D01*
X28743587Y-42793268D01*
X29274086Y-42793731D01*
X29764380Y-42591146D01*
X30139827Y-42216353D01*
X30343268Y-41726413D01*
X30343731Y-41195914D01*
X30141146Y-40705620D01*
X29766353Y-40330173D01*
X29276413Y-40126732D01*
X28745914Y-40126269D01*
X28255620Y-40328854D01*
X27880173Y-40703647D01*
X27676732Y-41193587D01*
X27676269Y-41724086D01*
X22723270Y-41724086D01*
X22723731Y-41195914D01*
X22521146Y-40705620D01*
X22146353Y-40330173D01*
X21656413Y-40126732D01*
X21125914Y-40126269D01*
X20710000Y-40298121D01*
X20710000Y-35508030D01*
X34029752Y-35508030D01*
X34055942Y-36103635D01*
X34233484Y-36532259D01*
X34486195Y-36614200D01*
X35360395Y-35740000D01*
X35719605Y-35740000D01*
X36593805Y-36614200D01*
X36846516Y-36532259D01*
X37050248Y-35971970D01*
X37024058Y-35376365D01*
X36846516Y-34947741D01*
X36593805Y-34865800D01*
X35719605Y-35740000D01*
X35360395Y-35740000D01*
X34486195Y-34865800D01*
X34233484Y-34947741D01*
X34029752Y-35508030D01*
X20710000Y-35508030D01*
X20710000Y-33373305D01*
X21314674Y-33373305D01*
X21601043Y-34066372D01*
X22130839Y-34597093D01*
X22823405Y-34884672D01*
X23573305Y-34885326D01*
X24266372Y-34598957D01*
X24612126Y-34253805D01*
X34665800Y-34253805D01*
X34735901Y-34470000D01*
X34665800Y-34686195D01*
X35540000Y-35560395D01*
X36414200Y-34686195D01*
X36344099Y-34470000D01*
X36414200Y-34253805D01*
X35540000Y-33379605D01*
X34665800Y-34253805D01*
X24612126Y-34253805D01*
X24797093Y-34069161D01*
X25084672Y-33376595D01*
X25085028Y-32968030D01*
X34029752Y-32968030D01*
X34055942Y-33563635D01*
X34233484Y-33992259D01*
X34486195Y-34074200D01*
X35360395Y-33200000D01*
X35719605Y-33200000D01*
X36593805Y-34074200D01*
X36846516Y-33992259D01*
X37050248Y-33431970D01*
X37024058Y-32836365D01*
X36846516Y-32407741D01*
X36593805Y-32325800D01*
X35719605Y-33200000D01*
X35360395Y-33200000D01*
X34486195Y-32325800D01*
X34233484Y-32407741D01*
X34029752Y-32968030D01*
X25085028Y-32968030D01*
X25085326Y-32626695D01*
X24886788Y-32146195D01*
X34665800Y-32146195D01*
X35540000Y-33020395D01*
X36414200Y-32146195D01*
X36332259Y-31893484D01*
X35771970Y-31689752D01*
X35176365Y-31715942D01*
X34747741Y-31893484D01*
X34665800Y-32146195D01*
X24886788Y-32146195D01*
X24798957Y-31933628D01*
X24269161Y-31402907D01*
X23576595Y-31115328D01*
X22826695Y-31114674D01*
X22133628Y-31401043D01*
X21602907Y-31930839D01*
X21315328Y-32623405D01*
X21314674Y-33373305D01*
X20710000Y-33373305D01*
X20710000Y-30710000D01*
X62306807Y-30710000D01*
X62187569Y-30884510D01*
X62187569Y-30884510D01*
G37*
X62187569Y-30884510D02*
X62136560Y-31136400D01*
X62136560Y-32863600D01*
X62180838Y-33098917D01*
X62319910Y-33315041D01*
X62532110Y-33460031D01*
X62626927Y-33479232D01*
X62449268Y-33637964D01*
X62195291Y-34165209D01*
X62192642Y-34180974D01*
X62313783Y-34413000D01*
X63673000Y-34413000D01*
X63673000Y-34393000D01*
X63927000Y-34393000D01*
X63927000Y-34413000D01*
X65286217Y-34413000D01*
X65407358Y-34180974D01*
X65404709Y-34165209D01*
X65150732Y-33637964D01*
X64975155Y-33481093D01*
X65051317Y-33466762D01*
X65267441Y-33327690D01*
X65412431Y-33115490D01*
X65463440Y-32863600D01*
X65463440Y-31136400D01*
X65419162Y-30901083D01*
X65296203Y-30710000D01*
X66306807Y-30710000D01*
X66187569Y-30884510D01*
X66136560Y-31136400D01*
X66136560Y-32863600D01*
X66180838Y-33098917D01*
X66319910Y-33315041D01*
X66532110Y-33460031D01*
X66573439Y-33468400D01*
X66555585Y-33480330D01*
X66230729Y-33966511D01*
X66116655Y-34540000D01*
X66201968Y-34968900D01*
X65378644Y-34968900D01*
X65404709Y-34914791D01*
X65407358Y-34899026D01*
X65286217Y-34667000D01*
X63927000Y-34667000D01*
X63927000Y-34687000D01*
X63673000Y-34687000D01*
X63673000Y-34667000D01*
X62313783Y-34667000D01*
X62192642Y-34899026D01*
X62195291Y-34914791D01*
X62449268Y-35442036D01*
X62865069Y-35813539D01*
X62555585Y-36020330D01*
X62230729Y-36506511D01*
X62116655Y-37080000D01*
X62132606Y-37160192D01*
X60452798Y-38840000D01*
X59790127Y-38840000D01*
X59898339Y-38579398D01*
X59898859Y-37983218D01*
X59671192Y-37432220D01*
X59249997Y-37010290D01*
X59249069Y-37009905D01*
X59669710Y-36589997D01*
X59898339Y-36039398D01*
X59898859Y-35443218D01*
X59671192Y-34892220D01*
X59249997Y-34470290D01*
X59249069Y-34469905D01*
X59669710Y-34049997D01*
X59898339Y-33499398D01*
X59898859Y-32903218D01*
X59671192Y-32352220D01*
X59249997Y-31930290D01*
X58699398Y-31701661D01*
X58103218Y-31701141D01*
X57552220Y-31928808D01*
X57130290Y-32350003D01*
X56901661Y-32900602D01*
X56901141Y-33496782D01*
X57128808Y-34047780D01*
X57550003Y-34469710D01*
X57550931Y-34470095D01*
X57130290Y-34890003D01*
X56901661Y-35440602D01*
X56901141Y-36036782D01*
X57128808Y-36587780D01*
X57550003Y-37009710D01*
X57550931Y-37010095D01*
X57130290Y-37430003D01*
X56901661Y-37980602D01*
X56901141Y-38576782D01*
X57009900Y-38840000D01*
X56774190Y-38840000D01*
X56821929Y-38600000D01*
X56731726Y-38146520D01*
X56474851Y-37762078D01*
X56232283Y-37600000D01*
X56474851Y-37437922D01*
X56731726Y-37053480D01*
X56821929Y-36600000D01*
X56731726Y-36146520D01*
X56474851Y-35762078D01*
X56232283Y-35600000D01*
X56474851Y-35437922D01*
X56731726Y-35053480D01*
X56821929Y-34600000D01*
X56731726Y-34146520D01*
X56474851Y-33762078D01*
X56232283Y-33600000D01*
X56474851Y-33437922D01*
X56731726Y-33053480D01*
X56821929Y-32600000D01*
X56731726Y-32146520D01*
X56474851Y-31762078D01*
X56090409Y-31505203D01*
X55636929Y-31415000D01*
X54163071Y-31415000D01*
X53709591Y-31505203D01*
X53325149Y-31762078D01*
X53265171Y-31851841D01*
X53033861Y-31897852D01*
X52787299Y-32062599D01*
X46910599Y-37939299D01*
X46745852Y-38185861D01*
X46688000Y-38476700D01*
X46688000Y-49302560D01*
X45400000Y-49302560D01*
X45285400Y-49324124D01*
X45285400Y-38050100D01*
X45230590Y-37774552D01*
X45227548Y-37759260D01*
X45062801Y-37512699D01*
X41612701Y-34062599D01*
X41366139Y-33897852D01*
X41134829Y-33851841D01*
X41074851Y-33762078D01*
X41024129Y-33728187D01*
X41201441Y-33614090D01*
X41346431Y-33401890D01*
X41397440Y-33150000D01*
X41397440Y-32050000D01*
X41353162Y-31814683D01*
X41214090Y-31598559D01*
X41001890Y-31453569D01*
X40750000Y-31402560D01*
X38250000Y-31402560D01*
X38014683Y-31446838D01*
X37798559Y-31585910D01*
X37653569Y-31798110D01*
X37633294Y-31898231D01*
X37387299Y-32062599D01*
X37222552Y-32309161D01*
X37164700Y-32600000D01*
X37164700Y-40660498D01*
X37038629Y-40786569D01*
X37038859Y-40523218D01*
X36811192Y-39972220D01*
X36389997Y-39550290D01*
X36389069Y-39549905D01*
X36809710Y-39129997D01*
X37038339Y-38579398D01*
X37038859Y-37983218D01*
X36811192Y-37432220D01*
X36389997Y-37010290D01*
X36349463Y-36993459D01*
X36414200Y-36793805D01*
X35540000Y-35919605D01*
X34665800Y-36793805D01*
X34730399Y-36993033D01*
X34692220Y-37008808D01*
X34270290Y-37430003D01*
X34041661Y-37980602D01*
X34041141Y-38576782D01*
X34078354Y-38666844D01*
X33651599Y-39093599D01*
X33486852Y-39340161D01*
X33429000Y-39631000D01*
X33429000Y-58709798D01*
X33341120Y-58797678D01*
X33295633Y-58797638D01*
X32951857Y-58939683D01*
X32688608Y-59202473D01*
X32545962Y-59546001D01*
X32545880Y-59640000D01*
X32276742Y-59640000D01*
X32253162Y-59514683D01*
X32114090Y-59298559D01*
X31901890Y-59153569D01*
X31650000Y-59102560D01*
X30350000Y-59102560D01*
X30114683Y-59146838D01*
X29898559Y-59285910D01*
X29753569Y-59498110D01*
X29709875Y-59713879D01*
X29487299Y-59862599D01*
X27719380Y-61630518D01*
X27686217Y-61567000D01*
X26327000Y-61567000D01*
X26327000Y-61587000D01*
X26073000Y-61587000D01*
X26073000Y-61567000D01*
X24713783Y-61567000D01*
X24592642Y-61799026D01*
X24595291Y-61814791D01*
X24849268Y-62342036D01*
X25258422Y-62707600D01*
X24353700Y-62707600D01*
X24062860Y-62765452D01*
X23816299Y-62930199D01*
X23677161Y-63069337D01*
X23644415Y-63020330D01*
X23334931Y-62813539D01*
X23750732Y-62442036D01*
X24004709Y-61914791D01*
X24007358Y-61899026D01*
X23886217Y-61667000D01*
X22527000Y-61667000D01*
X22527000Y-61687000D01*
X22273000Y-61687000D01*
X22273000Y-61667000D01*
X20913783Y-61667000D01*
X20792642Y-61899026D01*
X20795291Y-61914791D01*
X21049268Y-62442036D01*
X21465069Y-62813539D01*
X21155585Y-63020330D01*
X20830729Y-63506511D01*
X20716655Y-64080000D01*
X20830729Y-64653489D01*
X21155585Y-65139670D01*
X21641766Y-65464526D01*
X22215255Y-65578600D01*
X22584745Y-65578600D01*
X23158234Y-65464526D01*
X23644415Y-65139670D01*
X23860490Y-64816291D01*
X24032139Y-64782148D01*
X24278701Y-64617401D01*
X24582927Y-64313175D01*
X24630729Y-64553489D01*
X24955585Y-65039670D01*
X25270366Y-65250000D01*
X24955585Y-65460330D01*
X24630729Y-65946511D01*
X24516655Y-66520000D01*
X24630729Y-67093489D01*
X24955585Y-67579670D01*
X25270366Y-67790000D01*
X24955585Y-68000330D01*
X24630729Y-68486511D01*
X24516655Y-69060000D01*
X24630729Y-69633489D01*
X24955585Y-70119670D01*
X24969913Y-70129243D01*
X24948683Y-70133238D01*
X24732559Y-70272310D01*
X24587569Y-70484510D01*
X24536560Y-70736400D01*
X24536560Y-72463600D01*
X24580838Y-72698917D01*
X24719910Y-72915041D01*
X24932110Y-73060031D01*
X25184000Y-73111040D01*
X27216000Y-73111040D01*
X27451317Y-73066762D01*
X27667441Y-72927690D01*
X27812431Y-72715490D01*
X27863440Y-72463600D01*
X27863440Y-70736400D01*
X27819162Y-70501083D01*
X27680090Y-70284959D01*
X27467890Y-70139969D01*
X27426561Y-70131600D01*
X27444415Y-70119670D01*
X27769271Y-69633489D01*
X27883345Y-69060000D01*
X27769271Y-68486511D01*
X27444415Y-68000330D01*
X27129634Y-67790000D01*
X27444415Y-67579670D01*
X27769271Y-67093489D01*
X27883345Y-66520000D01*
X27769271Y-65946511D01*
X27444415Y-65460330D01*
X27205937Y-65300984D01*
X30280590Y-65300984D01*
X31000000Y-66020395D01*
X31719410Y-65300984D01*
X31663729Y-65070389D01*
X31180922Y-64902378D01*
X30670572Y-64931917D01*
X30336271Y-65070389D01*
X30280590Y-65300984D01*
X27205937Y-65300984D01*
X27129634Y-65250000D01*
X27444415Y-65039670D01*
X27769271Y-64553489D01*
X27883345Y-63980000D01*
X27791773Y-63519637D01*
X27924439Y-63493248D01*
X28171001Y-63328501D01*
X28200486Y-63299016D01*
X30280590Y-63299016D01*
X30336271Y-63529611D01*
X30819078Y-63697622D01*
X31329428Y-63668083D01*
X31663729Y-63529611D01*
X31719410Y-63299016D01*
X31000000Y-62579605D01*
X30280590Y-63299016D01*
X28200486Y-63299016D01*
X29952537Y-61546965D01*
X29999328Y-61578936D01*
X30100982Y-61680590D01*
X29870389Y-61736271D01*
X29702378Y-62219078D01*
X29731917Y-62729428D01*
X29870389Y-63063729D01*
X30100984Y-63119410D01*
X30820395Y-62400000D01*
X30806252Y-62385858D01*
X30985858Y-62206252D01*
X31000000Y-62220395D01*
X31014142Y-62206252D01*
X31193748Y-62385858D01*
X31179605Y-62400000D01*
X31899016Y-63119410D01*
X32129611Y-63063729D01*
X32297622Y-62580922D01*
X32268083Y-62070572D01*
X32129611Y-61736271D01*
X31899018Y-61680590D01*
X32000680Y-61578928D01*
X32101441Y-61514090D01*
X32246431Y-61301890D01*
X32275164Y-61160000D01*
X35432400Y-61160000D01*
X35723239Y-61102148D01*
X35969801Y-60937401D01*
X36751040Y-60156162D01*
X36751040Y-61298910D01*
X36795318Y-61534227D01*
X36934390Y-61750351D01*
X37036546Y-61820151D01*
X32202539Y-66654159D01*
X32297622Y-66380922D01*
X32268083Y-65870572D01*
X32129611Y-65536271D01*
X31899016Y-65480590D01*
X31179605Y-66200000D01*
X31193748Y-66214142D01*
X31014142Y-66393748D01*
X31000000Y-66379605D01*
X30985858Y-66393748D01*
X30806252Y-66214142D01*
X30820395Y-66200000D01*
X30100984Y-65480590D01*
X29870389Y-65536271D01*
X29702378Y-66019078D01*
X29731917Y-66529428D01*
X29870389Y-66863729D01*
X30100982Y-66919410D01*
X29999320Y-67021072D01*
X29898559Y-67085910D01*
X29753569Y-67298110D01*
X29702560Y-67550000D01*
X29702560Y-68850000D01*
X29746838Y-69085317D01*
X29885910Y-69301441D01*
X30098110Y-69446431D01*
X30350000Y-69497440D01*
X31650000Y-69497440D01*
X31885317Y-69453162D01*
X32101441Y-69314090D01*
X32246431Y-69101890D01*
X32290125Y-68886121D01*
X32512701Y-68737401D01*
X32677448Y-68490839D01*
X32717670Y-68288632D01*
X37753070Y-63253233D01*
X37753070Y-66000450D01*
X37797348Y-66235767D01*
X37936420Y-66451891D01*
X38148620Y-66596881D01*
X38400510Y-66647890D01*
X40399490Y-66647890D01*
X40464008Y-66635750D01*
X46065000Y-66635750D01*
X46065000Y-66976309D01*
X46161673Y-67209698D01*
X46340301Y-67388327D01*
X46573690Y-67485000D01*
X46914250Y-67485000D01*
X47073000Y-67326250D01*
X47073000Y-66477000D01*
X47327000Y-66477000D01*
X47327000Y-67326250D01*
X47485750Y-67485000D01*
X47826310Y-67485000D01*
X48059699Y-67388327D01*
X48238327Y-67209698D01*
X48335000Y-66976309D01*
X48335000Y-66635750D01*
X48176250Y-66477000D01*
X47327000Y-66477000D01*
X47073000Y-66477000D01*
X46223750Y-66477000D01*
X46065000Y-66635750D01*
X40464008Y-66635750D01*
X40634807Y-66603612D01*
X40850931Y-66464540D01*
X40995921Y-66252340D01*
X41046930Y-66000450D01*
X41046930Y-62193805D01*
X42793800Y-62193805D01*
X42875741Y-62446516D01*
X43436030Y-62650248D01*
X44031635Y-62624058D01*
X44460259Y-62446516D01*
X44542200Y-62193805D01*
X43668000Y-61319605D01*
X42793800Y-62193805D01*
X41046930Y-62193805D01*
X41046930Y-61999950D01*
X41036229Y-61943081D01*
X41036649Y-61903598D01*
X41028142Y-61882843D01*
X41028142Y-61775162D01*
X41186890Y-61933910D01*
X41527829Y-61933910D01*
X41761218Y-61837237D01*
X41939847Y-61658609D01*
X42036520Y-61425220D01*
X42036520Y-60908030D01*
X42157752Y-60908030D01*
X42183942Y-61503635D01*
X42361484Y-61932259D01*
X42614195Y-62014200D01*
X43488395Y-61140000D01*
X42614195Y-60265800D01*
X42361484Y-60347741D01*
X42157752Y-60908030D01*
X42036520Y-60908030D01*
X42036520Y-60333710D01*
X41877770Y-60174960D01*
X41028140Y-60174960D01*
X41028140Y-60194960D01*
X40774140Y-60194960D01*
X40774140Y-60174960D01*
X40754140Y-60174960D01*
X40754140Y-60086195D01*
X42793800Y-60086195D01*
X43668000Y-60960395D01*
X44542200Y-60086195D01*
X44460259Y-59833484D01*
X43899970Y-59629752D01*
X43304365Y-59655942D01*
X42875741Y-59833484D01*
X42793800Y-60086195D01*
X40754140Y-60086195D01*
X40754140Y-59920960D01*
X40774140Y-59920960D01*
X40774140Y-58320760D01*
X41028140Y-58320760D01*
X41028140Y-59920960D01*
X41877770Y-59920960D01*
X42036520Y-59762210D01*
X42036520Y-58670700D01*
X41939847Y-58437311D01*
X41761218Y-58258683D01*
X41527829Y-58162010D01*
X41186890Y-58162010D01*
X41028140Y-58320760D01*
X40774140Y-58320760D01*
X40615390Y-58162010D01*
X40274451Y-58162010D01*
X40163241Y-58208075D01*
X40160000Y-58205861D01*
X40160000Y-54735000D01*
X40314250Y-54735000D01*
X40473000Y-54576250D01*
X40473000Y-53477000D01*
X40727000Y-53477000D01*
X40727000Y-54576250D01*
X40885750Y-54735000D01*
X41376310Y-54735000D01*
X41609699Y-54638327D01*
X41788327Y-54459698D01*
X41885000Y-54226309D01*
X41885000Y-53635750D01*
X41726250Y-53477000D01*
X40727000Y-53477000D01*
X40473000Y-53477000D01*
X40453000Y-53477000D01*
X40453000Y-53223000D01*
X40473000Y-53223000D01*
X40473000Y-53203000D01*
X40727000Y-53203000D01*
X40727000Y-53223000D01*
X41726250Y-53223000D01*
X41885000Y-53064250D01*
X41885000Y-52473691D01*
X41788327Y-52240302D01*
X41609699Y-52061673D01*
X41473713Y-52005346D01*
X41485317Y-52003162D01*
X41701441Y-51864090D01*
X41706778Y-51856280D01*
X41963199Y-52112701D01*
X42209761Y-52277448D01*
X42500600Y-52335300D01*
X46150000Y-52335300D01*
X46440839Y-52277448D01*
X46687401Y-52112701D01*
X46688000Y-52111805D01*
X46688000Y-59585198D01*
X46595114Y-59678084D01*
X46507398Y-59641661D01*
X45911218Y-59641141D01*
X45360220Y-59868808D01*
X44938290Y-60290003D01*
X44921459Y-60330537D01*
X44721805Y-60265800D01*
X43847605Y-61140000D01*
X44721805Y-62014200D01*
X44921033Y-61949601D01*
X44936808Y-61987780D01*
X45358003Y-62409710D01*
X45908602Y-62638339D01*
X46321926Y-62638700D01*
X46248559Y-62685910D01*
X46103569Y-62898110D01*
X46052560Y-63150000D01*
X46052560Y-64150000D01*
X46086697Y-64331424D01*
X46052560Y-64500000D01*
X46052560Y-65500000D01*
X46085389Y-65674469D01*
X46065000Y-65723691D01*
X46065000Y-66064250D01*
X46223750Y-66223000D01*
X47073000Y-66223000D01*
X47073000Y-66203000D01*
X47327000Y-66203000D01*
X47327000Y-66223000D01*
X48176250Y-66223000D01*
X48335000Y-66064250D01*
X48335000Y-65934992D01*
X48530467Y-65935162D01*
X48874243Y-65793117D01*
X49137492Y-65530327D01*
X49280138Y-65186799D01*
X49280462Y-64814833D01*
X49138417Y-64471057D01*
X49077466Y-64410000D01*
X50528000Y-64410000D01*
X50528000Y-66386500D01*
X50585852Y-66677339D01*
X50750599Y-66923901D01*
X51886687Y-68059989D01*
X51850000Y-68052560D01*
X50550000Y-68052560D01*
X50314683Y-68096838D01*
X50098559Y-68235910D01*
X49953569Y-68448110D01*
X49904585Y-68690000D01*
X43475300Y-68690000D01*
X43184461Y-68747852D01*
X42937899Y-68912599D01*
X41051777Y-70798721D01*
X41042811Y-70785302D01*
X40577264Y-70474233D01*
X40028113Y-70365000D01*
X39971887Y-70365000D01*
X39422736Y-70474233D01*
X38957189Y-70785302D01*
X38646120Y-71250849D01*
X38536887Y-71800000D01*
X38646120Y-72349151D01*
X38957189Y-72814698D01*
X39361703Y-73084986D01*
X39144866Y-73187611D01*
X38768959Y-73602577D01*
X38608096Y-73990961D01*
X38730085Y-74213000D01*
X39873000Y-74213000D01*
X39873000Y-74193000D01*
X40127000Y-74193000D01*
X40127000Y-74213000D01*
X41269915Y-74213000D01*
X41391904Y-73990961D01*
X41231041Y-73602577D01*
X40855134Y-73187611D01*
X40638297Y-73084986D01*
X41042811Y-72814698D01*
X41226437Y-72539882D01*
X41416139Y-72502148D01*
X41662701Y-72337401D01*
X42200102Y-71800000D01*
X46156887Y-71800000D01*
X46266120Y-72349151D01*
X46577189Y-72814698D01*
X46959275Y-73070000D01*
X46577189Y-73325302D01*
X46266120Y-73790849D01*
X46156887Y-74340000D01*
X46266120Y-74889151D01*
X46577189Y-75354698D01*
X47042736Y-75665767D01*
X47591887Y-75775000D01*
X47648113Y-75775000D01*
X48197264Y-75665767D01*
X48662811Y-75354698D01*
X48973880Y-74889151D01*
X49083113Y-74340000D01*
X48973880Y-73790849D01*
X48662811Y-73325302D01*
X48280725Y-73070000D01*
X48662811Y-72814698D01*
X48973880Y-72349151D01*
X49083113Y-71800000D01*
X48973880Y-71250849D01*
X48662811Y-70785302D01*
X48197264Y-70474233D01*
X47648113Y-70365000D01*
X47591887Y-70365000D01*
X47042736Y-70474233D01*
X46577189Y-70785302D01*
X46266120Y-71250849D01*
X46156887Y-71800000D01*
X42200102Y-71800000D01*
X43790102Y-70210000D01*
X49904442Y-70210000D01*
X49946838Y-70435317D01*
X50085910Y-70651441D01*
X50298110Y-70796431D01*
X50311197Y-70799081D01*
X50098559Y-70935910D01*
X49953569Y-71148110D01*
X49902560Y-71400000D01*
X49902560Y-72900000D01*
X49946838Y-73135317D01*
X50085910Y-73351441D01*
X50298110Y-73496431D01*
X50550000Y-73547440D01*
X51850000Y-73547440D01*
X52085317Y-73503162D01*
X52240988Y-73402990D01*
X53380000Y-74542002D01*
X53380000Y-76355352D01*
X53080330Y-76555585D01*
X53070757Y-76569913D01*
X53066762Y-76548683D01*
X52927690Y-76332559D01*
X52715490Y-76187569D01*
X52463600Y-76136560D01*
X50736400Y-76136560D01*
X50501083Y-76180838D01*
X50284959Y-76319910D01*
X50139969Y-76532110D01*
X50088960Y-76784000D01*
X50088960Y-78816000D01*
X50133238Y-79051317D01*
X50272310Y-79267441D01*
X50305326Y-79290000D01*
X20710000Y-79290000D01*
X20710000Y-74689039D01*
X38608096Y-74689039D01*
X38768959Y-75077423D01*
X39144866Y-75492389D01*
X39650959Y-75731914D01*
X39873000Y-75610629D01*
X39873000Y-74467000D01*
X40127000Y-74467000D01*
X40127000Y-75610629D01*
X40349041Y-75731914D01*
X40855134Y-75492389D01*
X41231041Y-75077423D01*
X41391904Y-74689039D01*
X41269915Y-74467000D01*
X40127000Y-74467000D01*
X39873000Y-74467000D01*
X38730085Y-74467000D01*
X38608096Y-74689039D01*
X20710000Y-74689039D01*
X20710000Y-58136400D01*
X20736560Y-58136400D01*
X20736560Y-59863600D01*
X20780838Y-60098917D01*
X20919910Y-60315041D01*
X21132110Y-60460031D01*
X21226927Y-60479232D01*
X21049268Y-60637964D01*
X20795291Y-61165209D01*
X20792642Y-61180974D01*
X20913783Y-61413000D01*
X22273000Y-61413000D01*
X22273000Y-61393000D01*
X22527000Y-61393000D01*
X22527000Y-61413000D01*
X23886217Y-61413000D01*
X24007358Y-61180974D01*
X24004709Y-61165209D01*
X23750732Y-60637964D01*
X23575155Y-60481093D01*
X23651317Y-60466762D01*
X23867441Y-60327690D01*
X24012431Y-60115490D01*
X24063440Y-59863600D01*
X24063440Y-58900000D01*
X24516655Y-58900000D01*
X24630729Y-59473489D01*
X24955585Y-59959670D01*
X25265069Y-60166461D01*
X24849268Y-60537964D01*
X24595291Y-61065209D01*
X24592642Y-61080974D01*
X24713783Y-61313000D01*
X26073000Y-61313000D01*
X26073000Y-61293000D01*
X26327000Y-61293000D01*
X26327000Y-61313000D01*
X27686217Y-61313000D01*
X27807358Y-61080974D01*
X27804709Y-61065209D01*
X27550732Y-60537964D01*
X27134931Y-60166461D01*
X27444415Y-59959670D01*
X27769271Y-59473489D01*
X27883345Y-58900000D01*
X27769271Y-58326511D01*
X27444415Y-57840330D01*
X26958234Y-57515474D01*
X26384745Y-57401400D01*
X26015255Y-57401400D01*
X25441766Y-57515474D01*
X24955585Y-57840330D01*
X24630729Y-58326511D01*
X24516655Y-58900000D01*
X24063440Y-58900000D01*
X24063440Y-58136400D01*
X24019162Y-57901083D01*
X23880090Y-57684959D01*
X23667890Y-57539969D01*
X23416000Y-57488960D01*
X21384000Y-57488960D01*
X21148683Y-57533238D01*
X20932559Y-57672310D01*
X20787569Y-57884510D01*
X20736560Y-58136400D01*
X20710000Y-58136400D01*
X20710000Y-56101532D01*
X21123587Y-56273268D01*
X21654086Y-56273731D01*
X22144380Y-56071146D01*
X22519827Y-55696353D01*
X22723268Y-55206413D01*
X22723270Y-55204086D01*
X27676269Y-55204086D01*
X27878854Y-55694380D01*
X28253647Y-56069827D01*
X28743587Y-56273268D01*
X29274086Y-56273731D01*
X29764380Y-56071146D01*
X30139827Y-55696353D01*
X30343268Y-55206413D01*
X30343731Y-54675914D01*
X30141146Y-54185620D01*
X29766353Y-53810173D01*
X29276413Y-53606732D01*
X28745914Y-53606269D01*
X28255620Y-53808854D01*
X27880173Y-54183647D01*
X27676732Y-54673587D01*
X27676269Y-55204086D01*
X22723270Y-55204086D01*
X22723731Y-54675914D01*
X22521146Y-54185620D01*
X22146353Y-53810173D01*
X21656413Y-53606732D01*
X21125914Y-53606269D01*
X20710000Y-53778121D01*
X20710000Y-51034351D01*
X21197480Y-51205927D01*
X21727199Y-51177148D01*
X22082929Y-51029800D01*
X22144583Y-50794188D01*
X28255417Y-50794188D01*
X28317071Y-51029800D01*
X28817480Y-51205927D01*
X29347199Y-51177148D01*
X29702929Y-51029800D01*
X29764583Y-50794188D01*
X29010000Y-50039605D01*
X28255417Y-50794188D01*
X22144583Y-50794188D01*
X21390000Y-50039605D01*
X21375858Y-50053748D01*
X21196253Y-49874143D01*
X21210395Y-49860000D01*
X21569605Y-49860000D01*
X22324188Y-50614583D01*
X22559800Y-50552929D01*
X22735927Y-50052520D01*
X22715009Y-49667480D01*
X27664073Y-49667480D01*
X27692852Y-50197199D01*
X27840200Y-50552929D01*
X28075812Y-50614583D01*
X28830395Y-49860000D01*
X29189605Y-49860000D01*
X29944188Y-50614583D01*
X30179800Y-50552929D01*
X30355927Y-50052520D01*
X30327148Y-49522801D01*
X30179800Y-49167071D01*
X29944188Y-49105417D01*
X29189605Y-49860000D01*
X28830395Y-49860000D01*
X28075812Y-49105417D01*
X27840200Y-49167071D01*
X27664073Y-49667480D01*
X22715009Y-49667480D01*
X22707148Y-49522801D01*
X22559800Y-49167071D01*
X22324188Y-49105417D01*
X21569605Y-49860000D01*
X21210395Y-49860000D01*
X21196253Y-49845858D01*
X21375858Y-49666253D01*
X21390000Y-49680395D01*
X22144583Y-48925812D01*
X28255417Y-48925812D01*
X29010000Y-49680395D01*
X29764583Y-48925812D01*
X29702929Y-48690200D01*
X29202520Y-48514073D01*
X28672801Y-48542852D01*
X28317071Y-48690200D01*
X28255417Y-48925812D01*
X22144583Y-48925812D01*
X22082929Y-48690200D01*
X21582520Y-48514073D01*
X21052801Y-48542852D01*
X20710000Y-48684845D01*
X20710000Y-47714351D01*
X21197480Y-47885927D01*
X21727199Y-47857148D01*
X22082929Y-47709800D01*
X22144583Y-47474188D01*
X28255417Y-47474188D01*
X28317071Y-47709800D01*
X28817480Y-47885927D01*
X29347199Y-47857148D01*
X29702929Y-47709800D01*
X29764583Y-47474188D01*
X29010000Y-46719605D01*
X28255417Y-47474188D01*
X22144583Y-47474188D01*
X21390000Y-46719605D01*
X21375858Y-46733748D01*
X21196253Y-46554143D01*
X21210395Y-46540000D01*
X21569605Y-46540000D01*
X22324188Y-47294583D01*
X22559800Y-47232929D01*
X22735927Y-46732520D01*
X22715009Y-46347480D01*
X27664073Y-46347480D01*
X27692852Y-46877199D01*
X27840200Y-47232929D01*
X28075812Y-47294583D01*
X28830395Y-46540000D01*
X29189605Y-46540000D01*
X29944188Y-47294583D01*
X30179800Y-47232929D01*
X30355927Y-46732520D01*
X30327148Y-46202801D01*
X30179800Y-45847071D01*
X29944188Y-45785417D01*
X29189605Y-46540000D01*
X28830395Y-46540000D01*
X28075812Y-45785417D01*
X27840200Y-45847071D01*
X27664073Y-46347480D01*
X22715009Y-46347480D01*
X22707148Y-46202801D01*
X22559800Y-45847071D01*
X22324188Y-45785417D01*
X21569605Y-46540000D01*
X21210395Y-46540000D01*
X21196253Y-46525858D01*
X21375858Y-46346253D01*
X21390000Y-46360395D01*
X22144583Y-45605812D01*
X28255417Y-45605812D01*
X29010000Y-46360395D01*
X29764583Y-45605812D01*
X29702929Y-45370200D01*
X29202520Y-45194073D01*
X28672801Y-45222852D01*
X28317071Y-45370200D01*
X28255417Y-45605812D01*
X22144583Y-45605812D01*
X22082929Y-45370200D01*
X21582520Y-45194073D01*
X21052801Y-45222852D01*
X20710000Y-45364845D01*
X20710000Y-42621532D01*
X21123587Y-42793268D01*
X21654086Y-42793731D01*
X22144380Y-42591146D01*
X22519827Y-42216353D01*
X22723268Y-41726413D01*
X22723270Y-41724086D01*
X27676269Y-41724086D01*
X27878854Y-42214380D01*
X28253647Y-42589827D01*
X28743587Y-42793268D01*
X29274086Y-42793731D01*
X29764380Y-42591146D01*
X30139827Y-42216353D01*
X30343268Y-41726413D01*
X30343731Y-41195914D01*
X30141146Y-40705620D01*
X29766353Y-40330173D01*
X29276413Y-40126732D01*
X28745914Y-40126269D01*
X28255620Y-40328854D01*
X27880173Y-40703647D01*
X27676732Y-41193587D01*
X27676269Y-41724086D01*
X22723270Y-41724086D01*
X22723731Y-41195914D01*
X22521146Y-40705620D01*
X22146353Y-40330173D01*
X21656413Y-40126732D01*
X21125914Y-40126269D01*
X20710000Y-40298121D01*
X20710000Y-35508030D01*
X34029752Y-35508030D01*
X34055942Y-36103635D01*
X34233484Y-36532259D01*
X34486195Y-36614200D01*
X35360395Y-35740000D01*
X35719605Y-35740000D01*
X36593805Y-36614200D01*
X36846516Y-36532259D01*
X37050248Y-35971970D01*
X37024058Y-35376365D01*
X36846516Y-34947741D01*
X36593805Y-34865800D01*
X35719605Y-35740000D01*
X35360395Y-35740000D01*
X34486195Y-34865800D01*
X34233484Y-34947741D01*
X34029752Y-35508030D01*
X20710000Y-35508030D01*
X20710000Y-33373305D01*
X21314674Y-33373305D01*
X21601043Y-34066372D01*
X22130839Y-34597093D01*
X22823405Y-34884672D01*
X23573305Y-34885326D01*
X24266372Y-34598957D01*
X24612126Y-34253805D01*
X34665800Y-34253805D01*
X34735901Y-34470000D01*
X34665800Y-34686195D01*
X35540000Y-35560395D01*
X36414200Y-34686195D01*
X36344099Y-34470000D01*
X36414200Y-34253805D01*
X35540000Y-33379605D01*
X34665800Y-34253805D01*
X24612126Y-34253805D01*
X24797093Y-34069161D01*
X25084672Y-33376595D01*
X25085028Y-32968030D01*
X34029752Y-32968030D01*
X34055942Y-33563635D01*
X34233484Y-33992259D01*
X34486195Y-34074200D01*
X35360395Y-33200000D01*
X35719605Y-33200000D01*
X36593805Y-34074200D01*
X36846516Y-33992259D01*
X37050248Y-33431970D01*
X37024058Y-32836365D01*
X36846516Y-32407741D01*
X36593805Y-32325800D01*
X35719605Y-33200000D01*
X35360395Y-33200000D01*
X34486195Y-32325800D01*
X34233484Y-32407741D01*
X34029752Y-32968030D01*
X25085028Y-32968030D01*
X25085326Y-32626695D01*
X24886788Y-32146195D01*
X34665800Y-32146195D01*
X35540000Y-33020395D01*
X36414200Y-32146195D01*
X36332259Y-31893484D01*
X35771970Y-31689752D01*
X35176365Y-31715942D01*
X34747741Y-31893484D01*
X34665800Y-32146195D01*
X24886788Y-32146195D01*
X24798957Y-31933628D01*
X24269161Y-31402907D01*
X23576595Y-31115328D01*
X22826695Y-31114674D01*
X22133628Y-31401043D01*
X21602907Y-31930839D01*
X21315328Y-32623405D01*
X21314674Y-33373305D01*
X20710000Y-33373305D01*
X20710000Y-30710000D01*
X62306807Y-30710000D01*
X62187569Y-30884510D01*
G36*
X59464836Y-72287138D02*
X59411673Y-72340301D01*
X59315000Y-72573690D01*
X59315000Y-72914250D01*
X59473750Y-73073000D01*
X60323000Y-73073000D01*
X60323000Y-73067920D01*
X60336361Y-73076848D01*
X60597000Y-73128693D01*
X60597000Y-73327000D01*
X60577000Y-73327000D01*
X60577000Y-74176250D01*
X60735750Y-74335000D01*
X61076309Y-74335000D01*
X61129589Y-74312931D01*
X61300000Y-74347440D01*
X62300000Y-74347440D01*
X62390000Y-74330505D01*
X62390000Y-76318227D01*
X62134791Y-76195291D01*
X62119026Y-76192642D01*
X61887000Y-76313783D01*
X61887000Y-77673000D01*
X61907000Y-77673000D01*
X61907000Y-77927000D01*
X61887000Y-77927000D01*
X61887000Y-77947000D01*
X61633000Y-77947000D01*
X61633000Y-77927000D01*
X61613000Y-77927000D01*
X61613000Y-77673000D01*
X61633000Y-77673000D01*
X61633000Y-76313783D01*
X61400974Y-76192642D01*
X61385209Y-76195291D01*
X60857964Y-76449268D01*
X60486461Y-76865069D01*
X60279670Y-76555585D01*
X59793489Y-76230729D01*
X59220000Y-76116655D01*
X58646511Y-76230729D01*
X58160330Y-76555585D01*
X57950000Y-76870366D01*
X57739670Y-76555585D01*
X57253489Y-76230729D01*
X56680000Y-76116655D01*
X56251100Y-76201968D01*
X56251100Y-74337538D01*
X56300000Y-74347440D01*
X57300000Y-74347440D01*
X57474469Y-74314611D01*
X57523691Y-74335000D01*
X57864250Y-74335000D01*
X58023000Y-74176250D01*
X58023000Y-73327000D01*
X58277000Y-73327000D01*
X58277000Y-74176250D01*
X58435750Y-74335000D01*
X58776309Y-74335000D01*
X59009698Y-74238327D01*
X59188327Y-74059699D01*
X59285000Y-73826310D01*
X59285000Y-73485750D01*
X59315000Y-73485750D01*
X59315000Y-73826310D01*
X59411673Y-74059699D01*
X59590302Y-74238327D01*
X59823691Y-74335000D01*
X60164250Y-74335000D01*
X60323000Y-74176250D01*
X60323000Y-73327000D01*
X59473750Y-73327000D01*
X59315000Y-73485750D01*
X59285000Y-73485750D01*
X59126250Y-73327000D01*
X58277000Y-73327000D01*
X58023000Y-73327000D01*
X58003000Y-73327000D01*
X58003000Y-73073000D01*
X58023000Y-73073000D01*
X58023000Y-72223750D01*
X58277000Y-72223750D01*
X58277000Y-73073000D01*
X59126250Y-73073000D01*
X59285000Y-72914250D01*
X59285000Y-72573690D01*
X59188327Y-72340301D01*
X59009698Y-72161673D01*
X58776309Y-72065000D01*
X58435750Y-72065000D01*
X58277000Y-72223750D01*
X58023000Y-72223750D01*
X57864250Y-72065000D01*
X57560000Y-72065000D01*
X57560000Y-70382302D01*
X59464836Y-72287138D01*
X59464836Y-72287138D01*
G37*
X59464836Y-72287138D02*
X59411673Y-72340301D01*
X59315000Y-72573690D01*
X59315000Y-72914250D01*
X59473750Y-73073000D01*
X60323000Y-73073000D01*
X60323000Y-73067920D01*
X60336361Y-73076848D01*
X60597000Y-73128693D01*
X60597000Y-73327000D01*
X60577000Y-73327000D01*
X60577000Y-74176250D01*
X60735750Y-74335000D01*
X61076309Y-74335000D01*
X61129589Y-74312931D01*
X61300000Y-74347440D01*
X62300000Y-74347440D01*
X62390000Y-74330505D01*
X62390000Y-76318227D01*
X62134791Y-76195291D01*
X62119026Y-76192642D01*
X61887000Y-76313783D01*
X61887000Y-77673000D01*
X61907000Y-77673000D01*
X61907000Y-77927000D01*
X61887000Y-77927000D01*
X61887000Y-77947000D01*
X61633000Y-77947000D01*
X61633000Y-77927000D01*
X61613000Y-77927000D01*
X61613000Y-77673000D01*
X61633000Y-77673000D01*
X61633000Y-76313783D01*
X61400974Y-76192642D01*
X61385209Y-76195291D01*
X60857964Y-76449268D01*
X60486461Y-76865069D01*
X60279670Y-76555585D01*
X59793489Y-76230729D01*
X59220000Y-76116655D01*
X58646511Y-76230729D01*
X58160330Y-76555585D01*
X57950000Y-76870366D01*
X57739670Y-76555585D01*
X57253489Y-76230729D01*
X56680000Y-76116655D01*
X56251100Y-76201968D01*
X56251100Y-74337538D01*
X56300000Y-74347440D01*
X57300000Y-74347440D01*
X57474469Y-74314611D01*
X57523691Y-74335000D01*
X57864250Y-74335000D01*
X58023000Y-74176250D01*
X58023000Y-73327000D01*
X58277000Y-73327000D01*
X58277000Y-74176250D01*
X58435750Y-74335000D01*
X58776309Y-74335000D01*
X59009698Y-74238327D01*
X59188327Y-74059699D01*
X59285000Y-73826310D01*
X59285000Y-73485750D01*
X59315000Y-73485750D01*
X59315000Y-73826310D01*
X59411673Y-74059699D01*
X59590302Y-74238327D01*
X59823691Y-74335000D01*
X60164250Y-74335000D01*
X60323000Y-74176250D01*
X60323000Y-73327000D01*
X59473750Y-73327000D01*
X59315000Y-73485750D01*
X59285000Y-73485750D01*
X59126250Y-73327000D01*
X58277000Y-73327000D01*
X58023000Y-73327000D01*
X58003000Y-73327000D01*
X58003000Y-73073000D01*
X58023000Y-73073000D01*
X58023000Y-72223750D01*
X58277000Y-72223750D01*
X58277000Y-73073000D01*
X59126250Y-73073000D01*
X59285000Y-72914250D01*
X59285000Y-72573690D01*
X59188327Y-72340301D01*
X59009698Y-72161673D01*
X58776309Y-72065000D01*
X58435750Y-72065000D01*
X58277000Y-72223750D01*
X58023000Y-72223750D01*
X57864250Y-72065000D01*
X57560000Y-72065000D01*
X57560000Y-70382302D01*
X59464836Y-72287138D01*
G36*
X53526691Y-45639405D02*
X53272276Y-45851882D01*
X53056602Y-46263854D01*
X53056197Y-46290256D01*
X53181639Y-46473000D01*
X54773000Y-46473000D01*
X54773000Y-46453000D01*
X55027000Y-46453000D01*
X55027000Y-46473000D01*
X55047000Y-46473000D01*
X55047000Y-46727000D01*
X55027000Y-46727000D01*
X55027000Y-47785000D01*
X55715400Y-47785000D01*
X55715400Y-48751398D01*
X55641599Y-48825199D01*
X55476852Y-49071761D01*
X55419000Y-49362600D01*
X55419000Y-50452800D01*
X55476852Y-50743639D01*
X55540321Y-50838628D01*
X55540238Y-50934367D01*
X55682283Y-51278143D01*
X55945073Y-51541392D01*
X56288601Y-51684038D01*
X56417700Y-51684150D01*
X56417700Y-59818037D01*
X56385508Y-59850173D01*
X56242862Y-60193701D01*
X56242538Y-60565667D01*
X56384583Y-60909443D01*
X56647373Y-61172692D01*
X56990901Y-61315338D01*
X57362867Y-61315662D01*
X57706643Y-61173617D01*
X57969892Y-60910827D01*
X58112538Y-60567299D01*
X58112862Y-60195333D01*
X58078033Y-60111040D01*
X59263600Y-60111040D01*
X59448021Y-60076339D01*
X59577101Y-60129938D01*
X59949067Y-60130262D01*
X60189460Y-60030934D01*
X59710197Y-60510197D01*
X59683006Y-60550590D01*
X59673000Y-60600000D01*
X59673000Y-60765000D01*
X59448690Y-60765000D01*
X59215301Y-60861673D01*
X59036673Y-61040302D01*
X58940000Y-61273691D01*
X58940000Y-61864250D01*
X59098750Y-62023000D01*
X59673000Y-62023000D01*
X59673000Y-62277000D01*
X59098750Y-62277000D01*
X58940000Y-62435750D01*
X58940000Y-63026309D01*
X59036673Y-63259698D01*
X59177910Y-63400936D01*
X59123559Y-63435910D01*
X58978569Y-63648110D01*
X58929585Y-63890000D01*
X58722188Y-63890000D01*
X58806658Y-63812607D01*
X58797164Y-63738836D01*
X58628876Y-63465125D01*
X58368654Y-63276649D01*
X58056113Y-63202103D01*
X57927000Y-63366117D01*
X57927000Y-63865000D01*
X57797440Y-63865000D01*
X57797440Y-63650000D01*
X57753162Y-63414683D01*
X57614090Y-63198559D01*
X57585000Y-63178683D01*
X57585000Y-62754723D01*
X57523342Y-62444749D01*
X57347756Y-62181967D01*
X57084974Y-62006381D01*
X57060086Y-62001430D01*
X57060162Y-61913633D01*
X56918117Y-61569857D01*
X56655327Y-61306608D01*
X56311799Y-61163962D01*
X55939833Y-61163638D01*
X55596057Y-61305683D01*
X55585000Y-61316721D01*
X55585000Y-56350300D01*
X55527148Y-56059461D01*
X55362401Y-55812899D01*
X51256373Y-51706871D01*
X51396431Y-51501890D01*
X51403191Y-51468510D01*
X51461673Y-51609699D01*
X51640302Y-51788327D01*
X51873691Y-51885000D01*
X52464250Y-51885000D01*
X52623000Y-51726250D01*
X52623000Y-50727000D01*
X52877000Y-50727000D01*
X52877000Y-51726250D01*
X53035750Y-51885000D01*
X53626309Y-51885000D01*
X53859698Y-51788327D01*
X54038327Y-51609699D01*
X54135000Y-51376310D01*
X54135000Y-50885750D01*
X53976250Y-50727000D01*
X52877000Y-50727000D01*
X52623000Y-50727000D01*
X52603000Y-50727000D01*
X52603000Y-50473000D01*
X52623000Y-50473000D01*
X52623000Y-49473750D01*
X52877000Y-49473750D01*
X52877000Y-50473000D01*
X53976250Y-50473000D01*
X54135000Y-50314250D01*
X54135000Y-49823690D01*
X54038327Y-49590301D01*
X53859698Y-49411673D01*
X53626309Y-49315000D01*
X53035750Y-49315000D01*
X52877000Y-49473750D01*
X52623000Y-49473750D01*
X52464250Y-49315000D01*
X51873691Y-49315000D01*
X51640302Y-49411673D01*
X51461673Y-49590301D01*
X51405346Y-49726287D01*
X51403162Y-49714683D01*
X51264090Y-49498559D01*
X51051890Y-49353569D01*
X50810000Y-49304585D01*
X50810000Y-48089502D01*
X51989758Y-46909744D01*
X53056197Y-46909744D01*
X53056602Y-46936146D01*
X53272276Y-47348118D01*
X53629187Y-47646196D01*
X54073000Y-47785000D01*
X54773000Y-47785000D01*
X54773000Y-46727000D01*
X53181639Y-46727000D01*
X53056197Y-46909744D01*
X51989758Y-46909744D01*
X53366879Y-45532623D01*
X53526691Y-45639405D01*
X53526691Y-45639405D01*
G37*
X53526691Y-45639405D02*
X53272276Y-45851882D01*
X53056602Y-46263854D01*
X53056197Y-46290256D01*
X53181639Y-46473000D01*
X54773000Y-46473000D01*
X54773000Y-46453000D01*
X55027000Y-46453000D01*
X55027000Y-46473000D01*
X55047000Y-46473000D01*
X55047000Y-46727000D01*
X55027000Y-46727000D01*
X55027000Y-47785000D01*
X55715400Y-47785000D01*
X55715400Y-48751398D01*
X55641599Y-48825199D01*
X55476852Y-49071761D01*
X55419000Y-49362600D01*
X55419000Y-50452800D01*
X55476852Y-50743639D01*
X55540321Y-50838628D01*
X55540238Y-50934367D01*
X55682283Y-51278143D01*
X55945073Y-51541392D01*
X56288601Y-51684038D01*
X56417700Y-51684150D01*
X56417700Y-59818037D01*
X56385508Y-59850173D01*
X56242862Y-60193701D01*
X56242538Y-60565667D01*
X56384583Y-60909443D01*
X56647373Y-61172692D01*
X56990901Y-61315338D01*
X57362867Y-61315662D01*
X57706643Y-61173617D01*
X57969892Y-60910827D01*
X58112538Y-60567299D01*
X58112862Y-60195333D01*
X58078033Y-60111040D01*
X59263600Y-60111040D01*
X59448021Y-60076339D01*
X59577101Y-60129938D01*
X59949067Y-60130262D01*
X60189460Y-60030934D01*
X59710197Y-60510197D01*
X59683006Y-60550590D01*
X59673000Y-60600000D01*
X59673000Y-60765000D01*
X59448690Y-60765000D01*
X59215301Y-60861673D01*
X59036673Y-61040302D01*
X58940000Y-61273691D01*
X58940000Y-61864250D01*
X59098750Y-62023000D01*
X59673000Y-62023000D01*
X59673000Y-62277000D01*
X59098750Y-62277000D01*
X58940000Y-62435750D01*
X58940000Y-63026309D01*
X59036673Y-63259698D01*
X59177910Y-63400936D01*
X59123559Y-63435910D01*
X58978569Y-63648110D01*
X58929585Y-63890000D01*
X58722188Y-63890000D01*
X58806658Y-63812607D01*
X58797164Y-63738836D01*
X58628876Y-63465125D01*
X58368654Y-63276649D01*
X58056113Y-63202103D01*
X57927000Y-63366117D01*
X57927000Y-63865000D01*
X57797440Y-63865000D01*
X57797440Y-63650000D01*
X57753162Y-63414683D01*
X57614090Y-63198559D01*
X57585000Y-63178683D01*
X57585000Y-62754723D01*
X57523342Y-62444749D01*
X57347756Y-62181967D01*
X57084974Y-62006381D01*
X57060086Y-62001430D01*
X57060162Y-61913633D01*
X56918117Y-61569857D01*
X56655327Y-61306608D01*
X56311799Y-61163962D01*
X55939833Y-61163638D01*
X55596057Y-61305683D01*
X55585000Y-61316721D01*
X55585000Y-56350300D01*
X55527148Y-56059461D01*
X55362401Y-55812899D01*
X51256373Y-51706871D01*
X51396431Y-51501890D01*
X51403191Y-51468510D01*
X51461673Y-51609699D01*
X51640302Y-51788327D01*
X51873691Y-51885000D01*
X52464250Y-51885000D01*
X52623000Y-51726250D01*
X52623000Y-50727000D01*
X52877000Y-50727000D01*
X52877000Y-51726250D01*
X53035750Y-51885000D01*
X53626309Y-51885000D01*
X53859698Y-51788327D01*
X54038327Y-51609699D01*
X54135000Y-51376310D01*
X54135000Y-50885750D01*
X53976250Y-50727000D01*
X52877000Y-50727000D01*
X52623000Y-50727000D01*
X52603000Y-50727000D01*
X52603000Y-50473000D01*
X52623000Y-50473000D01*
X52623000Y-49473750D01*
X52877000Y-49473750D01*
X52877000Y-50473000D01*
X53976250Y-50473000D01*
X54135000Y-50314250D01*
X54135000Y-49823690D01*
X54038327Y-49590301D01*
X53859698Y-49411673D01*
X53626309Y-49315000D01*
X53035750Y-49315000D01*
X52877000Y-49473750D01*
X52623000Y-49473750D01*
X52464250Y-49315000D01*
X51873691Y-49315000D01*
X51640302Y-49411673D01*
X51461673Y-49590301D01*
X51405346Y-49726287D01*
X51403162Y-49714683D01*
X51264090Y-49498559D01*
X51051890Y-49353569D01*
X50810000Y-49304585D01*
X50810000Y-48089502D01*
X51989758Y-46909744D01*
X53056197Y-46909744D01*
X53056602Y-46936146D01*
X53272276Y-47348118D01*
X53629187Y-47646196D01*
X54073000Y-47785000D01*
X54773000Y-47785000D01*
X54773000Y-46727000D01*
X53181639Y-46727000D01*
X53056197Y-46909744D01*
X51989758Y-46909744D01*
X53366879Y-45532623D01*
X53526691Y-45639405D01*
G36*
X66555585Y-45759670D02*
X66865069Y-45966461D01*
X66449268Y-46337964D01*
X66195291Y-46865209D01*
X66192642Y-46880974D01*
X66313783Y-47113000D01*
X67673000Y-47113000D01*
X67673000Y-47093000D01*
X67927000Y-47093000D01*
X67927000Y-47113000D01*
X67947000Y-47113000D01*
X67947000Y-47367000D01*
X67927000Y-47367000D01*
X67927000Y-48580924D01*
X68161913Y-48725184D01*
X68714320Y-48531954D01*
X69150732Y-48142036D01*
X69290000Y-47852922D01*
X69290000Y-55073000D01*
X61200000Y-55073000D01*
X61153841Y-55081685D01*
X61111447Y-55108965D01*
X61083006Y-55150590D01*
X61073000Y-55200000D01*
X61073000Y-59147394D01*
X60599497Y-59620897D01*
X60698738Y-59381899D01*
X60699062Y-59009933D01*
X60557017Y-58666157D01*
X60523900Y-58632982D01*
X60523900Y-51432502D01*
X62126568Y-49829834D01*
X62230729Y-50353489D01*
X62555585Y-50839670D01*
X63041766Y-51164526D01*
X63395862Y-51234960D01*
X62682400Y-51234960D01*
X62447083Y-51279238D01*
X62230959Y-51418310D01*
X62085969Y-51630510D01*
X62034960Y-51882400D01*
X62034960Y-54117600D01*
X62079238Y-54352917D01*
X62218310Y-54569041D01*
X62430510Y-54714031D01*
X62682400Y-54765040D01*
X64917600Y-54765040D01*
X65152917Y-54720762D01*
X65369041Y-54581690D01*
X65514031Y-54369490D01*
X65565040Y-54117600D01*
X65565040Y-53604188D01*
X67045417Y-53604188D01*
X67107071Y-53839800D01*
X67607480Y-54015927D01*
X68137199Y-53987148D01*
X68492929Y-53839800D01*
X68554583Y-53604188D01*
X67800000Y-52849605D01*
X67045417Y-53604188D01*
X65565040Y-53604188D01*
X65565040Y-52477480D01*
X66454073Y-52477480D01*
X66482852Y-53007199D01*
X66630200Y-53362929D01*
X66865812Y-53424583D01*
X67620395Y-52670000D01*
X67979605Y-52670000D01*
X68734188Y-53424583D01*
X68969800Y-53362929D01*
X69145927Y-52862520D01*
X69117148Y-52332801D01*
X68969800Y-51977071D01*
X68734188Y-51915417D01*
X67979605Y-52670000D01*
X67620395Y-52670000D01*
X66865812Y-51915417D01*
X66630200Y-51977071D01*
X66454073Y-52477480D01*
X65565040Y-52477480D01*
X65565040Y-51882400D01*
X65520762Y-51647083D01*
X65381690Y-51430959D01*
X65169490Y-51285969D01*
X64917600Y-51234960D01*
X64204138Y-51234960D01*
X64558234Y-51164526D01*
X64708400Y-51064188D01*
X67045417Y-51064188D01*
X67107071Y-51299800D01*
X67368629Y-51391859D01*
X67107071Y-51500200D01*
X67045417Y-51735812D01*
X67800000Y-52490395D01*
X68554583Y-51735812D01*
X68492929Y-51500200D01*
X68231371Y-51408141D01*
X68492929Y-51299800D01*
X68554583Y-51064188D01*
X67800000Y-50309605D01*
X67045417Y-51064188D01*
X64708400Y-51064188D01*
X65044415Y-50839670D01*
X65369271Y-50353489D01*
X65452020Y-49937480D01*
X66454073Y-49937480D01*
X66482852Y-50467199D01*
X66630200Y-50822929D01*
X66865812Y-50884583D01*
X67620395Y-50130000D01*
X67979605Y-50130000D01*
X68734188Y-50884583D01*
X68969800Y-50822929D01*
X69145927Y-50322520D01*
X69117148Y-49792801D01*
X68969800Y-49437071D01*
X68734188Y-49375417D01*
X67979605Y-50130000D01*
X67620395Y-50130000D01*
X66865812Y-49375417D01*
X66630200Y-49437071D01*
X66454073Y-49937480D01*
X65452020Y-49937480D01*
X65483345Y-49780000D01*
X65369271Y-49206511D01*
X65362123Y-49195812D01*
X67045417Y-49195812D01*
X67800000Y-49950395D01*
X68554583Y-49195812D01*
X68492929Y-48960200D01*
X67992520Y-48784073D01*
X67462801Y-48812852D01*
X67107071Y-48960200D01*
X67045417Y-49195812D01*
X65362123Y-49195812D01*
X65044415Y-48720330D01*
X64729634Y-48510000D01*
X65044415Y-48299670D01*
X65369271Y-47813489D01*
X65411930Y-47599026D01*
X66192642Y-47599026D01*
X66195291Y-47614791D01*
X66449268Y-48142036D01*
X66885680Y-48531954D01*
X67438087Y-48725184D01*
X67673000Y-48580924D01*
X67673000Y-47367000D01*
X66313783Y-47367000D01*
X66192642Y-47599026D01*
X65411930Y-47599026D01*
X65483345Y-47240000D01*
X65369271Y-46666511D01*
X65238702Y-46471100D01*
X66313074Y-45396728D01*
X66555585Y-45759670D01*
X66555585Y-45759670D01*
G37*
X66555585Y-45759670D02*
X66865069Y-45966461D01*
X66449268Y-46337964D01*
X66195291Y-46865209D01*
X66192642Y-46880974D01*
X66313783Y-47113000D01*
X67673000Y-47113000D01*
X67673000Y-47093000D01*
X67927000Y-47093000D01*
X67927000Y-47113000D01*
X67947000Y-47113000D01*
X67947000Y-47367000D01*
X67927000Y-47367000D01*
X67927000Y-48580924D01*
X68161913Y-48725184D01*
X68714320Y-48531954D01*
X69150732Y-48142036D01*
X69290000Y-47852922D01*
X69290000Y-55073000D01*
X61200000Y-55073000D01*
X61153841Y-55081685D01*
X61111447Y-55108965D01*
X61083006Y-55150590D01*
X61073000Y-55200000D01*
X61073000Y-59147394D01*
X60599497Y-59620897D01*
X60698738Y-59381899D01*
X60699062Y-59009933D01*
X60557017Y-58666157D01*
X60523900Y-58632982D01*
X60523900Y-51432502D01*
X62126568Y-49829834D01*
X62230729Y-50353489D01*
X62555585Y-50839670D01*
X63041766Y-51164526D01*
X63395862Y-51234960D01*
X62682400Y-51234960D01*
X62447083Y-51279238D01*
X62230959Y-51418310D01*
X62085969Y-51630510D01*
X62034960Y-51882400D01*
X62034960Y-54117600D01*
X62079238Y-54352917D01*
X62218310Y-54569041D01*
X62430510Y-54714031D01*
X62682400Y-54765040D01*
X64917600Y-54765040D01*
X65152917Y-54720762D01*
X65369041Y-54581690D01*
X65514031Y-54369490D01*
X65565040Y-54117600D01*
X65565040Y-53604188D01*
X67045417Y-53604188D01*
X67107071Y-53839800D01*
X67607480Y-54015927D01*
X68137199Y-53987148D01*
X68492929Y-53839800D01*
X68554583Y-53604188D01*
X67800000Y-52849605D01*
X67045417Y-53604188D01*
X65565040Y-53604188D01*
X65565040Y-52477480D01*
X66454073Y-52477480D01*
X66482852Y-53007199D01*
X66630200Y-53362929D01*
X66865812Y-53424583D01*
X67620395Y-52670000D01*
X67979605Y-52670000D01*
X68734188Y-53424583D01*
X68969800Y-53362929D01*
X69145927Y-52862520D01*
X69117148Y-52332801D01*
X68969800Y-51977071D01*
X68734188Y-51915417D01*
X67979605Y-52670000D01*
X67620395Y-52670000D01*
X66865812Y-51915417D01*
X66630200Y-51977071D01*
X66454073Y-52477480D01*
X65565040Y-52477480D01*
X65565040Y-51882400D01*
X65520762Y-51647083D01*
X65381690Y-51430959D01*
X65169490Y-51285969D01*
X64917600Y-51234960D01*
X64204138Y-51234960D01*
X64558234Y-51164526D01*
X64708400Y-51064188D01*
X67045417Y-51064188D01*
X67107071Y-51299800D01*
X67368629Y-51391859D01*
X67107071Y-51500200D01*
X67045417Y-51735812D01*
X67800000Y-52490395D01*
X68554583Y-51735812D01*
X68492929Y-51500200D01*
X68231371Y-51408141D01*
X68492929Y-51299800D01*
X68554583Y-51064188D01*
X67800000Y-50309605D01*
X67045417Y-51064188D01*
X64708400Y-51064188D01*
X65044415Y-50839670D01*
X65369271Y-50353489D01*
X65452020Y-49937480D01*
X66454073Y-49937480D01*
X66482852Y-50467199D01*
X66630200Y-50822929D01*
X66865812Y-50884583D01*
X67620395Y-50130000D01*
X67979605Y-50130000D01*
X68734188Y-50884583D01*
X68969800Y-50822929D01*
X69145927Y-50322520D01*
X69117148Y-49792801D01*
X68969800Y-49437071D01*
X68734188Y-49375417D01*
X67979605Y-50130000D01*
X67620395Y-50130000D01*
X66865812Y-49375417D01*
X66630200Y-49437071D01*
X66454073Y-49937480D01*
X65452020Y-49937480D01*
X65483345Y-49780000D01*
X65369271Y-49206511D01*
X65362123Y-49195812D01*
X67045417Y-49195812D01*
X67800000Y-49950395D01*
X68554583Y-49195812D01*
X68492929Y-48960200D01*
X67992520Y-48784073D01*
X67462801Y-48812852D01*
X67107071Y-48960200D01*
X67045417Y-49195812D01*
X65362123Y-49195812D01*
X65044415Y-48720330D01*
X64729634Y-48510000D01*
X65044415Y-48299670D01*
X65369271Y-47813489D01*
X65411930Y-47599026D01*
X66192642Y-47599026D01*
X66195291Y-47614791D01*
X66449268Y-48142036D01*
X66885680Y-48531954D01*
X67438087Y-48725184D01*
X67673000Y-48580924D01*
X67673000Y-47367000D01*
X66313783Y-47367000D01*
X66192642Y-47599026D01*
X65411930Y-47599026D01*
X65483345Y-47240000D01*
X65369271Y-46666511D01*
X65238702Y-46471100D01*
X66313074Y-45396728D01*
X66555585Y-45759670D01*
M02*
