M48
;DRILL file {KiCad (2015-08-08 BZR 6073)-product} date Wed 19 Aug 2015 12:39:32 CEST
;FORMAT={-:-/ absolute / metric / decimal}
FMAT,2
METRIC,TZ
T1C0.400
T2C0.650
T3C0.800
T4C0.813
T5C1.016
T6C2.500
%
G90
G05
M71
T1
X33.481Y-59.733
X38.481Y-56.595
X48.345Y-65.
X49.097Y-43.71
X52.927Y-59.533
X53.691Y-62.05
X53.8Y-66.661
X53.998Y-62.873
X55.349Y-71.843
X56.125Y-62.099
X56.475Y-50.749
X56.804Y-49.622
X57.178Y-60.38
X59.764Y-59.195
X61.45Y-71.607
T2
X40.2Y-32.6
X40.2Y-34.6
X40.2Y-36.6
X40.2Y-38.6
X40.2Y-40.6
X40.2Y-42.6
X40.2Y-44.6
X40.2Y-46.6
X54.2Y-32.6
X54.2Y-34.6
X54.2Y-36.6
X54.2Y-38.6
X54.2Y-40.6
X54.2Y-42.6
X54.2Y-44.6
X54.2Y-46.6
T3
X31.Y-60.4
X31.Y-62.4
X31.Y-66.2
X31.Y-68.2
X40.Y-71.8
X40.Y-74.34
X47.62Y-71.8
X47.62Y-74.34
T4
X21.39Y-41.46
X21.39Y-46.54
X21.39Y-49.86
X21.39Y-54.94
X29.01Y-41.46
X29.01Y-46.54
X29.01Y-49.86
X29.01Y-54.94
X65.93Y-70.6
X67.8Y-50.13
X67.8Y-52.67
X68.47Y-70.6
T5
X22.4Y-59.
X22.4Y-61.54
X22.4Y-64.08
X26.2Y-58.9
X26.2Y-61.44
X26.2Y-63.98
X26.2Y-66.52
X26.2Y-69.06
X26.2Y-71.6
X35.54Y-33.2
X35.54Y-35.74
X35.54Y-38.28
X35.54Y-40.82
X35.54Y-43.36
X35.54Y-45.9
X35.54Y-48.44
X35.54Y-50.98
X35.54Y-53.52
X35.54Y-56.06
X35.54Y-58.6
X43.668Y-61.14
X46.208Y-61.14
X48.748Y-61.14
X51.288Y-61.14
X51.6Y-77.8
X54.14Y-77.8
X56.68Y-77.8
X58.4Y-33.2
X58.4Y-35.74
X58.4Y-38.28
X58.4Y-40.82
X58.4Y-43.36
X58.4Y-45.9
X58.4Y-48.44
X58.4Y-50.98
X58.4Y-53.52
X58.4Y-56.06
X58.4Y-58.6
X59.22Y-77.8
X61.76Y-77.8
X63.8Y-32.
X63.8Y-34.54
X63.8Y-37.08
X63.8Y-39.62
X63.8Y-42.16
X63.8Y-44.7
X63.8Y-47.24
X63.8Y-49.78
X63.8Y-53.
X67.8Y-32.
X67.8Y-34.54
X67.8Y-37.08
X67.8Y-39.62
X67.8Y-42.16
X67.8Y-44.7
X67.8Y-47.24
T6
X23.2Y-33.
X66.6Y-76.4
T0
M30
